M48
; DRILL file {KiCad 7.0.6} date Di 29 Aug 2023 18:11:49 CEST
; FORMAT={-:-/ absolute / metric / decimal}
; #@! TF.CreationDate,2023-08-29T18:11:49+02:00
; #@! TF.GenerationSoftware,Kicad,Pcbnew,7.0.6
; #@! TF.FileFunction,Plated,1,2,PTH
FMAT,2
METRIC
; #@! TA.AperFunction,Plated,PTH,ViaDrill
T1C0.400
; #@! TA.AperFunction,Plated,PTH,ComponentDrill
T2C0.762
; #@! TA.AperFunction,Plated,PTH,ComponentDrill
T3C0.800
; #@! TA.AperFunction,Plated,PTH,ComponentDrill
T4C1.000
; #@! TA.AperFunction,Plated,PTH,ComponentDrill
T5C1.100
; #@! TA.AperFunction,Plated,PTH,ComponentDrill
T6C1.500
; #@! TA.AperFunction,Plated,PTH,ComponentDrill
T7C2.200
; #@! TA.AperFunction,Plated,PTH,ComponentDrill
T8C4.000
%
G90
G05
T1
X222.25Y-65.405
X234.95Y-116.84
T2
X45.72Y-71.12
X45.72Y-109.22
X48.26Y-71.12
X48.26Y-109.22
X50.8Y-71.12
X50.8Y-109.22
X230.505Y-45.72
X230.505Y-48.26
X230.505Y-50.8
T3
X43.18Y-60.325
X44.45Y-114.935
X55.88Y-60.325
X57.15Y-114.935
X63.5Y-60.325
X64.77Y-114.935
X76.2Y-60.325
X77.47Y-114.935
X91.44Y-60.325
X92.71Y-114.935
X104.14Y-60.325
X105.41Y-114.935
X109.22Y-114.935
X111.76Y-60.325
X121.92Y-114.935
X124.46Y-60.325
X129.54Y-65.405
X129.54Y-67.945
X129.54Y-70.485
X129.54Y-73.025
X129.54Y-75.565
X129.54Y-78.105
X129.54Y-80.645
X129.54Y-83.185
X129.54Y-95.885
X129.54Y-98.425
X129.54Y-100.965
X129.54Y-103.505
X129.54Y-106.045
X129.54Y-108.585
X129.54Y-111.125
X129.54Y-113.665
X137.16Y-65.405
X137.16Y-67.945
X137.16Y-70.485
X137.16Y-73.025
X137.16Y-75.565
X137.16Y-78.105
X137.16Y-80.645
X137.16Y-83.185
X137.16Y-95.885
X137.16Y-98.425
X137.16Y-100.965
X137.16Y-103.505
X137.16Y-106.045
X137.16Y-108.585
X137.16Y-111.125
X137.16Y-113.665
X139.7Y-60.325
X141.605Y-114.935
X142.24Y-65.405
X142.24Y-69.215
X142.32Y-95.885
X142.32Y-100.33
X147.24Y-65.405
X147.24Y-69.215
X147.32Y-95.885
X147.32Y-100.33
X152.4Y-60.325
X154.305Y-114.935
X160.02Y-60.325
X161.29Y-114.935
X172.72Y-60.325
X173.99Y-114.935
X187.96Y-60.325
X187.96Y-114.3
X200.66Y-60.325
X200.66Y-114.3
X208.28Y-60.325
X209.55Y-114.3
X220.98Y-60.325
X222.25Y-114.3
T4
X58.46Y-81.65
X58.46Y-96.15
X60.96Y-96.15
X63.46Y-81.65
X63.46Y-96.15
X106.72Y-81.65
X106.72Y-96.15
X109.22Y-96.15
X111.72Y-81.65
X111.72Y-96.15
X154.98Y-81.65
X154.98Y-96.15
X157.48Y-96.15
X159.98Y-81.65
X159.98Y-96.15
X203.24Y-81.65
X203.24Y-96.15
X205.74Y-96.15
X208.24Y-81.65
X208.24Y-96.15
X232.49Y-131.445
X236.935Y-120.015
X237.49Y-131.445
X241.935Y-120.015
T5
X224.79Y-74.93
X224.79Y-77.47
X224.79Y-80.01
X224.79Y-82.55
X224.79Y-85.09
X224.79Y-87.63
X224.79Y-90.17
X224.79Y-92.71
X224.79Y-95.25
X224.79Y-97.79
X224.79Y-100.33
X224.79Y-102.87
X240.03Y-74.93
X240.03Y-77.47
X240.03Y-80.01
X240.03Y-82.55
X240.03Y-85.09
X240.03Y-87.63
X240.03Y-90.17
X240.03Y-92.71
X240.03Y-95.25
X240.03Y-97.79
X240.03Y-100.33
X240.03Y-102.87
T6
X46.99Y-48.26
X46.99Y-124.46
X53.34Y-45.72
X53.34Y-121.92
X67.31Y-48.26
X67.31Y-124.46
X73.66Y-45.72
X73.66Y-121.92
X95.25Y-48.26
X95.25Y-124.46
X101.6Y-45.72
X101.6Y-121.92
X115.57Y-48.26
X115.57Y-124.46
X121.92Y-45.72
X121.92Y-121.92
X143.51Y-48.26
X143.51Y-124.46
X149.86Y-45.72
X149.86Y-121.92
X163.83Y-48.26
X163.83Y-124.46
X170.18Y-45.72
X170.18Y-121.92
X191.77Y-48.26
X191.77Y-124.46
X198.12Y-45.72
X198.12Y-121.92
X212.09Y-48.26
X212.09Y-124.46
X218.44Y-45.72
X218.44Y-121.92
T7
X55.36Y-88.65
X66.56Y-88.65
X103.62Y-88.65
X114.82Y-88.65
X151.88Y-88.65
X163.08Y-88.65
X200.14Y-88.65
X211.34Y-88.65
T8
X50.8Y-50.8
X50.8Y-127.0
X71.12Y-50.8
X71.12Y-127.0
X99.06Y-50.8
X99.06Y-127.0
X119.38Y-50.8
X119.38Y-127.0
X147.32Y-50.8
X147.32Y-127.0
X167.64Y-50.8
X167.64Y-127.0
X195.58Y-50.8
X195.58Y-127.0
X215.9Y-50.8
X215.9Y-127.0
T0
M30
