G04 #@! TF.GenerationSoftware,KiCad,Pcbnew,7.0.6*
G04 #@! TF.CreationDate,2023-08-29T18:11:44+02:00*
G04 #@! TF.ProjectId,photo console,70686f74-6f20-4636-9f6e-736f6c652e6b,rev?*
G04 #@! TF.SameCoordinates,Original*
G04 #@! TF.FileFunction,Legend,Top*
G04 #@! TF.FilePolarity,Positive*
%FSLAX46Y46*%
G04 Gerber Fmt 4.6, Leading zero omitted, Abs format (unit mm)*
G04 Created by KiCad (PCBNEW 7.0.6) date 2023-08-29 18:11:44*
%MOMM*%
%LPD*%
G01*
G04 APERTURE LIST*
%ADD10C,0.150000*%
%ADD11C,0.100000*%
%ADD12C,0.120000*%
%ADD13R,1.600000X1.600000*%
%ADD14C,1.600000*%
%ADD15C,1.700000*%
%ADD16C,4.000000*%
%ADD17C,2.200000*%
%ADD18O,1.600000X1.600000*%
%ADD19C,1.524000*%
%ADD20R,2.000000X2.000000*%
%ADD21C,2.000000*%
%ADD22C,2.800000*%
G04 APERTURE END LIST*
D10*
X172722050Y-88650000D02*
G75*
G03*
X172722050Y-88650000I-15242050J0D01*
G01*
X124462050Y-88650000D02*
G75*
G03*
X124462050Y-88650000I-15242050J0D01*
G01*
X76202050Y-88650000D02*
G75*
G03*
X76202050Y-88650000I-15242050J0D01*
G01*
X220982050Y-88650000D02*
G75*
G03*
X220982050Y-88650000I-15242050J0D01*
G01*
X230206779Y-93183152D02*
X230206779Y-94183152D01*
X230206779Y-93230771D02*
X230302017Y-93183152D01*
X230302017Y-93183152D02*
X230492493Y-93183152D01*
X230492493Y-93183152D02*
X230587731Y-93230771D01*
X230587731Y-93230771D02*
X230635350Y-93278390D01*
X230635350Y-93278390D02*
X230682969Y-93373628D01*
X230682969Y-93373628D02*
X230682969Y-93659342D01*
X230682969Y-93659342D02*
X230635350Y-93754580D01*
X230635350Y-93754580D02*
X230587731Y-93802200D01*
X230587731Y-93802200D02*
X230492493Y-93849819D01*
X230492493Y-93849819D02*
X230302017Y-93849819D01*
X230302017Y-93849819D02*
X230206779Y-93802200D01*
X231111541Y-93849819D02*
X231111541Y-93183152D01*
X231111541Y-93373628D02*
X231159160Y-93278390D01*
X231159160Y-93278390D02*
X231206779Y-93230771D01*
X231206779Y-93230771D02*
X231302017Y-93183152D01*
X231302017Y-93183152D02*
X231397255Y-93183152D01*
X231873446Y-93849819D02*
X231778208Y-93802200D01*
X231778208Y-93802200D02*
X231730589Y-93754580D01*
X231730589Y-93754580D02*
X231682970Y-93659342D01*
X231682970Y-93659342D02*
X231682970Y-93373628D01*
X231682970Y-93373628D02*
X231730589Y-93278390D01*
X231730589Y-93278390D02*
X231778208Y-93230771D01*
X231778208Y-93230771D02*
X231873446Y-93183152D01*
X231873446Y-93183152D02*
X232016303Y-93183152D01*
X232016303Y-93183152D02*
X232111541Y-93230771D01*
X232111541Y-93230771D02*
X232159160Y-93278390D01*
X232159160Y-93278390D02*
X232206779Y-93373628D01*
X232206779Y-93373628D02*
X232206779Y-93659342D01*
X232206779Y-93659342D02*
X232159160Y-93754580D01*
X232159160Y-93754580D02*
X232111541Y-93802200D01*
X232111541Y-93802200D02*
X232016303Y-93849819D01*
X232016303Y-93849819D02*
X231873446Y-93849819D01*
X233397256Y-93849819D02*
X233397256Y-93183152D01*
X233397256Y-93278390D02*
X233444875Y-93230771D01*
X233444875Y-93230771D02*
X233540113Y-93183152D01*
X233540113Y-93183152D02*
X233682970Y-93183152D01*
X233682970Y-93183152D02*
X233778208Y-93230771D01*
X233778208Y-93230771D02*
X233825827Y-93326009D01*
X233825827Y-93326009D02*
X233825827Y-93849819D01*
X233825827Y-93326009D02*
X233873446Y-93230771D01*
X233873446Y-93230771D02*
X233968684Y-93183152D01*
X233968684Y-93183152D02*
X234111541Y-93183152D01*
X234111541Y-93183152D02*
X234206780Y-93230771D01*
X234206780Y-93230771D02*
X234254399Y-93326009D01*
X234254399Y-93326009D02*
X234254399Y-93849819D01*
X234730589Y-93849819D02*
X234730589Y-93183152D01*
X234730589Y-92849819D02*
X234682970Y-92897438D01*
X234682970Y-92897438D02*
X234730589Y-92945057D01*
X234730589Y-92945057D02*
X234778208Y-92897438D01*
X234778208Y-92897438D02*
X234730589Y-92849819D01*
X234730589Y-92849819D02*
X234730589Y-92945057D01*
X235635350Y-93802200D02*
X235540112Y-93849819D01*
X235540112Y-93849819D02*
X235349636Y-93849819D01*
X235349636Y-93849819D02*
X235254398Y-93802200D01*
X235254398Y-93802200D02*
X235206779Y-93754580D01*
X235206779Y-93754580D02*
X235159160Y-93659342D01*
X235159160Y-93659342D02*
X235159160Y-93373628D01*
X235159160Y-93373628D02*
X235206779Y-93278390D01*
X235206779Y-93278390D02*
X235254398Y-93230771D01*
X235254398Y-93230771D02*
X235349636Y-93183152D01*
X235349636Y-93183152D02*
X235540112Y-93183152D01*
X235540112Y-93183152D02*
X235635350Y-93230771D01*
X236063922Y-93849819D02*
X236063922Y-93183152D01*
X236063922Y-93373628D02*
X236111541Y-93278390D01*
X236111541Y-93278390D02*
X236159160Y-93230771D01*
X236159160Y-93230771D02*
X236254398Y-93183152D01*
X236254398Y-93183152D02*
X236349636Y-93183152D01*
X236825827Y-93849819D02*
X236730589Y-93802200D01*
X236730589Y-93802200D02*
X236682970Y-93754580D01*
X236682970Y-93754580D02*
X236635351Y-93659342D01*
X236635351Y-93659342D02*
X236635351Y-93373628D01*
X236635351Y-93373628D02*
X236682970Y-93278390D01*
X236682970Y-93278390D02*
X236730589Y-93230771D01*
X236730589Y-93230771D02*
X236825827Y-93183152D01*
X236825827Y-93183152D02*
X236968684Y-93183152D01*
X236968684Y-93183152D02*
X237063922Y-93230771D01*
X237063922Y-93230771D02*
X237111541Y-93278390D01*
X237111541Y-93278390D02*
X237159160Y-93373628D01*
X237159160Y-93373628D02*
X237159160Y-93659342D01*
X237159160Y-93659342D02*
X237111541Y-93754580D01*
X237111541Y-93754580D02*
X237063922Y-93802200D01*
X237063922Y-93802200D02*
X236968684Y-93849819D01*
X236968684Y-93849819D02*
X236825827Y-93849819D01*
X120891541Y-64229819D02*
X121558207Y-64229819D01*
X121558207Y-64229819D02*
X121129636Y-65229819D01*
X122367731Y-64563152D02*
X122367731Y-65229819D01*
X122129636Y-64182200D02*
X121891541Y-64896485D01*
X121891541Y-64896485D02*
X122510588Y-64896485D01*
X122891541Y-65229819D02*
X122891541Y-64229819D01*
X122891541Y-64706009D02*
X123462969Y-64706009D01*
X123462969Y-65229819D02*
X123462969Y-64229819D01*
X124510588Y-65134580D02*
X124462969Y-65182200D01*
X124462969Y-65182200D02*
X124320112Y-65229819D01*
X124320112Y-65229819D02*
X124224874Y-65229819D01*
X124224874Y-65229819D02*
X124082017Y-65182200D01*
X124082017Y-65182200D02*
X123986779Y-65086961D01*
X123986779Y-65086961D02*
X123939160Y-64991723D01*
X123939160Y-64991723D02*
X123891541Y-64801247D01*
X123891541Y-64801247D02*
X123891541Y-64658390D01*
X123891541Y-64658390D02*
X123939160Y-64467914D01*
X123939160Y-64467914D02*
X123986779Y-64372676D01*
X123986779Y-64372676D02*
X124082017Y-64277438D01*
X124082017Y-64277438D02*
X124224874Y-64229819D01*
X124224874Y-64229819D02*
X124320112Y-64229819D01*
X124320112Y-64229819D02*
X124462969Y-64277438D01*
X124462969Y-64277438D02*
X124510588Y-64325057D01*
X125462969Y-65229819D02*
X124891541Y-65229819D01*
X125177255Y-65229819D02*
X125177255Y-64229819D01*
X125177255Y-64229819D02*
X125082017Y-64372676D01*
X125082017Y-64372676D02*
X124986779Y-64467914D01*
X124986779Y-64467914D02*
X124891541Y-64515533D01*
X126320112Y-64229819D02*
X126129636Y-64229819D01*
X126129636Y-64229819D02*
X126034398Y-64277438D01*
X126034398Y-64277438D02*
X125986779Y-64325057D01*
X125986779Y-64325057D02*
X125891541Y-64467914D01*
X125891541Y-64467914D02*
X125843922Y-64658390D01*
X125843922Y-64658390D02*
X125843922Y-65039342D01*
X125843922Y-65039342D02*
X125891541Y-65134580D01*
X125891541Y-65134580D02*
X125939160Y-65182200D01*
X125939160Y-65182200D02*
X126034398Y-65229819D01*
X126034398Y-65229819D02*
X126224874Y-65229819D01*
X126224874Y-65229819D02*
X126320112Y-65182200D01*
X126320112Y-65182200D02*
X126367731Y-65134580D01*
X126367731Y-65134580D02*
X126415350Y-65039342D01*
X126415350Y-65039342D02*
X126415350Y-64801247D01*
X126415350Y-64801247D02*
X126367731Y-64706009D01*
X126367731Y-64706009D02*
X126320112Y-64658390D01*
X126320112Y-64658390D02*
X126224874Y-64610771D01*
X126224874Y-64610771D02*
X126034398Y-64610771D01*
X126034398Y-64610771D02*
X125939160Y-64658390D01*
X125939160Y-64658390D02*
X125891541Y-64706009D01*
X125891541Y-64706009D02*
X125843922Y-64801247D01*
X127320112Y-64229819D02*
X126843922Y-64229819D01*
X126843922Y-64229819D02*
X126796303Y-64706009D01*
X126796303Y-64706009D02*
X126843922Y-64658390D01*
X126843922Y-64658390D02*
X126939160Y-64610771D01*
X126939160Y-64610771D02*
X127177255Y-64610771D01*
X127177255Y-64610771D02*
X127272493Y-64658390D01*
X127272493Y-64658390D02*
X127320112Y-64706009D01*
X127320112Y-64706009D02*
X127367731Y-64801247D01*
X127367731Y-64801247D02*
X127367731Y-65039342D01*
X127367731Y-65039342D02*
X127320112Y-65134580D01*
X127320112Y-65134580D02*
X127272493Y-65182200D01*
X127272493Y-65182200D02*
X127177255Y-65229819D01*
X127177255Y-65229819D02*
X126939160Y-65229819D01*
X126939160Y-65229819D02*
X126843922Y-65182200D01*
X126843922Y-65182200D02*
X126796303Y-65134580D01*
X120939160Y-66792200D02*
X121034398Y-66839819D01*
X121034398Y-66839819D02*
X121224874Y-66839819D01*
X121224874Y-66839819D02*
X121320112Y-66792200D01*
X121320112Y-66792200D02*
X121367731Y-66696961D01*
X121367731Y-66696961D02*
X121367731Y-66649342D01*
X121367731Y-66649342D02*
X121320112Y-66554104D01*
X121320112Y-66554104D02*
X121224874Y-66506485D01*
X121224874Y-66506485D02*
X121082017Y-66506485D01*
X121082017Y-66506485D02*
X120986779Y-66458866D01*
X120986779Y-66458866D02*
X120939160Y-66363628D01*
X120939160Y-66363628D02*
X120939160Y-66316009D01*
X120939160Y-66316009D02*
X120986779Y-66220771D01*
X120986779Y-66220771D02*
X121082017Y-66173152D01*
X121082017Y-66173152D02*
X121224874Y-66173152D01*
X121224874Y-66173152D02*
X121320112Y-66220771D01*
X121796303Y-66839819D02*
X121796303Y-65839819D01*
X122224874Y-66839819D02*
X122224874Y-66316009D01*
X122224874Y-66316009D02*
X122177255Y-66220771D01*
X122177255Y-66220771D02*
X122082017Y-66173152D01*
X122082017Y-66173152D02*
X121939160Y-66173152D01*
X121939160Y-66173152D02*
X121843922Y-66220771D01*
X121843922Y-66220771D02*
X121796303Y-66268390D01*
X122701065Y-66839819D02*
X122701065Y-66173152D01*
X122701065Y-65839819D02*
X122653446Y-65887438D01*
X122653446Y-65887438D02*
X122701065Y-65935057D01*
X122701065Y-65935057D02*
X122748684Y-65887438D01*
X122748684Y-65887438D02*
X122701065Y-65839819D01*
X122701065Y-65839819D02*
X122701065Y-65935057D01*
X123034398Y-66173152D02*
X123415350Y-66173152D01*
X123177255Y-66839819D02*
X123177255Y-65982676D01*
X123177255Y-65982676D02*
X123224874Y-65887438D01*
X123224874Y-65887438D02*
X123320112Y-65839819D01*
X123320112Y-65839819D02*
X123415350Y-65839819D01*
X123605827Y-66173152D02*
X123986779Y-66173152D01*
X123748684Y-65839819D02*
X123748684Y-66696961D01*
X123748684Y-66696961D02*
X123796303Y-66792200D01*
X123796303Y-66792200D02*
X123891541Y-66839819D01*
X123891541Y-66839819D02*
X123986779Y-66839819D01*
X120986779Y-68449819D02*
X120986779Y-67783152D01*
X120986779Y-67973628D02*
X121034398Y-67878390D01*
X121034398Y-67878390D02*
X121082017Y-67830771D01*
X121082017Y-67830771D02*
X121177255Y-67783152D01*
X121177255Y-67783152D02*
X121272493Y-67783152D01*
X121986779Y-68402200D02*
X121891541Y-68449819D01*
X121891541Y-68449819D02*
X121701065Y-68449819D01*
X121701065Y-68449819D02*
X121605827Y-68402200D01*
X121605827Y-68402200D02*
X121558208Y-68306961D01*
X121558208Y-68306961D02*
X121558208Y-67926009D01*
X121558208Y-67926009D02*
X121605827Y-67830771D01*
X121605827Y-67830771D02*
X121701065Y-67783152D01*
X121701065Y-67783152D02*
X121891541Y-67783152D01*
X121891541Y-67783152D02*
X121986779Y-67830771D01*
X121986779Y-67830771D02*
X122034398Y-67926009D01*
X122034398Y-67926009D02*
X122034398Y-68021247D01*
X122034398Y-68021247D02*
X121558208Y-68116485D01*
X122891541Y-67783152D02*
X122891541Y-68592676D01*
X122891541Y-68592676D02*
X122843922Y-68687914D01*
X122843922Y-68687914D02*
X122796303Y-68735533D01*
X122796303Y-68735533D02*
X122701065Y-68783152D01*
X122701065Y-68783152D02*
X122558208Y-68783152D01*
X122558208Y-68783152D02*
X122462970Y-68735533D01*
X122891541Y-68402200D02*
X122796303Y-68449819D01*
X122796303Y-68449819D02*
X122605827Y-68449819D01*
X122605827Y-68449819D02*
X122510589Y-68402200D01*
X122510589Y-68402200D02*
X122462970Y-68354580D01*
X122462970Y-68354580D02*
X122415351Y-68259342D01*
X122415351Y-68259342D02*
X122415351Y-67973628D01*
X122415351Y-67973628D02*
X122462970Y-67878390D01*
X122462970Y-67878390D02*
X122510589Y-67830771D01*
X122510589Y-67830771D02*
X122605827Y-67783152D01*
X122605827Y-67783152D02*
X122796303Y-67783152D01*
X122796303Y-67783152D02*
X122891541Y-67830771D01*
X123367732Y-68449819D02*
X123367732Y-67783152D01*
X123367732Y-67449819D02*
X123320113Y-67497438D01*
X123320113Y-67497438D02*
X123367732Y-67545057D01*
X123367732Y-67545057D02*
X123415351Y-67497438D01*
X123415351Y-67497438D02*
X123367732Y-67449819D01*
X123367732Y-67449819D02*
X123367732Y-67545057D01*
X123796303Y-68402200D02*
X123891541Y-68449819D01*
X123891541Y-68449819D02*
X124082017Y-68449819D01*
X124082017Y-68449819D02*
X124177255Y-68402200D01*
X124177255Y-68402200D02*
X124224874Y-68306961D01*
X124224874Y-68306961D02*
X124224874Y-68259342D01*
X124224874Y-68259342D02*
X124177255Y-68164104D01*
X124177255Y-68164104D02*
X124082017Y-68116485D01*
X124082017Y-68116485D02*
X123939160Y-68116485D01*
X123939160Y-68116485D02*
X123843922Y-68068866D01*
X123843922Y-68068866D02*
X123796303Y-67973628D01*
X123796303Y-67973628D02*
X123796303Y-67926009D01*
X123796303Y-67926009D02*
X123843922Y-67830771D01*
X123843922Y-67830771D02*
X123939160Y-67783152D01*
X123939160Y-67783152D02*
X124082017Y-67783152D01*
X124082017Y-67783152D02*
X124177255Y-67830771D01*
X124510589Y-67783152D02*
X124891541Y-67783152D01*
X124653446Y-67449819D02*
X124653446Y-68306961D01*
X124653446Y-68306961D02*
X124701065Y-68402200D01*
X124701065Y-68402200D02*
X124796303Y-68449819D01*
X124796303Y-68449819D02*
X124891541Y-68449819D01*
X125605827Y-68402200D02*
X125510589Y-68449819D01*
X125510589Y-68449819D02*
X125320113Y-68449819D01*
X125320113Y-68449819D02*
X125224875Y-68402200D01*
X125224875Y-68402200D02*
X125177256Y-68306961D01*
X125177256Y-68306961D02*
X125177256Y-67926009D01*
X125177256Y-67926009D02*
X125224875Y-67830771D01*
X125224875Y-67830771D02*
X125320113Y-67783152D01*
X125320113Y-67783152D02*
X125510589Y-67783152D01*
X125510589Y-67783152D02*
X125605827Y-67830771D01*
X125605827Y-67830771D02*
X125653446Y-67926009D01*
X125653446Y-67926009D02*
X125653446Y-68021247D01*
X125653446Y-68021247D02*
X125177256Y-68116485D01*
X126082018Y-68449819D02*
X126082018Y-67783152D01*
X126082018Y-67973628D02*
X126129637Y-67878390D01*
X126129637Y-67878390D02*
X126177256Y-67830771D01*
X126177256Y-67830771D02*
X126272494Y-67783152D01*
X126272494Y-67783152D02*
X126367732Y-67783152D01*
X79711779Y-68699819D02*
X79711779Y-67699819D01*
X80187969Y-68033152D02*
X80187969Y-68699819D01*
X80187969Y-68128390D02*
X80235588Y-68080771D01*
X80235588Y-68080771D02*
X80330826Y-68033152D01*
X80330826Y-68033152D02*
X80473683Y-68033152D01*
X80473683Y-68033152D02*
X80568921Y-68080771D01*
X80568921Y-68080771D02*
X80616540Y-68176009D01*
X80616540Y-68176009D02*
X80616540Y-68699819D01*
X81092731Y-68033152D02*
X81092731Y-69033152D01*
X81092731Y-68080771D02*
X81187969Y-68033152D01*
X81187969Y-68033152D02*
X81378445Y-68033152D01*
X81378445Y-68033152D02*
X81473683Y-68080771D01*
X81473683Y-68080771D02*
X81521302Y-68128390D01*
X81521302Y-68128390D02*
X81568921Y-68223628D01*
X81568921Y-68223628D02*
X81568921Y-68509342D01*
X81568921Y-68509342D02*
X81521302Y-68604580D01*
X81521302Y-68604580D02*
X81473683Y-68652200D01*
X81473683Y-68652200D02*
X81378445Y-68699819D01*
X81378445Y-68699819D02*
X81187969Y-68699819D01*
X81187969Y-68699819D02*
X81092731Y-68652200D01*
X82426064Y-68033152D02*
X82426064Y-68699819D01*
X81997493Y-68033152D02*
X81997493Y-68556961D01*
X81997493Y-68556961D02*
X82045112Y-68652200D01*
X82045112Y-68652200D02*
X82140350Y-68699819D01*
X82140350Y-68699819D02*
X82283207Y-68699819D01*
X82283207Y-68699819D02*
X82378445Y-68652200D01*
X82378445Y-68652200D02*
X82426064Y-68604580D01*
X82759398Y-68033152D02*
X83140350Y-68033152D01*
X82902255Y-67699819D02*
X82902255Y-68556961D01*
X82902255Y-68556961D02*
X82949874Y-68652200D01*
X82949874Y-68652200D02*
X83045112Y-68699819D01*
X83045112Y-68699819D02*
X83140350Y-68699819D01*
X84045112Y-68604580D02*
X83997493Y-68652200D01*
X83997493Y-68652200D02*
X83854636Y-68699819D01*
X83854636Y-68699819D02*
X83759398Y-68699819D01*
X83759398Y-68699819D02*
X83616541Y-68652200D01*
X83616541Y-68652200D02*
X83521303Y-68556961D01*
X83521303Y-68556961D02*
X83473684Y-68461723D01*
X83473684Y-68461723D02*
X83426065Y-68271247D01*
X83426065Y-68271247D02*
X83426065Y-68128390D01*
X83426065Y-68128390D02*
X83473684Y-67937914D01*
X83473684Y-67937914D02*
X83521303Y-67842676D01*
X83521303Y-67842676D02*
X83616541Y-67747438D01*
X83616541Y-67747438D02*
X83759398Y-67699819D01*
X83759398Y-67699819D02*
X83854636Y-67699819D01*
X83854636Y-67699819D02*
X83997493Y-67747438D01*
X83997493Y-67747438D02*
X84045112Y-67795057D01*
X84616541Y-68699819D02*
X84521303Y-68652200D01*
X84521303Y-68652200D02*
X84473684Y-68604580D01*
X84473684Y-68604580D02*
X84426065Y-68509342D01*
X84426065Y-68509342D02*
X84426065Y-68223628D01*
X84426065Y-68223628D02*
X84473684Y-68128390D01*
X84473684Y-68128390D02*
X84521303Y-68080771D01*
X84521303Y-68080771D02*
X84616541Y-68033152D01*
X84616541Y-68033152D02*
X84759398Y-68033152D01*
X84759398Y-68033152D02*
X84854636Y-68080771D01*
X84854636Y-68080771D02*
X84902255Y-68128390D01*
X84902255Y-68128390D02*
X84949874Y-68223628D01*
X84949874Y-68223628D02*
X84949874Y-68509342D01*
X84949874Y-68509342D02*
X84902255Y-68604580D01*
X84902255Y-68604580D02*
X84854636Y-68652200D01*
X84854636Y-68652200D02*
X84759398Y-68699819D01*
X84759398Y-68699819D02*
X84616541Y-68699819D01*
X85378446Y-68033152D02*
X85378446Y-68699819D01*
X85378446Y-68128390D02*
X85426065Y-68080771D01*
X85426065Y-68080771D02*
X85521303Y-68033152D01*
X85521303Y-68033152D02*
X85664160Y-68033152D01*
X85664160Y-68033152D02*
X85759398Y-68080771D01*
X85759398Y-68080771D02*
X85807017Y-68176009D01*
X85807017Y-68176009D02*
X85807017Y-68699819D01*
X86140351Y-68033152D02*
X86521303Y-68033152D01*
X86283208Y-67699819D02*
X86283208Y-68556961D01*
X86283208Y-68556961D02*
X86330827Y-68652200D01*
X86330827Y-68652200D02*
X86426065Y-68699819D01*
X86426065Y-68699819D02*
X86521303Y-68699819D01*
X86854637Y-68699819D02*
X86854637Y-68033152D01*
X86854637Y-68223628D02*
X86902256Y-68128390D01*
X86902256Y-68128390D02*
X86949875Y-68080771D01*
X86949875Y-68080771D02*
X87045113Y-68033152D01*
X87045113Y-68033152D02*
X87140351Y-68033152D01*
X87616542Y-68699819D02*
X87521304Y-68652200D01*
X87521304Y-68652200D02*
X87473685Y-68604580D01*
X87473685Y-68604580D02*
X87426066Y-68509342D01*
X87426066Y-68509342D02*
X87426066Y-68223628D01*
X87426066Y-68223628D02*
X87473685Y-68128390D01*
X87473685Y-68128390D02*
X87521304Y-68080771D01*
X87521304Y-68080771D02*
X87616542Y-68033152D01*
X87616542Y-68033152D02*
X87759399Y-68033152D01*
X87759399Y-68033152D02*
X87854637Y-68080771D01*
X87854637Y-68080771D02*
X87902256Y-68128390D01*
X87902256Y-68128390D02*
X87949875Y-68223628D01*
X87949875Y-68223628D02*
X87949875Y-68509342D01*
X87949875Y-68509342D02*
X87902256Y-68604580D01*
X87902256Y-68604580D02*
X87854637Y-68652200D01*
X87854637Y-68652200D02*
X87759399Y-68699819D01*
X87759399Y-68699819D02*
X87616542Y-68699819D01*
X88521304Y-68699819D02*
X88426066Y-68652200D01*
X88426066Y-68652200D02*
X88378447Y-68556961D01*
X88378447Y-68556961D02*
X88378447Y-67699819D01*
X89045114Y-68699819D02*
X88949876Y-68652200D01*
X88949876Y-68652200D02*
X88902257Y-68556961D01*
X88902257Y-68556961D02*
X88902257Y-67699819D01*
X89807019Y-68652200D02*
X89711781Y-68699819D01*
X89711781Y-68699819D02*
X89521305Y-68699819D01*
X89521305Y-68699819D02*
X89426067Y-68652200D01*
X89426067Y-68652200D02*
X89378448Y-68556961D01*
X89378448Y-68556961D02*
X89378448Y-68176009D01*
X89378448Y-68176009D02*
X89426067Y-68080771D01*
X89426067Y-68080771D02*
X89521305Y-68033152D01*
X89521305Y-68033152D02*
X89711781Y-68033152D01*
X89711781Y-68033152D02*
X89807019Y-68080771D01*
X89807019Y-68080771D02*
X89854638Y-68176009D01*
X89854638Y-68176009D02*
X89854638Y-68271247D01*
X89854638Y-68271247D02*
X89378448Y-68366485D01*
X90283210Y-68699819D02*
X90283210Y-68033152D01*
X90283210Y-68223628D02*
X90330829Y-68128390D01*
X90330829Y-68128390D02*
X90378448Y-68080771D01*
X90378448Y-68080771D02*
X90473686Y-68033152D01*
X90473686Y-68033152D02*
X90568924Y-68033152D01*
X79568922Y-69309819D02*
X79902255Y-70309819D01*
X79902255Y-70309819D02*
X80235588Y-69309819D01*
X81092731Y-70309819D02*
X80521303Y-70309819D01*
X80807017Y-70309819D02*
X80807017Y-69309819D01*
X80807017Y-69309819D02*
X80711779Y-69452676D01*
X80711779Y-69452676D02*
X80616541Y-69547914D01*
X80616541Y-69547914D02*
X80521303Y-69595533D01*
X81521303Y-70214580D02*
X81568922Y-70262200D01*
X81568922Y-70262200D02*
X81521303Y-70309819D01*
X81521303Y-70309819D02*
X81473684Y-70262200D01*
X81473684Y-70262200D02*
X81521303Y-70214580D01*
X81521303Y-70214580D02*
X81521303Y-70309819D01*
X82187969Y-69309819D02*
X82283207Y-69309819D01*
X82283207Y-69309819D02*
X82378445Y-69357438D01*
X82378445Y-69357438D02*
X82426064Y-69405057D01*
X82426064Y-69405057D02*
X82473683Y-69500295D01*
X82473683Y-69500295D02*
X82521302Y-69690771D01*
X82521302Y-69690771D02*
X82521302Y-69928866D01*
X82521302Y-69928866D02*
X82473683Y-70119342D01*
X82473683Y-70119342D02*
X82426064Y-70214580D01*
X82426064Y-70214580D02*
X82378445Y-70262200D01*
X82378445Y-70262200D02*
X82283207Y-70309819D01*
X82283207Y-70309819D02*
X82187969Y-70309819D01*
X82187969Y-70309819D02*
X82092731Y-70262200D01*
X82092731Y-70262200D02*
X82045112Y-70214580D01*
X82045112Y-70214580D02*
X81997493Y-70119342D01*
X81997493Y-70119342D02*
X81949874Y-69928866D01*
X81949874Y-69928866D02*
X81949874Y-69690771D01*
X81949874Y-69690771D02*
X81997493Y-69500295D01*
X81997493Y-69500295D02*
X82045112Y-69405057D01*
X82045112Y-69405057D02*
X82092731Y-69357438D01*
X82092731Y-69357438D02*
X82187969Y-69309819D01*
X79664160Y-71015057D02*
X79711779Y-70967438D01*
X79711779Y-70967438D02*
X79807017Y-70919819D01*
X79807017Y-70919819D02*
X80045112Y-70919819D01*
X80045112Y-70919819D02*
X80140350Y-70967438D01*
X80140350Y-70967438D02*
X80187969Y-71015057D01*
X80187969Y-71015057D02*
X80235588Y-71110295D01*
X80235588Y-71110295D02*
X80235588Y-71205533D01*
X80235588Y-71205533D02*
X80187969Y-71348390D01*
X80187969Y-71348390D02*
X79616541Y-71919819D01*
X79616541Y-71919819D02*
X80235588Y-71919819D01*
X80854636Y-70919819D02*
X80949874Y-70919819D01*
X80949874Y-70919819D02*
X81045112Y-70967438D01*
X81045112Y-70967438D02*
X81092731Y-71015057D01*
X81092731Y-71015057D02*
X81140350Y-71110295D01*
X81140350Y-71110295D02*
X81187969Y-71300771D01*
X81187969Y-71300771D02*
X81187969Y-71538866D01*
X81187969Y-71538866D02*
X81140350Y-71729342D01*
X81140350Y-71729342D02*
X81092731Y-71824580D01*
X81092731Y-71824580D02*
X81045112Y-71872200D01*
X81045112Y-71872200D02*
X80949874Y-71919819D01*
X80949874Y-71919819D02*
X80854636Y-71919819D01*
X80854636Y-71919819D02*
X80759398Y-71872200D01*
X80759398Y-71872200D02*
X80711779Y-71824580D01*
X80711779Y-71824580D02*
X80664160Y-71729342D01*
X80664160Y-71729342D02*
X80616541Y-71538866D01*
X80616541Y-71538866D02*
X80616541Y-71300771D01*
X80616541Y-71300771D02*
X80664160Y-71110295D01*
X80664160Y-71110295D02*
X80711779Y-71015057D01*
X80711779Y-71015057D02*
X80759398Y-70967438D01*
X80759398Y-70967438D02*
X80854636Y-70919819D01*
X81568922Y-71015057D02*
X81616541Y-70967438D01*
X81616541Y-70967438D02*
X81711779Y-70919819D01*
X81711779Y-70919819D02*
X81949874Y-70919819D01*
X81949874Y-70919819D02*
X82045112Y-70967438D01*
X82045112Y-70967438D02*
X82092731Y-71015057D01*
X82092731Y-71015057D02*
X82140350Y-71110295D01*
X82140350Y-71110295D02*
X82140350Y-71205533D01*
X82140350Y-71205533D02*
X82092731Y-71348390D01*
X82092731Y-71348390D02*
X81521303Y-71919819D01*
X81521303Y-71919819D02*
X82140350Y-71919819D01*
X82473684Y-70919819D02*
X83092731Y-70919819D01*
X83092731Y-70919819D02*
X82759398Y-71300771D01*
X82759398Y-71300771D02*
X82902255Y-71300771D01*
X82902255Y-71300771D02*
X82997493Y-71348390D01*
X82997493Y-71348390D02*
X83045112Y-71396009D01*
X83045112Y-71396009D02*
X83092731Y-71491247D01*
X83092731Y-71491247D02*
X83092731Y-71729342D01*
X83092731Y-71729342D02*
X83045112Y-71824580D01*
X83045112Y-71824580D02*
X82997493Y-71872200D01*
X82997493Y-71872200D02*
X82902255Y-71919819D01*
X82902255Y-71919819D02*
X82616541Y-71919819D01*
X82616541Y-71919819D02*
X82521303Y-71872200D01*
X82521303Y-71872200D02*
X82473684Y-71824580D01*
X83521303Y-71538866D02*
X84283208Y-71538866D01*
X84949874Y-70919819D02*
X85045112Y-70919819D01*
X85045112Y-70919819D02*
X85140350Y-70967438D01*
X85140350Y-70967438D02*
X85187969Y-71015057D01*
X85187969Y-71015057D02*
X85235588Y-71110295D01*
X85235588Y-71110295D02*
X85283207Y-71300771D01*
X85283207Y-71300771D02*
X85283207Y-71538866D01*
X85283207Y-71538866D02*
X85235588Y-71729342D01*
X85235588Y-71729342D02*
X85187969Y-71824580D01*
X85187969Y-71824580D02*
X85140350Y-71872200D01*
X85140350Y-71872200D02*
X85045112Y-71919819D01*
X85045112Y-71919819D02*
X84949874Y-71919819D01*
X84949874Y-71919819D02*
X84854636Y-71872200D01*
X84854636Y-71872200D02*
X84807017Y-71824580D01*
X84807017Y-71824580D02*
X84759398Y-71729342D01*
X84759398Y-71729342D02*
X84711779Y-71538866D01*
X84711779Y-71538866D02*
X84711779Y-71300771D01*
X84711779Y-71300771D02*
X84759398Y-71110295D01*
X84759398Y-71110295D02*
X84807017Y-71015057D01*
X84807017Y-71015057D02*
X84854636Y-70967438D01*
X84854636Y-70967438D02*
X84949874Y-70919819D01*
X85854636Y-71348390D02*
X85759398Y-71300771D01*
X85759398Y-71300771D02*
X85711779Y-71253152D01*
X85711779Y-71253152D02*
X85664160Y-71157914D01*
X85664160Y-71157914D02*
X85664160Y-71110295D01*
X85664160Y-71110295D02*
X85711779Y-71015057D01*
X85711779Y-71015057D02*
X85759398Y-70967438D01*
X85759398Y-70967438D02*
X85854636Y-70919819D01*
X85854636Y-70919819D02*
X86045112Y-70919819D01*
X86045112Y-70919819D02*
X86140350Y-70967438D01*
X86140350Y-70967438D02*
X86187969Y-71015057D01*
X86187969Y-71015057D02*
X86235588Y-71110295D01*
X86235588Y-71110295D02*
X86235588Y-71157914D01*
X86235588Y-71157914D02*
X86187969Y-71253152D01*
X86187969Y-71253152D02*
X86140350Y-71300771D01*
X86140350Y-71300771D02*
X86045112Y-71348390D01*
X86045112Y-71348390D02*
X85854636Y-71348390D01*
X85854636Y-71348390D02*
X85759398Y-71396009D01*
X85759398Y-71396009D02*
X85711779Y-71443628D01*
X85711779Y-71443628D02*
X85664160Y-71538866D01*
X85664160Y-71538866D02*
X85664160Y-71729342D01*
X85664160Y-71729342D02*
X85711779Y-71824580D01*
X85711779Y-71824580D02*
X85759398Y-71872200D01*
X85759398Y-71872200D02*
X85854636Y-71919819D01*
X85854636Y-71919819D02*
X86045112Y-71919819D01*
X86045112Y-71919819D02*
X86140350Y-71872200D01*
X86140350Y-71872200D02*
X86187969Y-71824580D01*
X86187969Y-71824580D02*
X86235588Y-71729342D01*
X86235588Y-71729342D02*
X86235588Y-71538866D01*
X86235588Y-71538866D02*
X86187969Y-71443628D01*
X86187969Y-71443628D02*
X86140350Y-71396009D01*
X86140350Y-71396009D02*
X86045112Y-71348390D01*
X80187969Y-73529819D02*
X79711779Y-73529819D01*
X79711779Y-73529819D02*
X79711779Y-72529819D01*
X80426065Y-72529819D02*
X80664160Y-73529819D01*
X80664160Y-73529819D02*
X80854636Y-72815533D01*
X80854636Y-72815533D02*
X81045112Y-73529819D01*
X81045112Y-73529819D02*
X81283208Y-72529819D01*
X173056779Y-82714819D02*
X173056779Y-82048152D01*
X173056779Y-82238628D02*
X173104398Y-82143390D01*
X173104398Y-82143390D02*
X173152017Y-82095771D01*
X173152017Y-82095771D02*
X173247255Y-82048152D01*
X173247255Y-82048152D02*
X173342493Y-82048152D01*
X173818684Y-82714819D02*
X173723446Y-82667200D01*
X173723446Y-82667200D02*
X173675827Y-82619580D01*
X173675827Y-82619580D02*
X173628208Y-82524342D01*
X173628208Y-82524342D02*
X173628208Y-82238628D01*
X173628208Y-82238628D02*
X173675827Y-82143390D01*
X173675827Y-82143390D02*
X173723446Y-82095771D01*
X173723446Y-82095771D02*
X173818684Y-82048152D01*
X173818684Y-82048152D02*
X173961541Y-82048152D01*
X173961541Y-82048152D02*
X174056779Y-82095771D01*
X174056779Y-82095771D02*
X174104398Y-82143390D01*
X174104398Y-82143390D02*
X174152017Y-82238628D01*
X174152017Y-82238628D02*
X174152017Y-82524342D01*
X174152017Y-82524342D02*
X174104398Y-82619580D01*
X174104398Y-82619580D02*
X174056779Y-82667200D01*
X174056779Y-82667200D02*
X173961541Y-82714819D01*
X173961541Y-82714819D02*
X173818684Y-82714819D01*
X174437732Y-82048152D02*
X174818684Y-82048152D01*
X174580589Y-81714819D02*
X174580589Y-82571961D01*
X174580589Y-82571961D02*
X174628208Y-82667200D01*
X174628208Y-82667200D02*
X174723446Y-82714819D01*
X174723446Y-82714819D02*
X174818684Y-82714819D01*
X175580589Y-82714819D02*
X175580589Y-82191009D01*
X175580589Y-82191009D02*
X175532970Y-82095771D01*
X175532970Y-82095771D02*
X175437732Y-82048152D01*
X175437732Y-82048152D02*
X175247256Y-82048152D01*
X175247256Y-82048152D02*
X175152018Y-82095771D01*
X175580589Y-82667200D02*
X175485351Y-82714819D01*
X175485351Y-82714819D02*
X175247256Y-82714819D01*
X175247256Y-82714819D02*
X175152018Y-82667200D01*
X175152018Y-82667200D02*
X175104399Y-82571961D01*
X175104399Y-82571961D02*
X175104399Y-82476723D01*
X175104399Y-82476723D02*
X175152018Y-82381485D01*
X175152018Y-82381485D02*
X175247256Y-82333866D01*
X175247256Y-82333866D02*
X175485351Y-82333866D01*
X175485351Y-82333866D02*
X175580589Y-82286247D01*
X176056780Y-82714819D02*
X176056780Y-82048152D01*
X176056780Y-82238628D02*
X176104399Y-82143390D01*
X176104399Y-82143390D02*
X176152018Y-82095771D01*
X176152018Y-82095771D02*
X176247256Y-82048152D01*
X176247256Y-82048152D02*
X176342494Y-82048152D01*
X176580590Y-82048152D02*
X176818685Y-82714819D01*
X177056780Y-82048152D02*
X176818685Y-82714819D01*
X176818685Y-82714819D02*
X176723447Y-82952914D01*
X176723447Y-82952914D02*
X176675828Y-83000533D01*
X176675828Y-83000533D02*
X176580590Y-83048152D01*
X178580590Y-82667200D02*
X178485352Y-82714819D01*
X178485352Y-82714819D02*
X178294876Y-82714819D01*
X178294876Y-82714819D02*
X178199638Y-82667200D01*
X178199638Y-82667200D02*
X178152019Y-82571961D01*
X178152019Y-82571961D02*
X178152019Y-82191009D01*
X178152019Y-82191009D02*
X178199638Y-82095771D01*
X178199638Y-82095771D02*
X178294876Y-82048152D01*
X178294876Y-82048152D02*
X178485352Y-82048152D01*
X178485352Y-82048152D02*
X178580590Y-82095771D01*
X178580590Y-82095771D02*
X178628209Y-82191009D01*
X178628209Y-82191009D02*
X178628209Y-82286247D01*
X178628209Y-82286247D02*
X178152019Y-82381485D01*
X179056781Y-82048152D02*
X179056781Y-82714819D01*
X179056781Y-82143390D02*
X179104400Y-82095771D01*
X179104400Y-82095771D02*
X179199638Y-82048152D01*
X179199638Y-82048152D02*
X179342495Y-82048152D01*
X179342495Y-82048152D02*
X179437733Y-82095771D01*
X179437733Y-82095771D02*
X179485352Y-82191009D01*
X179485352Y-82191009D02*
X179485352Y-82714819D01*
X180390114Y-82667200D02*
X180294876Y-82714819D01*
X180294876Y-82714819D02*
X180104400Y-82714819D01*
X180104400Y-82714819D02*
X180009162Y-82667200D01*
X180009162Y-82667200D02*
X179961543Y-82619580D01*
X179961543Y-82619580D02*
X179913924Y-82524342D01*
X179913924Y-82524342D02*
X179913924Y-82238628D01*
X179913924Y-82238628D02*
X179961543Y-82143390D01*
X179961543Y-82143390D02*
X180009162Y-82095771D01*
X180009162Y-82095771D02*
X180104400Y-82048152D01*
X180104400Y-82048152D02*
X180294876Y-82048152D01*
X180294876Y-82048152D02*
X180390114Y-82095771D01*
X180961543Y-82714819D02*
X180866305Y-82667200D01*
X180866305Y-82667200D02*
X180818686Y-82619580D01*
X180818686Y-82619580D02*
X180771067Y-82524342D01*
X180771067Y-82524342D02*
X180771067Y-82238628D01*
X180771067Y-82238628D02*
X180818686Y-82143390D01*
X180818686Y-82143390D02*
X180866305Y-82095771D01*
X180866305Y-82095771D02*
X180961543Y-82048152D01*
X180961543Y-82048152D02*
X181104400Y-82048152D01*
X181104400Y-82048152D02*
X181199638Y-82095771D01*
X181199638Y-82095771D02*
X181247257Y-82143390D01*
X181247257Y-82143390D02*
X181294876Y-82238628D01*
X181294876Y-82238628D02*
X181294876Y-82524342D01*
X181294876Y-82524342D02*
X181247257Y-82619580D01*
X181247257Y-82619580D02*
X181199638Y-82667200D01*
X181199638Y-82667200D02*
X181104400Y-82714819D01*
X181104400Y-82714819D02*
X180961543Y-82714819D01*
X182152019Y-82714819D02*
X182152019Y-81714819D01*
X182152019Y-82667200D02*
X182056781Y-82714819D01*
X182056781Y-82714819D02*
X181866305Y-82714819D01*
X181866305Y-82714819D02*
X181771067Y-82667200D01*
X181771067Y-82667200D02*
X181723448Y-82619580D01*
X181723448Y-82619580D02*
X181675829Y-82524342D01*
X181675829Y-82524342D02*
X181675829Y-82238628D01*
X181675829Y-82238628D02*
X181723448Y-82143390D01*
X181723448Y-82143390D02*
X181771067Y-82095771D01*
X181771067Y-82095771D02*
X181866305Y-82048152D01*
X181866305Y-82048152D02*
X182056781Y-82048152D01*
X182056781Y-82048152D02*
X182152019Y-82095771D01*
X183009162Y-82667200D02*
X182913924Y-82714819D01*
X182913924Y-82714819D02*
X182723448Y-82714819D01*
X182723448Y-82714819D02*
X182628210Y-82667200D01*
X182628210Y-82667200D02*
X182580591Y-82571961D01*
X182580591Y-82571961D02*
X182580591Y-82191009D01*
X182580591Y-82191009D02*
X182628210Y-82095771D01*
X182628210Y-82095771D02*
X182723448Y-82048152D01*
X182723448Y-82048152D02*
X182913924Y-82048152D01*
X182913924Y-82048152D02*
X183009162Y-82095771D01*
X183009162Y-82095771D02*
X183056781Y-82191009D01*
X183056781Y-82191009D02*
X183056781Y-82286247D01*
X183056781Y-82286247D02*
X182580591Y-82381485D01*
X183485353Y-82714819D02*
X183485353Y-82048152D01*
X183485353Y-82238628D02*
X183532972Y-82143390D01*
X183532972Y-82143390D02*
X183580591Y-82095771D01*
X183580591Y-82095771D02*
X183675829Y-82048152D01*
X183675829Y-82048152D02*
X183771067Y-82048152D01*
X173009160Y-84039104D02*
X173485350Y-84039104D01*
X172913922Y-84324819D02*
X173247255Y-83324819D01*
X173247255Y-83324819D02*
X173580588Y-84324819D01*
X174390112Y-84324819D02*
X173913922Y-84324819D01*
X173913922Y-84324819D02*
X173913922Y-83324819D01*
X174723446Y-84324819D02*
X174723446Y-83324819D01*
X174723446Y-83324819D02*
X175104398Y-83324819D01*
X175104398Y-83324819D02*
X175199636Y-83372438D01*
X175199636Y-83372438D02*
X175247255Y-83420057D01*
X175247255Y-83420057D02*
X175294874Y-83515295D01*
X175294874Y-83515295D02*
X175294874Y-83658152D01*
X175294874Y-83658152D02*
X175247255Y-83753390D01*
X175247255Y-83753390D02*
X175199636Y-83801009D01*
X175199636Y-83801009D02*
X175104398Y-83848628D01*
X175104398Y-83848628D02*
X174723446Y-83848628D01*
X175675827Y-84277200D02*
X175818684Y-84324819D01*
X175818684Y-84324819D02*
X176056779Y-84324819D01*
X176056779Y-84324819D02*
X176152017Y-84277200D01*
X176152017Y-84277200D02*
X176199636Y-84229580D01*
X176199636Y-84229580D02*
X176247255Y-84134342D01*
X176247255Y-84134342D02*
X176247255Y-84039104D01*
X176247255Y-84039104D02*
X176199636Y-83943866D01*
X176199636Y-83943866D02*
X176152017Y-83896247D01*
X176152017Y-83896247D02*
X176056779Y-83848628D01*
X176056779Y-83848628D02*
X175866303Y-83801009D01*
X175866303Y-83801009D02*
X175771065Y-83753390D01*
X175771065Y-83753390D02*
X175723446Y-83705771D01*
X175723446Y-83705771D02*
X175675827Y-83610533D01*
X175675827Y-83610533D02*
X175675827Y-83515295D01*
X175675827Y-83515295D02*
X175723446Y-83420057D01*
X175723446Y-83420057D02*
X175771065Y-83372438D01*
X175771065Y-83372438D02*
X175866303Y-83324819D01*
X175866303Y-83324819D02*
X176104398Y-83324819D01*
X176104398Y-83324819D02*
X176247255Y-83372438D01*
X177437732Y-83801009D02*
X177771065Y-83801009D01*
X177913922Y-84324819D02*
X177437732Y-84324819D01*
X177437732Y-84324819D02*
X177437732Y-83324819D01*
X177437732Y-83324819D02*
X177913922Y-83324819D01*
X178913922Y-84229580D02*
X178866303Y-84277200D01*
X178866303Y-84277200D02*
X178723446Y-84324819D01*
X178723446Y-84324819D02*
X178628208Y-84324819D01*
X178628208Y-84324819D02*
X178485351Y-84277200D01*
X178485351Y-84277200D02*
X178390113Y-84181961D01*
X178390113Y-84181961D02*
X178342494Y-84086723D01*
X178342494Y-84086723D02*
X178294875Y-83896247D01*
X178294875Y-83896247D02*
X178294875Y-83753390D01*
X178294875Y-83753390D02*
X178342494Y-83562914D01*
X178342494Y-83562914D02*
X178390113Y-83467676D01*
X178390113Y-83467676D02*
X178485351Y-83372438D01*
X178485351Y-83372438D02*
X178628208Y-83324819D01*
X178628208Y-83324819D02*
X178723446Y-83324819D01*
X178723446Y-83324819D02*
X178866303Y-83372438D01*
X178866303Y-83372438D02*
X178913922Y-83420057D01*
X179866303Y-84324819D02*
X179294875Y-84324819D01*
X179580589Y-84324819D02*
X179580589Y-83324819D01*
X179580589Y-83324819D02*
X179485351Y-83467676D01*
X179485351Y-83467676D02*
X179390113Y-83562914D01*
X179390113Y-83562914D02*
X179294875Y-83610533D01*
X180247256Y-83420057D02*
X180294875Y-83372438D01*
X180294875Y-83372438D02*
X180390113Y-83324819D01*
X180390113Y-83324819D02*
X180628208Y-83324819D01*
X180628208Y-83324819D02*
X180723446Y-83372438D01*
X180723446Y-83372438D02*
X180771065Y-83420057D01*
X180771065Y-83420057D02*
X180818684Y-83515295D01*
X180818684Y-83515295D02*
X180818684Y-83610533D01*
X180818684Y-83610533D02*
X180771065Y-83753390D01*
X180771065Y-83753390D02*
X180199637Y-84324819D01*
X180199637Y-84324819D02*
X180818684Y-84324819D01*
X214090476Y-119533200D02*
X214233333Y-119580819D01*
X214233333Y-119580819D02*
X214471428Y-119580819D01*
X214471428Y-119580819D02*
X214566666Y-119533200D01*
X214566666Y-119533200D02*
X214614285Y-119485580D01*
X214614285Y-119485580D02*
X214661904Y-119390342D01*
X214661904Y-119390342D02*
X214661904Y-119295104D01*
X214661904Y-119295104D02*
X214614285Y-119199866D01*
X214614285Y-119199866D02*
X214566666Y-119152247D01*
X214566666Y-119152247D02*
X214471428Y-119104628D01*
X214471428Y-119104628D02*
X214280952Y-119057009D01*
X214280952Y-119057009D02*
X214185714Y-119009390D01*
X214185714Y-119009390D02*
X214138095Y-118961771D01*
X214138095Y-118961771D02*
X214090476Y-118866533D01*
X214090476Y-118866533D02*
X214090476Y-118771295D01*
X214090476Y-118771295D02*
X214138095Y-118676057D01*
X214138095Y-118676057D02*
X214185714Y-118628438D01*
X214185714Y-118628438D02*
X214280952Y-118580819D01*
X214280952Y-118580819D02*
X214519047Y-118580819D01*
X214519047Y-118580819D02*
X214661904Y-118628438D01*
X214995238Y-118580819D02*
X215233333Y-119580819D01*
X215233333Y-119580819D02*
X215423809Y-118866533D01*
X215423809Y-118866533D02*
X215614285Y-119580819D01*
X215614285Y-119580819D02*
X215852381Y-118580819D01*
X216757142Y-119580819D02*
X216185714Y-119580819D01*
X216471428Y-119580819D02*
X216471428Y-118580819D01*
X216471428Y-118580819D02*
X216376190Y-118723676D01*
X216376190Y-118723676D02*
X216280952Y-118818914D01*
X216280952Y-118818914D02*
X216185714Y-118866533D01*
X217614285Y-118580819D02*
X217423809Y-118580819D01*
X217423809Y-118580819D02*
X217328571Y-118628438D01*
X217328571Y-118628438D02*
X217280952Y-118676057D01*
X217280952Y-118676057D02*
X217185714Y-118818914D01*
X217185714Y-118818914D02*
X217138095Y-119009390D01*
X217138095Y-119009390D02*
X217138095Y-119390342D01*
X217138095Y-119390342D02*
X217185714Y-119485580D01*
X217185714Y-119485580D02*
X217233333Y-119533200D01*
X217233333Y-119533200D02*
X217328571Y-119580819D01*
X217328571Y-119580819D02*
X217519047Y-119580819D01*
X217519047Y-119580819D02*
X217614285Y-119533200D01*
X217614285Y-119533200D02*
X217661904Y-119485580D01*
X217661904Y-119485580D02*
X217709523Y-119390342D01*
X217709523Y-119390342D02*
X217709523Y-119152247D01*
X217709523Y-119152247D02*
X217661904Y-119057009D01*
X217661904Y-119057009D02*
X217614285Y-119009390D01*
X217614285Y-119009390D02*
X217519047Y-118961771D01*
X217519047Y-118961771D02*
X217328571Y-118961771D01*
X217328571Y-118961771D02*
X217233333Y-119009390D01*
X217233333Y-119009390D02*
X217185714Y-119057009D01*
X217185714Y-119057009D02*
X217138095Y-119152247D01*
X193770476Y-119533200D02*
X193913333Y-119580819D01*
X193913333Y-119580819D02*
X194151428Y-119580819D01*
X194151428Y-119580819D02*
X194246666Y-119533200D01*
X194246666Y-119533200D02*
X194294285Y-119485580D01*
X194294285Y-119485580D02*
X194341904Y-119390342D01*
X194341904Y-119390342D02*
X194341904Y-119295104D01*
X194341904Y-119295104D02*
X194294285Y-119199866D01*
X194294285Y-119199866D02*
X194246666Y-119152247D01*
X194246666Y-119152247D02*
X194151428Y-119104628D01*
X194151428Y-119104628D02*
X193960952Y-119057009D01*
X193960952Y-119057009D02*
X193865714Y-119009390D01*
X193865714Y-119009390D02*
X193818095Y-118961771D01*
X193818095Y-118961771D02*
X193770476Y-118866533D01*
X193770476Y-118866533D02*
X193770476Y-118771295D01*
X193770476Y-118771295D02*
X193818095Y-118676057D01*
X193818095Y-118676057D02*
X193865714Y-118628438D01*
X193865714Y-118628438D02*
X193960952Y-118580819D01*
X193960952Y-118580819D02*
X194199047Y-118580819D01*
X194199047Y-118580819D02*
X194341904Y-118628438D01*
X194675238Y-118580819D02*
X194913333Y-119580819D01*
X194913333Y-119580819D02*
X195103809Y-118866533D01*
X195103809Y-118866533D02*
X195294285Y-119580819D01*
X195294285Y-119580819D02*
X195532381Y-118580819D01*
X196437142Y-119580819D02*
X195865714Y-119580819D01*
X196151428Y-119580819D02*
X196151428Y-118580819D01*
X196151428Y-118580819D02*
X196056190Y-118723676D01*
X196056190Y-118723676D02*
X195960952Y-118818914D01*
X195960952Y-118818914D02*
X195865714Y-118866533D01*
X197341904Y-118580819D02*
X196865714Y-118580819D01*
X196865714Y-118580819D02*
X196818095Y-119057009D01*
X196818095Y-119057009D02*
X196865714Y-119009390D01*
X196865714Y-119009390D02*
X196960952Y-118961771D01*
X196960952Y-118961771D02*
X197199047Y-118961771D01*
X197199047Y-118961771D02*
X197294285Y-119009390D01*
X197294285Y-119009390D02*
X197341904Y-119057009D01*
X197341904Y-119057009D02*
X197389523Y-119152247D01*
X197389523Y-119152247D02*
X197389523Y-119390342D01*
X197389523Y-119390342D02*
X197341904Y-119485580D01*
X197341904Y-119485580D02*
X197294285Y-119533200D01*
X197294285Y-119533200D02*
X197199047Y-119580819D01*
X197199047Y-119580819D02*
X196960952Y-119580819D01*
X196960952Y-119580819D02*
X196865714Y-119533200D01*
X196865714Y-119533200D02*
X196818095Y-119485580D01*
X165830476Y-119533200D02*
X165973333Y-119580819D01*
X165973333Y-119580819D02*
X166211428Y-119580819D01*
X166211428Y-119580819D02*
X166306666Y-119533200D01*
X166306666Y-119533200D02*
X166354285Y-119485580D01*
X166354285Y-119485580D02*
X166401904Y-119390342D01*
X166401904Y-119390342D02*
X166401904Y-119295104D01*
X166401904Y-119295104D02*
X166354285Y-119199866D01*
X166354285Y-119199866D02*
X166306666Y-119152247D01*
X166306666Y-119152247D02*
X166211428Y-119104628D01*
X166211428Y-119104628D02*
X166020952Y-119057009D01*
X166020952Y-119057009D02*
X165925714Y-119009390D01*
X165925714Y-119009390D02*
X165878095Y-118961771D01*
X165878095Y-118961771D02*
X165830476Y-118866533D01*
X165830476Y-118866533D02*
X165830476Y-118771295D01*
X165830476Y-118771295D02*
X165878095Y-118676057D01*
X165878095Y-118676057D02*
X165925714Y-118628438D01*
X165925714Y-118628438D02*
X166020952Y-118580819D01*
X166020952Y-118580819D02*
X166259047Y-118580819D01*
X166259047Y-118580819D02*
X166401904Y-118628438D01*
X166735238Y-118580819D02*
X166973333Y-119580819D01*
X166973333Y-119580819D02*
X167163809Y-118866533D01*
X167163809Y-118866533D02*
X167354285Y-119580819D01*
X167354285Y-119580819D02*
X167592381Y-118580819D01*
X168497142Y-119580819D02*
X167925714Y-119580819D01*
X168211428Y-119580819D02*
X168211428Y-118580819D01*
X168211428Y-118580819D02*
X168116190Y-118723676D01*
X168116190Y-118723676D02*
X168020952Y-118818914D01*
X168020952Y-118818914D02*
X167925714Y-118866533D01*
X169354285Y-118914152D02*
X169354285Y-119580819D01*
X169116190Y-118533200D02*
X168878095Y-119247485D01*
X168878095Y-119247485D02*
X169497142Y-119247485D01*
X145510476Y-119533200D02*
X145653333Y-119580819D01*
X145653333Y-119580819D02*
X145891428Y-119580819D01*
X145891428Y-119580819D02*
X145986666Y-119533200D01*
X145986666Y-119533200D02*
X146034285Y-119485580D01*
X146034285Y-119485580D02*
X146081904Y-119390342D01*
X146081904Y-119390342D02*
X146081904Y-119295104D01*
X146081904Y-119295104D02*
X146034285Y-119199866D01*
X146034285Y-119199866D02*
X145986666Y-119152247D01*
X145986666Y-119152247D02*
X145891428Y-119104628D01*
X145891428Y-119104628D02*
X145700952Y-119057009D01*
X145700952Y-119057009D02*
X145605714Y-119009390D01*
X145605714Y-119009390D02*
X145558095Y-118961771D01*
X145558095Y-118961771D02*
X145510476Y-118866533D01*
X145510476Y-118866533D02*
X145510476Y-118771295D01*
X145510476Y-118771295D02*
X145558095Y-118676057D01*
X145558095Y-118676057D02*
X145605714Y-118628438D01*
X145605714Y-118628438D02*
X145700952Y-118580819D01*
X145700952Y-118580819D02*
X145939047Y-118580819D01*
X145939047Y-118580819D02*
X146081904Y-118628438D01*
X146415238Y-118580819D02*
X146653333Y-119580819D01*
X146653333Y-119580819D02*
X146843809Y-118866533D01*
X146843809Y-118866533D02*
X147034285Y-119580819D01*
X147034285Y-119580819D02*
X147272381Y-118580819D01*
X148177142Y-119580819D02*
X147605714Y-119580819D01*
X147891428Y-119580819D02*
X147891428Y-118580819D01*
X147891428Y-118580819D02*
X147796190Y-118723676D01*
X147796190Y-118723676D02*
X147700952Y-118818914D01*
X147700952Y-118818914D02*
X147605714Y-118866533D01*
X148510476Y-118580819D02*
X149129523Y-118580819D01*
X149129523Y-118580819D02*
X148796190Y-118961771D01*
X148796190Y-118961771D02*
X148939047Y-118961771D01*
X148939047Y-118961771D02*
X149034285Y-119009390D01*
X149034285Y-119009390D02*
X149081904Y-119057009D01*
X149081904Y-119057009D02*
X149129523Y-119152247D01*
X149129523Y-119152247D02*
X149129523Y-119390342D01*
X149129523Y-119390342D02*
X149081904Y-119485580D01*
X149081904Y-119485580D02*
X149034285Y-119533200D01*
X149034285Y-119533200D02*
X148939047Y-119580819D01*
X148939047Y-119580819D02*
X148653333Y-119580819D01*
X148653333Y-119580819D02*
X148558095Y-119533200D01*
X148558095Y-119533200D02*
X148510476Y-119485580D01*
X117570476Y-119533200D02*
X117713333Y-119580819D01*
X117713333Y-119580819D02*
X117951428Y-119580819D01*
X117951428Y-119580819D02*
X118046666Y-119533200D01*
X118046666Y-119533200D02*
X118094285Y-119485580D01*
X118094285Y-119485580D02*
X118141904Y-119390342D01*
X118141904Y-119390342D02*
X118141904Y-119295104D01*
X118141904Y-119295104D02*
X118094285Y-119199866D01*
X118094285Y-119199866D02*
X118046666Y-119152247D01*
X118046666Y-119152247D02*
X117951428Y-119104628D01*
X117951428Y-119104628D02*
X117760952Y-119057009D01*
X117760952Y-119057009D02*
X117665714Y-119009390D01*
X117665714Y-119009390D02*
X117618095Y-118961771D01*
X117618095Y-118961771D02*
X117570476Y-118866533D01*
X117570476Y-118866533D02*
X117570476Y-118771295D01*
X117570476Y-118771295D02*
X117618095Y-118676057D01*
X117618095Y-118676057D02*
X117665714Y-118628438D01*
X117665714Y-118628438D02*
X117760952Y-118580819D01*
X117760952Y-118580819D02*
X117999047Y-118580819D01*
X117999047Y-118580819D02*
X118141904Y-118628438D01*
X118475238Y-118580819D02*
X118713333Y-119580819D01*
X118713333Y-119580819D02*
X118903809Y-118866533D01*
X118903809Y-118866533D02*
X119094285Y-119580819D01*
X119094285Y-119580819D02*
X119332381Y-118580819D01*
X120237142Y-119580819D02*
X119665714Y-119580819D01*
X119951428Y-119580819D02*
X119951428Y-118580819D01*
X119951428Y-118580819D02*
X119856190Y-118723676D01*
X119856190Y-118723676D02*
X119760952Y-118818914D01*
X119760952Y-118818914D02*
X119665714Y-118866533D01*
X120618095Y-118676057D02*
X120665714Y-118628438D01*
X120665714Y-118628438D02*
X120760952Y-118580819D01*
X120760952Y-118580819D02*
X120999047Y-118580819D01*
X120999047Y-118580819D02*
X121094285Y-118628438D01*
X121094285Y-118628438D02*
X121141904Y-118676057D01*
X121141904Y-118676057D02*
X121189523Y-118771295D01*
X121189523Y-118771295D02*
X121189523Y-118866533D01*
X121189523Y-118866533D02*
X121141904Y-119009390D01*
X121141904Y-119009390D02*
X120570476Y-119580819D01*
X120570476Y-119580819D02*
X121189523Y-119580819D01*
X97250476Y-119533200D02*
X97393333Y-119580819D01*
X97393333Y-119580819D02*
X97631428Y-119580819D01*
X97631428Y-119580819D02*
X97726666Y-119533200D01*
X97726666Y-119533200D02*
X97774285Y-119485580D01*
X97774285Y-119485580D02*
X97821904Y-119390342D01*
X97821904Y-119390342D02*
X97821904Y-119295104D01*
X97821904Y-119295104D02*
X97774285Y-119199866D01*
X97774285Y-119199866D02*
X97726666Y-119152247D01*
X97726666Y-119152247D02*
X97631428Y-119104628D01*
X97631428Y-119104628D02*
X97440952Y-119057009D01*
X97440952Y-119057009D02*
X97345714Y-119009390D01*
X97345714Y-119009390D02*
X97298095Y-118961771D01*
X97298095Y-118961771D02*
X97250476Y-118866533D01*
X97250476Y-118866533D02*
X97250476Y-118771295D01*
X97250476Y-118771295D02*
X97298095Y-118676057D01*
X97298095Y-118676057D02*
X97345714Y-118628438D01*
X97345714Y-118628438D02*
X97440952Y-118580819D01*
X97440952Y-118580819D02*
X97679047Y-118580819D01*
X97679047Y-118580819D02*
X97821904Y-118628438D01*
X98155238Y-118580819D02*
X98393333Y-119580819D01*
X98393333Y-119580819D02*
X98583809Y-118866533D01*
X98583809Y-118866533D02*
X98774285Y-119580819D01*
X98774285Y-119580819D02*
X99012381Y-118580819D01*
X99917142Y-119580819D02*
X99345714Y-119580819D01*
X99631428Y-119580819D02*
X99631428Y-118580819D01*
X99631428Y-118580819D02*
X99536190Y-118723676D01*
X99536190Y-118723676D02*
X99440952Y-118818914D01*
X99440952Y-118818914D02*
X99345714Y-118866533D01*
X100869523Y-119580819D02*
X100298095Y-119580819D01*
X100583809Y-119580819D02*
X100583809Y-118580819D01*
X100583809Y-118580819D02*
X100488571Y-118723676D01*
X100488571Y-118723676D02*
X100393333Y-118818914D01*
X100393333Y-118818914D02*
X100298095Y-118866533D01*
X69310476Y-119533200D02*
X69453333Y-119580819D01*
X69453333Y-119580819D02*
X69691428Y-119580819D01*
X69691428Y-119580819D02*
X69786666Y-119533200D01*
X69786666Y-119533200D02*
X69834285Y-119485580D01*
X69834285Y-119485580D02*
X69881904Y-119390342D01*
X69881904Y-119390342D02*
X69881904Y-119295104D01*
X69881904Y-119295104D02*
X69834285Y-119199866D01*
X69834285Y-119199866D02*
X69786666Y-119152247D01*
X69786666Y-119152247D02*
X69691428Y-119104628D01*
X69691428Y-119104628D02*
X69500952Y-119057009D01*
X69500952Y-119057009D02*
X69405714Y-119009390D01*
X69405714Y-119009390D02*
X69358095Y-118961771D01*
X69358095Y-118961771D02*
X69310476Y-118866533D01*
X69310476Y-118866533D02*
X69310476Y-118771295D01*
X69310476Y-118771295D02*
X69358095Y-118676057D01*
X69358095Y-118676057D02*
X69405714Y-118628438D01*
X69405714Y-118628438D02*
X69500952Y-118580819D01*
X69500952Y-118580819D02*
X69739047Y-118580819D01*
X69739047Y-118580819D02*
X69881904Y-118628438D01*
X70215238Y-118580819D02*
X70453333Y-119580819D01*
X70453333Y-119580819D02*
X70643809Y-118866533D01*
X70643809Y-118866533D02*
X70834285Y-119580819D01*
X70834285Y-119580819D02*
X71072381Y-118580819D01*
X71977142Y-119580819D02*
X71405714Y-119580819D01*
X71691428Y-119580819D02*
X71691428Y-118580819D01*
X71691428Y-118580819D02*
X71596190Y-118723676D01*
X71596190Y-118723676D02*
X71500952Y-118818914D01*
X71500952Y-118818914D02*
X71405714Y-118866533D01*
X72596190Y-118580819D02*
X72691428Y-118580819D01*
X72691428Y-118580819D02*
X72786666Y-118628438D01*
X72786666Y-118628438D02*
X72834285Y-118676057D01*
X72834285Y-118676057D02*
X72881904Y-118771295D01*
X72881904Y-118771295D02*
X72929523Y-118961771D01*
X72929523Y-118961771D02*
X72929523Y-119199866D01*
X72929523Y-119199866D02*
X72881904Y-119390342D01*
X72881904Y-119390342D02*
X72834285Y-119485580D01*
X72834285Y-119485580D02*
X72786666Y-119533200D01*
X72786666Y-119533200D02*
X72691428Y-119580819D01*
X72691428Y-119580819D02*
X72596190Y-119580819D01*
X72596190Y-119580819D02*
X72500952Y-119533200D01*
X72500952Y-119533200D02*
X72453333Y-119485580D01*
X72453333Y-119485580D02*
X72405714Y-119390342D01*
X72405714Y-119390342D02*
X72358095Y-119199866D01*
X72358095Y-119199866D02*
X72358095Y-118961771D01*
X72358095Y-118961771D02*
X72405714Y-118771295D01*
X72405714Y-118771295D02*
X72453333Y-118676057D01*
X72453333Y-118676057D02*
X72500952Y-118628438D01*
X72500952Y-118628438D02*
X72596190Y-118580819D01*
X49466667Y-119533200D02*
X49609524Y-119580819D01*
X49609524Y-119580819D02*
X49847619Y-119580819D01*
X49847619Y-119580819D02*
X49942857Y-119533200D01*
X49942857Y-119533200D02*
X49990476Y-119485580D01*
X49990476Y-119485580D02*
X50038095Y-119390342D01*
X50038095Y-119390342D02*
X50038095Y-119295104D01*
X50038095Y-119295104D02*
X49990476Y-119199866D01*
X49990476Y-119199866D02*
X49942857Y-119152247D01*
X49942857Y-119152247D02*
X49847619Y-119104628D01*
X49847619Y-119104628D02*
X49657143Y-119057009D01*
X49657143Y-119057009D02*
X49561905Y-119009390D01*
X49561905Y-119009390D02*
X49514286Y-118961771D01*
X49514286Y-118961771D02*
X49466667Y-118866533D01*
X49466667Y-118866533D02*
X49466667Y-118771295D01*
X49466667Y-118771295D02*
X49514286Y-118676057D01*
X49514286Y-118676057D02*
X49561905Y-118628438D01*
X49561905Y-118628438D02*
X49657143Y-118580819D01*
X49657143Y-118580819D02*
X49895238Y-118580819D01*
X49895238Y-118580819D02*
X50038095Y-118628438D01*
X50371429Y-118580819D02*
X50609524Y-119580819D01*
X50609524Y-119580819D02*
X50800000Y-118866533D01*
X50800000Y-118866533D02*
X50990476Y-119580819D01*
X50990476Y-119580819D02*
X51228572Y-118580819D01*
X51657143Y-119580819D02*
X51847619Y-119580819D01*
X51847619Y-119580819D02*
X51942857Y-119533200D01*
X51942857Y-119533200D02*
X51990476Y-119485580D01*
X51990476Y-119485580D02*
X52085714Y-119342723D01*
X52085714Y-119342723D02*
X52133333Y-119152247D01*
X52133333Y-119152247D02*
X52133333Y-118771295D01*
X52133333Y-118771295D02*
X52085714Y-118676057D01*
X52085714Y-118676057D02*
X52038095Y-118628438D01*
X52038095Y-118628438D02*
X51942857Y-118580819D01*
X51942857Y-118580819D02*
X51752381Y-118580819D01*
X51752381Y-118580819D02*
X51657143Y-118628438D01*
X51657143Y-118628438D02*
X51609524Y-118676057D01*
X51609524Y-118676057D02*
X51561905Y-118771295D01*
X51561905Y-118771295D02*
X51561905Y-119009390D01*
X51561905Y-119009390D02*
X51609524Y-119104628D01*
X51609524Y-119104628D02*
X51657143Y-119152247D01*
X51657143Y-119152247D02*
X51752381Y-119199866D01*
X51752381Y-119199866D02*
X51942857Y-119199866D01*
X51942857Y-119199866D02*
X52038095Y-119152247D01*
X52038095Y-119152247D02*
X52085714Y-119104628D01*
X52085714Y-119104628D02*
X52133333Y-119009390D01*
X214566667Y-43333200D02*
X214709524Y-43380819D01*
X214709524Y-43380819D02*
X214947619Y-43380819D01*
X214947619Y-43380819D02*
X215042857Y-43333200D01*
X215042857Y-43333200D02*
X215090476Y-43285580D01*
X215090476Y-43285580D02*
X215138095Y-43190342D01*
X215138095Y-43190342D02*
X215138095Y-43095104D01*
X215138095Y-43095104D02*
X215090476Y-42999866D01*
X215090476Y-42999866D02*
X215042857Y-42952247D01*
X215042857Y-42952247D02*
X214947619Y-42904628D01*
X214947619Y-42904628D02*
X214757143Y-42857009D01*
X214757143Y-42857009D02*
X214661905Y-42809390D01*
X214661905Y-42809390D02*
X214614286Y-42761771D01*
X214614286Y-42761771D02*
X214566667Y-42666533D01*
X214566667Y-42666533D02*
X214566667Y-42571295D01*
X214566667Y-42571295D02*
X214614286Y-42476057D01*
X214614286Y-42476057D02*
X214661905Y-42428438D01*
X214661905Y-42428438D02*
X214757143Y-42380819D01*
X214757143Y-42380819D02*
X214995238Y-42380819D01*
X214995238Y-42380819D02*
X215138095Y-42428438D01*
X215471429Y-42380819D02*
X215709524Y-43380819D01*
X215709524Y-43380819D02*
X215900000Y-42666533D01*
X215900000Y-42666533D02*
X216090476Y-43380819D01*
X216090476Y-43380819D02*
X216328572Y-42380819D01*
X216852381Y-42809390D02*
X216757143Y-42761771D01*
X216757143Y-42761771D02*
X216709524Y-42714152D01*
X216709524Y-42714152D02*
X216661905Y-42618914D01*
X216661905Y-42618914D02*
X216661905Y-42571295D01*
X216661905Y-42571295D02*
X216709524Y-42476057D01*
X216709524Y-42476057D02*
X216757143Y-42428438D01*
X216757143Y-42428438D02*
X216852381Y-42380819D01*
X216852381Y-42380819D02*
X217042857Y-42380819D01*
X217042857Y-42380819D02*
X217138095Y-42428438D01*
X217138095Y-42428438D02*
X217185714Y-42476057D01*
X217185714Y-42476057D02*
X217233333Y-42571295D01*
X217233333Y-42571295D02*
X217233333Y-42618914D01*
X217233333Y-42618914D02*
X217185714Y-42714152D01*
X217185714Y-42714152D02*
X217138095Y-42761771D01*
X217138095Y-42761771D02*
X217042857Y-42809390D01*
X217042857Y-42809390D02*
X216852381Y-42809390D01*
X216852381Y-42809390D02*
X216757143Y-42857009D01*
X216757143Y-42857009D02*
X216709524Y-42904628D01*
X216709524Y-42904628D02*
X216661905Y-42999866D01*
X216661905Y-42999866D02*
X216661905Y-43190342D01*
X216661905Y-43190342D02*
X216709524Y-43285580D01*
X216709524Y-43285580D02*
X216757143Y-43333200D01*
X216757143Y-43333200D02*
X216852381Y-43380819D01*
X216852381Y-43380819D02*
X217042857Y-43380819D01*
X217042857Y-43380819D02*
X217138095Y-43333200D01*
X217138095Y-43333200D02*
X217185714Y-43285580D01*
X217185714Y-43285580D02*
X217233333Y-43190342D01*
X217233333Y-43190342D02*
X217233333Y-42999866D01*
X217233333Y-42999866D02*
X217185714Y-42904628D01*
X217185714Y-42904628D02*
X217138095Y-42857009D01*
X217138095Y-42857009D02*
X217042857Y-42809390D01*
X194246667Y-43333200D02*
X194389524Y-43380819D01*
X194389524Y-43380819D02*
X194627619Y-43380819D01*
X194627619Y-43380819D02*
X194722857Y-43333200D01*
X194722857Y-43333200D02*
X194770476Y-43285580D01*
X194770476Y-43285580D02*
X194818095Y-43190342D01*
X194818095Y-43190342D02*
X194818095Y-43095104D01*
X194818095Y-43095104D02*
X194770476Y-42999866D01*
X194770476Y-42999866D02*
X194722857Y-42952247D01*
X194722857Y-42952247D02*
X194627619Y-42904628D01*
X194627619Y-42904628D02*
X194437143Y-42857009D01*
X194437143Y-42857009D02*
X194341905Y-42809390D01*
X194341905Y-42809390D02*
X194294286Y-42761771D01*
X194294286Y-42761771D02*
X194246667Y-42666533D01*
X194246667Y-42666533D02*
X194246667Y-42571295D01*
X194246667Y-42571295D02*
X194294286Y-42476057D01*
X194294286Y-42476057D02*
X194341905Y-42428438D01*
X194341905Y-42428438D02*
X194437143Y-42380819D01*
X194437143Y-42380819D02*
X194675238Y-42380819D01*
X194675238Y-42380819D02*
X194818095Y-42428438D01*
X195151429Y-42380819D02*
X195389524Y-43380819D01*
X195389524Y-43380819D02*
X195580000Y-42666533D01*
X195580000Y-42666533D02*
X195770476Y-43380819D01*
X195770476Y-43380819D02*
X196008572Y-42380819D01*
X196294286Y-42380819D02*
X196960952Y-42380819D01*
X196960952Y-42380819D02*
X196532381Y-43380819D01*
X166306667Y-43333200D02*
X166449524Y-43380819D01*
X166449524Y-43380819D02*
X166687619Y-43380819D01*
X166687619Y-43380819D02*
X166782857Y-43333200D01*
X166782857Y-43333200D02*
X166830476Y-43285580D01*
X166830476Y-43285580D02*
X166878095Y-43190342D01*
X166878095Y-43190342D02*
X166878095Y-43095104D01*
X166878095Y-43095104D02*
X166830476Y-42999866D01*
X166830476Y-42999866D02*
X166782857Y-42952247D01*
X166782857Y-42952247D02*
X166687619Y-42904628D01*
X166687619Y-42904628D02*
X166497143Y-42857009D01*
X166497143Y-42857009D02*
X166401905Y-42809390D01*
X166401905Y-42809390D02*
X166354286Y-42761771D01*
X166354286Y-42761771D02*
X166306667Y-42666533D01*
X166306667Y-42666533D02*
X166306667Y-42571295D01*
X166306667Y-42571295D02*
X166354286Y-42476057D01*
X166354286Y-42476057D02*
X166401905Y-42428438D01*
X166401905Y-42428438D02*
X166497143Y-42380819D01*
X166497143Y-42380819D02*
X166735238Y-42380819D01*
X166735238Y-42380819D02*
X166878095Y-42428438D01*
X167211429Y-42380819D02*
X167449524Y-43380819D01*
X167449524Y-43380819D02*
X167640000Y-42666533D01*
X167640000Y-42666533D02*
X167830476Y-43380819D01*
X167830476Y-43380819D02*
X168068572Y-42380819D01*
X168878095Y-42380819D02*
X168687619Y-42380819D01*
X168687619Y-42380819D02*
X168592381Y-42428438D01*
X168592381Y-42428438D02*
X168544762Y-42476057D01*
X168544762Y-42476057D02*
X168449524Y-42618914D01*
X168449524Y-42618914D02*
X168401905Y-42809390D01*
X168401905Y-42809390D02*
X168401905Y-43190342D01*
X168401905Y-43190342D02*
X168449524Y-43285580D01*
X168449524Y-43285580D02*
X168497143Y-43333200D01*
X168497143Y-43333200D02*
X168592381Y-43380819D01*
X168592381Y-43380819D02*
X168782857Y-43380819D01*
X168782857Y-43380819D02*
X168878095Y-43333200D01*
X168878095Y-43333200D02*
X168925714Y-43285580D01*
X168925714Y-43285580D02*
X168973333Y-43190342D01*
X168973333Y-43190342D02*
X168973333Y-42952247D01*
X168973333Y-42952247D02*
X168925714Y-42857009D01*
X168925714Y-42857009D02*
X168878095Y-42809390D01*
X168878095Y-42809390D02*
X168782857Y-42761771D01*
X168782857Y-42761771D02*
X168592381Y-42761771D01*
X168592381Y-42761771D02*
X168497143Y-42809390D01*
X168497143Y-42809390D02*
X168449524Y-42857009D01*
X168449524Y-42857009D02*
X168401905Y-42952247D01*
X145986667Y-43333200D02*
X146129524Y-43380819D01*
X146129524Y-43380819D02*
X146367619Y-43380819D01*
X146367619Y-43380819D02*
X146462857Y-43333200D01*
X146462857Y-43333200D02*
X146510476Y-43285580D01*
X146510476Y-43285580D02*
X146558095Y-43190342D01*
X146558095Y-43190342D02*
X146558095Y-43095104D01*
X146558095Y-43095104D02*
X146510476Y-42999866D01*
X146510476Y-42999866D02*
X146462857Y-42952247D01*
X146462857Y-42952247D02*
X146367619Y-42904628D01*
X146367619Y-42904628D02*
X146177143Y-42857009D01*
X146177143Y-42857009D02*
X146081905Y-42809390D01*
X146081905Y-42809390D02*
X146034286Y-42761771D01*
X146034286Y-42761771D02*
X145986667Y-42666533D01*
X145986667Y-42666533D02*
X145986667Y-42571295D01*
X145986667Y-42571295D02*
X146034286Y-42476057D01*
X146034286Y-42476057D02*
X146081905Y-42428438D01*
X146081905Y-42428438D02*
X146177143Y-42380819D01*
X146177143Y-42380819D02*
X146415238Y-42380819D01*
X146415238Y-42380819D02*
X146558095Y-42428438D01*
X146891429Y-42380819D02*
X147129524Y-43380819D01*
X147129524Y-43380819D02*
X147320000Y-42666533D01*
X147320000Y-42666533D02*
X147510476Y-43380819D01*
X147510476Y-43380819D02*
X147748572Y-42380819D01*
X148605714Y-42380819D02*
X148129524Y-42380819D01*
X148129524Y-42380819D02*
X148081905Y-42857009D01*
X148081905Y-42857009D02*
X148129524Y-42809390D01*
X148129524Y-42809390D02*
X148224762Y-42761771D01*
X148224762Y-42761771D02*
X148462857Y-42761771D01*
X148462857Y-42761771D02*
X148558095Y-42809390D01*
X148558095Y-42809390D02*
X148605714Y-42857009D01*
X148605714Y-42857009D02*
X148653333Y-42952247D01*
X148653333Y-42952247D02*
X148653333Y-43190342D01*
X148653333Y-43190342D02*
X148605714Y-43285580D01*
X148605714Y-43285580D02*
X148558095Y-43333200D01*
X148558095Y-43333200D02*
X148462857Y-43380819D01*
X148462857Y-43380819D02*
X148224762Y-43380819D01*
X148224762Y-43380819D02*
X148129524Y-43333200D01*
X148129524Y-43333200D02*
X148081905Y-43285580D01*
X118046667Y-43333200D02*
X118189524Y-43380819D01*
X118189524Y-43380819D02*
X118427619Y-43380819D01*
X118427619Y-43380819D02*
X118522857Y-43333200D01*
X118522857Y-43333200D02*
X118570476Y-43285580D01*
X118570476Y-43285580D02*
X118618095Y-43190342D01*
X118618095Y-43190342D02*
X118618095Y-43095104D01*
X118618095Y-43095104D02*
X118570476Y-42999866D01*
X118570476Y-42999866D02*
X118522857Y-42952247D01*
X118522857Y-42952247D02*
X118427619Y-42904628D01*
X118427619Y-42904628D02*
X118237143Y-42857009D01*
X118237143Y-42857009D02*
X118141905Y-42809390D01*
X118141905Y-42809390D02*
X118094286Y-42761771D01*
X118094286Y-42761771D02*
X118046667Y-42666533D01*
X118046667Y-42666533D02*
X118046667Y-42571295D01*
X118046667Y-42571295D02*
X118094286Y-42476057D01*
X118094286Y-42476057D02*
X118141905Y-42428438D01*
X118141905Y-42428438D02*
X118237143Y-42380819D01*
X118237143Y-42380819D02*
X118475238Y-42380819D01*
X118475238Y-42380819D02*
X118618095Y-42428438D01*
X118951429Y-42380819D02*
X119189524Y-43380819D01*
X119189524Y-43380819D02*
X119380000Y-42666533D01*
X119380000Y-42666533D02*
X119570476Y-43380819D01*
X119570476Y-43380819D02*
X119808572Y-42380819D01*
X120618095Y-42714152D02*
X120618095Y-43380819D01*
X120380000Y-42333200D02*
X120141905Y-43047485D01*
X120141905Y-43047485D02*
X120760952Y-43047485D01*
X97726667Y-43333200D02*
X97869524Y-43380819D01*
X97869524Y-43380819D02*
X98107619Y-43380819D01*
X98107619Y-43380819D02*
X98202857Y-43333200D01*
X98202857Y-43333200D02*
X98250476Y-43285580D01*
X98250476Y-43285580D02*
X98298095Y-43190342D01*
X98298095Y-43190342D02*
X98298095Y-43095104D01*
X98298095Y-43095104D02*
X98250476Y-42999866D01*
X98250476Y-42999866D02*
X98202857Y-42952247D01*
X98202857Y-42952247D02*
X98107619Y-42904628D01*
X98107619Y-42904628D02*
X97917143Y-42857009D01*
X97917143Y-42857009D02*
X97821905Y-42809390D01*
X97821905Y-42809390D02*
X97774286Y-42761771D01*
X97774286Y-42761771D02*
X97726667Y-42666533D01*
X97726667Y-42666533D02*
X97726667Y-42571295D01*
X97726667Y-42571295D02*
X97774286Y-42476057D01*
X97774286Y-42476057D02*
X97821905Y-42428438D01*
X97821905Y-42428438D02*
X97917143Y-42380819D01*
X97917143Y-42380819D02*
X98155238Y-42380819D01*
X98155238Y-42380819D02*
X98298095Y-42428438D01*
X98631429Y-42380819D02*
X98869524Y-43380819D01*
X98869524Y-43380819D02*
X99060000Y-42666533D01*
X99060000Y-42666533D02*
X99250476Y-43380819D01*
X99250476Y-43380819D02*
X99488572Y-42380819D01*
X99774286Y-42380819D02*
X100393333Y-42380819D01*
X100393333Y-42380819D02*
X100060000Y-42761771D01*
X100060000Y-42761771D02*
X100202857Y-42761771D01*
X100202857Y-42761771D02*
X100298095Y-42809390D01*
X100298095Y-42809390D02*
X100345714Y-42857009D01*
X100345714Y-42857009D02*
X100393333Y-42952247D01*
X100393333Y-42952247D02*
X100393333Y-43190342D01*
X100393333Y-43190342D02*
X100345714Y-43285580D01*
X100345714Y-43285580D02*
X100298095Y-43333200D01*
X100298095Y-43333200D02*
X100202857Y-43380819D01*
X100202857Y-43380819D02*
X99917143Y-43380819D01*
X99917143Y-43380819D02*
X99821905Y-43333200D01*
X99821905Y-43333200D02*
X99774286Y-43285580D01*
X69786667Y-43333200D02*
X69929524Y-43380819D01*
X69929524Y-43380819D02*
X70167619Y-43380819D01*
X70167619Y-43380819D02*
X70262857Y-43333200D01*
X70262857Y-43333200D02*
X70310476Y-43285580D01*
X70310476Y-43285580D02*
X70358095Y-43190342D01*
X70358095Y-43190342D02*
X70358095Y-43095104D01*
X70358095Y-43095104D02*
X70310476Y-42999866D01*
X70310476Y-42999866D02*
X70262857Y-42952247D01*
X70262857Y-42952247D02*
X70167619Y-42904628D01*
X70167619Y-42904628D02*
X69977143Y-42857009D01*
X69977143Y-42857009D02*
X69881905Y-42809390D01*
X69881905Y-42809390D02*
X69834286Y-42761771D01*
X69834286Y-42761771D02*
X69786667Y-42666533D01*
X69786667Y-42666533D02*
X69786667Y-42571295D01*
X69786667Y-42571295D02*
X69834286Y-42476057D01*
X69834286Y-42476057D02*
X69881905Y-42428438D01*
X69881905Y-42428438D02*
X69977143Y-42380819D01*
X69977143Y-42380819D02*
X70215238Y-42380819D01*
X70215238Y-42380819D02*
X70358095Y-42428438D01*
X70691429Y-42380819D02*
X70929524Y-43380819D01*
X70929524Y-43380819D02*
X71120000Y-42666533D01*
X71120000Y-42666533D02*
X71310476Y-43380819D01*
X71310476Y-43380819D02*
X71548572Y-42380819D01*
X71881905Y-42476057D02*
X71929524Y-42428438D01*
X71929524Y-42428438D02*
X72024762Y-42380819D01*
X72024762Y-42380819D02*
X72262857Y-42380819D01*
X72262857Y-42380819D02*
X72358095Y-42428438D01*
X72358095Y-42428438D02*
X72405714Y-42476057D01*
X72405714Y-42476057D02*
X72453333Y-42571295D01*
X72453333Y-42571295D02*
X72453333Y-42666533D01*
X72453333Y-42666533D02*
X72405714Y-42809390D01*
X72405714Y-42809390D02*
X71834286Y-43380819D01*
X71834286Y-43380819D02*
X72453333Y-43380819D01*
X49466667Y-43333200D02*
X49609524Y-43380819D01*
X49609524Y-43380819D02*
X49847619Y-43380819D01*
X49847619Y-43380819D02*
X49942857Y-43333200D01*
X49942857Y-43333200D02*
X49990476Y-43285580D01*
X49990476Y-43285580D02*
X50038095Y-43190342D01*
X50038095Y-43190342D02*
X50038095Y-43095104D01*
X50038095Y-43095104D02*
X49990476Y-42999866D01*
X49990476Y-42999866D02*
X49942857Y-42952247D01*
X49942857Y-42952247D02*
X49847619Y-42904628D01*
X49847619Y-42904628D02*
X49657143Y-42857009D01*
X49657143Y-42857009D02*
X49561905Y-42809390D01*
X49561905Y-42809390D02*
X49514286Y-42761771D01*
X49514286Y-42761771D02*
X49466667Y-42666533D01*
X49466667Y-42666533D02*
X49466667Y-42571295D01*
X49466667Y-42571295D02*
X49514286Y-42476057D01*
X49514286Y-42476057D02*
X49561905Y-42428438D01*
X49561905Y-42428438D02*
X49657143Y-42380819D01*
X49657143Y-42380819D02*
X49895238Y-42380819D01*
X49895238Y-42380819D02*
X50038095Y-42428438D01*
X50371429Y-42380819D02*
X50609524Y-43380819D01*
X50609524Y-43380819D02*
X50800000Y-42666533D01*
X50800000Y-42666533D02*
X50990476Y-43380819D01*
X50990476Y-43380819D02*
X51228572Y-42380819D01*
X52133333Y-43380819D02*
X51561905Y-43380819D01*
X51847619Y-43380819D02*
X51847619Y-42380819D01*
X51847619Y-42380819D02*
X51752381Y-42523676D01*
X51752381Y-42523676D02*
X51657143Y-42618914D01*
X51657143Y-42618914D02*
X51561905Y-42666533D01*
X166997142Y-115389819D02*
X166663809Y-114913628D01*
X166425714Y-115389819D02*
X166425714Y-114389819D01*
X166425714Y-114389819D02*
X166806666Y-114389819D01*
X166806666Y-114389819D02*
X166901904Y-114437438D01*
X166901904Y-114437438D02*
X166949523Y-114485057D01*
X166949523Y-114485057D02*
X166997142Y-114580295D01*
X166997142Y-114580295D02*
X166997142Y-114723152D01*
X166997142Y-114723152D02*
X166949523Y-114818390D01*
X166949523Y-114818390D02*
X166901904Y-114866009D01*
X166901904Y-114866009D02*
X166806666Y-114913628D01*
X166806666Y-114913628D02*
X166425714Y-114913628D01*
X167949523Y-115389819D02*
X167378095Y-115389819D01*
X167663809Y-115389819D02*
X167663809Y-114389819D01*
X167663809Y-114389819D02*
X167568571Y-114532676D01*
X167568571Y-114532676D02*
X167473333Y-114627914D01*
X167473333Y-114627914D02*
X167378095Y-114675533D01*
X168806666Y-114723152D02*
X168806666Y-115389819D01*
X168568571Y-114342200D02*
X168330476Y-115056485D01*
X168330476Y-115056485D02*
X168949523Y-115056485D01*
X193667142Y-114754819D02*
X193333809Y-114278628D01*
X193095714Y-114754819D02*
X193095714Y-113754819D01*
X193095714Y-113754819D02*
X193476666Y-113754819D01*
X193476666Y-113754819D02*
X193571904Y-113802438D01*
X193571904Y-113802438D02*
X193619523Y-113850057D01*
X193619523Y-113850057D02*
X193667142Y-113945295D01*
X193667142Y-113945295D02*
X193667142Y-114088152D01*
X193667142Y-114088152D02*
X193619523Y-114183390D01*
X193619523Y-114183390D02*
X193571904Y-114231009D01*
X193571904Y-114231009D02*
X193476666Y-114278628D01*
X193476666Y-114278628D02*
X193095714Y-114278628D01*
X194619523Y-114754819D02*
X194048095Y-114754819D01*
X194333809Y-114754819D02*
X194333809Y-113754819D01*
X194333809Y-113754819D02*
X194238571Y-113897676D01*
X194238571Y-113897676D02*
X194143333Y-113992914D01*
X194143333Y-113992914D02*
X194048095Y-114040533D01*
X195524285Y-113754819D02*
X195048095Y-113754819D01*
X195048095Y-113754819D02*
X195000476Y-114231009D01*
X195000476Y-114231009D02*
X195048095Y-114183390D01*
X195048095Y-114183390D02*
X195143333Y-114135771D01*
X195143333Y-114135771D02*
X195381428Y-114135771D01*
X195381428Y-114135771D02*
X195476666Y-114183390D01*
X195476666Y-114183390D02*
X195524285Y-114231009D01*
X195524285Y-114231009D02*
X195571904Y-114326247D01*
X195571904Y-114326247D02*
X195571904Y-114564342D01*
X195571904Y-114564342D02*
X195524285Y-114659580D01*
X195524285Y-114659580D02*
X195476666Y-114707200D01*
X195476666Y-114707200D02*
X195381428Y-114754819D01*
X195381428Y-114754819D02*
X195143333Y-114754819D01*
X195143333Y-114754819D02*
X195048095Y-114707200D01*
X195048095Y-114707200D02*
X195000476Y-114659580D01*
D11*
X46879048Y-72617419D02*
X47117143Y-73617419D01*
X47117143Y-73617419D02*
X47307619Y-72903133D01*
X47307619Y-72903133D02*
X47498095Y-73617419D01*
X47498095Y-73617419D02*
X47736191Y-72617419D01*
X48069524Y-73569800D02*
X48212381Y-73617419D01*
X48212381Y-73617419D02*
X48450476Y-73617419D01*
X48450476Y-73617419D02*
X48545714Y-73569800D01*
X48545714Y-73569800D02*
X48593333Y-73522180D01*
X48593333Y-73522180D02*
X48640952Y-73426942D01*
X48640952Y-73426942D02*
X48640952Y-73331704D01*
X48640952Y-73331704D02*
X48593333Y-73236466D01*
X48593333Y-73236466D02*
X48545714Y-73188847D01*
X48545714Y-73188847D02*
X48450476Y-73141228D01*
X48450476Y-73141228D02*
X48260000Y-73093609D01*
X48260000Y-73093609D02*
X48164762Y-73045990D01*
X48164762Y-73045990D02*
X48117143Y-72998371D01*
X48117143Y-72998371D02*
X48069524Y-72903133D01*
X48069524Y-72903133D02*
X48069524Y-72807895D01*
X48069524Y-72807895D02*
X48117143Y-72712657D01*
X48117143Y-72712657D02*
X48164762Y-72665038D01*
X48164762Y-72665038D02*
X48260000Y-72617419D01*
X48260000Y-72617419D02*
X48498095Y-72617419D01*
X48498095Y-72617419D02*
X48640952Y-72665038D01*
X49021905Y-72712657D02*
X49069524Y-72665038D01*
X49069524Y-72665038D02*
X49164762Y-72617419D01*
X49164762Y-72617419D02*
X49402857Y-72617419D01*
X49402857Y-72617419D02*
X49498095Y-72665038D01*
X49498095Y-72665038D02*
X49545714Y-72712657D01*
X49545714Y-72712657D02*
X49593333Y-72807895D01*
X49593333Y-72807895D02*
X49593333Y-72903133D01*
X49593333Y-72903133D02*
X49545714Y-73045990D01*
X49545714Y-73045990D02*
X48974286Y-73617419D01*
X48974286Y-73617419D02*
X49593333Y-73617419D01*
X44753884Y-69341466D02*
X45515789Y-69341466D01*
X45134836Y-69722419D02*
X45134836Y-68960514D01*
X48563884Y-69341466D02*
X49325789Y-69341466D01*
X51103884Y-69722419D02*
X51103884Y-68722419D01*
X51103884Y-68722419D02*
X51341979Y-68722419D01*
X51341979Y-68722419D02*
X51484836Y-68770038D01*
X51484836Y-68770038D02*
X51580074Y-68865276D01*
X51580074Y-68865276D02*
X51627693Y-68960514D01*
X51627693Y-68960514D02*
X51675312Y-69150990D01*
X51675312Y-69150990D02*
X51675312Y-69293847D01*
X51675312Y-69293847D02*
X51627693Y-69484323D01*
X51627693Y-69484323D02*
X51580074Y-69579561D01*
X51580074Y-69579561D02*
X51484836Y-69674800D01*
X51484836Y-69674800D02*
X51341979Y-69722419D01*
X51341979Y-69722419D02*
X51103884Y-69722419D01*
D10*
X144653333Y-100689580D02*
X144605714Y-100737200D01*
X144605714Y-100737200D02*
X144462857Y-100784819D01*
X144462857Y-100784819D02*
X144367619Y-100784819D01*
X144367619Y-100784819D02*
X144224762Y-100737200D01*
X144224762Y-100737200D02*
X144129524Y-100641961D01*
X144129524Y-100641961D02*
X144081905Y-100546723D01*
X144081905Y-100546723D02*
X144034286Y-100356247D01*
X144034286Y-100356247D02*
X144034286Y-100213390D01*
X144034286Y-100213390D02*
X144081905Y-100022914D01*
X144081905Y-100022914D02*
X144129524Y-99927676D01*
X144129524Y-99927676D02*
X144224762Y-99832438D01*
X144224762Y-99832438D02*
X144367619Y-99784819D01*
X144367619Y-99784819D02*
X144462857Y-99784819D01*
X144462857Y-99784819D02*
X144605714Y-99832438D01*
X144605714Y-99832438D02*
X144653333Y-99880057D01*
X145510476Y-100118152D02*
X145510476Y-100784819D01*
X145272381Y-99737200D02*
X145034286Y-100451485D01*
X145034286Y-100451485D02*
X145653333Y-100451485D01*
X214463333Y-60779819D02*
X214130000Y-60303628D01*
X213891905Y-60779819D02*
X213891905Y-59779819D01*
X213891905Y-59779819D02*
X214272857Y-59779819D01*
X214272857Y-59779819D02*
X214368095Y-59827438D01*
X214368095Y-59827438D02*
X214415714Y-59875057D01*
X214415714Y-59875057D02*
X214463333Y-59970295D01*
X214463333Y-59970295D02*
X214463333Y-60113152D01*
X214463333Y-60113152D02*
X214415714Y-60208390D01*
X214415714Y-60208390D02*
X214368095Y-60256009D01*
X214368095Y-60256009D02*
X214272857Y-60303628D01*
X214272857Y-60303628D02*
X213891905Y-60303628D01*
X215034762Y-60208390D02*
X214939524Y-60160771D01*
X214939524Y-60160771D02*
X214891905Y-60113152D01*
X214891905Y-60113152D02*
X214844286Y-60017914D01*
X214844286Y-60017914D02*
X214844286Y-59970295D01*
X214844286Y-59970295D02*
X214891905Y-59875057D01*
X214891905Y-59875057D02*
X214939524Y-59827438D01*
X214939524Y-59827438D02*
X215034762Y-59779819D01*
X215034762Y-59779819D02*
X215225238Y-59779819D01*
X215225238Y-59779819D02*
X215320476Y-59827438D01*
X215320476Y-59827438D02*
X215368095Y-59875057D01*
X215368095Y-59875057D02*
X215415714Y-59970295D01*
X215415714Y-59970295D02*
X215415714Y-60017914D01*
X215415714Y-60017914D02*
X215368095Y-60113152D01*
X215368095Y-60113152D02*
X215320476Y-60160771D01*
X215320476Y-60160771D02*
X215225238Y-60208390D01*
X215225238Y-60208390D02*
X215034762Y-60208390D01*
X215034762Y-60208390D02*
X214939524Y-60256009D01*
X214939524Y-60256009D02*
X214891905Y-60303628D01*
X214891905Y-60303628D02*
X214844286Y-60398866D01*
X214844286Y-60398866D02*
X214844286Y-60589342D01*
X214844286Y-60589342D02*
X214891905Y-60684580D01*
X214891905Y-60684580D02*
X214939524Y-60732200D01*
X214939524Y-60732200D02*
X215034762Y-60779819D01*
X215034762Y-60779819D02*
X215225238Y-60779819D01*
X215225238Y-60779819D02*
X215320476Y-60732200D01*
X215320476Y-60732200D02*
X215368095Y-60684580D01*
X215368095Y-60684580D02*
X215415714Y-60589342D01*
X215415714Y-60589342D02*
X215415714Y-60398866D01*
X215415714Y-60398866D02*
X215368095Y-60303628D01*
X215368095Y-60303628D02*
X215320476Y-60256009D01*
X215320476Y-60256009D02*
X215225238Y-60208390D01*
X98417142Y-115389819D02*
X98083809Y-114913628D01*
X97845714Y-115389819D02*
X97845714Y-114389819D01*
X97845714Y-114389819D02*
X98226666Y-114389819D01*
X98226666Y-114389819D02*
X98321904Y-114437438D01*
X98321904Y-114437438D02*
X98369523Y-114485057D01*
X98369523Y-114485057D02*
X98417142Y-114580295D01*
X98417142Y-114580295D02*
X98417142Y-114723152D01*
X98417142Y-114723152D02*
X98369523Y-114818390D01*
X98369523Y-114818390D02*
X98321904Y-114866009D01*
X98321904Y-114866009D02*
X98226666Y-114913628D01*
X98226666Y-114913628D02*
X97845714Y-114913628D01*
X99369523Y-115389819D02*
X98798095Y-115389819D01*
X99083809Y-115389819D02*
X99083809Y-114389819D01*
X99083809Y-114389819D02*
X98988571Y-114532676D01*
X98988571Y-114532676D02*
X98893333Y-114627914D01*
X98893333Y-114627914D02*
X98798095Y-114675533D01*
X100321904Y-115389819D02*
X99750476Y-115389819D01*
X100036190Y-115389819D02*
X100036190Y-114389819D01*
X100036190Y-114389819D02*
X99940952Y-114532676D01*
X99940952Y-114532676D02*
X99845714Y-114627914D01*
X99845714Y-114627914D02*
X99750476Y-114675533D01*
X117943333Y-60779819D02*
X117610000Y-60303628D01*
X117371905Y-60779819D02*
X117371905Y-59779819D01*
X117371905Y-59779819D02*
X117752857Y-59779819D01*
X117752857Y-59779819D02*
X117848095Y-59827438D01*
X117848095Y-59827438D02*
X117895714Y-59875057D01*
X117895714Y-59875057D02*
X117943333Y-59970295D01*
X117943333Y-59970295D02*
X117943333Y-60113152D01*
X117943333Y-60113152D02*
X117895714Y-60208390D01*
X117895714Y-60208390D02*
X117848095Y-60256009D01*
X117848095Y-60256009D02*
X117752857Y-60303628D01*
X117752857Y-60303628D02*
X117371905Y-60303628D01*
X118800476Y-60113152D02*
X118800476Y-60779819D01*
X118562381Y-59732200D02*
X118324286Y-60446485D01*
X118324286Y-60446485D02*
X118943333Y-60446485D01*
X49363333Y-60779819D02*
X49030000Y-60303628D01*
X48791905Y-60779819D02*
X48791905Y-59779819D01*
X48791905Y-59779819D02*
X49172857Y-59779819D01*
X49172857Y-59779819D02*
X49268095Y-59827438D01*
X49268095Y-59827438D02*
X49315714Y-59875057D01*
X49315714Y-59875057D02*
X49363333Y-59970295D01*
X49363333Y-59970295D02*
X49363333Y-60113152D01*
X49363333Y-60113152D02*
X49315714Y-60208390D01*
X49315714Y-60208390D02*
X49268095Y-60256009D01*
X49268095Y-60256009D02*
X49172857Y-60303628D01*
X49172857Y-60303628D02*
X48791905Y-60303628D01*
X50315714Y-60779819D02*
X49744286Y-60779819D01*
X50030000Y-60779819D02*
X50030000Y-59779819D01*
X50030000Y-59779819D02*
X49934762Y-59922676D01*
X49934762Y-59922676D02*
X49839524Y-60017914D01*
X49839524Y-60017914D02*
X49744286Y-60065533D01*
X215257142Y-114754819D02*
X214923809Y-114278628D01*
X214685714Y-114754819D02*
X214685714Y-113754819D01*
X214685714Y-113754819D02*
X215066666Y-113754819D01*
X215066666Y-113754819D02*
X215161904Y-113802438D01*
X215161904Y-113802438D02*
X215209523Y-113850057D01*
X215209523Y-113850057D02*
X215257142Y-113945295D01*
X215257142Y-113945295D02*
X215257142Y-114088152D01*
X215257142Y-114088152D02*
X215209523Y-114183390D01*
X215209523Y-114183390D02*
X215161904Y-114231009D01*
X215161904Y-114231009D02*
X215066666Y-114278628D01*
X215066666Y-114278628D02*
X214685714Y-114278628D01*
X216209523Y-114754819D02*
X215638095Y-114754819D01*
X215923809Y-114754819D02*
X215923809Y-113754819D01*
X215923809Y-113754819D02*
X215828571Y-113897676D01*
X215828571Y-113897676D02*
X215733333Y-113992914D01*
X215733333Y-113992914D02*
X215638095Y-114040533D01*
X217066666Y-113754819D02*
X216876190Y-113754819D01*
X216876190Y-113754819D02*
X216780952Y-113802438D01*
X216780952Y-113802438D02*
X216733333Y-113850057D01*
X216733333Y-113850057D02*
X216638095Y-113992914D01*
X216638095Y-113992914D02*
X216590476Y-114183390D01*
X216590476Y-114183390D02*
X216590476Y-114564342D01*
X216590476Y-114564342D02*
X216638095Y-114659580D01*
X216638095Y-114659580D02*
X216685714Y-114707200D01*
X216685714Y-114707200D02*
X216780952Y-114754819D01*
X216780952Y-114754819D02*
X216971428Y-114754819D01*
X216971428Y-114754819D02*
X217066666Y-114707200D01*
X217066666Y-114707200D02*
X217114285Y-114659580D01*
X217114285Y-114659580D02*
X217161904Y-114564342D01*
X217161904Y-114564342D02*
X217161904Y-114326247D01*
X217161904Y-114326247D02*
X217114285Y-114231009D01*
X217114285Y-114231009D02*
X217066666Y-114183390D01*
X217066666Y-114183390D02*
X216971428Y-114135771D01*
X216971428Y-114135771D02*
X216780952Y-114135771D01*
X216780952Y-114135771D02*
X216685714Y-114183390D01*
X216685714Y-114183390D02*
X216638095Y-114231009D01*
X216638095Y-114231009D02*
X216590476Y-114326247D01*
X239268333Y-114124580D02*
X239220714Y-114172200D01*
X239220714Y-114172200D02*
X239077857Y-114219819D01*
X239077857Y-114219819D02*
X238982619Y-114219819D01*
X238982619Y-114219819D02*
X238839762Y-114172200D01*
X238839762Y-114172200D02*
X238744524Y-114076961D01*
X238744524Y-114076961D02*
X238696905Y-113981723D01*
X238696905Y-113981723D02*
X238649286Y-113791247D01*
X238649286Y-113791247D02*
X238649286Y-113648390D01*
X238649286Y-113648390D02*
X238696905Y-113457914D01*
X238696905Y-113457914D02*
X238744524Y-113362676D01*
X238744524Y-113362676D02*
X238839762Y-113267438D01*
X238839762Y-113267438D02*
X238982619Y-113219819D01*
X238982619Y-113219819D02*
X239077857Y-113219819D01*
X239077857Y-113219819D02*
X239220714Y-113267438D01*
X239220714Y-113267438D02*
X239268333Y-113315057D01*
X240173095Y-113219819D02*
X239696905Y-113219819D01*
X239696905Y-113219819D02*
X239649286Y-113696009D01*
X239649286Y-113696009D02*
X239696905Y-113648390D01*
X239696905Y-113648390D02*
X239792143Y-113600771D01*
X239792143Y-113600771D02*
X240030238Y-113600771D01*
X240030238Y-113600771D02*
X240125476Y-113648390D01*
X240125476Y-113648390D02*
X240173095Y-113696009D01*
X240173095Y-113696009D02*
X240220714Y-113791247D01*
X240220714Y-113791247D02*
X240220714Y-114029342D01*
X240220714Y-114029342D02*
X240173095Y-114124580D01*
X240173095Y-114124580D02*
X240125476Y-114172200D01*
X240125476Y-114172200D02*
X240030238Y-114219819D01*
X240030238Y-114219819D02*
X239792143Y-114219819D01*
X239792143Y-114219819D02*
X239696905Y-114172200D01*
X239696905Y-114172200D02*
X239649286Y-114124580D01*
X97623333Y-60779819D02*
X97290000Y-60303628D01*
X97051905Y-60779819D02*
X97051905Y-59779819D01*
X97051905Y-59779819D02*
X97432857Y-59779819D01*
X97432857Y-59779819D02*
X97528095Y-59827438D01*
X97528095Y-59827438D02*
X97575714Y-59875057D01*
X97575714Y-59875057D02*
X97623333Y-59970295D01*
X97623333Y-59970295D02*
X97623333Y-60113152D01*
X97623333Y-60113152D02*
X97575714Y-60208390D01*
X97575714Y-60208390D02*
X97528095Y-60256009D01*
X97528095Y-60256009D02*
X97432857Y-60303628D01*
X97432857Y-60303628D02*
X97051905Y-60303628D01*
X97956667Y-59779819D02*
X98575714Y-59779819D01*
X98575714Y-59779819D02*
X98242381Y-60160771D01*
X98242381Y-60160771D02*
X98385238Y-60160771D01*
X98385238Y-60160771D02*
X98480476Y-60208390D01*
X98480476Y-60208390D02*
X98528095Y-60256009D01*
X98528095Y-60256009D02*
X98575714Y-60351247D01*
X98575714Y-60351247D02*
X98575714Y-60589342D01*
X98575714Y-60589342D02*
X98528095Y-60684580D01*
X98528095Y-60684580D02*
X98480476Y-60732200D01*
X98480476Y-60732200D02*
X98385238Y-60779819D01*
X98385238Y-60779819D02*
X98099524Y-60779819D01*
X98099524Y-60779819D02*
X98004286Y-60732200D01*
X98004286Y-60732200D02*
X97956667Y-60684580D01*
X102427200Y-95159523D02*
X102474819Y-95016666D01*
X102474819Y-95016666D02*
X102474819Y-94778571D01*
X102474819Y-94778571D02*
X102427200Y-94683333D01*
X102427200Y-94683333D02*
X102379580Y-94635714D01*
X102379580Y-94635714D02*
X102284342Y-94588095D01*
X102284342Y-94588095D02*
X102189104Y-94588095D01*
X102189104Y-94588095D02*
X102093866Y-94635714D01*
X102093866Y-94635714D02*
X102046247Y-94683333D01*
X102046247Y-94683333D02*
X101998628Y-94778571D01*
X101998628Y-94778571D02*
X101951009Y-94969047D01*
X101951009Y-94969047D02*
X101903390Y-95064285D01*
X101903390Y-95064285D02*
X101855771Y-95111904D01*
X101855771Y-95111904D02*
X101760533Y-95159523D01*
X101760533Y-95159523D02*
X101665295Y-95159523D01*
X101665295Y-95159523D02*
X101570057Y-95111904D01*
X101570057Y-95111904D02*
X101522438Y-95064285D01*
X101522438Y-95064285D02*
X101474819Y-94969047D01*
X101474819Y-94969047D02*
X101474819Y-94730952D01*
X101474819Y-94730952D02*
X101522438Y-94588095D01*
X101474819Y-94254761D02*
X102474819Y-94016666D01*
X102474819Y-94016666D02*
X101760533Y-93826190D01*
X101760533Y-93826190D02*
X102474819Y-93635714D01*
X102474819Y-93635714D02*
X101474819Y-93397619D01*
X101474819Y-93111904D02*
X101474819Y-92492857D01*
X101474819Y-92492857D02*
X101855771Y-92826190D01*
X101855771Y-92826190D02*
X101855771Y-92683333D01*
X101855771Y-92683333D02*
X101903390Y-92588095D01*
X101903390Y-92588095D02*
X101951009Y-92540476D01*
X101951009Y-92540476D02*
X102046247Y-92492857D01*
X102046247Y-92492857D02*
X102284342Y-92492857D01*
X102284342Y-92492857D02*
X102379580Y-92540476D01*
X102379580Y-92540476D02*
X102427200Y-92588095D01*
X102427200Y-92588095D02*
X102474819Y-92683333D01*
X102474819Y-92683333D02*
X102474819Y-92969047D01*
X102474819Y-92969047D02*
X102427200Y-93064285D01*
X102427200Y-93064285D02*
X102379580Y-93111904D01*
X101570057Y-92111904D02*
X101522438Y-92064285D01*
X101522438Y-92064285D02*
X101474819Y-91969047D01*
X101474819Y-91969047D02*
X101474819Y-91730952D01*
X101474819Y-91730952D02*
X101522438Y-91635714D01*
X101522438Y-91635714D02*
X101570057Y-91588095D01*
X101570057Y-91588095D02*
X101665295Y-91540476D01*
X101665295Y-91540476D02*
X101760533Y-91540476D01*
X101760533Y-91540476D02*
X101903390Y-91588095D01*
X101903390Y-91588095D02*
X102474819Y-92159523D01*
X102474819Y-92159523D02*
X102474819Y-91540476D01*
X150687200Y-95159523D02*
X150734819Y-95016666D01*
X150734819Y-95016666D02*
X150734819Y-94778571D01*
X150734819Y-94778571D02*
X150687200Y-94683333D01*
X150687200Y-94683333D02*
X150639580Y-94635714D01*
X150639580Y-94635714D02*
X150544342Y-94588095D01*
X150544342Y-94588095D02*
X150449104Y-94588095D01*
X150449104Y-94588095D02*
X150353866Y-94635714D01*
X150353866Y-94635714D02*
X150306247Y-94683333D01*
X150306247Y-94683333D02*
X150258628Y-94778571D01*
X150258628Y-94778571D02*
X150211009Y-94969047D01*
X150211009Y-94969047D02*
X150163390Y-95064285D01*
X150163390Y-95064285D02*
X150115771Y-95111904D01*
X150115771Y-95111904D02*
X150020533Y-95159523D01*
X150020533Y-95159523D02*
X149925295Y-95159523D01*
X149925295Y-95159523D02*
X149830057Y-95111904D01*
X149830057Y-95111904D02*
X149782438Y-95064285D01*
X149782438Y-95064285D02*
X149734819Y-94969047D01*
X149734819Y-94969047D02*
X149734819Y-94730952D01*
X149734819Y-94730952D02*
X149782438Y-94588095D01*
X149734819Y-94254761D02*
X150734819Y-94016666D01*
X150734819Y-94016666D02*
X150020533Y-93826190D01*
X150020533Y-93826190D02*
X150734819Y-93635714D01*
X150734819Y-93635714D02*
X149734819Y-93397619D01*
X149734819Y-93111904D02*
X149734819Y-92492857D01*
X149734819Y-92492857D02*
X150115771Y-92826190D01*
X150115771Y-92826190D02*
X150115771Y-92683333D01*
X150115771Y-92683333D02*
X150163390Y-92588095D01*
X150163390Y-92588095D02*
X150211009Y-92540476D01*
X150211009Y-92540476D02*
X150306247Y-92492857D01*
X150306247Y-92492857D02*
X150544342Y-92492857D01*
X150544342Y-92492857D02*
X150639580Y-92540476D01*
X150639580Y-92540476D02*
X150687200Y-92588095D01*
X150687200Y-92588095D02*
X150734819Y-92683333D01*
X150734819Y-92683333D02*
X150734819Y-92969047D01*
X150734819Y-92969047D02*
X150687200Y-93064285D01*
X150687200Y-93064285D02*
X150639580Y-93111904D01*
X150734819Y-91540476D02*
X150734819Y-92111904D01*
X150734819Y-91826190D02*
X149734819Y-91826190D01*
X149734819Y-91826190D02*
X149877676Y-91921428D01*
X149877676Y-91921428D02*
X149972914Y-92016666D01*
X149972914Y-92016666D02*
X150020533Y-92111904D01*
D11*
X46879048Y-110717419D02*
X47117143Y-111717419D01*
X47117143Y-111717419D02*
X47307619Y-111003133D01*
X47307619Y-111003133D02*
X47498095Y-111717419D01*
X47498095Y-111717419D02*
X47736191Y-110717419D01*
X48069524Y-111669800D02*
X48212381Y-111717419D01*
X48212381Y-111717419D02*
X48450476Y-111717419D01*
X48450476Y-111717419D02*
X48545714Y-111669800D01*
X48545714Y-111669800D02*
X48593333Y-111622180D01*
X48593333Y-111622180D02*
X48640952Y-111526942D01*
X48640952Y-111526942D02*
X48640952Y-111431704D01*
X48640952Y-111431704D02*
X48593333Y-111336466D01*
X48593333Y-111336466D02*
X48545714Y-111288847D01*
X48545714Y-111288847D02*
X48450476Y-111241228D01*
X48450476Y-111241228D02*
X48260000Y-111193609D01*
X48260000Y-111193609D02*
X48164762Y-111145990D01*
X48164762Y-111145990D02*
X48117143Y-111098371D01*
X48117143Y-111098371D02*
X48069524Y-111003133D01*
X48069524Y-111003133D02*
X48069524Y-110907895D01*
X48069524Y-110907895D02*
X48117143Y-110812657D01*
X48117143Y-110812657D02*
X48164762Y-110765038D01*
X48164762Y-110765038D02*
X48260000Y-110717419D01*
X48260000Y-110717419D02*
X48498095Y-110717419D01*
X48498095Y-110717419D02*
X48640952Y-110765038D01*
X48974286Y-110717419D02*
X49593333Y-110717419D01*
X49593333Y-110717419D02*
X49260000Y-111098371D01*
X49260000Y-111098371D02*
X49402857Y-111098371D01*
X49402857Y-111098371D02*
X49498095Y-111145990D01*
X49498095Y-111145990D02*
X49545714Y-111193609D01*
X49545714Y-111193609D02*
X49593333Y-111288847D01*
X49593333Y-111288847D02*
X49593333Y-111526942D01*
X49593333Y-111526942D02*
X49545714Y-111622180D01*
X49545714Y-111622180D02*
X49498095Y-111669800D01*
X49498095Y-111669800D02*
X49402857Y-111717419D01*
X49402857Y-111717419D02*
X49117143Y-111717419D01*
X49117143Y-111717419D02*
X49021905Y-111669800D01*
X49021905Y-111669800D02*
X48974286Y-111622180D01*
X44753884Y-107441466D02*
X45515789Y-107441466D01*
X45134836Y-107822419D02*
X45134836Y-107060514D01*
X48563884Y-107441466D02*
X49325789Y-107441466D01*
X51103884Y-107822419D02*
X51103884Y-106822419D01*
X51103884Y-106822419D02*
X51341979Y-106822419D01*
X51341979Y-106822419D02*
X51484836Y-106870038D01*
X51484836Y-106870038D02*
X51580074Y-106965276D01*
X51580074Y-106965276D02*
X51627693Y-107060514D01*
X51627693Y-107060514D02*
X51675312Y-107250990D01*
X51675312Y-107250990D02*
X51675312Y-107393847D01*
X51675312Y-107393847D02*
X51627693Y-107584323D01*
X51627693Y-107584323D02*
X51580074Y-107679561D01*
X51580074Y-107679561D02*
X51484836Y-107774800D01*
X51484836Y-107774800D02*
X51341979Y-107822419D01*
X51341979Y-107822419D02*
X51103884Y-107822419D01*
D10*
X234823333Y-125554580D02*
X234775714Y-125602200D01*
X234775714Y-125602200D02*
X234632857Y-125649819D01*
X234632857Y-125649819D02*
X234537619Y-125649819D01*
X234537619Y-125649819D02*
X234394762Y-125602200D01*
X234394762Y-125602200D02*
X234299524Y-125506961D01*
X234299524Y-125506961D02*
X234251905Y-125411723D01*
X234251905Y-125411723D02*
X234204286Y-125221247D01*
X234204286Y-125221247D02*
X234204286Y-125078390D01*
X234204286Y-125078390D02*
X234251905Y-124887914D01*
X234251905Y-124887914D02*
X234299524Y-124792676D01*
X234299524Y-124792676D02*
X234394762Y-124697438D01*
X234394762Y-124697438D02*
X234537619Y-124649819D01*
X234537619Y-124649819D02*
X234632857Y-124649819D01*
X234632857Y-124649819D02*
X234775714Y-124697438D01*
X234775714Y-124697438D02*
X234823333Y-124745057D01*
X235680476Y-124649819D02*
X235490000Y-124649819D01*
X235490000Y-124649819D02*
X235394762Y-124697438D01*
X235394762Y-124697438D02*
X235347143Y-124745057D01*
X235347143Y-124745057D02*
X235251905Y-124887914D01*
X235251905Y-124887914D02*
X235204286Y-125078390D01*
X235204286Y-125078390D02*
X235204286Y-125459342D01*
X235204286Y-125459342D02*
X235251905Y-125554580D01*
X235251905Y-125554580D02*
X235299524Y-125602200D01*
X235299524Y-125602200D02*
X235394762Y-125649819D01*
X235394762Y-125649819D02*
X235585238Y-125649819D01*
X235585238Y-125649819D02*
X235680476Y-125602200D01*
X235680476Y-125602200D02*
X235728095Y-125554580D01*
X235728095Y-125554580D02*
X235775714Y-125459342D01*
X235775714Y-125459342D02*
X235775714Y-125221247D01*
X235775714Y-125221247D02*
X235728095Y-125126009D01*
X235728095Y-125126009D02*
X235680476Y-125078390D01*
X235680476Y-125078390D02*
X235585238Y-125030771D01*
X235585238Y-125030771D02*
X235394762Y-125030771D01*
X235394762Y-125030771D02*
X235299524Y-125078390D01*
X235299524Y-125078390D02*
X235251905Y-125126009D01*
X235251905Y-125126009D02*
X235204286Y-125221247D01*
X54167200Y-95159523D02*
X54214819Y-95016666D01*
X54214819Y-95016666D02*
X54214819Y-94778571D01*
X54214819Y-94778571D02*
X54167200Y-94683333D01*
X54167200Y-94683333D02*
X54119580Y-94635714D01*
X54119580Y-94635714D02*
X54024342Y-94588095D01*
X54024342Y-94588095D02*
X53929104Y-94588095D01*
X53929104Y-94588095D02*
X53833866Y-94635714D01*
X53833866Y-94635714D02*
X53786247Y-94683333D01*
X53786247Y-94683333D02*
X53738628Y-94778571D01*
X53738628Y-94778571D02*
X53691009Y-94969047D01*
X53691009Y-94969047D02*
X53643390Y-95064285D01*
X53643390Y-95064285D02*
X53595771Y-95111904D01*
X53595771Y-95111904D02*
X53500533Y-95159523D01*
X53500533Y-95159523D02*
X53405295Y-95159523D01*
X53405295Y-95159523D02*
X53310057Y-95111904D01*
X53310057Y-95111904D02*
X53262438Y-95064285D01*
X53262438Y-95064285D02*
X53214819Y-94969047D01*
X53214819Y-94969047D02*
X53214819Y-94730952D01*
X53214819Y-94730952D02*
X53262438Y-94588095D01*
X53214819Y-94254761D02*
X54214819Y-94016666D01*
X54214819Y-94016666D02*
X53500533Y-93826190D01*
X53500533Y-93826190D02*
X54214819Y-93635714D01*
X54214819Y-93635714D02*
X53214819Y-93397619D01*
X53214819Y-93111904D02*
X53214819Y-92492857D01*
X53214819Y-92492857D02*
X53595771Y-92826190D01*
X53595771Y-92826190D02*
X53595771Y-92683333D01*
X53595771Y-92683333D02*
X53643390Y-92588095D01*
X53643390Y-92588095D02*
X53691009Y-92540476D01*
X53691009Y-92540476D02*
X53786247Y-92492857D01*
X53786247Y-92492857D02*
X54024342Y-92492857D01*
X54024342Y-92492857D02*
X54119580Y-92540476D01*
X54119580Y-92540476D02*
X54167200Y-92588095D01*
X54167200Y-92588095D02*
X54214819Y-92683333D01*
X54214819Y-92683333D02*
X54214819Y-92969047D01*
X54214819Y-92969047D02*
X54167200Y-93064285D01*
X54167200Y-93064285D02*
X54119580Y-93111904D01*
X53548152Y-91635714D02*
X54214819Y-91635714D01*
X53167200Y-91873809D02*
X53881485Y-92111904D01*
X53881485Y-92111904D02*
X53881485Y-91492857D01*
X50633333Y-115389819D02*
X50300000Y-114913628D01*
X50061905Y-115389819D02*
X50061905Y-114389819D01*
X50061905Y-114389819D02*
X50442857Y-114389819D01*
X50442857Y-114389819D02*
X50538095Y-114437438D01*
X50538095Y-114437438D02*
X50585714Y-114485057D01*
X50585714Y-114485057D02*
X50633333Y-114580295D01*
X50633333Y-114580295D02*
X50633333Y-114723152D01*
X50633333Y-114723152D02*
X50585714Y-114818390D01*
X50585714Y-114818390D02*
X50538095Y-114866009D01*
X50538095Y-114866009D02*
X50442857Y-114913628D01*
X50442857Y-114913628D02*
X50061905Y-114913628D01*
X51109524Y-115389819D02*
X51300000Y-115389819D01*
X51300000Y-115389819D02*
X51395238Y-115342200D01*
X51395238Y-115342200D02*
X51442857Y-115294580D01*
X51442857Y-115294580D02*
X51538095Y-115151723D01*
X51538095Y-115151723D02*
X51585714Y-114961247D01*
X51585714Y-114961247D02*
X51585714Y-114580295D01*
X51585714Y-114580295D02*
X51538095Y-114485057D01*
X51538095Y-114485057D02*
X51490476Y-114437438D01*
X51490476Y-114437438D02*
X51395238Y-114389819D01*
X51395238Y-114389819D02*
X51204762Y-114389819D01*
X51204762Y-114389819D02*
X51109524Y-114437438D01*
X51109524Y-114437438D02*
X51061905Y-114485057D01*
X51061905Y-114485057D02*
X51014286Y-114580295D01*
X51014286Y-114580295D02*
X51014286Y-114818390D01*
X51014286Y-114818390D02*
X51061905Y-114913628D01*
X51061905Y-114913628D02*
X51109524Y-114961247D01*
X51109524Y-114961247D02*
X51204762Y-115008866D01*
X51204762Y-115008866D02*
X51395238Y-115008866D01*
X51395238Y-115008866D02*
X51490476Y-114961247D01*
X51490476Y-114961247D02*
X51538095Y-114913628D01*
X51538095Y-114913628D02*
X51585714Y-114818390D01*
D11*
X229007580Y-46879048D02*
X228007580Y-47117143D01*
X228007580Y-47117143D02*
X228721866Y-47307619D01*
X228721866Y-47307619D02*
X228007580Y-47498095D01*
X228007580Y-47498095D02*
X229007580Y-47736191D01*
X228055200Y-48069524D02*
X228007580Y-48212381D01*
X228007580Y-48212381D02*
X228007580Y-48450476D01*
X228007580Y-48450476D02*
X228055200Y-48545714D01*
X228055200Y-48545714D02*
X228102819Y-48593333D01*
X228102819Y-48593333D02*
X228198057Y-48640952D01*
X228198057Y-48640952D02*
X228293295Y-48640952D01*
X228293295Y-48640952D02*
X228388533Y-48593333D01*
X228388533Y-48593333D02*
X228436152Y-48545714D01*
X228436152Y-48545714D02*
X228483771Y-48450476D01*
X228483771Y-48450476D02*
X228531390Y-48260000D01*
X228531390Y-48260000D02*
X228579009Y-48164762D01*
X228579009Y-48164762D02*
X228626628Y-48117143D01*
X228626628Y-48117143D02*
X228721866Y-48069524D01*
X228721866Y-48069524D02*
X228817104Y-48069524D01*
X228817104Y-48069524D02*
X228912342Y-48117143D01*
X228912342Y-48117143D02*
X228959961Y-48164762D01*
X228959961Y-48164762D02*
X229007580Y-48260000D01*
X229007580Y-48260000D02*
X229007580Y-48498095D01*
X229007580Y-48498095D02*
X228959961Y-48640952D01*
X228007580Y-49593333D02*
X228007580Y-49021905D01*
X228007580Y-49307619D02*
X229007580Y-49307619D01*
X229007580Y-49307619D02*
X228864723Y-49212381D01*
X228864723Y-49212381D02*
X228769485Y-49117143D01*
X228769485Y-49117143D02*
X228721866Y-49021905D01*
X231902580Y-51103884D02*
X232902580Y-51103884D01*
X232902580Y-51103884D02*
X232902580Y-51341979D01*
X232902580Y-51341979D02*
X232854961Y-51484836D01*
X232854961Y-51484836D02*
X232759723Y-51580074D01*
X232759723Y-51580074D02*
X232664485Y-51627693D01*
X232664485Y-51627693D02*
X232474009Y-51675312D01*
X232474009Y-51675312D02*
X232331152Y-51675312D01*
X232331152Y-51675312D02*
X232140676Y-51627693D01*
X232140676Y-51627693D02*
X232045438Y-51580074D01*
X232045438Y-51580074D02*
X231950200Y-51484836D01*
X231950200Y-51484836D02*
X231902580Y-51341979D01*
X231902580Y-51341979D02*
X231902580Y-51103884D01*
X232283533Y-48563884D02*
X232283533Y-49325789D01*
X232283533Y-44753884D02*
X232283533Y-45515789D01*
X231902580Y-45134836D02*
X232664485Y-45134836D01*
D10*
X194143333Y-60779819D02*
X193810000Y-60303628D01*
X193571905Y-60779819D02*
X193571905Y-59779819D01*
X193571905Y-59779819D02*
X193952857Y-59779819D01*
X193952857Y-59779819D02*
X194048095Y-59827438D01*
X194048095Y-59827438D02*
X194095714Y-59875057D01*
X194095714Y-59875057D02*
X194143333Y-59970295D01*
X194143333Y-59970295D02*
X194143333Y-60113152D01*
X194143333Y-60113152D02*
X194095714Y-60208390D01*
X194095714Y-60208390D02*
X194048095Y-60256009D01*
X194048095Y-60256009D02*
X193952857Y-60303628D01*
X193952857Y-60303628D02*
X193571905Y-60303628D01*
X194476667Y-59779819D02*
X195143333Y-59779819D01*
X195143333Y-59779819D02*
X194714762Y-60779819D01*
X145883333Y-60779819D02*
X145550000Y-60303628D01*
X145311905Y-60779819D02*
X145311905Y-59779819D01*
X145311905Y-59779819D02*
X145692857Y-59779819D01*
X145692857Y-59779819D02*
X145788095Y-59827438D01*
X145788095Y-59827438D02*
X145835714Y-59875057D01*
X145835714Y-59875057D02*
X145883333Y-59970295D01*
X145883333Y-59970295D02*
X145883333Y-60113152D01*
X145883333Y-60113152D02*
X145835714Y-60208390D01*
X145835714Y-60208390D02*
X145788095Y-60256009D01*
X145788095Y-60256009D02*
X145692857Y-60303628D01*
X145692857Y-60303628D02*
X145311905Y-60303628D01*
X146788095Y-59779819D02*
X146311905Y-59779819D01*
X146311905Y-59779819D02*
X146264286Y-60256009D01*
X146264286Y-60256009D02*
X146311905Y-60208390D01*
X146311905Y-60208390D02*
X146407143Y-60160771D01*
X146407143Y-60160771D02*
X146645238Y-60160771D01*
X146645238Y-60160771D02*
X146740476Y-60208390D01*
X146740476Y-60208390D02*
X146788095Y-60256009D01*
X146788095Y-60256009D02*
X146835714Y-60351247D01*
X146835714Y-60351247D02*
X146835714Y-60589342D01*
X146835714Y-60589342D02*
X146788095Y-60684580D01*
X146788095Y-60684580D02*
X146740476Y-60732200D01*
X146740476Y-60732200D02*
X146645238Y-60779819D01*
X146645238Y-60779819D02*
X146407143Y-60779819D01*
X146407143Y-60779819D02*
X146311905Y-60732200D01*
X146311905Y-60732200D02*
X146264286Y-60684580D01*
X147312142Y-115389819D02*
X146978809Y-114913628D01*
X146740714Y-115389819D02*
X146740714Y-114389819D01*
X146740714Y-114389819D02*
X147121666Y-114389819D01*
X147121666Y-114389819D02*
X147216904Y-114437438D01*
X147216904Y-114437438D02*
X147264523Y-114485057D01*
X147264523Y-114485057D02*
X147312142Y-114580295D01*
X147312142Y-114580295D02*
X147312142Y-114723152D01*
X147312142Y-114723152D02*
X147264523Y-114818390D01*
X147264523Y-114818390D02*
X147216904Y-114866009D01*
X147216904Y-114866009D02*
X147121666Y-114913628D01*
X147121666Y-114913628D02*
X146740714Y-114913628D01*
X148264523Y-115389819D02*
X147693095Y-115389819D01*
X147978809Y-115389819D02*
X147978809Y-114389819D01*
X147978809Y-114389819D02*
X147883571Y-114532676D01*
X147883571Y-114532676D02*
X147788333Y-114627914D01*
X147788333Y-114627914D02*
X147693095Y-114675533D01*
X148597857Y-114389819D02*
X149216904Y-114389819D01*
X149216904Y-114389819D02*
X148883571Y-114770771D01*
X148883571Y-114770771D02*
X149026428Y-114770771D01*
X149026428Y-114770771D02*
X149121666Y-114818390D01*
X149121666Y-114818390D02*
X149169285Y-114866009D01*
X149169285Y-114866009D02*
X149216904Y-114961247D01*
X149216904Y-114961247D02*
X149216904Y-115199342D01*
X149216904Y-115199342D02*
X149169285Y-115294580D01*
X149169285Y-115294580D02*
X149121666Y-115342200D01*
X149121666Y-115342200D02*
X149026428Y-115389819D01*
X149026428Y-115389819D02*
X148740714Y-115389819D01*
X148740714Y-115389819D02*
X148645476Y-115342200D01*
X148645476Y-115342200D02*
X148597857Y-115294580D01*
X70477142Y-115389819D02*
X70143809Y-114913628D01*
X69905714Y-115389819D02*
X69905714Y-114389819D01*
X69905714Y-114389819D02*
X70286666Y-114389819D01*
X70286666Y-114389819D02*
X70381904Y-114437438D01*
X70381904Y-114437438D02*
X70429523Y-114485057D01*
X70429523Y-114485057D02*
X70477142Y-114580295D01*
X70477142Y-114580295D02*
X70477142Y-114723152D01*
X70477142Y-114723152D02*
X70429523Y-114818390D01*
X70429523Y-114818390D02*
X70381904Y-114866009D01*
X70381904Y-114866009D02*
X70286666Y-114913628D01*
X70286666Y-114913628D02*
X69905714Y-114913628D01*
X71429523Y-115389819D02*
X70858095Y-115389819D01*
X71143809Y-115389819D02*
X71143809Y-114389819D01*
X71143809Y-114389819D02*
X71048571Y-114532676D01*
X71048571Y-114532676D02*
X70953333Y-114627914D01*
X70953333Y-114627914D02*
X70858095Y-114675533D01*
X72048571Y-114389819D02*
X72143809Y-114389819D01*
X72143809Y-114389819D02*
X72239047Y-114437438D01*
X72239047Y-114437438D02*
X72286666Y-114485057D01*
X72286666Y-114485057D02*
X72334285Y-114580295D01*
X72334285Y-114580295D02*
X72381904Y-114770771D01*
X72381904Y-114770771D02*
X72381904Y-115008866D01*
X72381904Y-115008866D02*
X72334285Y-115199342D01*
X72334285Y-115199342D02*
X72286666Y-115294580D01*
X72286666Y-115294580D02*
X72239047Y-115342200D01*
X72239047Y-115342200D02*
X72143809Y-115389819D01*
X72143809Y-115389819D02*
X72048571Y-115389819D01*
X72048571Y-115389819D02*
X71953333Y-115342200D01*
X71953333Y-115342200D02*
X71905714Y-115294580D01*
X71905714Y-115294580D02*
X71858095Y-115199342D01*
X71858095Y-115199342D02*
X71810476Y-115008866D01*
X71810476Y-115008866D02*
X71810476Y-114770771D01*
X71810476Y-114770771D02*
X71858095Y-114580295D01*
X71858095Y-114580295D02*
X71905714Y-114485057D01*
X71905714Y-114485057D02*
X71953333Y-114437438D01*
X71953333Y-114437438D02*
X72048571Y-114389819D01*
X132588095Y-62529819D02*
X132588095Y-63339342D01*
X132588095Y-63339342D02*
X132635714Y-63434580D01*
X132635714Y-63434580D02*
X132683333Y-63482200D01*
X132683333Y-63482200D02*
X132778571Y-63529819D01*
X132778571Y-63529819D02*
X132969047Y-63529819D01*
X132969047Y-63529819D02*
X133064285Y-63482200D01*
X133064285Y-63482200D02*
X133111904Y-63434580D01*
X133111904Y-63434580D02*
X133159523Y-63339342D01*
X133159523Y-63339342D02*
X133159523Y-62529819D01*
X134159523Y-63529819D02*
X133588095Y-63529819D01*
X133873809Y-63529819D02*
X133873809Y-62529819D01*
X133873809Y-62529819D02*
X133778571Y-62672676D01*
X133778571Y-62672676D02*
X133683333Y-62767914D01*
X133683333Y-62767914D02*
X133588095Y-62815533D01*
X69683333Y-60779819D02*
X69350000Y-60303628D01*
X69111905Y-60779819D02*
X69111905Y-59779819D01*
X69111905Y-59779819D02*
X69492857Y-59779819D01*
X69492857Y-59779819D02*
X69588095Y-59827438D01*
X69588095Y-59827438D02*
X69635714Y-59875057D01*
X69635714Y-59875057D02*
X69683333Y-59970295D01*
X69683333Y-59970295D02*
X69683333Y-60113152D01*
X69683333Y-60113152D02*
X69635714Y-60208390D01*
X69635714Y-60208390D02*
X69588095Y-60256009D01*
X69588095Y-60256009D02*
X69492857Y-60303628D01*
X69492857Y-60303628D02*
X69111905Y-60303628D01*
X70064286Y-59875057D02*
X70111905Y-59827438D01*
X70111905Y-59827438D02*
X70207143Y-59779819D01*
X70207143Y-59779819D02*
X70445238Y-59779819D01*
X70445238Y-59779819D02*
X70540476Y-59827438D01*
X70540476Y-59827438D02*
X70588095Y-59875057D01*
X70588095Y-59875057D02*
X70635714Y-59970295D01*
X70635714Y-59970295D02*
X70635714Y-60065533D01*
X70635714Y-60065533D02*
X70588095Y-60208390D01*
X70588095Y-60208390D02*
X70016667Y-60779819D01*
X70016667Y-60779819D02*
X70635714Y-60779819D01*
X166203333Y-60779819D02*
X165870000Y-60303628D01*
X165631905Y-60779819D02*
X165631905Y-59779819D01*
X165631905Y-59779819D02*
X166012857Y-59779819D01*
X166012857Y-59779819D02*
X166108095Y-59827438D01*
X166108095Y-59827438D02*
X166155714Y-59875057D01*
X166155714Y-59875057D02*
X166203333Y-59970295D01*
X166203333Y-59970295D02*
X166203333Y-60113152D01*
X166203333Y-60113152D02*
X166155714Y-60208390D01*
X166155714Y-60208390D02*
X166108095Y-60256009D01*
X166108095Y-60256009D02*
X166012857Y-60303628D01*
X166012857Y-60303628D02*
X165631905Y-60303628D01*
X167060476Y-59779819D02*
X166870000Y-59779819D01*
X166870000Y-59779819D02*
X166774762Y-59827438D01*
X166774762Y-59827438D02*
X166727143Y-59875057D01*
X166727143Y-59875057D02*
X166631905Y-60017914D01*
X166631905Y-60017914D02*
X166584286Y-60208390D01*
X166584286Y-60208390D02*
X166584286Y-60589342D01*
X166584286Y-60589342D02*
X166631905Y-60684580D01*
X166631905Y-60684580D02*
X166679524Y-60732200D01*
X166679524Y-60732200D02*
X166774762Y-60779819D01*
X166774762Y-60779819D02*
X166965238Y-60779819D01*
X166965238Y-60779819D02*
X167060476Y-60732200D01*
X167060476Y-60732200D02*
X167108095Y-60684580D01*
X167108095Y-60684580D02*
X167155714Y-60589342D01*
X167155714Y-60589342D02*
X167155714Y-60351247D01*
X167155714Y-60351247D02*
X167108095Y-60256009D01*
X167108095Y-60256009D02*
X167060476Y-60208390D01*
X167060476Y-60208390D02*
X166965238Y-60160771D01*
X166965238Y-60160771D02*
X166774762Y-60160771D01*
X166774762Y-60160771D02*
X166679524Y-60208390D01*
X166679524Y-60208390D02*
X166631905Y-60256009D01*
X166631905Y-60256009D02*
X166584286Y-60351247D01*
X114927142Y-115389819D02*
X114593809Y-114913628D01*
X114355714Y-115389819D02*
X114355714Y-114389819D01*
X114355714Y-114389819D02*
X114736666Y-114389819D01*
X114736666Y-114389819D02*
X114831904Y-114437438D01*
X114831904Y-114437438D02*
X114879523Y-114485057D01*
X114879523Y-114485057D02*
X114927142Y-114580295D01*
X114927142Y-114580295D02*
X114927142Y-114723152D01*
X114927142Y-114723152D02*
X114879523Y-114818390D01*
X114879523Y-114818390D02*
X114831904Y-114866009D01*
X114831904Y-114866009D02*
X114736666Y-114913628D01*
X114736666Y-114913628D02*
X114355714Y-114913628D01*
X115879523Y-115389819D02*
X115308095Y-115389819D01*
X115593809Y-115389819D02*
X115593809Y-114389819D01*
X115593809Y-114389819D02*
X115498571Y-114532676D01*
X115498571Y-114532676D02*
X115403333Y-114627914D01*
X115403333Y-114627914D02*
X115308095Y-114675533D01*
X116260476Y-114485057D02*
X116308095Y-114437438D01*
X116308095Y-114437438D02*
X116403333Y-114389819D01*
X116403333Y-114389819D02*
X116641428Y-114389819D01*
X116641428Y-114389819D02*
X116736666Y-114437438D01*
X116736666Y-114437438D02*
X116784285Y-114485057D01*
X116784285Y-114485057D02*
X116831904Y-114580295D01*
X116831904Y-114580295D02*
X116831904Y-114675533D01*
X116831904Y-114675533D02*
X116784285Y-114818390D01*
X116784285Y-114818390D02*
X116212857Y-115389819D01*
X116212857Y-115389819D02*
X116831904Y-115389819D01*
X132588095Y-93009819D02*
X132588095Y-93819342D01*
X132588095Y-93819342D02*
X132635714Y-93914580D01*
X132635714Y-93914580D02*
X132683333Y-93962200D01*
X132683333Y-93962200D02*
X132778571Y-94009819D01*
X132778571Y-94009819D02*
X132969047Y-94009819D01*
X132969047Y-94009819D02*
X133064285Y-93962200D01*
X133064285Y-93962200D02*
X133111904Y-93914580D01*
X133111904Y-93914580D02*
X133159523Y-93819342D01*
X133159523Y-93819342D02*
X133159523Y-93009819D01*
X133540476Y-93009819D02*
X134159523Y-93009819D01*
X134159523Y-93009819D02*
X133826190Y-93390771D01*
X133826190Y-93390771D02*
X133969047Y-93390771D01*
X133969047Y-93390771D02*
X134064285Y-93438390D01*
X134064285Y-93438390D02*
X134111904Y-93486009D01*
X134111904Y-93486009D02*
X134159523Y-93581247D01*
X134159523Y-93581247D02*
X134159523Y-93819342D01*
X134159523Y-93819342D02*
X134111904Y-93914580D01*
X134111904Y-93914580D02*
X134064285Y-93962200D01*
X134064285Y-93962200D02*
X133969047Y-94009819D01*
X133969047Y-94009819D02*
X133683333Y-94009819D01*
X133683333Y-94009819D02*
X133588095Y-93962200D01*
X133588095Y-93962200D02*
X133540476Y-93914580D01*
X144613333Y-69574580D02*
X144565714Y-69622200D01*
X144565714Y-69622200D02*
X144422857Y-69669819D01*
X144422857Y-69669819D02*
X144327619Y-69669819D01*
X144327619Y-69669819D02*
X144184762Y-69622200D01*
X144184762Y-69622200D02*
X144089524Y-69526961D01*
X144089524Y-69526961D02*
X144041905Y-69431723D01*
X144041905Y-69431723D02*
X143994286Y-69241247D01*
X143994286Y-69241247D02*
X143994286Y-69098390D01*
X143994286Y-69098390D02*
X144041905Y-68907914D01*
X144041905Y-68907914D02*
X144089524Y-68812676D01*
X144089524Y-68812676D02*
X144184762Y-68717438D01*
X144184762Y-68717438D02*
X144327619Y-68669819D01*
X144327619Y-68669819D02*
X144422857Y-68669819D01*
X144422857Y-68669819D02*
X144565714Y-68717438D01*
X144565714Y-68717438D02*
X144613333Y-68765057D01*
X144994286Y-68765057D02*
X145041905Y-68717438D01*
X145041905Y-68717438D02*
X145137143Y-68669819D01*
X145137143Y-68669819D02*
X145375238Y-68669819D01*
X145375238Y-68669819D02*
X145470476Y-68717438D01*
X145470476Y-68717438D02*
X145518095Y-68765057D01*
X145518095Y-68765057D02*
X145565714Y-68860295D01*
X145565714Y-68860295D02*
X145565714Y-68955533D01*
X145565714Y-68955533D02*
X145518095Y-69098390D01*
X145518095Y-69098390D02*
X144946667Y-69669819D01*
X144946667Y-69669819D02*
X145565714Y-69669819D01*
X198947200Y-95159523D02*
X198994819Y-95016666D01*
X198994819Y-95016666D02*
X198994819Y-94778571D01*
X198994819Y-94778571D02*
X198947200Y-94683333D01*
X198947200Y-94683333D02*
X198899580Y-94635714D01*
X198899580Y-94635714D02*
X198804342Y-94588095D01*
X198804342Y-94588095D02*
X198709104Y-94588095D01*
X198709104Y-94588095D02*
X198613866Y-94635714D01*
X198613866Y-94635714D02*
X198566247Y-94683333D01*
X198566247Y-94683333D02*
X198518628Y-94778571D01*
X198518628Y-94778571D02*
X198471009Y-94969047D01*
X198471009Y-94969047D02*
X198423390Y-95064285D01*
X198423390Y-95064285D02*
X198375771Y-95111904D01*
X198375771Y-95111904D02*
X198280533Y-95159523D01*
X198280533Y-95159523D02*
X198185295Y-95159523D01*
X198185295Y-95159523D02*
X198090057Y-95111904D01*
X198090057Y-95111904D02*
X198042438Y-95064285D01*
X198042438Y-95064285D02*
X197994819Y-94969047D01*
X197994819Y-94969047D02*
X197994819Y-94730952D01*
X197994819Y-94730952D02*
X198042438Y-94588095D01*
X197994819Y-94254761D02*
X198994819Y-94016666D01*
X198994819Y-94016666D02*
X198280533Y-93826190D01*
X198280533Y-93826190D02*
X198994819Y-93635714D01*
X198994819Y-93635714D02*
X197994819Y-93397619D01*
X197994819Y-93111904D02*
X197994819Y-92492857D01*
X197994819Y-92492857D02*
X198375771Y-92826190D01*
X198375771Y-92826190D02*
X198375771Y-92683333D01*
X198375771Y-92683333D02*
X198423390Y-92588095D01*
X198423390Y-92588095D02*
X198471009Y-92540476D01*
X198471009Y-92540476D02*
X198566247Y-92492857D01*
X198566247Y-92492857D02*
X198804342Y-92492857D01*
X198804342Y-92492857D02*
X198899580Y-92540476D01*
X198899580Y-92540476D02*
X198947200Y-92588095D01*
X198947200Y-92588095D02*
X198994819Y-92683333D01*
X198994819Y-92683333D02*
X198994819Y-92969047D01*
X198994819Y-92969047D02*
X198947200Y-93064285D01*
X198947200Y-93064285D02*
X198899580Y-93111904D01*
X197994819Y-91873809D02*
X197994819Y-91778571D01*
X197994819Y-91778571D02*
X198042438Y-91683333D01*
X198042438Y-91683333D02*
X198090057Y-91635714D01*
X198090057Y-91635714D02*
X198185295Y-91588095D01*
X198185295Y-91588095D02*
X198375771Y-91540476D01*
X198375771Y-91540476D02*
X198613866Y-91540476D01*
X198613866Y-91540476D02*
X198804342Y-91588095D01*
X198804342Y-91588095D02*
X198899580Y-91635714D01*
X198899580Y-91635714D02*
X198947200Y-91683333D01*
X198947200Y-91683333D02*
X198994819Y-91778571D01*
X198994819Y-91778571D02*
X198994819Y-91873809D01*
X198994819Y-91873809D02*
X198947200Y-91969047D01*
X198947200Y-91969047D02*
X198899580Y-92016666D01*
X198899580Y-92016666D02*
X198804342Y-92064285D01*
X198804342Y-92064285D02*
X198613866Y-92111904D01*
X198613866Y-92111904D02*
X198375771Y-92111904D01*
X198375771Y-92111904D02*
X198185295Y-92064285D01*
X198185295Y-92064285D02*
X198090057Y-92016666D01*
X198090057Y-92016666D02*
X198042438Y-91969047D01*
X198042438Y-91969047D02*
X197994819Y-91873809D01*
X144693333Y-96244580D02*
X144645714Y-96292200D01*
X144645714Y-96292200D02*
X144502857Y-96339819D01*
X144502857Y-96339819D02*
X144407619Y-96339819D01*
X144407619Y-96339819D02*
X144264762Y-96292200D01*
X144264762Y-96292200D02*
X144169524Y-96196961D01*
X144169524Y-96196961D02*
X144121905Y-96101723D01*
X144121905Y-96101723D02*
X144074286Y-95911247D01*
X144074286Y-95911247D02*
X144074286Y-95768390D01*
X144074286Y-95768390D02*
X144121905Y-95577914D01*
X144121905Y-95577914D02*
X144169524Y-95482676D01*
X144169524Y-95482676D02*
X144264762Y-95387438D01*
X144264762Y-95387438D02*
X144407619Y-95339819D01*
X144407619Y-95339819D02*
X144502857Y-95339819D01*
X144502857Y-95339819D02*
X144645714Y-95387438D01*
X144645714Y-95387438D02*
X144693333Y-95435057D01*
X145026667Y-95339819D02*
X145645714Y-95339819D01*
X145645714Y-95339819D02*
X145312381Y-95720771D01*
X145312381Y-95720771D02*
X145455238Y-95720771D01*
X145455238Y-95720771D02*
X145550476Y-95768390D01*
X145550476Y-95768390D02*
X145598095Y-95816009D01*
X145598095Y-95816009D02*
X145645714Y-95911247D01*
X145645714Y-95911247D02*
X145645714Y-96149342D01*
X145645714Y-96149342D02*
X145598095Y-96244580D01*
X145598095Y-96244580D02*
X145550476Y-96292200D01*
X145550476Y-96292200D02*
X145455238Y-96339819D01*
X145455238Y-96339819D02*
X145169524Y-96339819D01*
X145169524Y-96339819D02*
X145074286Y-96292200D01*
X145074286Y-96292200D02*
X145026667Y-96244580D01*
X144613333Y-65764580D02*
X144565714Y-65812200D01*
X144565714Y-65812200D02*
X144422857Y-65859819D01*
X144422857Y-65859819D02*
X144327619Y-65859819D01*
X144327619Y-65859819D02*
X144184762Y-65812200D01*
X144184762Y-65812200D02*
X144089524Y-65716961D01*
X144089524Y-65716961D02*
X144041905Y-65621723D01*
X144041905Y-65621723D02*
X143994286Y-65431247D01*
X143994286Y-65431247D02*
X143994286Y-65288390D01*
X143994286Y-65288390D02*
X144041905Y-65097914D01*
X144041905Y-65097914D02*
X144089524Y-65002676D01*
X144089524Y-65002676D02*
X144184762Y-64907438D01*
X144184762Y-64907438D02*
X144327619Y-64859819D01*
X144327619Y-64859819D02*
X144422857Y-64859819D01*
X144422857Y-64859819D02*
X144565714Y-64907438D01*
X144565714Y-64907438D02*
X144613333Y-64955057D01*
X145565714Y-65859819D02*
X144994286Y-65859819D01*
X145280000Y-65859819D02*
X145280000Y-64859819D01*
X145280000Y-64859819D02*
X145184762Y-65002676D01*
X145184762Y-65002676D02*
X145089524Y-65097914D01*
X145089524Y-65097914D02*
X144994286Y-65145533D01*
D12*
X208915000Y-120015000D02*
X222885000Y-120015000D01*
X208915000Y-133985000D02*
X208915000Y-120015000D01*
X222885000Y-120015000D02*
X222885000Y-133985000D01*
X222885000Y-133985000D02*
X208915000Y-133985000D01*
X188595000Y-120015000D02*
X202565000Y-120015000D01*
X188595000Y-133985000D02*
X188595000Y-120015000D01*
X202565000Y-120015000D02*
X202565000Y-133985000D01*
X202565000Y-133985000D02*
X188595000Y-133985000D01*
X160655000Y-120015000D02*
X174625000Y-120015000D01*
X160655000Y-133985000D02*
X160655000Y-120015000D01*
X174625000Y-120015000D02*
X174625000Y-133985000D01*
X174625000Y-133985000D02*
X160655000Y-133985000D01*
X140335000Y-120015000D02*
X154305000Y-120015000D01*
X140335000Y-133985000D02*
X140335000Y-120015000D01*
X154305000Y-120015000D02*
X154305000Y-133985000D01*
X154305000Y-133985000D02*
X140335000Y-133985000D01*
X112395000Y-120015000D02*
X126365000Y-120015000D01*
X112395000Y-133985000D02*
X112395000Y-120015000D01*
X126365000Y-120015000D02*
X126365000Y-133985000D01*
X126365000Y-133985000D02*
X112395000Y-133985000D01*
X92075000Y-120015000D02*
X106045000Y-120015000D01*
X92075000Y-133985000D02*
X92075000Y-120015000D01*
X106045000Y-120015000D02*
X106045000Y-133985000D01*
X106045000Y-133985000D02*
X92075000Y-133985000D01*
X64135000Y-120015000D02*
X78105000Y-120015000D01*
X64135000Y-133985000D02*
X64135000Y-120015000D01*
X78105000Y-120015000D02*
X78105000Y-133985000D01*
X78105000Y-133985000D02*
X64135000Y-133985000D01*
X43815000Y-120015000D02*
X57785000Y-120015000D01*
X43815000Y-133985000D02*
X43815000Y-120015000D01*
X57785000Y-120015000D02*
X57785000Y-133985000D01*
X57785000Y-133985000D02*
X43815000Y-133985000D01*
X208915000Y-43815000D02*
X222885000Y-43815000D01*
X208915000Y-57785000D02*
X208915000Y-43815000D01*
X222885000Y-43815000D02*
X222885000Y-57785000D01*
X222885000Y-57785000D02*
X208915000Y-57785000D01*
X188595000Y-43815000D02*
X202565000Y-43815000D01*
X188595000Y-57785000D02*
X188595000Y-43815000D01*
X202565000Y-43815000D02*
X202565000Y-57785000D01*
X202565000Y-57785000D02*
X188595000Y-57785000D01*
X160655000Y-43815000D02*
X174625000Y-43815000D01*
X160655000Y-57785000D02*
X160655000Y-43815000D01*
X174625000Y-43815000D02*
X174625000Y-57785000D01*
X174625000Y-57785000D02*
X160655000Y-57785000D01*
X140335000Y-43815000D02*
X154305000Y-43815000D01*
X140335000Y-57785000D02*
X140335000Y-43815000D01*
X154305000Y-43815000D02*
X154305000Y-57785000D01*
X154305000Y-57785000D02*
X140335000Y-57785000D01*
X112395000Y-43815000D02*
X126365000Y-43815000D01*
X112395000Y-57785000D02*
X112395000Y-43815000D01*
X126365000Y-43815000D02*
X126365000Y-57785000D01*
X126365000Y-57785000D02*
X112395000Y-57785000D01*
X92075000Y-43815000D02*
X106045000Y-43815000D01*
X92075000Y-57785000D02*
X92075000Y-43815000D01*
X106045000Y-43815000D02*
X106045000Y-57785000D01*
X106045000Y-57785000D02*
X92075000Y-57785000D01*
X64135000Y-43815000D02*
X78105000Y-43815000D01*
X64135000Y-57785000D02*
X64135000Y-43815000D01*
X78105000Y-43815000D02*
X78105000Y-57785000D01*
X78105000Y-57785000D02*
X64135000Y-57785000D01*
X43815000Y-43815000D02*
X57785000Y-43815000D01*
X43815000Y-57785000D02*
X43815000Y-43815000D01*
X57785000Y-43815000D02*
X57785000Y-57785000D01*
X57785000Y-57785000D02*
X43815000Y-57785000D01*
X172950000Y-114935000D02*
X172260000Y-114935000D01*
X172260000Y-116655000D02*
X172260000Y-113215000D01*
X172260000Y-113215000D02*
X163020000Y-113215000D01*
X163020000Y-116655000D02*
X172260000Y-116655000D01*
X163020000Y-113215000D02*
X163020000Y-116655000D01*
X162330000Y-114935000D02*
X163020000Y-114935000D01*
X199620000Y-114300000D02*
X198930000Y-114300000D01*
X198930000Y-116020000D02*
X198930000Y-112580000D01*
X198930000Y-112580000D02*
X189690000Y-112580000D01*
X189690000Y-116020000D02*
X198930000Y-116020000D01*
X189690000Y-112580000D02*
X189690000Y-116020000D01*
X189000000Y-114300000D02*
X189690000Y-114300000D01*
X142150000Y-98609000D02*
X142150000Y-99275000D01*
X142150000Y-98609000D02*
X147490000Y-98609000D01*
X142150000Y-101385000D02*
X142150000Y-102051000D01*
X142150000Y-102051000D02*
X147490000Y-102051000D01*
X147490000Y-98609000D02*
X147490000Y-99275000D01*
X147490000Y-101385000D02*
X147490000Y-102051000D01*
X209320000Y-60325000D02*
X210010000Y-60325000D01*
X210010000Y-58605000D02*
X210010000Y-62045000D01*
X210010000Y-62045000D02*
X219250000Y-62045000D01*
X219250000Y-58605000D02*
X210010000Y-58605000D01*
X219250000Y-62045000D02*
X219250000Y-58605000D01*
X219940000Y-60325000D02*
X219250000Y-60325000D01*
X104370000Y-114935000D02*
X103680000Y-114935000D01*
X103680000Y-116655000D02*
X103680000Y-113215000D01*
X103680000Y-113215000D02*
X94440000Y-113215000D01*
X94440000Y-116655000D02*
X103680000Y-116655000D01*
X94440000Y-113215000D02*
X94440000Y-116655000D01*
X93750000Y-114935000D02*
X94440000Y-114935000D01*
X112800000Y-60325000D02*
X113490000Y-60325000D01*
X113490000Y-58605000D02*
X113490000Y-62045000D01*
X113490000Y-62045000D02*
X122730000Y-62045000D01*
X122730000Y-58605000D02*
X113490000Y-58605000D01*
X122730000Y-62045000D02*
X122730000Y-58605000D01*
X123420000Y-60325000D02*
X122730000Y-60325000D01*
X44220000Y-60325000D02*
X44910000Y-60325000D01*
X44910000Y-58605000D02*
X44910000Y-62045000D01*
X44910000Y-62045000D02*
X54150000Y-62045000D01*
X54150000Y-58605000D02*
X44910000Y-58605000D01*
X54150000Y-62045000D02*
X54150000Y-58605000D01*
X54840000Y-60325000D02*
X54150000Y-60325000D01*
X221210000Y-114300000D02*
X220520000Y-114300000D01*
X220520000Y-116020000D02*
X220520000Y-112580000D01*
X220520000Y-112580000D02*
X211280000Y-112580000D01*
X211280000Y-116020000D02*
X220520000Y-116020000D01*
X211280000Y-112580000D02*
X211280000Y-116020000D01*
X210590000Y-114300000D02*
X211280000Y-114300000D01*
X233955354Y-117140000D02*
X234955354Y-117140000D01*
X234455354Y-116640000D02*
X234455354Y-117640000D01*
X239435000Y-114935000D02*
X239435000Y-125095000D01*
X239475000Y-114935000D02*
X239475000Y-125095000D01*
X239515000Y-114935000D02*
X239515000Y-125095000D01*
X239555000Y-114936000D02*
X239555000Y-125094000D01*
X239595000Y-114937000D02*
X239595000Y-125093000D01*
X239635000Y-114938000D02*
X239635000Y-125092000D01*
X239675000Y-114940000D02*
X239675000Y-125090000D01*
X239715000Y-114942000D02*
X239715000Y-125088000D01*
X239755000Y-114945000D02*
X239755000Y-125085000D01*
X239795000Y-114947000D02*
X239795000Y-125083000D01*
X239835000Y-114950000D02*
X239835000Y-125080000D01*
X239875000Y-114953000D02*
X239875000Y-125077000D01*
X239915000Y-114957000D02*
X239915000Y-125073000D01*
X239955000Y-114961000D02*
X239955000Y-125069000D01*
X239995000Y-114965000D02*
X239995000Y-125065000D01*
X240035000Y-114970000D02*
X240035000Y-125060000D01*
X240075000Y-114975000D02*
X240075000Y-125055000D01*
X240115000Y-114980000D02*
X240115000Y-125050000D01*
X240156000Y-114985000D02*
X240156000Y-125045000D01*
X240196000Y-114991000D02*
X240196000Y-125039000D01*
X240236000Y-114997000D02*
X240236000Y-125033000D01*
X240276000Y-115004000D02*
X240276000Y-125026000D01*
X240316000Y-115011000D02*
X240316000Y-125019000D01*
X240356000Y-115018000D02*
X240356000Y-125012000D01*
X240396000Y-115025000D02*
X240396000Y-125005000D01*
X240436000Y-115033000D02*
X240436000Y-124997000D01*
X240476000Y-115041000D02*
X240476000Y-124989000D01*
X240516000Y-115050000D02*
X240516000Y-124980000D01*
X240556000Y-115059000D02*
X240556000Y-124971000D01*
X240596000Y-115068000D02*
X240596000Y-124962000D01*
X240636000Y-115077000D02*
X240636000Y-124953000D01*
X240676000Y-115087000D02*
X240676000Y-124943000D01*
X240716000Y-115097000D02*
X240716000Y-118774000D01*
X240716000Y-121256000D02*
X240716000Y-124933000D01*
X240756000Y-115108000D02*
X240756000Y-118774000D01*
X240756000Y-121256000D02*
X240756000Y-124922000D01*
X240796000Y-115118000D02*
X240796000Y-118774000D01*
X240796000Y-121256000D02*
X240796000Y-124912000D01*
X240836000Y-115130000D02*
X240836000Y-118774000D01*
X240836000Y-121256000D02*
X240836000Y-124900000D01*
X240876000Y-115141000D02*
X240876000Y-118774000D01*
X240876000Y-121256000D02*
X240876000Y-124889000D01*
X240916000Y-115153000D02*
X240916000Y-118774000D01*
X240916000Y-121256000D02*
X240916000Y-124877000D01*
X240956000Y-115165000D02*
X240956000Y-118774000D01*
X240956000Y-121256000D02*
X240956000Y-124865000D01*
X240996000Y-115178000D02*
X240996000Y-118774000D01*
X240996000Y-121256000D02*
X240996000Y-124852000D01*
X241036000Y-115191000D02*
X241036000Y-118774000D01*
X241036000Y-121256000D02*
X241036000Y-124839000D01*
X241076000Y-115204000D02*
X241076000Y-118774000D01*
X241076000Y-121256000D02*
X241076000Y-124826000D01*
X241116000Y-115218000D02*
X241116000Y-118774000D01*
X241116000Y-121256000D02*
X241116000Y-124812000D01*
X241156000Y-115232000D02*
X241156000Y-118774000D01*
X241156000Y-121256000D02*
X241156000Y-124798000D01*
X241196000Y-115247000D02*
X241196000Y-118774000D01*
X241196000Y-121256000D02*
X241196000Y-124783000D01*
X241236000Y-115261000D02*
X241236000Y-118774000D01*
X241236000Y-121256000D02*
X241236000Y-124769000D01*
X241276000Y-115277000D02*
X241276000Y-118774000D01*
X241276000Y-121256000D02*
X241276000Y-124753000D01*
X241316000Y-115292000D02*
X241316000Y-118774000D01*
X241316000Y-121256000D02*
X241316000Y-124738000D01*
X241356000Y-115308000D02*
X241356000Y-118774000D01*
X241356000Y-121256000D02*
X241356000Y-124722000D01*
X241396000Y-115325000D02*
X241396000Y-118774000D01*
X241396000Y-121256000D02*
X241396000Y-124705000D01*
X241436000Y-115341000D02*
X241436000Y-118774000D01*
X241436000Y-121256000D02*
X241436000Y-124689000D01*
X241476000Y-115358000D02*
X241476000Y-118774000D01*
X241476000Y-121256000D02*
X241476000Y-124672000D01*
X241516000Y-115376000D02*
X241516000Y-118774000D01*
X241516000Y-121256000D02*
X241516000Y-124654000D01*
X241556000Y-115394000D02*
X241556000Y-118774000D01*
X241556000Y-121256000D02*
X241556000Y-124636000D01*
X241596000Y-115412000D02*
X241596000Y-118774000D01*
X241596000Y-121256000D02*
X241596000Y-124618000D01*
X241636000Y-115431000D02*
X241636000Y-118774000D01*
X241636000Y-121256000D02*
X241636000Y-124599000D01*
X241676000Y-115451000D02*
X241676000Y-118774000D01*
X241676000Y-121256000D02*
X241676000Y-124579000D01*
X241716000Y-115470000D02*
X241716000Y-118774000D01*
X241716000Y-121256000D02*
X241716000Y-124560000D01*
X241756000Y-115490000D02*
X241756000Y-118774000D01*
X241756000Y-121256000D02*
X241756000Y-124540000D01*
X241796000Y-115511000D02*
X241796000Y-118774000D01*
X241796000Y-121256000D02*
X241796000Y-124519000D01*
X241836000Y-115532000D02*
X241836000Y-118774000D01*
X241836000Y-121256000D02*
X241836000Y-124498000D01*
X241876000Y-115553000D02*
X241876000Y-118774000D01*
X241876000Y-121256000D02*
X241876000Y-124477000D01*
X241916000Y-115575000D02*
X241916000Y-118774000D01*
X241916000Y-121256000D02*
X241916000Y-124455000D01*
X241956000Y-115598000D02*
X241956000Y-118774000D01*
X241956000Y-121256000D02*
X241956000Y-124432000D01*
X241996000Y-115620000D02*
X241996000Y-118774000D01*
X241996000Y-121256000D02*
X241996000Y-124410000D01*
X242036000Y-115644000D02*
X242036000Y-118774000D01*
X242036000Y-121256000D02*
X242036000Y-124386000D01*
X242076000Y-115668000D02*
X242076000Y-118774000D01*
X242076000Y-121256000D02*
X242076000Y-124362000D01*
X242116000Y-115692000D02*
X242116000Y-118774000D01*
X242116000Y-121256000D02*
X242116000Y-124338000D01*
X242156000Y-115717000D02*
X242156000Y-118774000D01*
X242156000Y-121256000D02*
X242156000Y-124313000D01*
X242196000Y-115742000D02*
X242196000Y-118774000D01*
X242196000Y-121256000D02*
X242196000Y-124288000D01*
X242236000Y-115768000D02*
X242236000Y-118774000D01*
X242236000Y-121256000D02*
X242236000Y-124262000D01*
X242276000Y-115794000D02*
X242276000Y-118774000D01*
X242276000Y-121256000D02*
X242276000Y-124236000D01*
X242316000Y-115821000D02*
X242316000Y-118774000D01*
X242316000Y-121256000D02*
X242316000Y-124209000D01*
X242356000Y-115849000D02*
X242356000Y-118774000D01*
X242356000Y-121256000D02*
X242356000Y-124181000D01*
X242396000Y-115877000D02*
X242396000Y-118774000D01*
X242396000Y-121256000D02*
X242396000Y-124153000D01*
X242436000Y-115905000D02*
X242436000Y-118774000D01*
X242436000Y-121256000D02*
X242436000Y-124125000D01*
X242476000Y-115935000D02*
X242476000Y-118774000D01*
X242476000Y-121256000D02*
X242476000Y-124095000D01*
X242516000Y-115965000D02*
X242516000Y-118774000D01*
X242516000Y-121256000D02*
X242516000Y-124065000D01*
X242556000Y-115995000D02*
X242556000Y-118774000D01*
X242556000Y-121256000D02*
X242556000Y-124035000D01*
X242596000Y-116026000D02*
X242596000Y-118774000D01*
X242596000Y-121256000D02*
X242596000Y-124004000D01*
X242636000Y-116058000D02*
X242636000Y-118774000D01*
X242636000Y-121256000D02*
X242636000Y-123972000D01*
X242676000Y-116090000D02*
X242676000Y-118774000D01*
X242676000Y-121256000D02*
X242676000Y-123940000D01*
X242716000Y-116123000D02*
X242716000Y-118774000D01*
X242716000Y-121256000D02*
X242716000Y-123907000D01*
X242756000Y-116157000D02*
X242756000Y-118774000D01*
X242756000Y-121256000D02*
X242756000Y-123873000D01*
X242796000Y-116191000D02*
X242796000Y-118774000D01*
X242796000Y-121256000D02*
X242796000Y-123839000D01*
X242836000Y-116226000D02*
X242836000Y-118774000D01*
X242836000Y-121256000D02*
X242836000Y-123804000D01*
X242876000Y-116262000D02*
X242876000Y-118774000D01*
X242876000Y-121256000D02*
X242876000Y-123768000D01*
X242916000Y-116299000D02*
X242916000Y-118774000D01*
X242916000Y-121256000D02*
X242916000Y-123731000D01*
X242956000Y-116336000D02*
X242956000Y-118774000D01*
X242956000Y-121256000D02*
X242956000Y-123694000D01*
X242996000Y-116375000D02*
X242996000Y-118774000D01*
X242996000Y-121256000D02*
X242996000Y-123655000D01*
X243036000Y-116414000D02*
X243036000Y-118774000D01*
X243036000Y-121256000D02*
X243036000Y-123616000D01*
X243076000Y-116454000D02*
X243076000Y-118774000D01*
X243076000Y-121256000D02*
X243076000Y-123576000D01*
X243116000Y-116495000D02*
X243116000Y-118774000D01*
X243116000Y-121256000D02*
X243116000Y-123535000D01*
X243156000Y-116537000D02*
X243156000Y-118774000D01*
X243156000Y-121256000D02*
X243156000Y-123493000D01*
X243196000Y-116579000D02*
X243196000Y-123451000D01*
X243236000Y-116623000D02*
X243236000Y-123407000D01*
X243276000Y-116668000D02*
X243276000Y-123362000D01*
X243316000Y-116714000D02*
X243316000Y-123316000D01*
X243356000Y-116761000D02*
X243356000Y-123269000D01*
X243396000Y-116809000D02*
X243396000Y-123221000D01*
X243436000Y-116859000D02*
X243436000Y-123171000D01*
X243476000Y-116909000D02*
X243476000Y-123121000D01*
X243516000Y-116961000D02*
X243516000Y-123069000D01*
X243556000Y-117015000D02*
X243556000Y-123015000D01*
X243596000Y-117070000D02*
X243596000Y-122960000D01*
X243636000Y-117126000D02*
X243636000Y-122904000D01*
X243676000Y-117185000D02*
X243676000Y-122845000D01*
X243716000Y-117245000D02*
X243716000Y-122785000D01*
X243756000Y-117306000D02*
X243756000Y-122724000D01*
X243796000Y-117370000D02*
X243796000Y-122660000D01*
X243836000Y-117436000D02*
X243836000Y-122594000D01*
X243876000Y-117505000D02*
X243876000Y-122525000D01*
X243916000Y-117576000D02*
X243916000Y-122454000D01*
X243956000Y-117650000D02*
X243956000Y-122380000D01*
X243996000Y-117726000D02*
X243996000Y-122304000D01*
X244036000Y-117806000D02*
X244036000Y-122224000D01*
X244076000Y-117890000D02*
X244076000Y-122140000D01*
X244116000Y-117978000D02*
X244116000Y-122052000D01*
X244156000Y-118071000D02*
X244156000Y-121959000D01*
X244196000Y-118169000D02*
X244196000Y-121861000D01*
X244236000Y-118273000D02*
X244236000Y-121757000D01*
X244276000Y-118385000D02*
X244276000Y-121645000D01*
X244316000Y-118505000D02*
X244316000Y-121525000D01*
X244356000Y-118637000D02*
X244356000Y-121393000D01*
X244396000Y-118785000D02*
X244396000Y-121245000D01*
X244436000Y-118953000D02*
X244436000Y-121077000D01*
X244476000Y-119153000D02*
X244476000Y-120877000D01*
X244516000Y-119416000D02*
X244516000Y-120614000D01*
X244555000Y-120015000D02*
G75*
G03*
X244555000Y-120015000I-5120000J0D01*
G01*
X92480000Y-60325000D02*
X93170000Y-60325000D01*
X93170000Y-58605000D02*
X93170000Y-62045000D01*
X93170000Y-62045000D02*
X102410000Y-62045000D01*
X102410000Y-58605000D02*
X93170000Y-58605000D01*
X102410000Y-62045000D02*
X102410000Y-58605000D01*
X103100000Y-60325000D02*
X102410000Y-60325000D01*
X105120000Y-96450000D02*
X105120000Y-95850000D01*
X105420000Y-96150000D02*
X105120000Y-96450000D01*
X105120000Y-95850000D02*
X105420000Y-96150000D01*
X102920000Y-95350000D02*
X105420000Y-95350000D01*
X115520000Y-95350000D02*
X112720000Y-95350000D01*
X102920000Y-90550000D02*
X102920000Y-95350000D01*
X115520000Y-90450000D02*
X115520000Y-95350000D01*
X109220000Y-89150000D02*
X109220000Y-88150000D01*
X108720000Y-88650000D02*
X109720000Y-88650000D01*
X102920000Y-86850000D02*
X102920000Y-81950000D01*
X102920000Y-81950000D02*
X105520000Y-81950000D01*
X107920000Y-81950000D02*
X110520000Y-81950000D01*
X112920000Y-81950000D02*
X115520000Y-81950000D01*
X115520000Y-81950000D02*
X115520000Y-86850000D01*
X112220000Y-88650000D02*
G75*
G03*
X112220000Y-88650000I-3000000J0D01*
G01*
X153380000Y-96450000D02*
X153380000Y-95850000D01*
X153680000Y-96150000D02*
X153380000Y-96450000D01*
X153380000Y-95850000D02*
X153680000Y-96150000D01*
X151180000Y-95350000D02*
X153680000Y-95350000D01*
X163780000Y-95350000D02*
X160980000Y-95350000D01*
X151180000Y-90550000D02*
X151180000Y-95350000D01*
X163780000Y-90450000D02*
X163780000Y-95350000D01*
X157480000Y-89150000D02*
X157480000Y-88150000D01*
X156980000Y-88650000D02*
X157980000Y-88650000D01*
X151180000Y-86850000D02*
X151180000Y-81950000D01*
X151180000Y-81950000D02*
X153780000Y-81950000D01*
X156180000Y-81950000D02*
X158780000Y-81950000D01*
X161180000Y-81950000D02*
X163780000Y-81950000D01*
X163780000Y-81950000D02*
X163780000Y-86850000D01*
X160480000Y-88650000D02*
G75*
G03*
X160480000Y-88650000I-3000000J0D01*
G01*
X229510354Y-128570000D02*
X230510354Y-128570000D01*
X230010354Y-128070000D02*
X230010354Y-129070000D01*
X234990000Y-126365000D02*
X234990000Y-136525000D01*
X235030000Y-126365000D02*
X235030000Y-136525000D01*
X235070000Y-126365000D02*
X235070000Y-136525000D01*
X235110000Y-126366000D02*
X235110000Y-136524000D01*
X235150000Y-126367000D02*
X235150000Y-136523000D01*
X235190000Y-126368000D02*
X235190000Y-136522000D01*
X235230000Y-126370000D02*
X235230000Y-136520000D01*
X235270000Y-126372000D02*
X235270000Y-136518000D01*
X235310000Y-126375000D02*
X235310000Y-136515000D01*
X235350000Y-126377000D02*
X235350000Y-136513000D01*
X235390000Y-126380000D02*
X235390000Y-136510000D01*
X235430000Y-126383000D02*
X235430000Y-136507000D01*
X235470000Y-126387000D02*
X235470000Y-136503000D01*
X235510000Y-126391000D02*
X235510000Y-136499000D01*
X235550000Y-126395000D02*
X235550000Y-136495000D01*
X235590000Y-126400000D02*
X235590000Y-136490000D01*
X235630000Y-126405000D02*
X235630000Y-136485000D01*
X235670000Y-126410000D02*
X235670000Y-136480000D01*
X235711000Y-126415000D02*
X235711000Y-136475000D01*
X235751000Y-126421000D02*
X235751000Y-136469000D01*
X235791000Y-126427000D02*
X235791000Y-136463000D01*
X235831000Y-126434000D02*
X235831000Y-136456000D01*
X235871000Y-126441000D02*
X235871000Y-136449000D01*
X235911000Y-126448000D02*
X235911000Y-136442000D01*
X235951000Y-126455000D02*
X235951000Y-136435000D01*
X235991000Y-126463000D02*
X235991000Y-136427000D01*
X236031000Y-126471000D02*
X236031000Y-136419000D01*
X236071000Y-126480000D02*
X236071000Y-136410000D01*
X236111000Y-126489000D02*
X236111000Y-136401000D01*
X236151000Y-126498000D02*
X236151000Y-136392000D01*
X236191000Y-126507000D02*
X236191000Y-136383000D01*
X236231000Y-126517000D02*
X236231000Y-136373000D01*
X236271000Y-126527000D02*
X236271000Y-130204000D01*
X236271000Y-132686000D02*
X236271000Y-136363000D01*
X236311000Y-126538000D02*
X236311000Y-130204000D01*
X236311000Y-132686000D02*
X236311000Y-136352000D01*
X236351000Y-126548000D02*
X236351000Y-130204000D01*
X236351000Y-132686000D02*
X236351000Y-136342000D01*
X236391000Y-126560000D02*
X236391000Y-130204000D01*
X236391000Y-132686000D02*
X236391000Y-136330000D01*
X236431000Y-126571000D02*
X236431000Y-130204000D01*
X236431000Y-132686000D02*
X236431000Y-136319000D01*
X236471000Y-126583000D02*
X236471000Y-130204000D01*
X236471000Y-132686000D02*
X236471000Y-136307000D01*
X236511000Y-126595000D02*
X236511000Y-130204000D01*
X236511000Y-132686000D02*
X236511000Y-136295000D01*
X236551000Y-126608000D02*
X236551000Y-130204000D01*
X236551000Y-132686000D02*
X236551000Y-136282000D01*
X236591000Y-126621000D02*
X236591000Y-130204000D01*
X236591000Y-132686000D02*
X236591000Y-136269000D01*
X236631000Y-126634000D02*
X236631000Y-130204000D01*
X236631000Y-132686000D02*
X236631000Y-136256000D01*
X236671000Y-126648000D02*
X236671000Y-130204000D01*
X236671000Y-132686000D02*
X236671000Y-136242000D01*
X236711000Y-126662000D02*
X236711000Y-130204000D01*
X236711000Y-132686000D02*
X236711000Y-136228000D01*
X236751000Y-126677000D02*
X236751000Y-130204000D01*
X236751000Y-132686000D02*
X236751000Y-136213000D01*
X236791000Y-126691000D02*
X236791000Y-130204000D01*
X236791000Y-132686000D02*
X236791000Y-136199000D01*
X236831000Y-126707000D02*
X236831000Y-130204000D01*
X236831000Y-132686000D02*
X236831000Y-136183000D01*
X236871000Y-126722000D02*
X236871000Y-130204000D01*
X236871000Y-132686000D02*
X236871000Y-136168000D01*
X236911000Y-126738000D02*
X236911000Y-130204000D01*
X236911000Y-132686000D02*
X236911000Y-136152000D01*
X236951000Y-126755000D02*
X236951000Y-130204000D01*
X236951000Y-132686000D02*
X236951000Y-136135000D01*
X236991000Y-126771000D02*
X236991000Y-130204000D01*
X236991000Y-132686000D02*
X236991000Y-136119000D01*
X237031000Y-126788000D02*
X237031000Y-130204000D01*
X237031000Y-132686000D02*
X237031000Y-136102000D01*
X237071000Y-126806000D02*
X237071000Y-130204000D01*
X237071000Y-132686000D02*
X237071000Y-136084000D01*
X237111000Y-126824000D02*
X237111000Y-130204000D01*
X237111000Y-132686000D02*
X237111000Y-136066000D01*
X237151000Y-126842000D02*
X237151000Y-130204000D01*
X237151000Y-132686000D02*
X237151000Y-136048000D01*
X237191000Y-126861000D02*
X237191000Y-130204000D01*
X237191000Y-132686000D02*
X237191000Y-136029000D01*
X237231000Y-126881000D02*
X237231000Y-130204000D01*
X237231000Y-132686000D02*
X237231000Y-136009000D01*
X237271000Y-126900000D02*
X237271000Y-130204000D01*
X237271000Y-132686000D02*
X237271000Y-135990000D01*
X237311000Y-126920000D02*
X237311000Y-130204000D01*
X237311000Y-132686000D02*
X237311000Y-135970000D01*
X237351000Y-126941000D02*
X237351000Y-130204000D01*
X237351000Y-132686000D02*
X237351000Y-135949000D01*
X237391000Y-126962000D02*
X237391000Y-130204000D01*
X237391000Y-132686000D02*
X237391000Y-135928000D01*
X237431000Y-126983000D02*
X237431000Y-130204000D01*
X237431000Y-132686000D02*
X237431000Y-135907000D01*
X237471000Y-127005000D02*
X237471000Y-130204000D01*
X237471000Y-132686000D02*
X237471000Y-135885000D01*
X237511000Y-127028000D02*
X237511000Y-130204000D01*
X237511000Y-132686000D02*
X237511000Y-135862000D01*
X237551000Y-127050000D02*
X237551000Y-130204000D01*
X237551000Y-132686000D02*
X237551000Y-135840000D01*
X237591000Y-127074000D02*
X237591000Y-130204000D01*
X237591000Y-132686000D02*
X237591000Y-135816000D01*
X237631000Y-127098000D02*
X237631000Y-130204000D01*
X237631000Y-132686000D02*
X237631000Y-135792000D01*
X237671000Y-127122000D02*
X237671000Y-130204000D01*
X237671000Y-132686000D02*
X237671000Y-135768000D01*
X237711000Y-127147000D02*
X237711000Y-130204000D01*
X237711000Y-132686000D02*
X237711000Y-135743000D01*
X237751000Y-127172000D02*
X237751000Y-130204000D01*
X237751000Y-132686000D02*
X237751000Y-135718000D01*
X237791000Y-127198000D02*
X237791000Y-130204000D01*
X237791000Y-132686000D02*
X237791000Y-135692000D01*
X237831000Y-127224000D02*
X237831000Y-130204000D01*
X237831000Y-132686000D02*
X237831000Y-135666000D01*
X237871000Y-127251000D02*
X237871000Y-130204000D01*
X237871000Y-132686000D02*
X237871000Y-135639000D01*
X237911000Y-127279000D02*
X237911000Y-130204000D01*
X237911000Y-132686000D02*
X237911000Y-135611000D01*
X237951000Y-127307000D02*
X237951000Y-130204000D01*
X237951000Y-132686000D02*
X237951000Y-135583000D01*
X237991000Y-127335000D02*
X237991000Y-130204000D01*
X237991000Y-132686000D02*
X237991000Y-135555000D01*
X238031000Y-127365000D02*
X238031000Y-130204000D01*
X238031000Y-132686000D02*
X238031000Y-135525000D01*
X238071000Y-127395000D02*
X238071000Y-130204000D01*
X238071000Y-132686000D02*
X238071000Y-135495000D01*
X238111000Y-127425000D02*
X238111000Y-130204000D01*
X238111000Y-132686000D02*
X238111000Y-135465000D01*
X238151000Y-127456000D02*
X238151000Y-130204000D01*
X238151000Y-132686000D02*
X238151000Y-135434000D01*
X238191000Y-127488000D02*
X238191000Y-130204000D01*
X238191000Y-132686000D02*
X238191000Y-135402000D01*
X238231000Y-127520000D02*
X238231000Y-130204000D01*
X238231000Y-132686000D02*
X238231000Y-135370000D01*
X238271000Y-127553000D02*
X238271000Y-130204000D01*
X238271000Y-132686000D02*
X238271000Y-135337000D01*
X238311000Y-127587000D02*
X238311000Y-130204000D01*
X238311000Y-132686000D02*
X238311000Y-135303000D01*
X238351000Y-127621000D02*
X238351000Y-130204000D01*
X238351000Y-132686000D02*
X238351000Y-135269000D01*
X238391000Y-127656000D02*
X238391000Y-130204000D01*
X238391000Y-132686000D02*
X238391000Y-135234000D01*
X238431000Y-127692000D02*
X238431000Y-130204000D01*
X238431000Y-132686000D02*
X238431000Y-135198000D01*
X238471000Y-127729000D02*
X238471000Y-130204000D01*
X238471000Y-132686000D02*
X238471000Y-135161000D01*
X238511000Y-127766000D02*
X238511000Y-130204000D01*
X238511000Y-132686000D02*
X238511000Y-135124000D01*
X238551000Y-127805000D02*
X238551000Y-130204000D01*
X238551000Y-132686000D02*
X238551000Y-135085000D01*
X238591000Y-127844000D02*
X238591000Y-130204000D01*
X238591000Y-132686000D02*
X238591000Y-135046000D01*
X238631000Y-127884000D02*
X238631000Y-130204000D01*
X238631000Y-132686000D02*
X238631000Y-135006000D01*
X238671000Y-127925000D02*
X238671000Y-130204000D01*
X238671000Y-132686000D02*
X238671000Y-134965000D01*
X238711000Y-127967000D02*
X238711000Y-130204000D01*
X238711000Y-132686000D02*
X238711000Y-134923000D01*
X238751000Y-128009000D02*
X238751000Y-134881000D01*
X238791000Y-128053000D02*
X238791000Y-134837000D01*
X238831000Y-128098000D02*
X238831000Y-134792000D01*
X238871000Y-128144000D02*
X238871000Y-134746000D01*
X238911000Y-128191000D02*
X238911000Y-134699000D01*
X238951000Y-128239000D02*
X238951000Y-134651000D01*
X238991000Y-128289000D02*
X238991000Y-134601000D01*
X239031000Y-128339000D02*
X239031000Y-134551000D01*
X239071000Y-128391000D02*
X239071000Y-134499000D01*
X239111000Y-128445000D02*
X239111000Y-134445000D01*
X239151000Y-128500000D02*
X239151000Y-134390000D01*
X239191000Y-128556000D02*
X239191000Y-134334000D01*
X239231000Y-128615000D02*
X239231000Y-134275000D01*
X239271000Y-128675000D02*
X239271000Y-134215000D01*
X239311000Y-128736000D02*
X239311000Y-134154000D01*
X239351000Y-128800000D02*
X239351000Y-134090000D01*
X239391000Y-128866000D02*
X239391000Y-134024000D01*
X239431000Y-128935000D02*
X239431000Y-133955000D01*
X239471000Y-129006000D02*
X239471000Y-133884000D01*
X239511000Y-129080000D02*
X239511000Y-133810000D01*
X239551000Y-129156000D02*
X239551000Y-133734000D01*
X239591000Y-129236000D02*
X239591000Y-133654000D01*
X239631000Y-129320000D02*
X239631000Y-133570000D01*
X239671000Y-129408000D02*
X239671000Y-133482000D01*
X239711000Y-129501000D02*
X239711000Y-133389000D01*
X239751000Y-129599000D02*
X239751000Y-133291000D01*
X239791000Y-129703000D02*
X239791000Y-133187000D01*
X239831000Y-129815000D02*
X239831000Y-133075000D01*
X239871000Y-129935000D02*
X239871000Y-132955000D01*
X239911000Y-130067000D02*
X239911000Y-132823000D01*
X239951000Y-130215000D02*
X239951000Y-132675000D01*
X239991000Y-130383000D02*
X239991000Y-132507000D01*
X240031000Y-130583000D02*
X240031000Y-132307000D01*
X240071000Y-130846000D02*
X240071000Y-132044000D01*
X240110000Y-131445000D02*
G75*
G03*
X240110000Y-131445000I-5120000J0D01*
G01*
X56860000Y-96450000D02*
X56860000Y-95850000D01*
X57160000Y-96150000D02*
X56860000Y-96450000D01*
X56860000Y-95850000D02*
X57160000Y-96150000D01*
X54660000Y-95350000D02*
X57160000Y-95350000D01*
X67260000Y-95350000D02*
X64460000Y-95350000D01*
X54660000Y-90550000D02*
X54660000Y-95350000D01*
X67260000Y-90450000D02*
X67260000Y-95350000D01*
X60960000Y-89150000D02*
X60960000Y-88150000D01*
X60460000Y-88650000D02*
X61460000Y-88650000D01*
X54660000Y-86850000D02*
X54660000Y-81950000D01*
X54660000Y-81950000D02*
X57260000Y-81950000D01*
X59660000Y-81950000D02*
X62260000Y-81950000D01*
X64660000Y-81950000D02*
X67260000Y-81950000D01*
X67260000Y-81950000D02*
X67260000Y-86850000D01*
X63960000Y-88650000D02*
G75*
G03*
X63960000Y-88650000I-3000000J0D01*
G01*
X56110000Y-114935000D02*
X55420000Y-114935000D01*
X55420000Y-116655000D02*
X55420000Y-113215000D01*
X55420000Y-113215000D02*
X46180000Y-113215000D01*
X46180000Y-116655000D02*
X55420000Y-116655000D01*
X46180000Y-113215000D02*
X46180000Y-116655000D01*
X45490000Y-114935000D02*
X46180000Y-114935000D01*
X189000000Y-60325000D02*
X189690000Y-60325000D01*
X189690000Y-58605000D02*
X189690000Y-62045000D01*
X189690000Y-62045000D02*
X198930000Y-62045000D01*
X198930000Y-58605000D02*
X189690000Y-58605000D01*
X198930000Y-62045000D02*
X198930000Y-58605000D01*
X199620000Y-60325000D02*
X198930000Y-60325000D01*
X140740000Y-60325000D02*
X141430000Y-60325000D01*
X141430000Y-58605000D02*
X141430000Y-62045000D01*
X141430000Y-62045000D02*
X150670000Y-62045000D01*
X150670000Y-58605000D02*
X141430000Y-58605000D01*
X150670000Y-62045000D02*
X150670000Y-58605000D01*
X151360000Y-60325000D02*
X150670000Y-60325000D01*
X153265000Y-114935000D02*
X152575000Y-114935000D01*
X152575000Y-116655000D02*
X152575000Y-113215000D01*
X152575000Y-113215000D02*
X143335000Y-113215000D01*
X143335000Y-116655000D02*
X152575000Y-116655000D01*
X143335000Y-113215000D02*
X143335000Y-116655000D01*
X142645000Y-114935000D02*
X143335000Y-114935000D01*
X76430000Y-114935000D02*
X75740000Y-114935000D01*
X75740000Y-116655000D02*
X75740000Y-113215000D01*
X75740000Y-113215000D02*
X66500000Y-113215000D01*
X66500000Y-116655000D02*
X75740000Y-116655000D01*
X66500000Y-113215000D02*
X66500000Y-116655000D01*
X65810000Y-114935000D02*
X66500000Y-114935000D01*
X130700000Y-64075000D02*
X130700000Y-84515000D01*
X130700000Y-84515000D02*
X136000000Y-84515000D01*
X132350000Y-64075000D02*
X130700000Y-64075000D01*
X136000000Y-64075000D02*
X134350000Y-64075000D01*
X136000000Y-84515000D02*
X136000000Y-64075000D01*
X132350000Y-64075000D02*
G75*
G03*
X134350000Y-64075000I1000000J0D01*
G01*
X64540000Y-60325000D02*
X65230000Y-60325000D01*
X65230000Y-58605000D02*
X65230000Y-62045000D01*
X65230000Y-62045000D02*
X74470000Y-62045000D01*
X74470000Y-58605000D02*
X65230000Y-58605000D01*
X74470000Y-62045000D02*
X74470000Y-58605000D01*
X75160000Y-60325000D02*
X74470000Y-60325000D01*
X161060000Y-60325000D02*
X161750000Y-60325000D01*
X161750000Y-58605000D02*
X161750000Y-62045000D01*
X161750000Y-62045000D02*
X170990000Y-62045000D01*
X170990000Y-58605000D02*
X161750000Y-58605000D01*
X170990000Y-62045000D02*
X170990000Y-58605000D01*
X171680000Y-60325000D02*
X170990000Y-60325000D01*
X120880000Y-114935000D02*
X120190000Y-114935000D01*
X120190000Y-116655000D02*
X120190000Y-113215000D01*
X120190000Y-113215000D02*
X110950000Y-113215000D01*
X110950000Y-116655000D02*
X120190000Y-116655000D01*
X110950000Y-113215000D02*
X110950000Y-116655000D01*
X110260000Y-114935000D02*
X110950000Y-114935000D01*
X130700000Y-94555000D02*
X130700000Y-114995000D01*
X130700000Y-114995000D02*
X136000000Y-114995000D01*
X132350000Y-94555000D02*
X130700000Y-94555000D01*
X136000000Y-94555000D02*
X134350000Y-94555000D01*
X136000000Y-114995000D02*
X136000000Y-94555000D01*
X132350000Y-94555000D02*
G75*
G03*
X134350000Y-94555000I1000000J0D01*
G01*
D10*
X236220000Y-71120000D02*
X236220000Y-73660000D01*
X228600000Y-71120000D02*
X236220000Y-71120000D01*
X241300000Y-73660000D02*
X241300000Y-104140000D01*
X236220000Y-73660000D02*
X241300000Y-73660000D01*
X228600000Y-73660000D02*
X228600000Y-71120000D01*
X223520000Y-73660000D02*
X228600000Y-73660000D01*
X223520000Y-73660000D02*
X223520000Y-104140000D01*
X241300000Y-104140000D02*
X223520000Y-104140000D01*
D12*
X142070000Y-67494000D02*
X142070000Y-68160000D01*
X142070000Y-67494000D02*
X147410000Y-67494000D01*
X142070000Y-70270000D02*
X142070000Y-70936000D01*
X142070000Y-70936000D02*
X147410000Y-70936000D01*
X147410000Y-67494000D02*
X147410000Y-68160000D01*
X147410000Y-70270000D02*
X147410000Y-70936000D01*
X201640000Y-96450000D02*
X201640000Y-95850000D01*
X201940000Y-96150000D02*
X201640000Y-96450000D01*
X201640000Y-95850000D02*
X201940000Y-96150000D01*
X199440000Y-95350000D02*
X201940000Y-95350000D01*
X212040000Y-95350000D02*
X209240000Y-95350000D01*
X199440000Y-90550000D02*
X199440000Y-95350000D01*
X212040000Y-90450000D02*
X212040000Y-95350000D01*
X205740000Y-89150000D02*
X205740000Y-88150000D01*
X205240000Y-88650000D02*
X206240000Y-88650000D01*
X199440000Y-86850000D02*
X199440000Y-81950000D01*
X199440000Y-81950000D02*
X202040000Y-81950000D01*
X204440000Y-81950000D02*
X207040000Y-81950000D01*
X209440000Y-81950000D02*
X212040000Y-81950000D01*
X212040000Y-81950000D02*
X212040000Y-86850000D01*
X208740000Y-88650000D02*
G75*
G03*
X208740000Y-88650000I-3000000J0D01*
G01*
X142150000Y-94164000D02*
X142150000Y-94830000D01*
X142150000Y-94164000D02*
X147490000Y-94164000D01*
X142150000Y-96940000D02*
X142150000Y-97606000D01*
X142150000Y-97606000D02*
X147490000Y-97606000D01*
X147490000Y-94164000D02*
X147490000Y-94830000D01*
X147490000Y-96940000D02*
X147490000Y-97606000D01*
X142070000Y-63684000D02*
X142070000Y-64350000D01*
X142070000Y-63684000D02*
X147410000Y-63684000D01*
X142070000Y-66460000D02*
X142070000Y-67126000D01*
X142070000Y-67126000D02*
X147410000Y-67126000D01*
X147410000Y-63684000D02*
X147410000Y-64350000D01*
X147410000Y-66460000D02*
X147410000Y-67126000D01*
D13*
X224790000Y-74930000D03*
D14*
X224790000Y-77470000D03*
X224790000Y-80010000D03*
X224790000Y-82550000D03*
X224790000Y-85090000D03*
X224790000Y-87630000D03*
X224790000Y-90170000D03*
X224790000Y-92710000D03*
X224790000Y-95250000D03*
X224790000Y-97790000D03*
X224790000Y-100330000D03*
X224790000Y-102870000D03*
X240030000Y-102870000D03*
X240030000Y-100330000D03*
X240030000Y-97790000D03*
X240030000Y-95250000D03*
X240030000Y-92710000D03*
X240030000Y-90170000D03*
X240030000Y-87630000D03*
X240030000Y-85090000D03*
X240030000Y-82550000D03*
X240030000Y-80010000D03*
X240030000Y-77470000D03*
X240030000Y-74930000D03*
%LPC*%
D15*
X210820000Y-127000000D03*
D16*
X215900000Y-127000000D03*
D15*
X220980000Y-127000000D03*
D17*
X218440000Y-121920000D03*
X212090000Y-124460000D03*
D15*
X190500000Y-127000000D03*
D16*
X195580000Y-127000000D03*
D15*
X200660000Y-127000000D03*
D17*
X198120000Y-121920000D03*
X191770000Y-124460000D03*
D15*
X162560000Y-127000000D03*
D16*
X167640000Y-127000000D03*
D15*
X172720000Y-127000000D03*
D17*
X170180000Y-121920000D03*
X163830000Y-124460000D03*
D15*
X142240000Y-127000000D03*
D16*
X147320000Y-127000000D03*
D15*
X152400000Y-127000000D03*
D17*
X149860000Y-121920000D03*
X143510000Y-124460000D03*
D15*
X114300000Y-127000000D03*
D16*
X119380000Y-127000000D03*
D15*
X124460000Y-127000000D03*
D17*
X121920000Y-121920000D03*
X115570000Y-124460000D03*
D15*
X93980000Y-127000000D03*
D16*
X99060000Y-127000000D03*
D15*
X104140000Y-127000000D03*
D17*
X101600000Y-121920000D03*
X95250000Y-124460000D03*
D15*
X66040000Y-127000000D03*
D16*
X71120000Y-127000000D03*
D15*
X76200000Y-127000000D03*
D17*
X73660000Y-121920000D03*
X67310000Y-124460000D03*
D15*
X45720000Y-127000000D03*
D16*
X50800000Y-127000000D03*
D15*
X55880000Y-127000000D03*
D17*
X53340000Y-121920000D03*
X46990000Y-124460000D03*
D15*
X210820000Y-50800000D03*
D16*
X215900000Y-50800000D03*
D15*
X220980000Y-50800000D03*
D17*
X218440000Y-45720000D03*
X212090000Y-48260000D03*
D15*
X190500000Y-50800000D03*
D16*
X195580000Y-50800000D03*
D15*
X200660000Y-50800000D03*
D17*
X198120000Y-45720000D03*
X191770000Y-48260000D03*
D15*
X162560000Y-50800000D03*
D16*
X167640000Y-50800000D03*
D15*
X172720000Y-50800000D03*
D17*
X170180000Y-45720000D03*
X163830000Y-48260000D03*
D15*
X142240000Y-50800000D03*
D16*
X147320000Y-50800000D03*
D15*
X152400000Y-50800000D03*
D17*
X149860000Y-45720000D03*
X143510000Y-48260000D03*
D15*
X114300000Y-50800000D03*
D16*
X119380000Y-50800000D03*
D15*
X124460000Y-50800000D03*
D17*
X121920000Y-45720000D03*
X115570000Y-48260000D03*
D15*
X93980000Y-50800000D03*
D16*
X99060000Y-50800000D03*
D15*
X104140000Y-50800000D03*
D17*
X101600000Y-45720000D03*
X95250000Y-48260000D03*
D15*
X66040000Y-50800000D03*
D16*
X71120000Y-50800000D03*
D15*
X76200000Y-50800000D03*
D17*
X73660000Y-45720000D03*
X67310000Y-48260000D03*
D15*
X45720000Y-50800000D03*
D16*
X50800000Y-50800000D03*
D15*
X55880000Y-50800000D03*
D17*
X53340000Y-45720000D03*
X46990000Y-48260000D03*
D14*
X173990000Y-114935000D03*
D18*
X161290000Y-114935000D03*
D14*
X200660000Y-114300000D03*
D18*
X187960000Y-114300000D03*
D19*
X45720000Y-71120000D03*
X48260000Y-71120000D03*
X50800000Y-71120000D03*
D14*
X142320000Y-100330000D03*
X147320000Y-100330000D03*
X208280000Y-60325000D03*
D18*
X220980000Y-60325000D03*
D14*
X105410000Y-114935000D03*
D18*
X92710000Y-114935000D03*
D14*
X111760000Y-60325000D03*
D18*
X124460000Y-60325000D03*
D14*
X43180000Y-60325000D03*
D18*
X55880000Y-60325000D03*
D14*
X222250000Y-114300000D03*
D18*
X209550000Y-114300000D03*
D20*
X236935000Y-120015000D03*
D21*
X241935000Y-120015000D03*
D14*
X91440000Y-60325000D03*
D18*
X104140000Y-60325000D03*
D20*
X106720000Y-96150000D03*
D21*
X111720000Y-96150000D03*
X109220000Y-96150000D03*
D22*
X103620000Y-88650000D03*
X114820000Y-88650000D03*
D21*
X106720000Y-81650000D03*
X111720000Y-81650000D03*
D20*
X154980000Y-96150000D03*
D21*
X159980000Y-96150000D03*
X157480000Y-96150000D03*
D22*
X151880000Y-88650000D03*
X163080000Y-88650000D03*
D21*
X154980000Y-81650000D03*
X159980000Y-81650000D03*
D19*
X45720000Y-109220000D03*
X48260000Y-109220000D03*
X50800000Y-109220000D03*
D20*
X232490000Y-131445000D03*
D21*
X237490000Y-131445000D03*
D20*
X58460000Y-96150000D03*
D21*
X63460000Y-96150000D03*
X60960000Y-96150000D03*
D22*
X55360000Y-88650000D03*
X66560000Y-88650000D03*
D21*
X58460000Y-81650000D03*
X63460000Y-81650000D03*
D14*
X57150000Y-114935000D03*
D18*
X44450000Y-114935000D03*
D19*
X230505000Y-45720000D03*
X230505000Y-48260000D03*
X230505000Y-50800000D03*
D14*
X187960000Y-60325000D03*
D18*
X200660000Y-60325000D03*
D14*
X139700000Y-60325000D03*
D18*
X152400000Y-60325000D03*
D14*
X154305000Y-114935000D03*
D18*
X141605000Y-114935000D03*
D14*
X77470000Y-114935000D03*
D18*
X64770000Y-114935000D03*
D13*
X129540000Y-65405000D03*
D18*
X129540000Y-67945000D03*
X129540000Y-70485000D03*
X129540000Y-73025000D03*
X129540000Y-75565000D03*
X129540000Y-78105000D03*
X129540000Y-80645000D03*
X129540000Y-83185000D03*
X137160000Y-83185000D03*
X137160000Y-80645000D03*
X137160000Y-78105000D03*
X137160000Y-75565000D03*
X137160000Y-73025000D03*
X137160000Y-70485000D03*
X137160000Y-67945000D03*
X137160000Y-65405000D03*
D14*
X63500000Y-60325000D03*
D18*
X76200000Y-60325000D03*
D14*
X160020000Y-60325000D03*
D18*
X172720000Y-60325000D03*
D14*
X121920000Y-114935000D03*
D18*
X109220000Y-114935000D03*
D13*
X129540000Y-95885000D03*
D18*
X129540000Y-98425000D03*
X129540000Y-100965000D03*
X129540000Y-103505000D03*
X129540000Y-106045000D03*
X129540000Y-108585000D03*
X129540000Y-111125000D03*
X129540000Y-113665000D03*
X137160000Y-113665000D03*
X137160000Y-111125000D03*
X137160000Y-108585000D03*
X137160000Y-106045000D03*
X137160000Y-103505000D03*
X137160000Y-100965000D03*
X137160000Y-98425000D03*
X137160000Y-95885000D03*
D13*
X224790000Y-74930000D03*
D14*
X224790000Y-77470000D03*
X224790000Y-80010000D03*
X224790000Y-82550000D03*
X224790000Y-85090000D03*
X224790000Y-87630000D03*
X224790000Y-90170000D03*
X224790000Y-92710000D03*
X224790000Y-95250000D03*
X224790000Y-97790000D03*
X224790000Y-100330000D03*
X224790000Y-102870000D03*
X240030000Y-102870000D03*
X240030000Y-100330000D03*
X240030000Y-97790000D03*
X240030000Y-95250000D03*
X240030000Y-92710000D03*
X240030000Y-90170000D03*
X240030000Y-87630000D03*
X240030000Y-85090000D03*
X240030000Y-82550000D03*
X240030000Y-80010000D03*
X240030000Y-77470000D03*
X240030000Y-74930000D03*
X142240000Y-69215000D03*
X147240000Y-69215000D03*
D20*
X203240000Y-96150000D03*
D21*
X208240000Y-96150000D03*
X205740000Y-96150000D03*
D22*
X200140000Y-88650000D03*
X211340000Y-88650000D03*
D21*
X203240000Y-81650000D03*
X208240000Y-81650000D03*
D14*
X142320000Y-95885000D03*
X147320000Y-95885000D03*
X142240000Y-65405000D03*
X147240000Y-65405000D03*
%LPD*%
M02*
