M48
; DRILL file {KiCad 7.0.6} date Di 29 Aug 2023 18:11:49 CEST
; FORMAT={-:-/ absolute / metric / decimal}
; #@! TF.CreationDate,2023-08-29T18:11:49+02:00
; #@! TF.GenerationSoftware,Kicad,Pcbnew,7.0.6
; #@! TF.FileFunction,NonPlated,1,2,NPTH
FMAT,2
METRIC
; #@! TA.AperFunction,NonPlated,NPTH,ComponentDrill
T1C1.700
%
G90
G05
T1
X45.72Y-50.8
X45.72Y-127.0
X55.88Y-50.8
X55.88Y-127.0
X66.04Y-50.8
X66.04Y-127.0
X76.2Y-50.8
X76.2Y-127.0
X93.98Y-50.8
X93.98Y-127.0
X104.14Y-50.8
X104.14Y-127.0
X114.3Y-50.8
X114.3Y-127.0
X124.46Y-50.8
X124.46Y-127.0
X142.24Y-50.8
X142.24Y-127.0
X152.4Y-50.8
X152.4Y-127.0
X162.56Y-50.8
X162.56Y-127.0
X172.72Y-50.8
X172.72Y-127.0
X190.5Y-50.8
X190.5Y-127.0
X200.66Y-50.8
X200.66Y-127.0
X210.82Y-50.8
X210.82Y-127.0
X220.98Y-50.8
X220.98Y-127.0
T0
M30
