G04 #@! TF.GenerationSoftware,KiCad,Pcbnew,7.0.6*
G04 #@! TF.CreationDate,2023-08-29T18:11:44+02:00*
G04 #@! TF.ProjectId,photo console,70686f74-6f20-4636-9f6e-736f6c652e6b,rev?*
G04 #@! TF.SameCoordinates,Original*
G04 #@! TF.FileFunction,Legend,Bot*
G04 #@! TF.FilePolarity,Positive*
%FSLAX46Y46*%
G04 Gerber Fmt 4.6, Leading zero omitted, Abs format (unit mm)*
G04 Created by KiCad (PCBNEW 7.0.6) date 2023-08-29 18:11:44*
%MOMM*%
%LPD*%
G01*
G04 APERTURE LIST*
%ADD10C,0.150000*%
%ADD11C,1.700000*%
%ADD12C,4.000000*%
%ADD13C,2.200000*%
%ADD14C,1.600000*%
%ADD15O,1.600000X1.600000*%
%ADD16C,1.524000*%
%ADD17R,2.000000X2.000000*%
%ADD18C,2.000000*%
%ADD19C,2.800000*%
%ADD20R,1.600000X1.600000*%
G04 APERTURE END LIST*
D10*
X43634819Y-93266191D02*
X43634819Y-93456667D01*
X43634819Y-93456667D02*
X43587200Y-93551905D01*
X43587200Y-93551905D02*
X43539580Y-93599524D01*
X43539580Y-93599524D02*
X43396723Y-93694762D01*
X43396723Y-93694762D02*
X43206247Y-93742381D01*
X43206247Y-93742381D02*
X42825295Y-93742381D01*
X42825295Y-93742381D02*
X42730057Y-93694762D01*
X42730057Y-93694762D02*
X42682438Y-93647143D01*
X42682438Y-93647143D02*
X42634819Y-93551905D01*
X42634819Y-93551905D02*
X42634819Y-93361429D01*
X42634819Y-93361429D02*
X42682438Y-93266191D01*
X42682438Y-93266191D02*
X42730057Y-93218572D01*
X42730057Y-93218572D02*
X42825295Y-93170953D01*
X42825295Y-93170953D02*
X43063390Y-93170953D01*
X43063390Y-93170953D02*
X43158628Y-93218572D01*
X43158628Y-93218572D02*
X43206247Y-93266191D01*
X43206247Y-93266191D02*
X43253866Y-93361429D01*
X43253866Y-93361429D02*
X43253866Y-93551905D01*
X43253866Y-93551905D02*
X43206247Y-93647143D01*
X43206247Y-93647143D02*
X43158628Y-93694762D01*
X43158628Y-93694762D02*
X43063390Y-93742381D01*
X43634819Y-94218572D02*
X43634819Y-94409048D01*
X43634819Y-94409048D02*
X43587200Y-94504286D01*
X43587200Y-94504286D02*
X43539580Y-94551905D01*
X43539580Y-94551905D02*
X43396723Y-94647143D01*
X43396723Y-94647143D02*
X43206247Y-94694762D01*
X43206247Y-94694762D02*
X42825295Y-94694762D01*
X42825295Y-94694762D02*
X42730057Y-94647143D01*
X42730057Y-94647143D02*
X42682438Y-94599524D01*
X42682438Y-94599524D02*
X42634819Y-94504286D01*
X42634819Y-94504286D02*
X42634819Y-94313810D01*
X42634819Y-94313810D02*
X42682438Y-94218572D01*
X42682438Y-94218572D02*
X42730057Y-94170953D01*
X42730057Y-94170953D02*
X42825295Y-94123334D01*
X42825295Y-94123334D02*
X43063390Y-94123334D01*
X43063390Y-94123334D02*
X43158628Y-94170953D01*
X43158628Y-94170953D02*
X43206247Y-94218572D01*
X43206247Y-94218572D02*
X43253866Y-94313810D01*
X43253866Y-94313810D02*
X43253866Y-94504286D01*
X43253866Y-94504286D02*
X43206247Y-94599524D01*
X43206247Y-94599524D02*
X43158628Y-94647143D01*
X43158628Y-94647143D02*
X43063390Y-94694762D01*
X43587200Y-95170953D02*
X43634819Y-95170953D01*
X43634819Y-95170953D02*
X43730057Y-95123334D01*
X43730057Y-95123334D02*
X43777676Y-95075715D01*
X42634819Y-95790000D02*
X42634819Y-95885238D01*
X42634819Y-95885238D02*
X42682438Y-95980476D01*
X42682438Y-95980476D02*
X42730057Y-96028095D01*
X42730057Y-96028095D02*
X42825295Y-96075714D01*
X42825295Y-96075714D02*
X43015771Y-96123333D01*
X43015771Y-96123333D02*
X43253866Y-96123333D01*
X43253866Y-96123333D02*
X43444342Y-96075714D01*
X43444342Y-96075714D02*
X43539580Y-96028095D01*
X43539580Y-96028095D02*
X43587200Y-95980476D01*
X43587200Y-95980476D02*
X43634819Y-95885238D01*
X43634819Y-95885238D02*
X43634819Y-95790000D01*
X43634819Y-95790000D02*
X43587200Y-95694762D01*
X43587200Y-95694762D02*
X43539580Y-95647143D01*
X43539580Y-95647143D02*
X43444342Y-95599524D01*
X43444342Y-95599524D02*
X43253866Y-95551905D01*
X43253866Y-95551905D02*
X43015771Y-95551905D01*
X43015771Y-95551905D02*
X42825295Y-95599524D01*
X42825295Y-95599524D02*
X42730057Y-95647143D01*
X42730057Y-95647143D02*
X42682438Y-95694762D01*
X42682438Y-95694762D02*
X42634819Y-95790000D01*
X42634819Y-96980476D02*
X42634819Y-96790000D01*
X42634819Y-96790000D02*
X42682438Y-96694762D01*
X42682438Y-96694762D02*
X42730057Y-96647143D01*
X42730057Y-96647143D02*
X42872914Y-96551905D01*
X42872914Y-96551905D02*
X43063390Y-96504286D01*
X43063390Y-96504286D02*
X43444342Y-96504286D01*
X43444342Y-96504286D02*
X43539580Y-96551905D01*
X43539580Y-96551905D02*
X43587200Y-96599524D01*
X43587200Y-96599524D02*
X43634819Y-96694762D01*
X43634819Y-96694762D02*
X43634819Y-96885238D01*
X43634819Y-96885238D02*
X43587200Y-96980476D01*
X43587200Y-96980476D02*
X43539580Y-97028095D01*
X43539580Y-97028095D02*
X43444342Y-97075714D01*
X43444342Y-97075714D02*
X43206247Y-97075714D01*
X43206247Y-97075714D02*
X43111009Y-97028095D01*
X43111009Y-97028095D02*
X43063390Y-96980476D01*
X43063390Y-96980476D02*
X43015771Y-96885238D01*
X43015771Y-96885238D02*
X43015771Y-96694762D01*
X43015771Y-96694762D02*
X43063390Y-96599524D01*
X43063390Y-96599524D02*
X43111009Y-96551905D01*
X43111009Y-96551905D02*
X43206247Y-96504286D01*
X42634819Y-97694762D02*
X42634819Y-97790000D01*
X42634819Y-97790000D02*
X42682438Y-97885238D01*
X42682438Y-97885238D02*
X42730057Y-97932857D01*
X42730057Y-97932857D02*
X42825295Y-97980476D01*
X42825295Y-97980476D02*
X43015771Y-98028095D01*
X43015771Y-98028095D02*
X43253866Y-98028095D01*
X43253866Y-98028095D02*
X43444342Y-97980476D01*
X43444342Y-97980476D02*
X43539580Y-97932857D01*
X43539580Y-97932857D02*
X43587200Y-97885238D01*
X43587200Y-97885238D02*
X43634819Y-97790000D01*
X43634819Y-97790000D02*
X43634819Y-97694762D01*
X43634819Y-97694762D02*
X43587200Y-97599524D01*
X43587200Y-97599524D02*
X43539580Y-97551905D01*
X43539580Y-97551905D02*
X43444342Y-97504286D01*
X43444342Y-97504286D02*
X43253866Y-97456667D01*
X43253866Y-97456667D02*
X43015771Y-97456667D01*
X43015771Y-97456667D02*
X42825295Y-97504286D01*
X42825295Y-97504286D02*
X42730057Y-97551905D01*
X42730057Y-97551905D02*
X42682438Y-97599524D01*
X42682438Y-97599524D02*
X42634819Y-97694762D01*
X42634819Y-98647143D02*
X42634819Y-98742381D01*
X42634819Y-98742381D02*
X42682438Y-98837619D01*
X42682438Y-98837619D02*
X42730057Y-98885238D01*
X42730057Y-98885238D02*
X42825295Y-98932857D01*
X42825295Y-98932857D02*
X43015771Y-98980476D01*
X43015771Y-98980476D02*
X43253866Y-98980476D01*
X43253866Y-98980476D02*
X43444342Y-98932857D01*
X43444342Y-98932857D02*
X43539580Y-98885238D01*
X43539580Y-98885238D02*
X43587200Y-98837619D01*
X43587200Y-98837619D02*
X43634819Y-98742381D01*
X43634819Y-98742381D02*
X43634819Y-98647143D01*
X43634819Y-98647143D02*
X43587200Y-98551905D01*
X43587200Y-98551905D02*
X43539580Y-98504286D01*
X43539580Y-98504286D02*
X43444342Y-98456667D01*
X43444342Y-98456667D02*
X43253866Y-98409048D01*
X43253866Y-98409048D02*
X43015771Y-98409048D01*
X43015771Y-98409048D02*
X42825295Y-98456667D01*
X42825295Y-98456667D02*
X42730057Y-98504286D01*
X42730057Y-98504286D02*
X42682438Y-98551905D01*
X42682438Y-98551905D02*
X42634819Y-98647143D01*
X43634819Y-100170953D02*
X42968152Y-100170953D01*
X43063390Y-100170953D02*
X43015771Y-100218572D01*
X43015771Y-100218572D02*
X42968152Y-100313810D01*
X42968152Y-100313810D02*
X42968152Y-100456667D01*
X42968152Y-100456667D02*
X43015771Y-100551905D01*
X43015771Y-100551905D02*
X43111009Y-100599524D01*
X43111009Y-100599524D02*
X43634819Y-100599524D01*
X43111009Y-100599524D02*
X43015771Y-100647143D01*
X43015771Y-100647143D02*
X42968152Y-100742381D01*
X42968152Y-100742381D02*
X42968152Y-100885238D01*
X42968152Y-100885238D02*
X43015771Y-100980477D01*
X43015771Y-100980477D02*
X43111009Y-101028096D01*
X43111009Y-101028096D02*
X43634819Y-101028096D01*
X43634819Y-101504286D02*
X42968152Y-101504286D01*
X43063390Y-101504286D02*
X43015771Y-101551905D01*
X43015771Y-101551905D02*
X42968152Y-101647143D01*
X42968152Y-101647143D02*
X42968152Y-101790000D01*
X42968152Y-101790000D02*
X43015771Y-101885238D01*
X43015771Y-101885238D02*
X43111009Y-101932857D01*
X43111009Y-101932857D02*
X43634819Y-101932857D01*
X43111009Y-101932857D02*
X43015771Y-101980476D01*
X43015771Y-101980476D02*
X42968152Y-102075714D01*
X42968152Y-102075714D02*
X42968152Y-102218571D01*
X42968152Y-102218571D02*
X43015771Y-102313810D01*
X43015771Y-102313810D02*
X43111009Y-102361429D01*
X43111009Y-102361429D02*
X43634819Y-102361429D01*
X39870000Y-138430000D02*
X44401420Y-138430000D01*
X39870000Y-39370000D02*
X44401420Y-39370000D01*
X43815000Y-138430000D02*
X43815000Y-103224523D01*
X43815000Y-92355476D02*
X43815000Y-39370000D01*
X43815000Y-138430000D02*
X43228579Y-137303496D01*
X43815000Y-138430000D02*
X44401421Y-137303496D01*
X43815000Y-39370000D02*
X44401421Y-40496504D01*
X43815000Y-39370000D02*
X43228579Y-40496504D01*
X139715237Y-134170057D02*
X139667618Y-134122438D01*
X139667618Y-134122438D02*
X139572380Y-134074819D01*
X139572380Y-134074819D02*
X139334285Y-134074819D01*
X139334285Y-134074819D02*
X139239047Y-134122438D01*
X139239047Y-134122438D02*
X139191428Y-134170057D01*
X139191428Y-134170057D02*
X139143809Y-134265295D01*
X139143809Y-134265295D02*
X139143809Y-134360533D01*
X139143809Y-134360533D02*
X139191428Y-134503390D01*
X139191428Y-134503390D02*
X139762856Y-135074819D01*
X139762856Y-135074819D02*
X139143809Y-135074819D01*
X138524761Y-134074819D02*
X138429523Y-134074819D01*
X138429523Y-134074819D02*
X138334285Y-134122438D01*
X138334285Y-134122438D02*
X138286666Y-134170057D01*
X138286666Y-134170057D02*
X138239047Y-134265295D01*
X138239047Y-134265295D02*
X138191428Y-134455771D01*
X138191428Y-134455771D02*
X138191428Y-134693866D01*
X138191428Y-134693866D02*
X138239047Y-134884342D01*
X138239047Y-134884342D02*
X138286666Y-134979580D01*
X138286666Y-134979580D02*
X138334285Y-135027200D01*
X138334285Y-135027200D02*
X138429523Y-135074819D01*
X138429523Y-135074819D02*
X138524761Y-135074819D01*
X138524761Y-135074819D02*
X138619999Y-135027200D01*
X138619999Y-135027200D02*
X138667618Y-134979580D01*
X138667618Y-134979580D02*
X138715237Y-134884342D01*
X138715237Y-134884342D02*
X138762856Y-134693866D01*
X138762856Y-134693866D02*
X138762856Y-134455771D01*
X138762856Y-134455771D02*
X138715237Y-134265295D01*
X138715237Y-134265295D02*
X138667618Y-134170057D01*
X138667618Y-134170057D02*
X138619999Y-134122438D01*
X138619999Y-134122438D02*
X138524761Y-134074819D01*
X137619999Y-134503390D02*
X137715237Y-134455771D01*
X137715237Y-134455771D02*
X137762856Y-134408152D01*
X137762856Y-134408152D02*
X137810475Y-134312914D01*
X137810475Y-134312914D02*
X137810475Y-134265295D01*
X137810475Y-134265295D02*
X137762856Y-134170057D01*
X137762856Y-134170057D02*
X137715237Y-134122438D01*
X137715237Y-134122438D02*
X137619999Y-134074819D01*
X137619999Y-134074819D02*
X137429523Y-134074819D01*
X137429523Y-134074819D02*
X137334285Y-134122438D01*
X137334285Y-134122438D02*
X137286666Y-134170057D01*
X137286666Y-134170057D02*
X137239047Y-134265295D01*
X137239047Y-134265295D02*
X137239047Y-134312914D01*
X137239047Y-134312914D02*
X137286666Y-134408152D01*
X137286666Y-134408152D02*
X137334285Y-134455771D01*
X137334285Y-134455771D02*
X137429523Y-134503390D01*
X137429523Y-134503390D02*
X137619999Y-134503390D01*
X137619999Y-134503390D02*
X137715237Y-134551009D01*
X137715237Y-134551009D02*
X137762856Y-134598628D01*
X137762856Y-134598628D02*
X137810475Y-134693866D01*
X137810475Y-134693866D02*
X137810475Y-134884342D01*
X137810475Y-134884342D02*
X137762856Y-134979580D01*
X137762856Y-134979580D02*
X137715237Y-135027200D01*
X137715237Y-135027200D02*
X137619999Y-135074819D01*
X137619999Y-135074819D02*
X137429523Y-135074819D01*
X137429523Y-135074819D02*
X137334285Y-135027200D01*
X137334285Y-135027200D02*
X137286666Y-134979580D01*
X137286666Y-134979580D02*
X137239047Y-134884342D01*
X137239047Y-134884342D02*
X137239047Y-134693866D01*
X137239047Y-134693866D02*
X137286666Y-134598628D01*
X137286666Y-134598628D02*
X137334285Y-134551009D01*
X137334285Y-134551009D02*
X137429523Y-134503390D01*
X136762856Y-135027200D02*
X136762856Y-135074819D01*
X136762856Y-135074819D02*
X136810475Y-135170057D01*
X136810475Y-135170057D02*
X136858094Y-135217676D01*
X136381904Y-134170057D02*
X136334285Y-134122438D01*
X136334285Y-134122438D02*
X136239047Y-134074819D01*
X136239047Y-134074819D02*
X136000952Y-134074819D01*
X136000952Y-134074819D02*
X135905714Y-134122438D01*
X135905714Y-134122438D02*
X135858095Y-134170057D01*
X135858095Y-134170057D02*
X135810476Y-134265295D01*
X135810476Y-134265295D02*
X135810476Y-134360533D01*
X135810476Y-134360533D02*
X135858095Y-134503390D01*
X135858095Y-134503390D02*
X136429523Y-135074819D01*
X136429523Y-135074819D02*
X135810476Y-135074819D01*
X135239047Y-134503390D02*
X135334285Y-134455771D01*
X135334285Y-134455771D02*
X135381904Y-134408152D01*
X135381904Y-134408152D02*
X135429523Y-134312914D01*
X135429523Y-134312914D02*
X135429523Y-134265295D01*
X135429523Y-134265295D02*
X135381904Y-134170057D01*
X135381904Y-134170057D02*
X135334285Y-134122438D01*
X135334285Y-134122438D02*
X135239047Y-134074819D01*
X135239047Y-134074819D02*
X135048571Y-134074819D01*
X135048571Y-134074819D02*
X134953333Y-134122438D01*
X134953333Y-134122438D02*
X134905714Y-134170057D01*
X134905714Y-134170057D02*
X134858095Y-134265295D01*
X134858095Y-134265295D02*
X134858095Y-134312914D01*
X134858095Y-134312914D02*
X134905714Y-134408152D01*
X134905714Y-134408152D02*
X134953333Y-134455771D01*
X134953333Y-134455771D02*
X135048571Y-134503390D01*
X135048571Y-134503390D02*
X135239047Y-134503390D01*
X135239047Y-134503390D02*
X135334285Y-134551009D01*
X135334285Y-134551009D02*
X135381904Y-134598628D01*
X135381904Y-134598628D02*
X135429523Y-134693866D01*
X135429523Y-134693866D02*
X135429523Y-134884342D01*
X135429523Y-134884342D02*
X135381904Y-134979580D01*
X135381904Y-134979580D02*
X135334285Y-135027200D01*
X135334285Y-135027200D02*
X135239047Y-135074819D01*
X135239047Y-135074819D02*
X135048571Y-135074819D01*
X135048571Y-135074819D02*
X134953333Y-135027200D01*
X134953333Y-135027200D02*
X134905714Y-134979580D01*
X134905714Y-134979580D02*
X134858095Y-134884342D01*
X134858095Y-134884342D02*
X134858095Y-134693866D01*
X134858095Y-134693866D02*
X134905714Y-134598628D01*
X134905714Y-134598628D02*
X134953333Y-134551009D01*
X134953333Y-134551009D02*
X135048571Y-134503390D01*
X134239047Y-134074819D02*
X134143809Y-134074819D01*
X134143809Y-134074819D02*
X134048571Y-134122438D01*
X134048571Y-134122438D02*
X134000952Y-134170057D01*
X134000952Y-134170057D02*
X133953333Y-134265295D01*
X133953333Y-134265295D02*
X133905714Y-134455771D01*
X133905714Y-134455771D02*
X133905714Y-134693866D01*
X133905714Y-134693866D02*
X133953333Y-134884342D01*
X133953333Y-134884342D02*
X134000952Y-134979580D01*
X134000952Y-134979580D02*
X134048571Y-135027200D01*
X134048571Y-135027200D02*
X134143809Y-135074819D01*
X134143809Y-135074819D02*
X134239047Y-135074819D01*
X134239047Y-135074819D02*
X134334285Y-135027200D01*
X134334285Y-135027200D02*
X134381904Y-134979580D01*
X134381904Y-134979580D02*
X134429523Y-134884342D01*
X134429523Y-134884342D02*
X134477142Y-134693866D01*
X134477142Y-134693866D02*
X134477142Y-134455771D01*
X134477142Y-134455771D02*
X134429523Y-134265295D01*
X134429523Y-134265295D02*
X134381904Y-134170057D01*
X134381904Y-134170057D02*
X134334285Y-134122438D01*
X134334285Y-134122438D02*
X134239047Y-134074819D01*
X133286666Y-134074819D02*
X133191428Y-134074819D01*
X133191428Y-134074819D02*
X133096190Y-134122438D01*
X133096190Y-134122438D02*
X133048571Y-134170057D01*
X133048571Y-134170057D02*
X133000952Y-134265295D01*
X133000952Y-134265295D02*
X132953333Y-134455771D01*
X132953333Y-134455771D02*
X132953333Y-134693866D01*
X132953333Y-134693866D02*
X133000952Y-134884342D01*
X133000952Y-134884342D02*
X133048571Y-134979580D01*
X133048571Y-134979580D02*
X133096190Y-135027200D01*
X133096190Y-135027200D02*
X133191428Y-135074819D01*
X133191428Y-135074819D02*
X133286666Y-135074819D01*
X133286666Y-135074819D02*
X133381904Y-135027200D01*
X133381904Y-135027200D02*
X133429523Y-134979580D01*
X133429523Y-134979580D02*
X133477142Y-134884342D01*
X133477142Y-134884342D02*
X133524761Y-134693866D01*
X133524761Y-134693866D02*
X133524761Y-134455771D01*
X133524761Y-134455771D02*
X133477142Y-134265295D01*
X133477142Y-134265295D02*
X133429523Y-134170057D01*
X133429523Y-134170057D02*
X133381904Y-134122438D01*
X133381904Y-134122438D02*
X133286666Y-134074819D01*
X131762856Y-135074819D02*
X131762856Y-134408152D01*
X131762856Y-134503390D02*
X131715237Y-134455771D01*
X131715237Y-134455771D02*
X131619999Y-134408152D01*
X131619999Y-134408152D02*
X131477142Y-134408152D01*
X131477142Y-134408152D02*
X131381904Y-134455771D01*
X131381904Y-134455771D02*
X131334285Y-134551009D01*
X131334285Y-134551009D02*
X131334285Y-135074819D01*
X131334285Y-134551009D02*
X131286666Y-134455771D01*
X131286666Y-134455771D02*
X131191428Y-134408152D01*
X131191428Y-134408152D02*
X131048571Y-134408152D01*
X131048571Y-134408152D02*
X130953332Y-134455771D01*
X130953332Y-134455771D02*
X130905713Y-134551009D01*
X130905713Y-134551009D02*
X130905713Y-135074819D01*
X130429523Y-135074819D02*
X130429523Y-134408152D01*
X130429523Y-134503390D02*
X130381904Y-134455771D01*
X130381904Y-134455771D02*
X130286666Y-134408152D01*
X130286666Y-134408152D02*
X130143809Y-134408152D01*
X130143809Y-134408152D02*
X130048571Y-134455771D01*
X130048571Y-134455771D02*
X130000952Y-134551009D01*
X130000952Y-134551009D02*
X130000952Y-135074819D01*
X130000952Y-134551009D02*
X129953333Y-134455771D01*
X129953333Y-134455771D02*
X129858095Y-134408152D01*
X129858095Y-134408152D02*
X129715238Y-134408152D01*
X129715238Y-134408152D02*
X129619999Y-134455771D01*
X129619999Y-134455771D02*
X129572380Y-134551009D01*
X129572380Y-134551009D02*
X129572380Y-135074819D01*
X39370000Y-137930000D02*
X39370000Y-134033580D01*
X247650000Y-137930000D02*
X247650000Y-134033580D01*
X39370000Y-134620000D02*
X128709286Y-134620000D01*
X140530714Y-134620000D02*
X247650000Y-134620000D01*
X39370000Y-134620000D02*
X40496504Y-134033579D01*
X39370000Y-134620000D02*
X40496504Y-135206421D01*
X247650000Y-134620000D02*
X246523496Y-135206421D01*
X247650000Y-134620000D02*
X246523496Y-134033579D01*
X83004819Y-41037381D02*
X83004819Y-40465953D01*
X83004819Y-40751667D02*
X82004819Y-40751667D01*
X82004819Y-40751667D02*
X82147676Y-40656429D01*
X82147676Y-40656429D02*
X82242914Y-40561191D01*
X82242914Y-40561191D02*
X82290533Y-40465953D01*
X83004819Y-41989762D02*
X83004819Y-41418334D01*
X83004819Y-41704048D02*
X82004819Y-41704048D01*
X82004819Y-41704048D02*
X82147676Y-41608810D01*
X82147676Y-41608810D02*
X82242914Y-41513572D01*
X82242914Y-41513572D02*
X82290533Y-41418334D01*
X82957200Y-42465953D02*
X83004819Y-42465953D01*
X83004819Y-42465953D02*
X83100057Y-42418334D01*
X83100057Y-42418334D02*
X83147676Y-42370715D01*
X82338152Y-43323095D02*
X83004819Y-43323095D01*
X81957200Y-43085000D02*
X82671485Y-42846905D01*
X82671485Y-42846905D02*
X82671485Y-43465952D01*
X82004819Y-43751667D02*
X82004819Y-44370714D01*
X82004819Y-44370714D02*
X82385771Y-44037381D01*
X82385771Y-44037381D02*
X82385771Y-44180238D01*
X82385771Y-44180238D02*
X82433390Y-44275476D01*
X82433390Y-44275476D02*
X82481009Y-44323095D01*
X82481009Y-44323095D02*
X82576247Y-44370714D01*
X82576247Y-44370714D02*
X82814342Y-44370714D01*
X82814342Y-44370714D02*
X82909580Y-44323095D01*
X82909580Y-44323095D02*
X82957200Y-44275476D01*
X82957200Y-44275476D02*
X83004819Y-44180238D01*
X83004819Y-44180238D02*
X83004819Y-43894524D01*
X83004819Y-43894524D02*
X82957200Y-43799286D01*
X82957200Y-43799286D02*
X82909580Y-43751667D01*
X82004819Y-44989762D02*
X82004819Y-45085000D01*
X82004819Y-45085000D02*
X82052438Y-45180238D01*
X82052438Y-45180238D02*
X82100057Y-45227857D01*
X82100057Y-45227857D02*
X82195295Y-45275476D01*
X82195295Y-45275476D02*
X82385771Y-45323095D01*
X82385771Y-45323095D02*
X82623866Y-45323095D01*
X82623866Y-45323095D02*
X82814342Y-45275476D01*
X82814342Y-45275476D02*
X82909580Y-45227857D01*
X82909580Y-45227857D02*
X82957200Y-45180238D01*
X82957200Y-45180238D02*
X83004819Y-45085000D01*
X83004819Y-45085000D02*
X83004819Y-44989762D01*
X83004819Y-44989762D02*
X82957200Y-44894524D01*
X82957200Y-44894524D02*
X82909580Y-44846905D01*
X82909580Y-44846905D02*
X82814342Y-44799286D01*
X82814342Y-44799286D02*
X82623866Y-44751667D01*
X82623866Y-44751667D02*
X82385771Y-44751667D01*
X82385771Y-44751667D02*
X82195295Y-44799286D01*
X82195295Y-44799286D02*
X82100057Y-44846905D01*
X82100057Y-44846905D02*
X82052438Y-44894524D01*
X82052438Y-44894524D02*
X82004819Y-44989762D01*
X82004819Y-45942143D02*
X82004819Y-46037381D01*
X82004819Y-46037381D02*
X82052438Y-46132619D01*
X82052438Y-46132619D02*
X82100057Y-46180238D01*
X82100057Y-46180238D02*
X82195295Y-46227857D01*
X82195295Y-46227857D02*
X82385771Y-46275476D01*
X82385771Y-46275476D02*
X82623866Y-46275476D01*
X82623866Y-46275476D02*
X82814342Y-46227857D01*
X82814342Y-46227857D02*
X82909580Y-46180238D01*
X82909580Y-46180238D02*
X82957200Y-46132619D01*
X82957200Y-46132619D02*
X83004819Y-46037381D01*
X83004819Y-46037381D02*
X83004819Y-45942143D01*
X83004819Y-45942143D02*
X82957200Y-45846905D01*
X82957200Y-45846905D02*
X82909580Y-45799286D01*
X82909580Y-45799286D02*
X82814342Y-45751667D01*
X82814342Y-45751667D02*
X82623866Y-45704048D01*
X82623866Y-45704048D02*
X82385771Y-45704048D01*
X82385771Y-45704048D02*
X82195295Y-45751667D01*
X82195295Y-45751667D02*
X82100057Y-45799286D01*
X82100057Y-45799286D02*
X82052438Y-45846905D01*
X82052438Y-45846905D02*
X82004819Y-45942143D01*
X83004819Y-47465953D02*
X82338152Y-47465953D01*
X82433390Y-47465953D02*
X82385771Y-47513572D01*
X82385771Y-47513572D02*
X82338152Y-47608810D01*
X82338152Y-47608810D02*
X82338152Y-47751667D01*
X82338152Y-47751667D02*
X82385771Y-47846905D01*
X82385771Y-47846905D02*
X82481009Y-47894524D01*
X82481009Y-47894524D02*
X83004819Y-47894524D01*
X82481009Y-47894524D02*
X82385771Y-47942143D01*
X82385771Y-47942143D02*
X82338152Y-48037381D01*
X82338152Y-48037381D02*
X82338152Y-48180238D01*
X82338152Y-48180238D02*
X82385771Y-48275477D01*
X82385771Y-48275477D02*
X82481009Y-48323096D01*
X82481009Y-48323096D02*
X83004819Y-48323096D01*
X83004819Y-48799286D02*
X82338152Y-48799286D01*
X82433390Y-48799286D02*
X82385771Y-48846905D01*
X82385771Y-48846905D02*
X82338152Y-48942143D01*
X82338152Y-48942143D02*
X82338152Y-49085000D01*
X82338152Y-49085000D02*
X82385771Y-49180238D01*
X82385771Y-49180238D02*
X82481009Y-49227857D01*
X82481009Y-49227857D02*
X83004819Y-49227857D01*
X82481009Y-49227857D02*
X82385771Y-49275476D01*
X82385771Y-49275476D02*
X82338152Y-49370714D01*
X82338152Y-49370714D02*
X82338152Y-49513571D01*
X82338152Y-49513571D02*
X82385771Y-49608810D01*
X82385771Y-49608810D02*
X82481009Y-49656429D01*
X82481009Y-49656429D02*
X83004819Y-49656429D01*
X84590000Y-50800000D02*
X80693580Y-50800000D01*
X80693580Y-39370000D02*
X84590000Y-39370000D01*
X81280000Y-50800000D02*
X81280000Y-39370000D01*
X81280000Y-50800000D02*
X81280000Y-39370000D01*
X81280000Y-50800000D02*
X80693579Y-49673496D01*
X81280000Y-50800000D02*
X81866421Y-49673496D01*
X81280000Y-39370000D02*
X81866421Y-40496504D01*
X81280000Y-39370000D02*
X80693579Y-40496504D01*
X178254819Y-128032381D02*
X178254819Y-127460953D01*
X178254819Y-127746667D02*
X177254819Y-127746667D01*
X177254819Y-127746667D02*
X177397676Y-127651429D01*
X177397676Y-127651429D02*
X177492914Y-127556191D01*
X177492914Y-127556191D02*
X177540533Y-127460953D01*
X177254819Y-128651429D02*
X177254819Y-128746667D01*
X177254819Y-128746667D02*
X177302438Y-128841905D01*
X177302438Y-128841905D02*
X177350057Y-128889524D01*
X177350057Y-128889524D02*
X177445295Y-128937143D01*
X177445295Y-128937143D02*
X177635771Y-128984762D01*
X177635771Y-128984762D02*
X177873866Y-128984762D01*
X177873866Y-128984762D02*
X178064342Y-128937143D01*
X178064342Y-128937143D02*
X178159580Y-128889524D01*
X178159580Y-128889524D02*
X178207200Y-128841905D01*
X178207200Y-128841905D02*
X178254819Y-128746667D01*
X178254819Y-128746667D02*
X178254819Y-128651429D01*
X178254819Y-128651429D02*
X178207200Y-128556191D01*
X178207200Y-128556191D02*
X178159580Y-128508572D01*
X178159580Y-128508572D02*
X178064342Y-128460953D01*
X178064342Y-128460953D02*
X177873866Y-128413334D01*
X177873866Y-128413334D02*
X177635771Y-128413334D01*
X177635771Y-128413334D02*
X177445295Y-128460953D01*
X177445295Y-128460953D02*
X177350057Y-128508572D01*
X177350057Y-128508572D02*
X177302438Y-128556191D01*
X177302438Y-128556191D02*
X177254819Y-128651429D01*
X178207200Y-129460953D02*
X178254819Y-129460953D01*
X178254819Y-129460953D02*
X178350057Y-129413334D01*
X178350057Y-129413334D02*
X178397676Y-129365715D01*
X178254819Y-130413333D02*
X178254819Y-129841905D01*
X178254819Y-130127619D02*
X177254819Y-130127619D01*
X177254819Y-130127619D02*
X177397676Y-130032381D01*
X177397676Y-130032381D02*
X177492914Y-129937143D01*
X177492914Y-129937143D02*
X177540533Y-129841905D01*
X177254819Y-131270476D02*
X177254819Y-131080000D01*
X177254819Y-131080000D02*
X177302438Y-130984762D01*
X177302438Y-130984762D02*
X177350057Y-130937143D01*
X177350057Y-130937143D02*
X177492914Y-130841905D01*
X177492914Y-130841905D02*
X177683390Y-130794286D01*
X177683390Y-130794286D02*
X178064342Y-130794286D01*
X178064342Y-130794286D02*
X178159580Y-130841905D01*
X178159580Y-130841905D02*
X178207200Y-130889524D01*
X178207200Y-130889524D02*
X178254819Y-130984762D01*
X178254819Y-130984762D02*
X178254819Y-131175238D01*
X178254819Y-131175238D02*
X178207200Y-131270476D01*
X178207200Y-131270476D02*
X178159580Y-131318095D01*
X178159580Y-131318095D02*
X178064342Y-131365714D01*
X178064342Y-131365714D02*
X177826247Y-131365714D01*
X177826247Y-131365714D02*
X177731009Y-131318095D01*
X177731009Y-131318095D02*
X177683390Y-131270476D01*
X177683390Y-131270476D02*
X177635771Y-131175238D01*
X177635771Y-131175238D02*
X177635771Y-130984762D01*
X177635771Y-130984762D02*
X177683390Y-130889524D01*
X177683390Y-130889524D02*
X177731009Y-130841905D01*
X177731009Y-130841905D02*
X177826247Y-130794286D01*
X177254819Y-131984762D02*
X177254819Y-132080000D01*
X177254819Y-132080000D02*
X177302438Y-132175238D01*
X177302438Y-132175238D02*
X177350057Y-132222857D01*
X177350057Y-132222857D02*
X177445295Y-132270476D01*
X177445295Y-132270476D02*
X177635771Y-132318095D01*
X177635771Y-132318095D02*
X177873866Y-132318095D01*
X177873866Y-132318095D02*
X178064342Y-132270476D01*
X178064342Y-132270476D02*
X178159580Y-132222857D01*
X178159580Y-132222857D02*
X178207200Y-132175238D01*
X178207200Y-132175238D02*
X178254819Y-132080000D01*
X178254819Y-132080000D02*
X178254819Y-131984762D01*
X178254819Y-131984762D02*
X178207200Y-131889524D01*
X178207200Y-131889524D02*
X178159580Y-131841905D01*
X178159580Y-131841905D02*
X178064342Y-131794286D01*
X178064342Y-131794286D02*
X177873866Y-131746667D01*
X177873866Y-131746667D02*
X177635771Y-131746667D01*
X177635771Y-131746667D02*
X177445295Y-131794286D01*
X177445295Y-131794286D02*
X177350057Y-131841905D01*
X177350057Y-131841905D02*
X177302438Y-131889524D01*
X177302438Y-131889524D02*
X177254819Y-131984762D01*
X177254819Y-132937143D02*
X177254819Y-133032381D01*
X177254819Y-133032381D02*
X177302438Y-133127619D01*
X177302438Y-133127619D02*
X177350057Y-133175238D01*
X177350057Y-133175238D02*
X177445295Y-133222857D01*
X177445295Y-133222857D02*
X177635771Y-133270476D01*
X177635771Y-133270476D02*
X177873866Y-133270476D01*
X177873866Y-133270476D02*
X178064342Y-133222857D01*
X178064342Y-133222857D02*
X178159580Y-133175238D01*
X178159580Y-133175238D02*
X178207200Y-133127619D01*
X178207200Y-133127619D02*
X178254819Y-133032381D01*
X178254819Y-133032381D02*
X178254819Y-132937143D01*
X178254819Y-132937143D02*
X178207200Y-132841905D01*
X178207200Y-132841905D02*
X178159580Y-132794286D01*
X178159580Y-132794286D02*
X178064342Y-132746667D01*
X178064342Y-132746667D02*
X177873866Y-132699048D01*
X177873866Y-132699048D02*
X177635771Y-132699048D01*
X177635771Y-132699048D02*
X177445295Y-132746667D01*
X177445295Y-132746667D02*
X177350057Y-132794286D01*
X177350057Y-132794286D02*
X177302438Y-132841905D01*
X177302438Y-132841905D02*
X177254819Y-132937143D01*
X178254819Y-134460953D02*
X177588152Y-134460953D01*
X177683390Y-134460953D02*
X177635771Y-134508572D01*
X177635771Y-134508572D02*
X177588152Y-134603810D01*
X177588152Y-134603810D02*
X177588152Y-134746667D01*
X177588152Y-134746667D02*
X177635771Y-134841905D01*
X177635771Y-134841905D02*
X177731009Y-134889524D01*
X177731009Y-134889524D02*
X178254819Y-134889524D01*
X177731009Y-134889524D02*
X177635771Y-134937143D01*
X177635771Y-134937143D02*
X177588152Y-135032381D01*
X177588152Y-135032381D02*
X177588152Y-135175238D01*
X177588152Y-135175238D02*
X177635771Y-135270477D01*
X177635771Y-135270477D02*
X177731009Y-135318096D01*
X177731009Y-135318096D02*
X178254819Y-135318096D01*
X178254819Y-135794286D02*
X177588152Y-135794286D01*
X177683390Y-135794286D02*
X177635771Y-135841905D01*
X177635771Y-135841905D02*
X177588152Y-135937143D01*
X177588152Y-135937143D02*
X177588152Y-136080000D01*
X177588152Y-136080000D02*
X177635771Y-136175238D01*
X177635771Y-136175238D02*
X177731009Y-136222857D01*
X177731009Y-136222857D02*
X178254819Y-136222857D01*
X177731009Y-136222857D02*
X177635771Y-136270476D01*
X177635771Y-136270476D02*
X177588152Y-136365714D01*
X177588152Y-136365714D02*
X177588152Y-136508571D01*
X177588152Y-136508571D02*
X177635771Y-136603810D01*
X177635771Y-136603810D02*
X177731009Y-136651429D01*
X177731009Y-136651429D02*
X178254819Y-136651429D01*
X181110000Y-128270000D02*
X178483580Y-128270000D01*
X178483580Y-138430000D02*
X182380000Y-138430000D01*
X179070000Y-128270000D02*
X179070000Y-138430000D01*
X179070000Y-128270000D02*
X179070000Y-138430000D01*
X179070000Y-128270000D02*
X179656421Y-129396504D01*
X179070000Y-128270000D02*
X178483579Y-129396504D01*
X179070000Y-138430000D02*
X178483579Y-137303496D01*
X179070000Y-138430000D02*
X179656421Y-137303496D01*
X177419524Y-120224819D02*
X178038571Y-120224819D01*
X178038571Y-120224819D02*
X177705238Y-120605771D01*
X177705238Y-120605771D02*
X177848095Y-120605771D01*
X177848095Y-120605771D02*
X177943333Y-120653390D01*
X177943333Y-120653390D02*
X177990952Y-120701009D01*
X177990952Y-120701009D02*
X178038571Y-120796247D01*
X178038571Y-120796247D02*
X178038571Y-121034342D01*
X178038571Y-121034342D02*
X177990952Y-121129580D01*
X177990952Y-121129580D02*
X177943333Y-121177200D01*
X177943333Y-121177200D02*
X177848095Y-121224819D01*
X177848095Y-121224819D02*
X177562381Y-121224819D01*
X177562381Y-121224819D02*
X177467143Y-121177200D01*
X177467143Y-121177200D02*
X177419524Y-121129580D01*
X178514762Y-121177200D02*
X178514762Y-121224819D01*
X178514762Y-121224819D02*
X178467143Y-121320057D01*
X178467143Y-121320057D02*
X178419524Y-121367676D01*
X179419523Y-120224819D02*
X178943333Y-120224819D01*
X178943333Y-120224819D02*
X178895714Y-120701009D01*
X178895714Y-120701009D02*
X178943333Y-120653390D01*
X178943333Y-120653390D02*
X179038571Y-120605771D01*
X179038571Y-120605771D02*
X179276666Y-120605771D01*
X179276666Y-120605771D02*
X179371904Y-120653390D01*
X179371904Y-120653390D02*
X179419523Y-120701009D01*
X179419523Y-120701009D02*
X179467142Y-120796247D01*
X179467142Y-120796247D02*
X179467142Y-121034342D01*
X179467142Y-121034342D02*
X179419523Y-121129580D01*
X179419523Y-121129580D02*
X179371904Y-121177200D01*
X179371904Y-121177200D02*
X179276666Y-121224819D01*
X179276666Y-121224819D02*
X179038571Y-121224819D01*
X179038571Y-121224819D02*
X178943333Y-121177200D01*
X178943333Y-121177200D02*
X178895714Y-121129580D01*
X179943333Y-121224819D02*
X180133809Y-121224819D01*
X180133809Y-121224819D02*
X180229047Y-121177200D01*
X180229047Y-121177200D02*
X180276666Y-121129580D01*
X180276666Y-121129580D02*
X180371904Y-120986723D01*
X180371904Y-120986723D02*
X180419523Y-120796247D01*
X180419523Y-120796247D02*
X180419523Y-120415295D01*
X180419523Y-120415295D02*
X180371904Y-120320057D01*
X180371904Y-120320057D02*
X180324285Y-120272438D01*
X180324285Y-120272438D02*
X180229047Y-120224819D01*
X180229047Y-120224819D02*
X180038571Y-120224819D01*
X180038571Y-120224819D02*
X179943333Y-120272438D01*
X179943333Y-120272438D02*
X179895714Y-120320057D01*
X179895714Y-120320057D02*
X179848095Y-120415295D01*
X179848095Y-120415295D02*
X179848095Y-120653390D01*
X179848095Y-120653390D02*
X179895714Y-120748628D01*
X179895714Y-120748628D02*
X179943333Y-120796247D01*
X179943333Y-120796247D02*
X180038571Y-120843866D01*
X180038571Y-120843866D02*
X180229047Y-120843866D01*
X180229047Y-120843866D02*
X180324285Y-120796247D01*
X180324285Y-120796247D02*
X180371904Y-120748628D01*
X180371904Y-120748628D02*
X180419523Y-120653390D01*
X180800476Y-120320057D02*
X180848095Y-120272438D01*
X180848095Y-120272438D02*
X180943333Y-120224819D01*
X180943333Y-120224819D02*
X181181428Y-120224819D01*
X181181428Y-120224819D02*
X181276666Y-120272438D01*
X181276666Y-120272438D02*
X181324285Y-120320057D01*
X181324285Y-120320057D02*
X181371904Y-120415295D01*
X181371904Y-120415295D02*
X181371904Y-120510533D01*
X181371904Y-120510533D02*
X181324285Y-120653390D01*
X181324285Y-120653390D02*
X180752857Y-121224819D01*
X180752857Y-121224819D02*
X181371904Y-121224819D01*
X182324285Y-121224819D02*
X181752857Y-121224819D01*
X182038571Y-121224819D02*
X182038571Y-120224819D01*
X182038571Y-120224819D02*
X181943333Y-120367676D01*
X181943333Y-120367676D02*
X181848095Y-120462914D01*
X181848095Y-120462914D02*
X181752857Y-120510533D01*
X183514762Y-121224819D02*
X183514762Y-120558152D01*
X183514762Y-120653390D02*
X183562381Y-120605771D01*
X183562381Y-120605771D02*
X183657619Y-120558152D01*
X183657619Y-120558152D02*
X183800476Y-120558152D01*
X183800476Y-120558152D02*
X183895714Y-120605771D01*
X183895714Y-120605771D02*
X183943333Y-120701009D01*
X183943333Y-120701009D02*
X183943333Y-121224819D01*
X183943333Y-120701009D02*
X183990952Y-120605771D01*
X183990952Y-120605771D02*
X184086190Y-120558152D01*
X184086190Y-120558152D02*
X184229047Y-120558152D01*
X184229047Y-120558152D02*
X184324286Y-120605771D01*
X184324286Y-120605771D02*
X184371905Y-120701009D01*
X184371905Y-120701009D02*
X184371905Y-121224819D01*
X184848095Y-121224819D02*
X184848095Y-120558152D01*
X184848095Y-120653390D02*
X184895714Y-120605771D01*
X184895714Y-120605771D02*
X184990952Y-120558152D01*
X184990952Y-120558152D02*
X185133809Y-120558152D01*
X185133809Y-120558152D02*
X185229047Y-120605771D01*
X185229047Y-120605771D02*
X185276666Y-120701009D01*
X185276666Y-120701009D02*
X185276666Y-121224819D01*
X185276666Y-120701009D02*
X185324285Y-120605771D01*
X185324285Y-120605771D02*
X185419523Y-120558152D01*
X185419523Y-120558152D02*
X185562380Y-120558152D01*
X185562380Y-120558152D02*
X185657619Y-120605771D01*
X185657619Y-120605771D02*
X185705238Y-120701009D01*
X185705238Y-120701009D02*
X185705238Y-121224819D01*
X183406051Y-127770000D02*
X183406051Y-121333580D01*
X179813949Y-121333580D02*
X179813949Y-127770000D01*
X183406051Y-121920000D02*
X179813949Y-121920000D01*
X183406051Y-121920000D02*
X179813949Y-121920000D01*
X183406051Y-121920000D02*
X182279547Y-122506421D01*
X183406051Y-121920000D02*
X182279547Y-121333579D01*
X179813949Y-121920000D02*
X180940453Y-121333579D01*
X179813949Y-121920000D02*
X180940453Y-122506421D01*
X236220000Y-71120000D02*
X236220000Y-73660000D01*
X228600000Y-71120000D02*
X236220000Y-71120000D01*
X241300000Y-73660000D02*
X241300000Y-104140000D01*
X236220000Y-73660000D02*
X241300000Y-73660000D01*
X228600000Y-73660000D02*
X228600000Y-71120000D01*
X223520000Y-73660000D02*
X228600000Y-73660000D01*
X241300000Y-104140000D02*
X223520000Y-104140000D01*
X223520000Y-104140000D02*
X223520000Y-73660000D01*
%LPC*%
D11*
X210820000Y-127000000D03*
D12*
X215900000Y-127000000D03*
D11*
X220980000Y-127000000D03*
D13*
X218440000Y-121920000D03*
X212090000Y-124460000D03*
D11*
X190500000Y-127000000D03*
D12*
X195580000Y-127000000D03*
D11*
X200660000Y-127000000D03*
D13*
X198120000Y-121920000D03*
X191770000Y-124460000D03*
D11*
X162560000Y-127000000D03*
D12*
X167640000Y-127000000D03*
D11*
X172720000Y-127000000D03*
D13*
X170180000Y-121920000D03*
X163830000Y-124460000D03*
D11*
X142240000Y-127000000D03*
D12*
X147320000Y-127000000D03*
D11*
X152400000Y-127000000D03*
D13*
X149860000Y-121920000D03*
X143510000Y-124460000D03*
D11*
X114300000Y-127000000D03*
D12*
X119380000Y-127000000D03*
D11*
X124460000Y-127000000D03*
D13*
X121920000Y-121920000D03*
X115570000Y-124460000D03*
D11*
X93980000Y-127000000D03*
D12*
X99060000Y-127000000D03*
D11*
X104140000Y-127000000D03*
D13*
X101600000Y-121920000D03*
X95250000Y-124460000D03*
D11*
X66040000Y-127000000D03*
D12*
X71120000Y-127000000D03*
D11*
X76200000Y-127000000D03*
D13*
X73660000Y-121920000D03*
X67310000Y-124460000D03*
D11*
X45720000Y-127000000D03*
D12*
X50800000Y-127000000D03*
D11*
X55880000Y-127000000D03*
D13*
X53340000Y-121920000D03*
X46990000Y-124460000D03*
D11*
X210820000Y-50800000D03*
D12*
X215900000Y-50800000D03*
D11*
X220980000Y-50800000D03*
D13*
X218440000Y-45720000D03*
X212090000Y-48260000D03*
D11*
X190500000Y-50800000D03*
D12*
X195580000Y-50800000D03*
D11*
X200660000Y-50800000D03*
D13*
X198120000Y-45720000D03*
X191770000Y-48260000D03*
D11*
X162560000Y-50800000D03*
D12*
X167640000Y-50800000D03*
D11*
X172720000Y-50800000D03*
D13*
X170180000Y-45720000D03*
X163830000Y-48260000D03*
D11*
X142240000Y-50800000D03*
D12*
X147320000Y-50800000D03*
D11*
X152400000Y-50800000D03*
D13*
X149860000Y-45720000D03*
X143510000Y-48260000D03*
D11*
X114300000Y-50800000D03*
D12*
X119380000Y-50800000D03*
D11*
X124460000Y-50800000D03*
D13*
X121920000Y-45720000D03*
X115570000Y-48260000D03*
D11*
X93980000Y-50800000D03*
D12*
X99060000Y-50800000D03*
D11*
X104140000Y-50800000D03*
D13*
X101600000Y-45720000D03*
X95250000Y-48260000D03*
D11*
X66040000Y-50800000D03*
D12*
X71120000Y-50800000D03*
D11*
X76200000Y-50800000D03*
D13*
X73660000Y-45720000D03*
X67310000Y-48260000D03*
D11*
X45720000Y-50800000D03*
D12*
X50800000Y-50800000D03*
D11*
X55880000Y-50800000D03*
D13*
X53340000Y-45720000D03*
X46990000Y-48260000D03*
D14*
X173990000Y-114935000D03*
D15*
X161290000Y-114935000D03*
D14*
X200660000Y-114300000D03*
D15*
X187960000Y-114300000D03*
D16*
X45720000Y-71120000D03*
X48260000Y-71120000D03*
X50800000Y-71120000D03*
D14*
X142320000Y-100330000D03*
X147320000Y-100330000D03*
X208280000Y-60325000D03*
D15*
X220980000Y-60325000D03*
D14*
X105410000Y-114935000D03*
D15*
X92710000Y-114935000D03*
D14*
X111760000Y-60325000D03*
D15*
X124460000Y-60325000D03*
D14*
X43180000Y-60325000D03*
D15*
X55880000Y-60325000D03*
D14*
X222250000Y-114300000D03*
D15*
X209550000Y-114300000D03*
D17*
X236935000Y-120015000D03*
D18*
X241935000Y-120015000D03*
D14*
X91440000Y-60325000D03*
D15*
X104140000Y-60325000D03*
D17*
X106720000Y-96150000D03*
D18*
X111720000Y-96150000D03*
X109220000Y-96150000D03*
D19*
X103620000Y-88650000D03*
X114820000Y-88650000D03*
D18*
X106720000Y-81650000D03*
X111720000Y-81650000D03*
D17*
X154980000Y-96150000D03*
D18*
X159980000Y-96150000D03*
X157480000Y-96150000D03*
D19*
X151880000Y-88650000D03*
X163080000Y-88650000D03*
D18*
X154980000Y-81650000D03*
X159980000Y-81650000D03*
D16*
X45720000Y-109220000D03*
X48260000Y-109220000D03*
X50800000Y-109220000D03*
D17*
X232490000Y-131445000D03*
D18*
X237490000Y-131445000D03*
D17*
X58460000Y-96150000D03*
D18*
X63460000Y-96150000D03*
X60960000Y-96150000D03*
D19*
X55360000Y-88650000D03*
X66560000Y-88650000D03*
D18*
X58460000Y-81650000D03*
X63460000Y-81650000D03*
D14*
X57150000Y-114935000D03*
D15*
X44450000Y-114935000D03*
D16*
X230505000Y-45720000D03*
X230505000Y-48260000D03*
X230505000Y-50800000D03*
D14*
X187960000Y-60325000D03*
D15*
X200660000Y-60325000D03*
D14*
X139700000Y-60325000D03*
D15*
X152400000Y-60325000D03*
D14*
X154305000Y-114935000D03*
D15*
X141605000Y-114935000D03*
D14*
X77470000Y-114935000D03*
D15*
X64770000Y-114935000D03*
D20*
X129540000Y-65405000D03*
D15*
X129540000Y-67945000D03*
X129540000Y-70485000D03*
X129540000Y-73025000D03*
X129540000Y-75565000D03*
X129540000Y-78105000D03*
X129540000Y-80645000D03*
X129540000Y-83185000D03*
X137160000Y-83185000D03*
X137160000Y-80645000D03*
X137160000Y-78105000D03*
X137160000Y-75565000D03*
X137160000Y-73025000D03*
X137160000Y-70485000D03*
X137160000Y-67945000D03*
X137160000Y-65405000D03*
D14*
X63500000Y-60325000D03*
D15*
X76200000Y-60325000D03*
D14*
X160020000Y-60325000D03*
D15*
X172720000Y-60325000D03*
D14*
X121920000Y-114935000D03*
D15*
X109220000Y-114935000D03*
D20*
X129540000Y-95885000D03*
D15*
X129540000Y-98425000D03*
X129540000Y-100965000D03*
X129540000Y-103505000D03*
X129540000Y-106045000D03*
X129540000Y-108585000D03*
X129540000Y-111125000D03*
X129540000Y-113665000D03*
X137160000Y-113665000D03*
X137160000Y-111125000D03*
X137160000Y-108585000D03*
X137160000Y-106045000D03*
X137160000Y-103505000D03*
X137160000Y-100965000D03*
X137160000Y-98425000D03*
X137160000Y-95885000D03*
D20*
X224790000Y-74930000D03*
D14*
X224790000Y-77470000D03*
X224790000Y-80010000D03*
X224790000Y-82550000D03*
X224790000Y-85090000D03*
X224790000Y-87630000D03*
X224790000Y-90170000D03*
X224790000Y-92710000D03*
X224790000Y-95250000D03*
X224790000Y-97790000D03*
X224790000Y-100330000D03*
X224790000Y-102870000D03*
X240030000Y-102870000D03*
X240030000Y-100330000D03*
X240030000Y-97790000D03*
X240030000Y-95250000D03*
X240030000Y-92710000D03*
X240030000Y-90170000D03*
X240030000Y-87630000D03*
X240030000Y-85090000D03*
X240030000Y-82550000D03*
X240030000Y-80010000D03*
X240030000Y-77470000D03*
X240030000Y-74930000D03*
X142240000Y-69215000D03*
X147240000Y-69215000D03*
D17*
X203240000Y-96150000D03*
D18*
X208240000Y-96150000D03*
X205740000Y-96150000D03*
D19*
X200140000Y-88650000D03*
X211340000Y-88650000D03*
D18*
X203240000Y-81650000D03*
X208240000Y-81650000D03*
D14*
X142320000Y-95885000D03*
X147320000Y-95885000D03*
X142240000Y-65405000D03*
X147240000Y-65405000D03*
%LPD*%
M02*
