%TF.GenerationSoftware,KiCad,Pcbnew,7.0.6*%
%TF.CreationDate,2023-08-29T18:11:48+02:00*%
%TF.ProjectId,photo console,70686f74-6f20-4636-9f6e-736f6c652e6b,rev?*%
%TF.SameCoordinates,Original*%
%TF.FileFunction,Drillmap*%
%TF.FilePolarity,Positive*%
%FSLAX45Y45*%
G04 Gerber Fmt 4.5, Leading zero omitted, Abs format (unit mm)*
G04 Created by KiCad (PCBNEW 7.0.6) date 2023-08-29 18:11:48*
%MOMM*%
%LPD*%
G01*
G04 APERTURE LIST*
%ADD10C,0.100000*%
%ADD11C,0.200000*%
%ADD12C,0.170000*%
G04 APERTURE END LIST*
D10*
X24563605Y-12827000D02*
G75*
G03*
X24563605Y-12827000I-179605J0D01*
G01*
X8688605Y-12827000D02*
G75*
G03*
X8688605Y-12827000I-179605J0D01*
G01*
X18340605Y-12827000D02*
G75*
G03*
X18340605Y-12827000I-179605J0D01*
G01*
X4624605Y-8837395D02*
G75*
G03*
X4624605Y-8837395I-179605J0D01*
G01*
X18340605Y-5080000D02*
G75*
G03*
X18340605Y-5080000I-179605J0D01*
G01*
X8688605Y-5080000D02*
G75*
G03*
X8688605Y-5080000I-179605J0D01*
G01*
X3937000Y-3937000D02*
X24765000Y-3937000D01*
X24765000Y-13843000D01*
X3937000Y-13843000D01*
X3937000Y-3937000D01*
X24384000Y-4445000D02*
G75*
G03*
X24384000Y-4445000I-179605J0D01*
G01*
D11*
D12*
X4487000Y-4995000D02*
X4657000Y-5165000D01*
X4657000Y-4995000D02*
X4487000Y-5165000D01*
X4487000Y-12615000D02*
X4657000Y-12785000D01*
X4657000Y-12615000D02*
X4487000Y-12785000D01*
X5503000Y-4995000D02*
X5673000Y-5165000D01*
X5673000Y-4995000D02*
X5503000Y-5165000D01*
X5503000Y-12615000D02*
X5673000Y-12785000D01*
X5673000Y-12615000D02*
X5503000Y-12785000D01*
X6519000Y-4995000D02*
X6689000Y-5165000D01*
X6689000Y-4995000D02*
X6519000Y-5165000D01*
X6519000Y-12615000D02*
X6689000Y-12785000D01*
X6689000Y-12615000D02*
X6519000Y-12785000D01*
X7535000Y-4995000D02*
X7705000Y-5165000D01*
X7705000Y-4995000D02*
X7535000Y-5165000D01*
X7535000Y-12615000D02*
X7705000Y-12785000D01*
X7705000Y-12615000D02*
X7535000Y-12785000D01*
X9313000Y-4995000D02*
X9483000Y-5165000D01*
X9483000Y-4995000D02*
X9313000Y-5165000D01*
X9313000Y-12615000D02*
X9483000Y-12785000D01*
X9483000Y-12615000D02*
X9313000Y-12785000D01*
X10329000Y-4995000D02*
X10499000Y-5165000D01*
X10499000Y-4995000D02*
X10329000Y-5165000D01*
X10329000Y-12615000D02*
X10499000Y-12785000D01*
X10499000Y-12615000D02*
X10329000Y-12785000D01*
X11345000Y-4995000D02*
X11515000Y-5165000D01*
X11515000Y-4995000D02*
X11345000Y-5165000D01*
X11345000Y-12615000D02*
X11515000Y-12785000D01*
X11515000Y-12615000D02*
X11345000Y-12785000D01*
X12361000Y-4995000D02*
X12531000Y-5165000D01*
X12531000Y-4995000D02*
X12361000Y-5165000D01*
X12361000Y-12615000D02*
X12531000Y-12785000D01*
X12531000Y-12615000D02*
X12361000Y-12785000D01*
X14139000Y-4995000D02*
X14309000Y-5165000D01*
X14309000Y-4995000D02*
X14139000Y-5165000D01*
X14139000Y-12615000D02*
X14309000Y-12785000D01*
X14309000Y-12615000D02*
X14139000Y-12785000D01*
X15155000Y-4995000D02*
X15325000Y-5165000D01*
X15325000Y-4995000D02*
X15155000Y-5165000D01*
X15155000Y-12615000D02*
X15325000Y-12785000D01*
X15325000Y-12615000D02*
X15155000Y-12785000D01*
X16171000Y-4995000D02*
X16341000Y-5165000D01*
X16341000Y-4995000D02*
X16171000Y-5165000D01*
X16171000Y-12615000D02*
X16341000Y-12785000D01*
X16341000Y-12615000D02*
X16171000Y-12785000D01*
X17187000Y-4995000D02*
X17357000Y-5165000D01*
X17357000Y-4995000D02*
X17187000Y-5165000D01*
X17187000Y-12615000D02*
X17357000Y-12785000D01*
X17357000Y-12615000D02*
X17187000Y-12785000D01*
X18965000Y-4995000D02*
X19135000Y-5165000D01*
X19135000Y-4995000D02*
X18965000Y-5165000D01*
X18965000Y-12615000D02*
X19135000Y-12785000D01*
X19135000Y-12615000D02*
X18965000Y-12785000D01*
X19981000Y-4995000D02*
X20151000Y-5165000D01*
X20151000Y-4995000D02*
X19981000Y-5165000D01*
X19981000Y-12615000D02*
X20151000Y-12785000D01*
X20151000Y-12615000D02*
X19981000Y-12785000D01*
X20997000Y-4995000D02*
X21167000Y-5165000D01*
X21167000Y-4995000D02*
X20997000Y-5165000D01*
X20997000Y-12615000D02*
X21167000Y-12785000D01*
X21167000Y-12615000D02*
X20997000Y-12785000D01*
X22013000Y-4995000D02*
X22183000Y-5165000D01*
X22183000Y-4995000D02*
X22013000Y-5165000D01*
X22013000Y-12615000D02*
X22183000Y-12785000D01*
X22183000Y-12615000D02*
X22013000Y-12785000D01*
D11*
X4192777Y-14159484D02*
X4192777Y-13959484D01*
X4192777Y-13959484D02*
X4240396Y-13959484D01*
X4240396Y-13959484D02*
X4268967Y-13969008D01*
X4268967Y-13969008D02*
X4288015Y-13988055D01*
X4288015Y-13988055D02*
X4297539Y-14007103D01*
X4297539Y-14007103D02*
X4307063Y-14045198D01*
X4307063Y-14045198D02*
X4307063Y-14073769D01*
X4307063Y-14073769D02*
X4297539Y-14111865D01*
X4297539Y-14111865D02*
X4288015Y-14130912D01*
X4288015Y-14130912D02*
X4268967Y-14149960D01*
X4268967Y-14149960D02*
X4240396Y-14159484D01*
X4240396Y-14159484D02*
X4192777Y-14159484D01*
X4392777Y-14159484D02*
X4392777Y-14026150D01*
X4392777Y-14064246D02*
X4402301Y-14045198D01*
X4402301Y-14045198D02*
X4411824Y-14035674D01*
X4411824Y-14035674D02*
X4430872Y-14026150D01*
X4430872Y-14026150D02*
X4449920Y-14026150D01*
X4516586Y-14159484D02*
X4516586Y-14026150D01*
X4516586Y-13959484D02*
X4507063Y-13969008D01*
X4507063Y-13969008D02*
X4516586Y-13978531D01*
X4516586Y-13978531D02*
X4526110Y-13969008D01*
X4526110Y-13969008D02*
X4516586Y-13959484D01*
X4516586Y-13959484D02*
X4516586Y-13978531D01*
X4640396Y-14159484D02*
X4621348Y-14149960D01*
X4621348Y-14149960D02*
X4611824Y-14130912D01*
X4611824Y-14130912D02*
X4611824Y-13959484D01*
X4745158Y-14159484D02*
X4726110Y-14149960D01*
X4726110Y-14149960D02*
X4716586Y-14130912D01*
X4716586Y-14130912D02*
X4716586Y-13959484D01*
X4973729Y-14159484D02*
X4973729Y-13959484D01*
X4973729Y-13959484D02*
X5040396Y-14102341D01*
X5040396Y-14102341D02*
X5107063Y-13959484D01*
X5107063Y-13959484D02*
X5107063Y-14159484D01*
X5288015Y-14159484D02*
X5288015Y-14054722D01*
X5288015Y-14054722D02*
X5278491Y-14035674D01*
X5278491Y-14035674D02*
X5259444Y-14026150D01*
X5259444Y-14026150D02*
X5221348Y-14026150D01*
X5221348Y-14026150D02*
X5202301Y-14035674D01*
X5288015Y-14149960D02*
X5268967Y-14159484D01*
X5268967Y-14159484D02*
X5221348Y-14159484D01*
X5221348Y-14159484D02*
X5202301Y-14149960D01*
X5202301Y-14149960D02*
X5192777Y-14130912D01*
X5192777Y-14130912D02*
X5192777Y-14111865D01*
X5192777Y-14111865D02*
X5202301Y-14092817D01*
X5202301Y-14092817D02*
X5221348Y-14083293D01*
X5221348Y-14083293D02*
X5268967Y-14083293D01*
X5268967Y-14083293D02*
X5288015Y-14073769D01*
X5383253Y-14026150D02*
X5383253Y-14226150D01*
X5383253Y-14035674D02*
X5402301Y-14026150D01*
X5402301Y-14026150D02*
X5440396Y-14026150D01*
X5440396Y-14026150D02*
X5459444Y-14035674D01*
X5459444Y-14035674D02*
X5468967Y-14045198D01*
X5468967Y-14045198D02*
X5478491Y-14064246D01*
X5478491Y-14064246D02*
X5478491Y-14121388D01*
X5478491Y-14121388D02*
X5468967Y-14140436D01*
X5468967Y-14140436D02*
X5459444Y-14149960D01*
X5459444Y-14149960D02*
X5440396Y-14159484D01*
X5440396Y-14159484D02*
X5402301Y-14159484D01*
X5402301Y-14159484D02*
X5383253Y-14149960D01*
X5564205Y-14140436D02*
X5573729Y-14149960D01*
X5573729Y-14149960D02*
X5564205Y-14159484D01*
X5564205Y-14159484D02*
X5554682Y-14149960D01*
X5554682Y-14149960D02*
X5564205Y-14140436D01*
X5564205Y-14140436D02*
X5564205Y-14159484D01*
X5564205Y-14035674D02*
X5573729Y-14045198D01*
X5573729Y-14045198D02*
X5564205Y-14054722D01*
X5564205Y-14054722D02*
X5554682Y-14045198D01*
X5554682Y-14045198D02*
X5564205Y-14035674D01*
X5564205Y-14035674D02*
X5564205Y-14054722D01*
D12*
X3762000Y-14403000D02*
X3932000Y-14573000D01*
X3932000Y-14403000D02*
X3762000Y-14573000D01*
D11*
X4297539Y-14579484D02*
X4183253Y-14579484D01*
X4240396Y-14579484D02*
X4240396Y-14379484D01*
X4240396Y-14379484D02*
X4221348Y-14408055D01*
X4221348Y-14408055D02*
X4202301Y-14427103D01*
X4202301Y-14427103D02*
X4183253Y-14436627D01*
X4383253Y-14560436D02*
X4392777Y-14569960D01*
X4392777Y-14569960D02*
X4383253Y-14579484D01*
X4383253Y-14579484D02*
X4373729Y-14569960D01*
X4373729Y-14569960D02*
X4383253Y-14560436D01*
X4383253Y-14560436D02*
X4383253Y-14579484D01*
X4459444Y-14379484D02*
X4592777Y-14379484D01*
X4592777Y-14379484D02*
X4507063Y-14579484D01*
X4707063Y-14379484D02*
X4726110Y-14379484D01*
X4726110Y-14379484D02*
X4745158Y-14389008D01*
X4745158Y-14389008D02*
X4754682Y-14398531D01*
X4754682Y-14398531D02*
X4764205Y-14417579D01*
X4764205Y-14417579D02*
X4773729Y-14455674D01*
X4773729Y-14455674D02*
X4773729Y-14503293D01*
X4773729Y-14503293D02*
X4764205Y-14541388D01*
X4764205Y-14541388D02*
X4754682Y-14560436D01*
X4754682Y-14560436D02*
X4745158Y-14569960D01*
X4745158Y-14569960D02*
X4726110Y-14579484D01*
X4726110Y-14579484D02*
X4707063Y-14579484D01*
X4707063Y-14579484D02*
X4688015Y-14569960D01*
X4688015Y-14569960D02*
X4678491Y-14560436D01*
X4678491Y-14560436D02*
X4668967Y-14541388D01*
X4668967Y-14541388D02*
X4659444Y-14503293D01*
X4659444Y-14503293D02*
X4659444Y-14455674D01*
X4659444Y-14455674D02*
X4668967Y-14417579D01*
X4668967Y-14417579D02*
X4678491Y-14398531D01*
X4678491Y-14398531D02*
X4688015Y-14389008D01*
X4688015Y-14389008D02*
X4707063Y-14379484D01*
X4897539Y-14379484D02*
X4916586Y-14379484D01*
X4916586Y-14379484D02*
X4935634Y-14389008D01*
X4935634Y-14389008D02*
X4945158Y-14398531D01*
X4945158Y-14398531D02*
X4954682Y-14417579D01*
X4954682Y-14417579D02*
X4964205Y-14455674D01*
X4964205Y-14455674D02*
X4964205Y-14503293D01*
X4964205Y-14503293D02*
X4954682Y-14541388D01*
X4954682Y-14541388D02*
X4945158Y-14560436D01*
X4945158Y-14560436D02*
X4935634Y-14569960D01*
X4935634Y-14569960D02*
X4916586Y-14579484D01*
X4916586Y-14579484D02*
X4897539Y-14579484D01*
X4897539Y-14579484D02*
X4878491Y-14569960D01*
X4878491Y-14569960D02*
X4868967Y-14560436D01*
X4868967Y-14560436D02*
X4859444Y-14541388D01*
X4859444Y-14541388D02*
X4849920Y-14503293D01*
X4849920Y-14503293D02*
X4849920Y-14455674D01*
X4849920Y-14455674D02*
X4859444Y-14417579D01*
X4859444Y-14417579D02*
X4868967Y-14398531D01*
X4868967Y-14398531D02*
X4878491Y-14389008D01*
X4878491Y-14389008D02*
X4897539Y-14379484D01*
X5049920Y-14579484D02*
X5049920Y-14446150D01*
X5049920Y-14465198D02*
X5059444Y-14455674D01*
X5059444Y-14455674D02*
X5078491Y-14446150D01*
X5078491Y-14446150D02*
X5107063Y-14446150D01*
X5107063Y-14446150D02*
X5126110Y-14455674D01*
X5126110Y-14455674D02*
X5135634Y-14474722D01*
X5135634Y-14474722D02*
X5135634Y-14579484D01*
X5135634Y-14474722D02*
X5145158Y-14455674D01*
X5145158Y-14455674D02*
X5164205Y-14446150D01*
X5164205Y-14446150D02*
X5192777Y-14446150D01*
X5192777Y-14446150D02*
X5211825Y-14455674D01*
X5211825Y-14455674D02*
X5221348Y-14474722D01*
X5221348Y-14474722D02*
X5221348Y-14579484D01*
X5316586Y-14579484D02*
X5316586Y-14446150D01*
X5316586Y-14465198D02*
X5326110Y-14455674D01*
X5326110Y-14455674D02*
X5345158Y-14446150D01*
X5345158Y-14446150D02*
X5373729Y-14446150D01*
X5373729Y-14446150D02*
X5392777Y-14455674D01*
X5392777Y-14455674D02*
X5402301Y-14474722D01*
X5402301Y-14474722D02*
X5402301Y-14579484D01*
X5402301Y-14474722D02*
X5411825Y-14455674D01*
X5411825Y-14455674D02*
X5430872Y-14446150D01*
X5430872Y-14446150D02*
X5459444Y-14446150D01*
X5459444Y-14446150D02*
X5478491Y-14455674D01*
X5478491Y-14455674D02*
X5488015Y-14474722D01*
X5488015Y-14474722D02*
X5488015Y-14579484D01*
X5878491Y-14369960D02*
X5707063Y-14627103D01*
X6135634Y-14379484D02*
X6154682Y-14379484D01*
X6154682Y-14379484D02*
X6173729Y-14389008D01*
X6173729Y-14389008D02*
X6183253Y-14398531D01*
X6183253Y-14398531D02*
X6192777Y-14417579D01*
X6192777Y-14417579D02*
X6202301Y-14455674D01*
X6202301Y-14455674D02*
X6202301Y-14503293D01*
X6202301Y-14503293D02*
X6192777Y-14541388D01*
X6192777Y-14541388D02*
X6183253Y-14560436D01*
X6183253Y-14560436D02*
X6173729Y-14569960D01*
X6173729Y-14569960D02*
X6154682Y-14579484D01*
X6154682Y-14579484D02*
X6135634Y-14579484D01*
X6135634Y-14579484D02*
X6116586Y-14569960D01*
X6116586Y-14569960D02*
X6107063Y-14560436D01*
X6107063Y-14560436D02*
X6097539Y-14541388D01*
X6097539Y-14541388D02*
X6088015Y-14503293D01*
X6088015Y-14503293D02*
X6088015Y-14455674D01*
X6088015Y-14455674D02*
X6097539Y-14417579D01*
X6097539Y-14417579D02*
X6107063Y-14398531D01*
X6107063Y-14398531D02*
X6116586Y-14389008D01*
X6116586Y-14389008D02*
X6135634Y-14379484D01*
X6288015Y-14560436D02*
X6297539Y-14569960D01*
X6297539Y-14569960D02*
X6288015Y-14579484D01*
X6288015Y-14579484D02*
X6278491Y-14569960D01*
X6278491Y-14569960D02*
X6288015Y-14560436D01*
X6288015Y-14560436D02*
X6288015Y-14579484D01*
X6421348Y-14379484D02*
X6440396Y-14379484D01*
X6440396Y-14379484D02*
X6459444Y-14389008D01*
X6459444Y-14389008D02*
X6468967Y-14398531D01*
X6468967Y-14398531D02*
X6478491Y-14417579D01*
X6478491Y-14417579D02*
X6488015Y-14455674D01*
X6488015Y-14455674D02*
X6488015Y-14503293D01*
X6488015Y-14503293D02*
X6478491Y-14541388D01*
X6478491Y-14541388D02*
X6468967Y-14560436D01*
X6468967Y-14560436D02*
X6459444Y-14569960D01*
X6459444Y-14569960D02*
X6440396Y-14579484D01*
X6440396Y-14579484D02*
X6421348Y-14579484D01*
X6421348Y-14579484D02*
X6402301Y-14569960D01*
X6402301Y-14569960D02*
X6392777Y-14560436D01*
X6392777Y-14560436D02*
X6383253Y-14541388D01*
X6383253Y-14541388D02*
X6373729Y-14503293D01*
X6373729Y-14503293D02*
X6373729Y-14455674D01*
X6373729Y-14455674D02*
X6383253Y-14417579D01*
X6383253Y-14417579D02*
X6392777Y-14398531D01*
X6392777Y-14398531D02*
X6402301Y-14389008D01*
X6402301Y-14389008D02*
X6421348Y-14379484D01*
X6659444Y-14379484D02*
X6621348Y-14379484D01*
X6621348Y-14379484D02*
X6602301Y-14389008D01*
X6602301Y-14389008D02*
X6592777Y-14398531D01*
X6592777Y-14398531D02*
X6573729Y-14427103D01*
X6573729Y-14427103D02*
X6564206Y-14465198D01*
X6564206Y-14465198D02*
X6564206Y-14541388D01*
X6564206Y-14541388D02*
X6573729Y-14560436D01*
X6573729Y-14560436D02*
X6583253Y-14569960D01*
X6583253Y-14569960D02*
X6602301Y-14579484D01*
X6602301Y-14579484D02*
X6640396Y-14579484D01*
X6640396Y-14579484D02*
X6659444Y-14569960D01*
X6659444Y-14569960D02*
X6668967Y-14560436D01*
X6668967Y-14560436D02*
X6678491Y-14541388D01*
X6678491Y-14541388D02*
X6678491Y-14493769D01*
X6678491Y-14493769D02*
X6668967Y-14474722D01*
X6668967Y-14474722D02*
X6659444Y-14465198D01*
X6659444Y-14465198D02*
X6640396Y-14455674D01*
X6640396Y-14455674D02*
X6602301Y-14455674D01*
X6602301Y-14455674D02*
X6583253Y-14465198D01*
X6583253Y-14465198D02*
X6573729Y-14474722D01*
X6573729Y-14474722D02*
X6564206Y-14493769D01*
X6849920Y-14379484D02*
X6811825Y-14379484D01*
X6811825Y-14379484D02*
X6792777Y-14389008D01*
X6792777Y-14389008D02*
X6783253Y-14398531D01*
X6783253Y-14398531D02*
X6764206Y-14427103D01*
X6764206Y-14427103D02*
X6754682Y-14465198D01*
X6754682Y-14465198D02*
X6754682Y-14541388D01*
X6754682Y-14541388D02*
X6764206Y-14560436D01*
X6764206Y-14560436D02*
X6773729Y-14569960D01*
X6773729Y-14569960D02*
X6792777Y-14579484D01*
X6792777Y-14579484D02*
X6830872Y-14579484D01*
X6830872Y-14579484D02*
X6849920Y-14569960D01*
X6849920Y-14569960D02*
X6859444Y-14560436D01*
X6859444Y-14560436D02*
X6868967Y-14541388D01*
X6868967Y-14541388D02*
X6868967Y-14493769D01*
X6868967Y-14493769D02*
X6859444Y-14474722D01*
X6859444Y-14474722D02*
X6849920Y-14465198D01*
X6849920Y-14465198D02*
X6830872Y-14455674D01*
X6830872Y-14455674D02*
X6792777Y-14455674D01*
X6792777Y-14455674D02*
X6773729Y-14465198D01*
X6773729Y-14465198D02*
X6764206Y-14474722D01*
X6764206Y-14474722D02*
X6754682Y-14493769D01*
X6964206Y-14579484D02*
X7002301Y-14579484D01*
X7002301Y-14579484D02*
X7021348Y-14569960D01*
X7021348Y-14569960D02*
X7030872Y-14560436D01*
X7030872Y-14560436D02*
X7049920Y-14531865D01*
X7049920Y-14531865D02*
X7059444Y-14493769D01*
X7059444Y-14493769D02*
X7059444Y-14417579D01*
X7059444Y-14417579D02*
X7049920Y-14398531D01*
X7049920Y-14398531D02*
X7040396Y-14389008D01*
X7040396Y-14389008D02*
X7021348Y-14379484D01*
X7021348Y-14379484D02*
X6983253Y-14379484D01*
X6983253Y-14379484D02*
X6964206Y-14389008D01*
X6964206Y-14389008D02*
X6954682Y-14398531D01*
X6954682Y-14398531D02*
X6945158Y-14417579D01*
X6945158Y-14417579D02*
X6945158Y-14465198D01*
X6945158Y-14465198D02*
X6954682Y-14484246D01*
X6954682Y-14484246D02*
X6964206Y-14493769D01*
X6964206Y-14493769D02*
X6983253Y-14503293D01*
X6983253Y-14503293D02*
X7021348Y-14503293D01*
X7021348Y-14503293D02*
X7040396Y-14493769D01*
X7040396Y-14493769D02*
X7049920Y-14484246D01*
X7049920Y-14484246D02*
X7059444Y-14465198D01*
X7135634Y-14379484D02*
X7135634Y-14417579D01*
X7211825Y-14379484D02*
X7211825Y-14417579D01*
X7507063Y-14655674D02*
X7497539Y-14646150D01*
X7497539Y-14646150D02*
X7478491Y-14617579D01*
X7478491Y-14617579D02*
X7468968Y-14598531D01*
X7468968Y-14598531D02*
X7459444Y-14569960D01*
X7459444Y-14569960D02*
X7449920Y-14522341D01*
X7449920Y-14522341D02*
X7449920Y-14484246D01*
X7449920Y-14484246D02*
X7459444Y-14436627D01*
X7459444Y-14436627D02*
X7468968Y-14408055D01*
X7468968Y-14408055D02*
X7478491Y-14389008D01*
X7478491Y-14389008D02*
X7497539Y-14360436D01*
X7497539Y-14360436D02*
X7507063Y-14350912D01*
X7564206Y-14379484D02*
X7688015Y-14379484D01*
X7688015Y-14379484D02*
X7621348Y-14455674D01*
X7621348Y-14455674D02*
X7649920Y-14455674D01*
X7649920Y-14455674D02*
X7668968Y-14465198D01*
X7668968Y-14465198D02*
X7678491Y-14474722D01*
X7678491Y-14474722D02*
X7688015Y-14493769D01*
X7688015Y-14493769D02*
X7688015Y-14541388D01*
X7688015Y-14541388D02*
X7678491Y-14560436D01*
X7678491Y-14560436D02*
X7668968Y-14569960D01*
X7668968Y-14569960D02*
X7649920Y-14579484D01*
X7649920Y-14579484D02*
X7592777Y-14579484D01*
X7592777Y-14579484D02*
X7573729Y-14569960D01*
X7573729Y-14569960D02*
X7564206Y-14560436D01*
X7764206Y-14398531D02*
X7773729Y-14389008D01*
X7773729Y-14389008D02*
X7792777Y-14379484D01*
X7792777Y-14379484D02*
X7840396Y-14379484D01*
X7840396Y-14379484D02*
X7859444Y-14389008D01*
X7859444Y-14389008D02*
X7868968Y-14398531D01*
X7868968Y-14398531D02*
X7878491Y-14417579D01*
X7878491Y-14417579D02*
X7878491Y-14436627D01*
X7878491Y-14436627D02*
X7868968Y-14465198D01*
X7868968Y-14465198D02*
X7754682Y-14579484D01*
X7754682Y-14579484D02*
X7878491Y-14579484D01*
X8116587Y-14579484D02*
X8116587Y-14379484D01*
X8202301Y-14579484D02*
X8202301Y-14474722D01*
X8202301Y-14474722D02*
X8192777Y-14455674D01*
X8192777Y-14455674D02*
X8173730Y-14446150D01*
X8173730Y-14446150D02*
X8145158Y-14446150D01*
X8145158Y-14446150D02*
X8126110Y-14455674D01*
X8126110Y-14455674D02*
X8116587Y-14465198D01*
X8326110Y-14579484D02*
X8307063Y-14569960D01*
X8307063Y-14569960D02*
X8297539Y-14560436D01*
X8297539Y-14560436D02*
X8288015Y-14541388D01*
X8288015Y-14541388D02*
X8288015Y-14484246D01*
X8288015Y-14484246D02*
X8297539Y-14465198D01*
X8297539Y-14465198D02*
X8307063Y-14455674D01*
X8307063Y-14455674D02*
X8326110Y-14446150D01*
X8326110Y-14446150D02*
X8354682Y-14446150D01*
X8354682Y-14446150D02*
X8373730Y-14455674D01*
X8373730Y-14455674D02*
X8383253Y-14465198D01*
X8383253Y-14465198D02*
X8392777Y-14484246D01*
X8392777Y-14484246D02*
X8392777Y-14541388D01*
X8392777Y-14541388D02*
X8383253Y-14560436D01*
X8383253Y-14560436D02*
X8373730Y-14569960D01*
X8373730Y-14569960D02*
X8354682Y-14579484D01*
X8354682Y-14579484D02*
X8326110Y-14579484D01*
X8507063Y-14579484D02*
X8488015Y-14569960D01*
X8488015Y-14569960D02*
X8478492Y-14550912D01*
X8478492Y-14550912D02*
X8478492Y-14379484D01*
X8659444Y-14569960D02*
X8640396Y-14579484D01*
X8640396Y-14579484D02*
X8602301Y-14579484D01*
X8602301Y-14579484D02*
X8583253Y-14569960D01*
X8583253Y-14569960D02*
X8573730Y-14550912D01*
X8573730Y-14550912D02*
X8573730Y-14474722D01*
X8573730Y-14474722D02*
X8583253Y-14455674D01*
X8583253Y-14455674D02*
X8602301Y-14446150D01*
X8602301Y-14446150D02*
X8640396Y-14446150D01*
X8640396Y-14446150D02*
X8659444Y-14455674D01*
X8659444Y-14455674D02*
X8668968Y-14474722D01*
X8668968Y-14474722D02*
X8668968Y-14493769D01*
X8668968Y-14493769D02*
X8573730Y-14512817D01*
X8745158Y-14569960D02*
X8764206Y-14579484D01*
X8764206Y-14579484D02*
X8802301Y-14579484D01*
X8802301Y-14579484D02*
X8821349Y-14569960D01*
X8821349Y-14569960D02*
X8830873Y-14550912D01*
X8830873Y-14550912D02*
X8830873Y-14541388D01*
X8830873Y-14541388D02*
X8821349Y-14522341D01*
X8821349Y-14522341D02*
X8802301Y-14512817D01*
X8802301Y-14512817D02*
X8773730Y-14512817D01*
X8773730Y-14512817D02*
X8754682Y-14503293D01*
X8754682Y-14503293D02*
X8745158Y-14484246D01*
X8745158Y-14484246D02*
X8745158Y-14474722D01*
X8745158Y-14474722D02*
X8754682Y-14455674D01*
X8754682Y-14455674D02*
X8773730Y-14446150D01*
X8773730Y-14446150D02*
X8802301Y-14446150D01*
X8802301Y-14446150D02*
X8821349Y-14455674D01*
X8897539Y-14655674D02*
X8907063Y-14646150D01*
X8907063Y-14646150D02*
X8926111Y-14617579D01*
X8926111Y-14617579D02*
X8935634Y-14598531D01*
X8935634Y-14598531D02*
X8945158Y-14569960D01*
X8945158Y-14569960D02*
X8954682Y-14522341D01*
X8954682Y-14522341D02*
X8954682Y-14484246D01*
X8954682Y-14484246D02*
X8945158Y-14436627D01*
X8945158Y-14436627D02*
X8935634Y-14408055D01*
X8935634Y-14408055D02*
X8926111Y-14389008D01*
X8926111Y-14389008D02*
X8907063Y-14360436D01*
X8907063Y-14360436D02*
X8897539Y-14350912D01*
X9259444Y-14655674D02*
X9249920Y-14646150D01*
X9249920Y-14646150D02*
X9230873Y-14617579D01*
X9230873Y-14617579D02*
X9221349Y-14598531D01*
X9221349Y-14598531D02*
X9211825Y-14569960D01*
X9211825Y-14569960D02*
X9202301Y-14522341D01*
X9202301Y-14522341D02*
X9202301Y-14484246D01*
X9202301Y-14484246D02*
X9211825Y-14436627D01*
X9211825Y-14436627D02*
X9221349Y-14408055D01*
X9221349Y-14408055D02*
X9230873Y-14389008D01*
X9230873Y-14389008D02*
X9249920Y-14360436D01*
X9249920Y-14360436D02*
X9259444Y-14350912D01*
X9335634Y-14446150D02*
X9335634Y-14579484D01*
X9335634Y-14465198D02*
X9345158Y-14455674D01*
X9345158Y-14455674D02*
X9364206Y-14446150D01*
X9364206Y-14446150D02*
X9392777Y-14446150D01*
X9392777Y-14446150D02*
X9411825Y-14455674D01*
X9411825Y-14455674D02*
X9421349Y-14474722D01*
X9421349Y-14474722D02*
X9421349Y-14579484D01*
X9545158Y-14579484D02*
X9526111Y-14569960D01*
X9526111Y-14569960D02*
X9516587Y-14560436D01*
X9516587Y-14560436D02*
X9507063Y-14541388D01*
X9507063Y-14541388D02*
X9507063Y-14484246D01*
X9507063Y-14484246D02*
X9516587Y-14465198D01*
X9516587Y-14465198D02*
X9526111Y-14455674D01*
X9526111Y-14455674D02*
X9545158Y-14446150D01*
X9545158Y-14446150D02*
X9573730Y-14446150D01*
X9573730Y-14446150D02*
X9592777Y-14455674D01*
X9592777Y-14455674D02*
X9602301Y-14465198D01*
X9602301Y-14465198D02*
X9611825Y-14484246D01*
X9611825Y-14484246D02*
X9611825Y-14541388D01*
X9611825Y-14541388D02*
X9602301Y-14560436D01*
X9602301Y-14560436D02*
X9592777Y-14569960D01*
X9592777Y-14569960D02*
X9573730Y-14579484D01*
X9573730Y-14579484D02*
X9545158Y-14579484D01*
X9668968Y-14446150D02*
X9745158Y-14446150D01*
X9697539Y-14379484D02*
X9697539Y-14550912D01*
X9697539Y-14550912D02*
X9707063Y-14569960D01*
X9707063Y-14569960D02*
X9726111Y-14579484D01*
X9726111Y-14579484D02*
X9745158Y-14579484D01*
X9964206Y-14446150D02*
X9964206Y-14646150D01*
X9964206Y-14455674D02*
X9983254Y-14446150D01*
X9983254Y-14446150D02*
X10021349Y-14446150D01*
X10021349Y-14446150D02*
X10040396Y-14455674D01*
X10040396Y-14455674D02*
X10049920Y-14465198D01*
X10049920Y-14465198D02*
X10059444Y-14484246D01*
X10059444Y-14484246D02*
X10059444Y-14541388D01*
X10059444Y-14541388D02*
X10049920Y-14560436D01*
X10049920Y-14560436D02*
X10040396Y-14569960D01*
X10040396Y-14569960D02*
X10021349Y-14579484D01*
X10021349Y-14579484D02*
X9983254Y-14579484D01*
X9983254Y-14579484D02*
X9964206Y-14569960D01*
X10173730Y-14579484D02*
X10154682Y-14569960D01*
X10154682Y-14569960D02*
X10145158Y-14550912D01*
X10145158Y-14550912D02*
X10145158Y-14379484D01*
X10335635Y-14579484D02*
X10335635Y-14474722D01*
X10335635Y-14474722D02*
X10326111Y-14455674D01*
X10326111Y-14455674D02*
X10307063Y-14446150D01*
X10307063Y-14446150D02*
X10268968Y-14446150D01*
X10268968Y-14446150D02*
X10249920Y-14455674D01*
X10335635Y-14569960D02*
X10316587Y-14579484D01*
X10316587Y-14579484D02*
X10268968Y-14579484D01*
X10268968Y-14579484D02*
X10249920Y-14569960D01*
X10249920Y-14569960D02*
X10240396Y-14550912D01*
X10240396Y-14550912D02*
X10240396Y-14531865D01*
X10240396Y-14531865D02*
X10249920Y-14512817D01*
X10249920Y-14512817D02*
X10268968Y-14503293D01*
X10268968Y-14503293D02*
X10316587Y-14503293D01*
X10316587Y-14503293D02*
X10335635Y-14493769D01*
X10402301Y-14446150D02*
X10478492Y-14446150D01*
X10430873Y-14379484D02*
X10430873Y-14550912D01*
X10430873Y-14550912D02*
X10440396Y-14569960D01*
X10440396Y-14569960D02*
X10459444Y-14579484D01*
X10459444Y-14579484D02*
X10478492Y-14579484D01*
X10621349Y-14569960D02*
X10602301Y-14579484D01*
X10602301Y-14579484D02*
X10564206Y-14579484D01*
X10564206Y-14579484D02*
X10545158Y-14569960D01*
X10545158Y-14569960D02*
X10535635Y-14550912D01*
X10535635Y-14550912D02*
X10535635Y-14474722D01*
X10535635Y-14474722D02*
X10545158Y-14455674D01*
X10545158Y-14455674D02*
X10564206Y-14446150D01*
X10564206Y-14446150D02*
X10602301Y-14446150D01*
X10602301Y-14446150D02*
X10621349Y-14455674D01*
X10621349Y-14455674D02*
X10630873Y-14474722D01*
X10630873Y-14474722D02*
X10630873Y-14493769D01*
X10630873Y-14493769D02*
X10535635Y-14512817D01*
X10802301Y-14579484D02*
X10802301Y-14379484D01*
X10802301Y-14569960D02*
X10783254Y-14579484D01*
X10783254Y-14579484D02*
X10745158Y-14579484D01*
X10745158Y-14579484D02*
X10726111Y-14569960D01*
X10726111Y-14569960D02*
X10716587Y-14560436D01*
X10716587Y-14560436D02*
X10707063Y-14541388D01*
X10707063Y-14541388D02*
X10707063Y-14484246D01*
X10707063Y-14484246D02*
X10716587Y-14465198D01*
X10716587Y-14465198D02*
X10726111Y-14455674D01*
X10726111Y-14455674D02*
X10745158Y-14446150D01*
X10745158Y-14446150D02*
X10783254Y-14446150D01*
X10783254Y-14446150D02*
X10802301Y-14455674D01*
X10878492Y-14655674D02*
X10888016Y-14646150D01*
X10888016Y-14646150D02*
X10907063Y-14617579D01*
X10907063Y-14617579D02*
X10916587Y-14598531D01*
X10916587Y-14598531D02*
X10926111Y-14569960D01*
X10926111Y-14569960D02*
X10935635Y-14522341D01*
X10935635Y-14522341D02*
X10935635Y-14484246D01*
X10935635Y-14484246D02*
X10926111Y-14436627D01*
X10926111Y-14436627D02*
X10916587Y-14408055D01*
X10916587Y-14408055D02*
X10907063Y-14389008D01*
X10907063Y-14389008D02*
X10888016Y-14360436D01*
X10888016Y-14360436D02*
X10878492Y-14350912D01*
M02*
