%TF.GenerationSoftware,KiCad,Pcbnew,7.0.6*%
%TF.CreationDate,2023-08-29T18:11:48+02:00*%
%TF.ProjectId,photo console,70686f74-6f20-4636-9f6e-736f6c652e6b,rev?*%
%TF.SameCoordinates,Original*%
%TF.FileFunction,Drillmap*%
%TF.FilePolarity,Positive*%
%FSLAX45Y45*%
G04 Gerber Fmt 4.5, Leading zero omitted, Abs format (unit mm)*
G04 Created by KiCad (PCBNEW 7.0.6) date 2023-08-29 18:11:48*
%MOMM*%
%LPD*%
G01*
G04 APERTURE LIST*
%ADD10C,0.100000*%
%ADD11C,0.200000*%
%ADD12C,0.040000*%
%ADD13C,0.076200*%
%ADD14C,0.080000*%
%ADD15C,0.110000*%
%ADD16C,0.150000*%
%ADD17C,0.220000*%
%ADD18C,0.400000*%
G04 APERTURE END LIST*
D10*
X24563605Y-12827000D02*
G75*
G03*
X24563605Y-12827000I-179605J0D01*
G01*
X8688605Y-12827000D02*
G75*
G03*
X8688605Y-12827000I-179605J0D01*
G01*
X18340605Y-12827000D02*
G75*
G03*
X18340605Y-12827000I-179605J0D01*
G01*
X4624605Y-8837395D02*
G75*
G03*
X4624605Y-8837395I-179605J0D01*
G01*
X18340605Y-5080000D02*
G75*
G03*
X18340605Y-5080000I-179605J0D01*
G01*
X8688605Y-5080000D02*
G75*
G03*
X8688605Y-5080000I-179605J0D01*
G01*
X3937000Y-3937000D02*
X24765000Y-3937000D01*
X24765000Y-13843000D01*
X3937000Y-13843000D01*
X3937000Y-3937000D01*
X24384000Y-4445000D02*
G75*
G03*
X24384000Y-4445000I-179605J0D01*
G01*
D11*
D12*
X22205000Y-6520500D02*
X22245000Y-6560500D01*
X22245000Y-6520500D02*
X22205000Y-6560500D01*
X23475000Y-11664000D02*
X23515000Y-11704000D01*
X23515000Y-11664000D02*
X23475000Y-11704000D01*
D13*
X4610100Y-7112000D02*
G75*
G03*
X4610100Y-7112000I-38100J0D01*
G01*
X4610100Y-10922000D02*
G75*
G03*
X4610100Y-10922000I-38100J0D01*
G01*
X4864100Y-7112000D02*
G75*
G03*
X4864100Y-7112000I-38100J0D01*
G01*
X4864100Y-10922000D02*
G75*
G03*
X4864100Y-10922000I-38100J0D01*
G01*
X5118100Y-7112000D02*
G75*
G03*
X5118100Y-7112000I-38100J0D01*
G01*
X5118100Y-10922000D02*
G75*
G03*
X5118100Y-10922000I-38100J0D01*
G01*
X23088600Y-4572000D02*
G75*
G03*
X23088600Y-4572000I-38100J0D01*
G01*
X23088600Y-4826000D02*
G75*
G03*
X23088600Y-4826000I-38100J0D01*
G01*
X23088600Y-5080000D02*
G75*
G03*
X23088600Y-5080000I-38100J0D01*
G01*
D14*
X4318000Y-5992500D02*
X4318000Y-6072500D01*
X4278000Y-6032500D02*
X4358000Y-6032500D01*
X4445000Y-11453500D02*
X4445000Y-11533500D01*
X4405000Y-11493500D02*
X4485000Y-11493500D01*
X5588000Y-5992500D02*
X5588000Y-6072500D01*
X5548000Y-6032500D02*
X5628000Y-6032500D01*
X5715000Y-11453500D02*
X5715000Y-11533500D01*
X5675000Y-11493500D02*
X5755000Y-11493500D01*
X6350000Y-5992500D02*
X6350000Y-6072500D01*
X6310000Y-6032500D02*
X6390000Y-6032500D01*
X6477000Y-11453500D02*
X6477000Y-11533500D01*
X6437000Y-11493500D02*
X6517000Y-11493500D01*
X7620000Y-5992500D02*
X7620000Y-6072500D01*
X7580000Y-6032500D02*
X7660000Y-6032500D01*
X7747000Y-11453500D02*
X7747000Y-11533500D01*
X7707000Y-11493500D02*
X7787000Y-11493500D01*
X9144000Y-5992500D02*
X9144000Y-6072500D01*
X9104000Y-6032500D02*
X9184000Y-6032500D01*
X9271000Y-11453500D02*
X9271000Y-11533500D01*
X9231000Y-11493500D02*
X9311000Y-11493500D01*
X10414000Y-5992500D02*
X10414000Y-6072500D01*
X10374000Y-6032500D02*
X10454000Y-6032500D01*
X10541000Y-11453500D02*
X10541000Y-11533500D01*
X10501000Y-11493500D02*
X10581000Y-11493500D01*
X10922000Y-11453500D02*
X10922000Y-11533500D01*
X10882000Y-11493500D02*
X10962000Y-11493500D01*
X11176000Y-5992500D02*
X11176000Y-6072500D01*
X11136000Y-6032500D02*
X11216000Y-6032500D01*
X12192000Y-11453500D02*
X12192000Y-11533500D01*
X12152000Y-11493500D02*
X12232000Y-11493500D01*
X12446000Y-5992500D02*
X12446000Y-6072500D01*
X12406000Y-6032500D02*
X12486000Y-6032500D01*
X12954000Y-6500500D02*
X12954000Y-6580500D01*
X12914000Y-6540500D02*
X12994000Y-6540500D01*
X12954000Y-6754500D02*
X12954000Y-6834500D01*
X12914000Y-6794500D02*
X12994000Y-6794500D01*
X12954000Y-7008500D02*
X12954000Y-7088500D01*
X12914000Y-7048500D02*
X12994000Y-7048500D01*
X12954000Y-7262500D02*
X12954000Y-7342500D01*
X12914000Y-7302500D02*
X12994000Y-7302500D01*
X12954000Y-7516500D02*
X12954000Y-7596500D01*
X12914000Y-7556500D02*
X12994000Y-7556500D01*
X12954000Y-7770500D02*
X12954000Y-7850500D01*
X12914000Y-7810500D02*
X12994000Y-7810500D01*
X12954000Y-8024500D02*
X12954000Y-8104500D01*
X12914000Y-8064500D02*
X12994000Y-8064500D01*
X12954000Y-8278500D02*
X12954000Y-8358500D01*
X12914000Y-8318500D02*
X12994000Y-8318500D01*
X12954000Y-9548500D02*
X12954000Y-9628500D01*
X12914000Y-9588500D02*
X12994000Y-9588500D01*
X12954000Y-9802500D02*
X12954000Y-9882500D01*
X12914000Y-9842500D02*
X12994000Y-9842500D01*
X12954000Y-10056500D02*
X12954000Y-10136500D01*
X12914000Y-10096500D02*
X12994000Y-10096500D01*
X12954000Y-10310500D02*
X12954000Y-10390500D01*
X12914000Y-10350500D02*
X12994000Y-10350500D01*
X12954000Y-10564500D02*
X12954000Y-10644500D01*
X12914000Y-10604500D02*
X12994000Y-10604500D01*
X12954000Y-10818500D02*
X12954000Y-10898500D01*
X12914000Y-10858500D02*
X12994000Y-10858500D01*
X12954000Y-11072500D02*
X12954000Y-11152500D01*
X12914000Y-11112500D02*
X12994000Y-11112500D01*
X12954000Y-11326500D02*
X12954000Y-11406500D01*
X12914000Y-11366500D02*
X12994000Y-11366500D01*
X13716000Y-6500500D02*
X13716000Y-6580500D01*
X13676000Y-6540500D02*
X13756000Y-6540500D01*
X13716000Y-6754500D02*
X13716000Y-6834500D01*
X13676000Y-6794500D02*
X13756000Y-6794500D01*
X13716000Y-7008500D02*
X13716000Y-7088500D01*
X13676000Y-7048500D02*
X13756000Y-7048500D01*
X13716000Y-7262500D02*
X13716000Y-7342500D01*
X13676000Y-7302500D02*
X13756000Y-7302500D01*
X13716000Y-7516500D02*
X13716000Y-7596500D01*
X13676000Y-7556500D02*
X13756000Y-7556500D01*
X13716000Y-7770500D02*
X13716000Y-7850500D01*
X13676000Y-7810500D02*
X13756000Y-7810500D01*
X13716000Y-8024500D02*
X13716000Y-8104500D01*
X13676000Y-8064500D02*
X13756000Y-8064500D01*
X13716000Y-8278500D02*
X13716000Y-8358500D01*
X13676000Y-8318500D02*
X13756000Y-8318500D01*
X13716000Y-9548500D02*
X13716000Y-9628500D01*
X13676000Y-9588500D02*
X13756000Y-9588500D01*
X13716000Y-9802500D02*
X13716000Y-9882500D01*
X13676000Y-9842500D02*
X13756000Y-9842500D01*
X13716000Y-10056500D02*
X13716000Y-10136500D01*
X13676000Y-10096500D02*
X13756000Y-10096500D01*
X13716000Y-10310500D02*
X13716000Y-10390500D01*
X13676000Y-10350500D02*
X13756000Y-10350500D01*
X13716000Y-10564500D02*
X13716000Y-10644500D01*
X13676000Y-10604500D02*
X13756000Y-10604500D01*
X13716000Y-10818500D02*
X13716000Y-10898500D01*
X13676000Y-10858500D02*
X13756000Y-10858500D01*
X13716000Y-11072500D02*
X13716000Y-11152500D01*
X13676000Y-11112500D02*
X13756000Y-11112500D01*
X13716000Y-11326500D02*
X13716000Y-11406500D01*
X13676000Y-11366500D02*
X13756000Y-11366500D01*
X13970000Y-5992500D02*
X13970000Y-6072500D01*
X13930000Y-6032500D02*
X14010000Y-6032500D01*
X14160500Y-11453500D02*
X14160500Y-11533500D01*
X14120500Y-11493500D02*
X14200500Y-11493500D01*
X14224000Y-6500500D02*
X14224000Y-6580500D01*
X14184000Y-6540500D02*
X14264000Y-6540500D01*
X14224000Y-6881500D02*
X14224000Y-6961500D01*
X14184000Y-6921500D02*
X14264000Y-6921500D01*
X14232000Y-9548500D02*
X14232000Y-9628500D01*
X14192000Y-9588500D02*
X14272000Y-9588500D01*
X14232000Y-9993000D02*
X14232000Y-10073000D01*
X14192000Y-10033000D02*
X14272000Y-10033000D01*
X14724000Y-6500500D02*
X14724000Y-6580500D01*
X14684000Y-6540500D02*
X14764000Y-6540500D01*
X14724000Y-6881500D02*
X14724000Y-6961500D01*
X14684000Y-6921500D02*
X14764000Y-6921500D01*
X14732000Y-9548500D02*
X14732000Y-9628500D01*
X14692000Y-9588500D02*
X14772000Y-9588500D01*
X14732000Y-9993000D02*
X14732000Y-10073000D01*
X14692000Y-10033000D02*
X14772000Y-10033000D01*
X15240000Y-5992500D02*
X15240000Y-6072500D01*
X15200000Y-6032500D02*
X15280000Y-6032500D01*
X15430500Y-11453500D02*
X15430500Y-11533500D01*
X15390500Y-11493500D02*
X15470500Y-11493500D01*
X16002000Y-5992500D02*
X16002000Y-6072500D01*
X15962000Y-6032500D02*
X16042000Y-6032500D01*
X16129000Y-11453500D02*
X16129000Y-11533500D01*
X16089000Y-11493500D02*
X16169000Y-11493500D01*
X17272000Y-5992500D02*
X17272000Y-6072500D01*
X17232000Y-6032500D02*
X17312000Y-6032500D01*
X17399000Y-11453500D02*
X17399000Y-11533500D01*
X17359000Y-11493500D02*
X17439000Y-11493500D01*
X18796000Y-5992500D02*
X18796000Y-6072500D01*
X18756000Y-6032500D02*
X18836000Y-6032500D01*
X18796000Y-11390000D02*
X18796000Y-11470000D01*
X18756000Y-11430000D02*
X18836000Y-11430000D01*
X20066000Y-5992500D02*
X20066000Y-6072500D01*
X20026000Y-6032500D02*
X20106000Y-6032500D01*
X20066000Y-11390000D02*
X20066000Y-11470000D01*
X20026000Y-11430000D02*
X20106000Y-11430000D01*
X20828000Y-5992500D02*
X20828000Y-6072500D01*
X20788000Y-6032500D02*
X20868000Y-6032500D01*
X20955000Y-11390000D02*
X20955000Y-11470000D01*
X20915000Y-11430000D02*
X20995000Y-11430000D01*
X22098000Y-5992500D02*
X22098000Y-6072500D01*
X22058000Y-6032500D02*
X22138000Y-6032500D01*
X22225000Y-11390000D02*
X22225000Y-11470000D01*
X22185000Y-11430000D02*
X22265000Y-11430000D01*
D10*
X5881356Y-8200356D02*
X5881356Y-8129644D01*
X5810644Y-8129644D01*
X5810644Y-8200356D01*
X5881356Y-8200356D01*
X5881356Y-9650356D02*
X5881356Y-9579644D01*
X5810644Y-9579644D01*
X5810644Y-9650356D01*
X5881356Y-9650356D01*
X6131356Y-9650356D02*
X6131356Y-9579644D01*
X6060644Y-9579644D01*
X6060644Y-9650356D01*
X6131356Y-9650356D01*
X6381356Y-8200356D02*
X6381356Y-8129644D01*
X6310644Y-8129644D01*
X6310644Y-8200356D01*
X6381356Y-8200356D01*
X6381356Y-9650356D02*
X6381356Y-9579644D01*
X6310644Y-9579644D01*
X6310644Y-9650356D01*
X6381356Y-9650356D01*
X10707356Y-8200356D02*
X10707356Y-8129644D01*
X10636644Y-8129644D01*
X10636644Y-8200356D01*
X10707356Y-8200356D01*
X10707356Y-9650356D02*
X10707356Y-9579644D01*
X10636644Y-9579644D01*
X10636644Y-9650356D01*
X10707356Y-9650356D01*
X10957356Y-9650356D02*
X10957356Y-9579644D01*
X10886644Y-9579644D01*
X10886644Y-9650356D01*
X10957356Y-9650356D01*
X11207356Y-8200356D02*
X11207356Y-8129644D01*
X11136644Y-8129644D01*
X11136644Y-8200356D01*
X11207356Y-8200356D01*
X11207356Y-9650356D02*
X11207356Y-9579644D01*
X11136644Y-9579644D01*
X11136644Y-9650356D01*
X11207356Y-9650356D01*
X15533356Y-8200356D02*
X15533356Y-8129644D01*
X15462644Y-8129644D01*
X15462644Y-8200356D01*
X15533356Y-8200356D01*
X15533356Y-9650356D02*
X15533356Y-9579644D01*
X15462644Y-9579644D01*
X15462644Y-9650356D01*
X15533356Y-9650356D01*
X15783356Y-9650356D02*
X15783356Y-9579644D01*
X15712644Y-9579644D01*
X15712644Y-9650356D01*
X15783356Y-9650356D01*
X16033356Y-8200356D02*
X16033356Y-8129644D01*
X15962644Y-8129644D01*
X15962644Y-8200356D01*
X16033356Y-8200356D01*
X16033356Y-9650356D02*
X16033356Y-9579644D01*
X15962644Y-9579644D01*
X15962644Y-9650356D01*
X16033356Y-9650356D01*
X20359356Y-8200356D02*
X20359356Y-8129644D01*
X20288644Y-8129644D01*
X20288644Y-8200356D01*
X20359356Y-8200356D01*
X20359356Y-9650356D02*
X20359356Y-9579644D01*
X20288644Y-9579644D01*
X20288644Y-9650356D01*
X20359356Y-9650356D01*
X20609356Y-9650356D02*
X20609356Y-9579644D01*
X20538644Y-9579644D01*
X20538644Y-9650356D01*
X20609356Y-9650356D01*
X20859356Y-8200356D02*
X20859356Y-8129644D01*
X20788644Y-8129644D01*
X20788644Y-8200356D01*
X20859356Y-8200356D01*
X20859356Y-9650356D02*
X20859356Y-9579644D01*
X20788644Y-9579644D01*
X20788644Y-9650356D01*
X20859356Y-9650356D01*
X23284356Y-13179856D02*
X23284356Y-13109144D01*
X23213644Y-13109144D01*
X23213644Y-13179856D01*
X23284356Y-13179856D01*
X23728856Y-12036856D02*
X23728856Y-11966144D01*
X23658144Y-11966144D01*
X23658144Y-12036856D01*
X23728856Y-12036856D01*
X23784356Y-13179856D02*
X23784356Y-13109144D01*
X23713644Y-13109144D01*
X23713644Y-13179856D01*
X23784356Y-13179856D01*
X24228856Y-12036856D02*
X24228856Y-11966144D01*
X24158144Y-11966144D01*
X24158144Y-12036856D01*
X24228856Y-12036856D01*
D15*
X22479000Y-7548000D02*
X22534000Y-7493000D01*
X22479000Y-7438000D01*
X22424000Y-7493000D01*
X22479000Y-7548000D01*
X22479000Y-7802000D02*
X22534000Y-7747000D01*
X22479000Y-7692000D01*
X22424000Y-7747000D01*
X22479000Y-7802000D01*
X22479000Y-8056000D02*
X22534000Y-8001000D01*
X22479000Y-7946000D01*
X22424000Y-8001000D01*
X22479000Y-8056000D01*
X22479000Y-8310000D02*
X22534000Y-8255000D01*
X22479000Y-8200000D01*
X22424000Y-8255000D01*
X22479000Y-8310000D01*
X22479000Y-8564000D02*
X22534000Y-8509000D01*
X22479000Y-8454000D01*
X22424000Y-8509000D01*
X22479000Y-8564000D01*
X22479000Y-8818000D02*
X22534000Y-8763000D01*
X22479000Y-8708000D01*
X22424000Y-8763000D01*
X22479000Y-8818000D01*
X22479000Y-9072000D02*
X22534000Y-9017000D01*
X22479000Y-8962000D01*
X22424000Y-9017000D01*
X22479000Y-9072000D01*
X22479000Y-9326000D02*
X22534000Y-9271000D01*
X22479000Y-9216000D01*
X22424000Y-9271000D01*
X22479000Y-9326000D01*
X22479000Y-9580000D02*
X22534000Y-9525000D01*
X22479000Y-9470000D01*
X22424000Y-9525000D01*
X22479000Y-9580000D01*
X22479000Y-9834000D02*
X22534000Y-9779000D01*
X22479000Y-9724000D01*
X22424000Y-9779000D01*
X22479000Y-9834000D01*
X22479000Y-10088000D02*
X22534000Y-10033000D01*
X22479000Y-9978000D01*
X22424000Y-10033000D01*
X22479000Y-10088000D01*
X22479000Y-10342000D02*
X22534000Y-10287000D01*
X22479000Y-10232000D01*
X22424000Y-10287000D01*
X22479000Y-10342000D01*
X24003000Y-7548000D02*
X24058000Y-7493000D01*
X24003000Y-7438000D01*
X23948000Y-7493000D01*
X24003000Y-7548000D01*
X24003000Y-7802000D02*
X24058000Y-7747000D01*
X24003000Y-7692000D01*
X23948000Y-7747000D01*
X24003000Y-7802000D01*
X24003000Y-8056000D02*
X24058000Y-8001000D01*
X24003000Y-7946000D01*
X23948000Y-8001000D01*
X24003000Y-8056000D01*
X24003000Y-8310000D02*
X24058000Y-8255000D01*
X24003000Y-8200000D01*
X23948000Y-8255000D01*
X24003000Y-8310000D01*
X24003000Y-8564000D02*
X24058000Y-8509000D01*
X24003000Y-8454000D01*
X23948000Y-8509000D01*
X24003000Y-8564000D01*
X24003000Y-8818000D02*
X24058000Y-8763000D01*
X24003000Y-8708000D01*
X23948000Y-8763000D01*
X24003000Y-8818000D01*
X24003000Y-9072000D02*
X24058000Y-9017000D01*
X24003000Y-8962000D01*
X23948000Y-9017000D01*
X24003000Y-9072000D01*
X24003000Y-9326000D02*
X24058000Y-9271000D01*
X24003000Y-9216000D01*
X23948000Y-9271000D01*
X24003000Y-9326000D01*
X24003000Y-9580000D02*
X24058000Y-9525000D01*
X24003000Y-9470000D01*
X23948000Y-9525000D01*
X24003000Y-9580000D01*
X24003000Y-9834000D02*
X24058000Y-9779000D01*
X24003000Y-9724000D01*
X23948000Y-9779000D01*
X24003000Y-9834000D01*
X24003000Y-10088000D02*
X24058000Y-10033000D01*
X24003000Y-9978000D01*
X23948000Y-10033000D01*
X24003000Y-10088000D01*
X24003000Y-10342000D02*
X24058000Y-10287000D01*
X24003000Y-10232000D01*
X23948000Y-10287000D01*
X24003000Y-10342000D01*
D16*
X4624000Y-4751000D02*
X4774000Y-4901000D01*
X4774000Y-4751000D02*
X4624000Y-4901000D01*
X4774000Y-4826000D02*
G75*
G03*
X4774000Y-4826000I-75000J0D01*
G01*
X4624000Y-12371000D02*
X4774000Y-12521000D01*
X4774000Y-12371000D02*
X4624000Y-12521000D01*
X4774000Y-12446000D02*
G75*
G03*
X4774000Y-12446000I-75000J0D01*
G01*
X5259000Y-4497000D02*
X5409000Y-4647000D01*
X5409000Y-4497000D02*
X5259000Y-4647000D01*
X5409000Y-4572000D02*
G75*
G03*
X5409000Y-4572000I-75000J0D01*
G01*
X5259000Y-12117000D02*
X5409000Y-12267000D01*
X5409000Y-12117000D02*
X5259000Y-12267000D01*
X5409000Y-12192000D02*
G75*
G03*
X5409000Y-12192000I-75000J0D01*
G01*
X6656000Y-4751000D02*
X6806000Y-4901000D01*
X6806000Y-4751000D02*
X6656000Y-4901000D01*
X6806000Y-4826000D02*
G75*
G03*
X6806000Y-4826000I-75000J0D01*
G01*
X6656000Y-12371000D02*
X6806000Y-12521000D01*
X6806000Y-12371000D02*
X6656000Y-12521000D01*
X6806000Y-12446000D02*
G75*
G03*
X6806000Y-12446000I-75000J0D01*
G01*
X7291000Y-4497000D02*
X7441000Y-4647000D01*
X7441000Y-4497000D02*
X7291000Y-4647000D01*
X7441000Y-4572000D02*
G75*
G03*
X7441000Y-4572000I-75000J0D01*
G01*
X7291000Y-12117000D02*
X7441000Y-12267000D01*
X7441000Y-12117000D02*
X7291000Y-12267000D01*
X7441000Y-12192000D02*
G75*
G03*
X7441000Y-12192000I-75000J0D01*
G01*
X9450000Y-4751000D02*
X9600000Y-4901000D01*
X9600000Y-4751000D02*
X9450000Y-4901000D01*
X9600000Y-4826000D02*
G75*
G03*
X9600000Y-4826000I-75000J0D01*
G01*
X9450000Y-12371000D02*
X9600000Y-12521000D01*
X9600000Y-12371000D02*
X9450000Y-12521000D01*
X9600000Y-12446000D02*
G75*
G03*
X9600000Y-12446000I-75000J0D01*
G01*
X10085000Y-4497000D02*
X10235000Y-4647000D01*
X10235000Y-4497000D02*
X10085000Y-4647000D01*
X10235000Y-4572000D02*
G75*
G03*
X10235000Y-4572000I-75000J0D01*
G01*
X10085000Y-12117000D02*
X10235000Y-12267000D01*
X10235000Y-12117000D02*
X10085000Y-12267000D01*
X10235000Y-12192000D02*
G75*
G03*
X10235000Y-12192000I-75000J0D01*
G01*
X11482000Y-4751000D02*
X11632000Y-4901000D01*
X11632000Y-4751000D02*
X11482000Y-4901000D01*
X11632000Y-4826000D02*
G75*
G03*
X11632000Y-4826000I-75000J0D01*
G01*
X11482000Y-12371000D02*
X11632000Y-12521000D01*
X11632000Y-12371000D02*
X11482000Y-12521000D01*
X11632000Y-12446000D02*
G75*
G03*
X11632000Y-12446000I-75000J0D01*
G01*
X12117000Y-4497000D02*
X12267000Y-4647000D01*
X12267000Y-4497000D02*
X12117000Y-4647000D01*
X12267000Y-4572000D02*
G75*
G03*
X12267000Y-4572000I-75000J0D01*
G01*
X12117000Y-12117000D02*
X12267000Y-12267000D01*
X12267000Y-12117000D02*
X12117000Y-12267000D01*
X12267000Y-12192000D02*
G75*
G03*
X12267000Y-12192000I-75000J0D01*
G01*
X14276000Y-4751000D02*
X14426000Y-4901000D01*
X14426000Y-4751000D02*
X14276000Y-4901000D01*
X14426000Y-4826000D02*
G75*
G03*
X14426000Y-4826000I-75000J0D01*
G01*
X14276000Y-12371000D02*
X14426000Y-12521000D01*
X14426000Y-12371000D02*
X14276000Y-12521000D01*
X14426000Y-12446000D02*
G75*
G03*
X14426000Y-12446000I-75000J0D01*
G01*
X14911000Y-4497000D02*
X15061000Y-4647000D01*
X15061000Y-4497000D02*
X14911000Y-4647000D01*
X15061000Y-4572000D02*
G75*
G03*
X15061000Y-4572000I-75000J0D01*
G01*
X14911000Y-12117000D02*
X15061000Y-12267000D01*
X15061000Y-12117000D02*
X14911000Y-12267000D01*
X15061000Y-12192000D02*
G75*
G03*
X15061000Y-12192000I-75000J0D01*
G01*
X16308000Y-4751000D02*
X16458000Y-4901000D01*
X16458000Y-4751000D02*
X16308000Y-4901000D01*
X16458000Y-4826000D02*
G75*
G03*
X16458000Y-4826000I-75000J0D01*
G01*
X16308000Y-12371000D02*
X16458000Y-12521000D01*
X16458000Y-12371000D02*
X16308000Y-12521000D01*
X16458000Y-12446000D02*
G75*
G03*
X16458000Y-12446000I-75000J0D01*
G01*
X16943000Y-4497000D02*
X17093000Y-4647000D01*
X17093000Y-4497000D02*
X16943000Y-4647000D01*
X17093000Y-4572000D02*
G75*
G03*
X17093000Y-4572000I-75000J0D01*
G01*
X16943000Y-12117000D02*
X17093000Y-12267000D01*
X17093000Y-12117000D02*
X16943000Y-12267000D01*
X17093000Y-12192000D02*
G75*
G03*
X17093000Y-12192000I-75000J0D01*
G01*
X19102000Y-4751000D02*
X19252000Y-4901000D01*
X19252000Y-4751000D02*
X19102000Y-4901000D01*
X19252000Y-4826000D02*
G75*
G03*
X19252000Y-4826000I-75000J0D01*
G01*
X19102000Y-12371000D02*
X19252000Y-12521000D01*
X19252000Y-12371000D02*
X19102000Y-12521000D01*
X19252000Y-12446000D02*
G75*
G03*
X19252000Y-12446000I-75000J0D01*
G01*
X19737000Y-4497000D02*
X19887000Y-4647000D01*
X19887000Y-4497000D02*
X19737000Y-4647000D01*
X19887000Y-4572000D02*
G75*
G03*
X19887000Y-4572000I-75000J0D01*
G01*
X19737000Y-12117000D02*
X19887000Y-12267000D01*
X19887000Y-12117000D02*
X19737000Y-12267000D01*
X19887000Y-12192000D02*
G75*
G03*
X19887000Y-12192000I-75000J0D01*
G01*
X21134000Y-4751000D02*
X21284000Y-4901000D01*
X21284000Y-4751000D02*
X21134000Y-4901000D01*
X21284000Y-4826000D02*
G75*
G03*
X21284000Y-4826000I-75000J0D01*
G01*
X21134000Y-12371000D02*
X21284000Y-12521000D01*
X21284000Y-12371000D02*
X21134000Y-12521000D01*
X21284000Y-12446000D02*
G75*
G03*
X21284000Y-12446000I-75000J0D01*
G01*
X21769000Y-4497000D02*
X21919000Y-4647000D01*
X21919000Y-4497000D02*
X21769000Y-4647000D01*
X21919000Y-4572000D02*
G75*
G03*
X21919000Y-4572000I-75000J0D01*
G01*
X21769000Y-12117000D02*
X21919000Y-12267000D01*
X21919000Y-12117000D02*
X21769000Y-12267000D01*
X21919000Y-12192000D02*
G75*
G03*
X21919000Y-12192000I-75000J0D01*
G01*
D17*
X5426000Y-8755000D02*
X5646000Y-8975000D01*
X5646000Y-8755000D02*
X5426000Y-8975000D01*
X5536000Y-8755000D02*
X5536000Y-8975000D01*
X5426000Y-8865000D02*
X5646000Y-8865000D01*
X6546000Y-8755000D02*
X6766000Y-8975000D01*
X6766000Y-8755000D02*
X6546000Y-8975000D01*
X6656000Y-8755000D02*
X6656000Y-8975000D01*
X6546000Y-8865000D02*
X6766000Y-8865000D01*
X10252000Y-8755000D02*
X10472000Y-8975000D01*
X10472000Y-8755000D02*
X10252000Y-8975000D01*
X10362000Y-8755000D02*
X10362000Y-8975000D01*
X10252000Y-8865000D02*
X10472000Y-8865000D01*
X11372000Y-8755000D02*
X11592000Y-8975000D01*
X11592000Y-8755000D02*
X11372000Y-8975000D01*
X11482000Y-8755000D02*
X11482000Y-8975000D01*
X11372000Y-8865000D02*
X11592000Y-8865000D01*
X15078000Y-8755000D02*
X15298000Y-8975000D01*
X15298000Y-8755000D02*
X15078000Y-8975000D01*
X15188000Y-8755000D02*
X15188000Y-8975000D01*
X15078000Y-8865000D02*
X15298000Y-8865000D01*
X16198000Y-8755000D02*
X16418000Y-8975000D01*
X16418000Y-8755000D02*
X16198000Y-8975000D01*
X16308000Y-8755000D02*
X16308000Y-8975000D01*
X16198000Y-8865000D02*
X16418000Y-8865000D01*
X19904000Y-8755000D02*
X20124000Y-8975000D01*
X20124000Y-8755000D02*
X19904000Y-8975000D01*
X20014000Y-8755000D02*
X20014000Y-8975000D01*
X19904000Y-8865000D02*
X20124000Y-8865000D01*
X21024000Y-8755000D02*
X21244000Y-8975000D01*
X21244000Y-8755000D02*
X21024000Y-8975000D01*
X21134000Y-8755000D02*
X21134000Y-8975000D01*
X21024000Y-8865000D02*
X21244000Y-8865000D01*
D18*
X4880000Y-4880000D02*
X5280000Y-5280000D01*
X5280000Y-4880000D02*
X4880000Y-5280000D01*
X5221423Y-5221423D02*
X5221423Y-4938577D01*
X4938577Y-4938577D01*
X4938577Y-5221423D01*
X5221423Y-5221423D01*
X4880000Y-12500000D02*
X5280000Y-12900000D01*
X5280000Y-12500000D02*
X4880000Y-12900000D01*
X5221423Y-12841423D02*
X5221423Y-12558577D01*
X4938577Y-12558577D01*
X4938577Y-12841423D01*
X5221423Y-12841423D01*
X6912000Y-4880000D02*
X7312000Y-5280000D01*
X7312000Y-4880000D02*
X6912000Y-5280000D01*
X7253423Y-5221423D02*
X7253423Y-4938577D01*
X6970577Y-4938577D01*
X6970577Y-5221423D01*
X7253423Y-5221423D01*
X6912000Y-12500000D02*
X7312000Y-12900000D01*
X7312000Y-12500000D02*
X6912000Y-12900000D01*
X7253423Y-12841423D02*
X7253423Y-12558577D01*
X6970577Y-12558577D01*
X6970577Y-12841423D01*
X7253423Y-12841423D01*
X9706000Y-4880000D02*
X10106000Y-5280000D01*
X10106000Y-4880000D02*
X9706000Y-5280000D01*
X10047423Y-5221423D02*
X10047423Y-4938577D01*
X9764577Y-4938577D01*
X9764577Y-5221423D01*
X10047423Y-5221423D01*
X9706000Y-12500000D02*
X10106000Y-12900000D01*
X10106000Y-12500000D02*
X9706000Y-12900000D01*
X10047423Y-12841423D02*
X10047423Y-12558577D01*
X9764577Y-12558577D01*
X9764577Y-12841423D01*
X10047423Y-12841423D01*
X11738000Y-4880000D02*
X12138000Y-5280000D01*
X12138000Y-4880000D02*
X11738000Y-5280000D01*
X12079423Y-5221423D02*
X12079423Y-4938577D01*
X11796577Y-4938577D01*
X11796577Y-5221423D01*
X12079423Y-5221423D01*
X11738000Y-12500000D02*
X12138000Y-12900000D01*
X12138000Y-12500000D02*
X11738000Y-12900000D01*
X12079423Y-12841423D02*
X12079423Y-12558577D01*
X11796577Y-12558577D01*
X11796577Y-12841423D01*
X12079423Y-12841423D01*
X14532000Y-4880000D02*
X14932000Y-5280000D01*
X14932000Y-4880000D02*
X14532000Y-5280000D01*
X14873423Y-5221423D02*
X14873423Y-4938577D01*
X14590577Y-4938577D01*
X14590577Y-5221423D01*
X14873423Y-5221423D01*
X14532000Y-12500000D02*
X14932000Y-12900000D01*
X14932000Y-12500000D02*
X14532000Y-12900000D01*
X14873423Y-12841423D02*
X14873423Y-12558577D01*
X14590577Y-12558577D01*
X14590577Y-12841423D01*
X14873423Y-12841423D01*
X16564000Y-4880000D02*
X16964000Y-5280000D01*
X16964000Y-4880000D02*
X16564000Y-5280000D01*
X16905423Y-5221423D02*
X16905423Y-4938577D01*
X16622577Y-4938577D01*
X16622577Y-5221423D01*
X16905423Y-5221423D01*
X16564000Y-12500000D02*
X16964000Y-12900000D01*
X16964000Y-12500000D02*
X16564000Y-12900000D01*
X16905423Y-12841423D02*
X16905423Y-12558577D01*
X16622577Y-12558577D01*
X16622577Y-12841423D01*
X16905423Y-12841423D01*
X19358000Y-4880000D02*
X19758000Y-5280000D01*
X19758000Y-4880000D02*
X19358000Y-5280000D01*
X19699423Y-5221423D02*
X19699423Y-4938577D01*
X19416577Y-4938577D01*
X19416577Y-5221423D01*
X19699423Y-5221423D01*
X19358000Y-12500000D02*
X19758000Y-12900000D01*
X19758000Y-12500000D02*
X19358000Y-12900000D01*
X19699423Y-12841423D02*
X19699423Y-12558577D01*
X19416577Y-12558577D01*
X19416577Y-12841423D01*
X19699423Y-12841423D01*
X21390000Y-4880000D02*
X21790000Y-5280000D01*
X21790000Y-4880000D02*
X21390000Y-5280000D01*
X21731423Y-5221423D02*
X21731423Y-4938577D01*
X21448577Y-4938577D01*
X21448577Y-5221423D01*
X21731423Y-5221423D01*
X21390000Y-12500000D02*
X21790000Y-12900000D01*
X21790000Y-12500000D02*
X21390000Y-12900000D01*
X21731423Y-12841423D02*
X21731423Y-12558577D01*
X21448577Y-12558577D01*
X21448577Y-12841423D01*
X21731423Y-12841423D01*
D11*
X4192777Y-14159484D02*
X4192777Y-13959484D01*
X4192777Y-13959484D02*
X4240396Y-13959484D01*
X4240396Y-13959484D02*
X4268967Y-13969008D01*
X4268967Y-13969008D02*
X4288015Y-13988055D01*
X4288015Y-13988055D02*
X4297539Y-14007103D01*
X4297539Y-14007103D02*
X4307063Y-14045198D01*
X4307063Y-14045198D02*
X4307063Y-14073769D01*
X4307063Y-14073769D02*
X4297539Y-14111865D01*
X4297539Y-14111865D02*
X4288015Y-14130912D01*
X4288015Y-14130912D02*
X4268967Y-14149960D01*
X4268967Y-14149960D02*
X4240396Y-14159484D01*
X4240396Y-14159484D02*
X4192777Y-14159484D01*
X4392777Y-14159484D02*
X4392777Y-14026150D01*
X4392777Y-14064246D02*
X4402301Y-14045198D01*
X4402301Y-14045198D02*
X4411824Y-14035674D01*
X4411824Y-14035674D02*
X4430872Y-14026150D01*
X4430872Y-14026150D02*
X4449920Y-14026150D01*
X4516586Y-14159484D02*
X4516586Y-14026150D01*
X4516586Y-13959484D02*
X4507063Y-13969008D01*
X4507063Y-13969008D02*
X4516586Y-13978531D01*
X4516586Y-13978531D02*
X4526110Y-13969008D01*
X4526110Y-13969008D02*
X4516586Y-13959484D01*
X4516586Y-13959484D02*
X4516586Y-13978531D01*
X4640396Y-14159484D02*
X4621348Y-14149960D01*
X4621348Y-14149960D02*
X4611824Y-14130912D01*
X4611824Y-14130912D02*
X4611824Y-13959484D01*
X4745158Y-14159484D02*
X4726110Y-14149960D01*
X4726110Y-14149960D02*
X4716586Y-14130912D01*
X4716586Y-14130912D02*
X4716586Y-13959484D01*
X4973729Y-14159484D02*
X4973729Y-13959484D01*
X4973729Y-13959484D02*
X5040396Y-14102341D01*
X5040396Y-14102341D02*
X5107063Y-13959484D01*
X5107063Y-13959484D02*
X5107063Y-14159484D01*
X5288015Y-14159484D02*
X5288015Y-14054722D01*
X5288015Y-14054722D02*
X5278491Y-14035674D01*
X5278491Y-14035674D02*
X5259444Y-14026150D01*
X5259444Y-14026150D02*
X5221348Y-14026150D01*
X5221348Y-14026150D02*
X5202301Y-14035674D01*
X5288015Y-14149960D02*
X5268967Y-14159484D01*
X5268967Y-14159484D02*
X5221348Y-14159484D01*
X5221348Y-14159484D02*
X5202301Y-14149960D01*
X5202301Y-14149960D02*
X5192777Y-14130912D01*
X5192777Y-14130912D02*
X5192777Y-14111865D01*
X5192777Y-14111865D02*
X5202301Y-14092817D01*
X5202301Y-14092817D02*
X5221348Y-14083293D01*
X5221348Y-14083293D02*
X5268967Y-14083293D01*
X5268967Y-14083293D02*
X5288015Y-14073769D01*
X5383253Y-14026150D02*
X5383253Y-14226150D01*
X5383253Y-14035674D02*
X5402301Y-14026150D01*
X5402301Y-14026150D02*
X5440396Y-14026150D01*
X5440396Y-14026150D02*
X5459444Y-14035674D01*
X5459444Y-14035674D02*
X5468967Y-14045198D01*
X5468967Y-14045198D02*
X5478491Y-14064246D01*
X5478491Y-14064246D02*
X5478491Y-14121388D01*
X5478491Y-14121388D02*
X5468967Y-14140436D01*
X5468967Y-14140436D02*
X5459444Y-14149960D01*
X5459444Y-14149960D02*
X5440396Y-14159484D01*
X5440396Y-14159484D02*
X5402301Y-14159484D01*
X5402301Y-14159484D02*
X5383253Y-14149960D01*
X5564205Y-14140436D02*
X5573729Y-14149960D01*
X5573729Y-14149960D02*
X5564205Y-14159484D01*
X5564205Y-14159484D02*
X5554682Y-14149960D01*
X5554682Y-14149960D02*
X5564205Y-14140436D01*
X5564205Y-14140436D02*
X5564205Y-14159484D01*
X5564205Y-14035674D02*
X5573729Y-14045198D01*
X5573729Y-14045198D02*
X5564205Y-14054722D01*
X5564205Y-14054722D02*
X5554682Y-14045198D01*
X5554682Y-14045198D02*
X5564205Y-14035674D01*
X5564205Y-14035674D02*
X5564205Y-14054722D01*
D12*
X3892000Y-14468000D02*
X3932000Y-14508000D01*
X3932000Y-14468000D02*
X3892000Y-14508000D01*
D11*
X4230872Y-14379484D02*
X4249920Y-14379484D01*
X4249920Y-14379484D02*
X4268967Y-14389008D01*
X4268967Y-14389008D02*
X4278491Y-14398531D01*
X4278491Y-14398531D02*
X4288015Y-14417579D01*
X4288015Y-14417579D02*
X4297539Y-14455674D01*
X4297539Y-14455674D02*
X4297539Y-14503293D01*
X4297539Y-14503293D02*
X4288015Y-14541388D01*
X4288015Y-14541388D02*
X4278491Y-14560436D01*
X4278491Y-14560436D02*
X4268967Y-14569960D01*
X4268967Y-14569960D02*
X4249920Y-14579484D01*
X4249920Y-14579484D02*
X4230872Y-14579484D01*
X4230872Y-14579484D02*
X4211824Y-14569960D01*
X4211824Y-14569960D02*
X4202301Y-14560436D01*
X4202301Y-14560436D02*
X4192777Y-14541388D01*
X4192777Y-14541388D02*
X4183253Y-14503293D01*
X4183253Y-14503293D02*
X4183253Y-14455674D01*
X4183253Y-14455674D02*
X4192777Y-14417579D01*
X4192777Y-14417579D02*
X4202301Y-14398531D01*
X4202301Y-14398531D02*
X4211824Y-14389008D01*
X4211824Y-14389008D02*
X4230872Y-14379484D01*
X4383253Y-14560436D02*
X4392777Y-14569960D01*
X4392777Y-14569960D02*
X4383253Y-14579484D01*
X4383253Y-14579484D02*
X4373729Y-14569960D01*
X4373729Y-14569960D02*
X4383253Y-14560436D01*
X4383253Y-14560436D02*
X4383253Y-14579484D01*
X4564205Y-14446150D02*
X4564205Y-14579484D01*
X4516586Y-14369960D02*
X4468967Y-14512817D01*
X4468967Y-14512817D02*
X4592777Y-14512817D01*
X4707063Y-14379484D02*
X4726110Y-14379484D01*
X4726110Y-14379484D02*
X4745158Y-14389008D01*
X4745158Y-14389008D02*
X4754682Y-14398531D01*
X4754682Y-14398531D02*
X4764205Y-14417579D01*
X4764205Y-14417579D02*
X4773729Y-14455674D01*
X4773729Y-14455674D02*
X4773729Y-14503293D01*
X4773729Y-14503293D02*
X4764205Y-14541388D01*
X4764205Y-14541388D02*
X4754682Y-14560436D01*
X4754682Y-14560436D02*
X4745158Y-14569960D01*
X4745158Y-14569960D02*
X4726110Y-14579484D01*
X4726110Y-14579484D02*
X4707063Y-14579484D01*
X4707063Y-14579484D02*
X4688015Y-14569960D01*
X4688015Y-14569960D02*
X4678491Y-14560436D01*
X4678491Y-14560436D02*
X4668967Y-14541388D01*
X4668967Y-14541388D02*
X4659444Y-14503293D01*
X4659444Y-14503293D02*
X4659444Y-14455674D01*
X4659444Y-14455674D02*
X4668967Y-14417579D01*
X4668967Y-14417579D02*
X4678491Y-14398531D01*
X4678491Y-14398531D02*
X4688015Y-14389008D01*
X4688015Y-14389008D02*
X4707063Y-14379484D01*
X4897539Y-14379484D02*
X4916586Y-14379484D01*
X4916586Y-14379484D02*
X4935634Y-14389008D01*
X4935634Y-14389008D02*
X4945158Y-14398531D01*
X4945158Y-14398531D02*
X4954682Y-14417579D01*
X4954682Y-14417579D02*
X4964205Y-14455674D01*
X4964205Y-14455674D02*
X4964205Y-14503293D01*
X4964205Y-14503293D02*
X4954682Y-14541388D01*
X4954682Y-14541388D02*
X4945158Y-14560436D01*
X4945158Y-14560436D02*
X4935634Y-14569960D01*
X4935634Y-14569960D02*
X4916586Y-14579484D01*
X4916586Y-14579484D02*
X4897539Y-14579484D01*
X4897539Y-14579484D02*
X4878491Y-14569960D01*
X4878491Y-14569960D02*
X4868967Y-14560436D01*
X4868967Y-14560436D02*
X4859444Y-14541388D01*
X4859444Y-14541388D02*
X4849920Y-14503293D01*
X4849920Y-14503293D02*
X4849920Y-14455674D01*
X4849920Y-14455674D02*
X4859444Y-14417579D01*
X4859444Y-14417579D02*
X4868967Y-14398531D01*
X4868967Y-14398531D02*
X4878491Y-14389008D01*
X4878491Y-14389008D02*
X4897539Y-14379484D01*
X5049920Y-14579484D02*
X5049920Y-14446150D01*
X5049920Y-14465198D02*
X5059444Y-14455674D01*
X5059444Y-14455674D02*
X5078491Y-14446150D01*
X5078491Y-14446150D02*
X5107063Y-14446150D01*
X5107063Y-14446150D02*
X5126110Y-14455674D01*
X5126110Y-14455674D02*
X5135634Y-14474722D01*
X5135634Y-14474722D02*
X5135634Y-14579484D01*
X5135634Y-14474722D02*
X5145158Y-14455674D01*
X5145158Y-14455674D02*
X5164205Y-14446150D01*
X5164205Y-14446150D02*
X5192777Y-14446150D01*
X5192777Y-14446150D02*
X5211825Y-14455674D01*
X5211825Y-14455674D02*
X5221348Y-14474722D01*
X5221348Y-14474722D02*
X5221348Y-14579484D01*
X5316586Y-14579484D02*
X5316586Y-14446150D01*
X5316586Y-14465198D02*
X5326110Y-14455674D01*
X5326110Y-14455674D02*
X5345158Y-14446150D01*
X5345158Y-14446150D02*
X5373729Y-14446150D01*
X5373729Y-14446150D02*
X5392777Y-14455674D01*
X5392777Y-14455674D02*
X5402301Y-14474722D01*
X5402301Y-14474722D02*
X5402301Y-14579484D01*
X5402301Y-14474722D02*
X5411825Y-14455674D01*
X5411825Y-14455674D02*
X5430872Y-14446150D01*
X5430872Y-14446150D02*
X5459444Y-14446150D01*
X5459444Y-14446150D02*
X5478491Y-14455674D01*
X5478491Y-14455674D02*
X5488015Y-14474722D01*
X5488015Y-14474722D02*
X5488015Y-14579484D01*
X5878491Y-14369960D02*
X5707063Y-14627103D01*
X6135634Y-14379484D02*
X6154682Y-14379484D01*
X6154682Y-14379484D02*
X6173729Y-14389008D01*
X6173729Y-14389008D02*
X6183253Y-14398531D01*
X6183253Y-14398531D02*
X6192777Y-14417579D01*
X6192777Y-14417579D02*
X6202301Y-14455674D01*
X6202301Y-14455674D02*
X6202301Y-14503293D01*
X6202301Y-14503293D02*
X6192777Y-14541388D01*
X6192777Y-14541388D02*
X6183253Y-14560436D01*
X6183253Y-14560436D02*
X6173729Y-14569960D01*
X6173729Y-14569960D02*
X6154682Y-14579484D01*
X6154682Y-14579484D02*
X6135634Y-14579484D01*
X6135634Y-14579484D02*
X6116586Y-14569960D01*
X6116586Y-14569960D02*
X6107063Y-14560436D01*
X6107063Y-14560436D02*
X6097539Y-14541388D01*
X6097539Y-14541388D02*
X6088015Y-14503293D01*
X6088015Y-14503293D02*
X6088015Y-14455674D01*
X6088015Y-14455674D02*
X6097539Y-14417579D01*
X6097539Y-14417579D02*
X6107063Y-14398531D01*
X6107063Y-14398531D02*
X6116586Y-14389008D01*
X6116586Y-14389008D02*
X6135634Y-14379484D01*
X6288015Y-14560436D02*
X6297539Y-14569960D01*
X6297539Y-14569960D02*
X6288015Y-14579484D01*
X6288015Y-14579484D02*
X6278491Y-14569960D01*
X6278491Y-14569960D02*
X6288015Y-14560436D01*
X6288015Y-14560436D02*
X6288015Y-14579484D01*
X6421348Y-14379484D02*
X6440396Y-14379484D01*
X6440396Y-14379484D02*
X6459444Y-14389008D01*
X6459444Y-14389008D02*
X6468967Y-14398531D01*
X6468967Y-14398531D02*
X6478491Y-14417579D01*
X6478491Y-14417579D02*
X6488015Y-14455674D01*
X6488015Y-14455674D02*
X6488015Y-14503293D01*
X6488015Y-14503293D02*
X6478491Y-14541388D01*
X6478491Y-14541388D02*
X6468967Y-14560436D01*
X6468967Y-14560436D02*
X6459444Y-14569960D01*
X6459444Y-14569960D02*
X6440396Y-14579484D01*
X6440396Y-14579484D02*
X6421348Y-14579484D01*
X6421348Y-14579484D02*
X6402301Y-14569960D01*
X6402301Y-14569960D02*
X6392777Y-14560436D01*
X6392777Y-14560436D02*
X6383253Y-14541388D01*
X6383253Y-14541388D02*
X6373729Y-14503293D01*
X6373729Y-14503293D02*
X6373729Y-14455674D01*
X6373729Y-14455674D02*
X6383253Y-14417579D01*
X6383253Y-14417579D02*
X6392777Y-14398531D01*
X6392777Y-14398531D02*
X6402301Y-14389008D01*
X6402301Y-14389008D02*
X6421348Y-14379484D01*
X6678491Y-14579484D02*
X6564206Y-14579484D01*
X6621348Y-14579484D02*
X6621348Y-14379484D01*
X6621348Y-14379484D02*
X6602301Y-14408055D01*
X6602301Y-14408055D02*
X6583253Y-14427103D01*
X6583253Y-14427103D02*
X6564206Y-14436627D01*
X6859444Y-14379484D02*
X6764206Y-14379484D01*
X6764206Y-14379484D02*
X6754682Y-14474722D01*
X6754682Y-14474722D02*
X6764206Y-14465198D01*
X6764206Y-14465198D02*
X6783253Y-14455674D01*
X6783253Y-14455674D02*
X6830872Y-14455674D01*
X6830872Y-14455674D02*
X6849920Y-14465198D01*
X6849920Y-14465198D02*
X6859444Y-14474722D01*
X6859444Y-14474722D02*
X6868967Y-14493769D01*
X6868967Y-14493769D02*
X6868967Y-14541388D01*
X6868967Y-14541388D02*
X6859444Y-14560436D01*
X6859444Y-14560436D02*
X6849920Y-14569960D01*
X6849920Y-14569960D02*
X6830872Y-14579484D01*
X6830872Y-14579484D02*
X6783253Y-14579484D01*
X6783253Y-14579484D02*
X6764206Y-14569960D01*
X6764206Y-14569960D02*
X6754682Y-14560436D01*
X6935634Y-14379484D02*
X7068967Y-14379484D01*
X7068967Y-14379484D02*
X6983253Y-14579484D01*
X7135634Y-14379484D02*
X7135634Y-14417579D01*
X7211825Y-14379484D02*
X7211825Y-14417579D01*
X7507063Y-14655674D02*
X7497539Y-14646150D01*
X7497539Y-14646150D02*
X7478491Y-14617579D01*
X7478491Y-14617579D02*
X7468968Y-14598531D01*
X7468968Y-14598531D02*
X7459444Y-14569960D01*
X7459444Y-14569960D02*
X7449920Y-14522341D01*
X7449920Y-14522341D02*
X7449920Y-14484246D01*
X7449920Y-14484246D02*
X7459444Y-14436627D01*
X7459444Y-14436627D02*
X7468968Y-14408055D01*
X7468968Y-14408055D02*
X7478491Y-14389008D01*
X7478491Y-14389008D02*
X7497539Y-14360436D01*
X7497539Y-14360436D02*
X7507063Y-14350912D01*
X7573729Y-14398531D02*
X7583253Y-14389008D01*
X7583253Y-14389008D02*
X7602301Y-14379484D01*
X7602301Y-14379484D02*
X7649920Y-14379484D01*
X7649920Y-14379484D02*
X7668968Y-14389008D01*
X7668968Y-14389008D02*
X7678491Y-14398531D01*
X7678491Y-14398531D02*
X7688015Y-14417579D01*
X7688015Y-14417579D02*
X7688015Y-14436627D01*
X7688015Y-14436627D02*
X7678491Y-14465198D01*
X7678491Y-14465198D02*
X7564206Y-14579484D01*
X7564206Y-14579484D02*
X7688015Y-14579484D01*
X7926110Y-14579484D02*
X7926110Y-14379484D01*
X8011825Y-14579484D02*
X8011825Y-14474722D01*
X8011825Y-14474722D02*
X8002301Y-14455674D01*
X8002301Y-14455674D02*
X7983253Y-14446150D01*
X7983253Y-14446150D02*
X7954682Y-14446150D01*
X7954682Y-14446150D02*
X7935634Y-14455674D01*
X7935634Y-14455674D02*
X7926110Y-14465198D01*
X8135634Y-14579484D02*
X8116587Y-14569960D01*
X8116587Y-14569960D02*
X8107063Y-14560436D01*
X8107063Y-14560436D02*
X8097539Y-14541388D01*
X8097539Y-14541388D02*
X8097539Y-14484246D01*
X8097539Y-14484246D02*
X8107063Y-14465198D01*
X8107063Y-14465198D02*
X8116587Y-14455674D01*
X8116587Y-14455674D02*
X8135634Y-14446150D01*
X8135634Y-14446150D02*
X8164206Y-14446150D01*
X8164206Y-14446150D02*
X8183253Y-14455674D01*
X8183253Y-14455674D02*
X8192777Y-14465198D01*
X8192777Y-14465198D02*
X8202301Y-14484246D01*
X8202301Y-14484246D02*
X8202301Y-14541388D01*
X8202301Y-14541388D02*
X8192777Y-14560436D01*
X8192777Y-14560436D02*
X8183253Y-14569960D01*
X8183253Y-14569960D02*
X8164206Y-14579484D01*
X8164206Y-14579484D02*
X8135634Y-14579484D01*
X8316587Y-14579484D02*
X8297539Y-14569960D01*
X8297539Y-14569960D02*
X8288015Y-14550912D01*
X8288015Y-14550912D02*
X8288015Y-14379484D01*
X8468968Y-14569960D02*
X8449920Y-14579484D01*
X8449920Y-14579484D02*
X8411825Y-14579484D01*
X8411825Y-14579484D02*
X8392777Y-14569960D01*
X8392777Y-14569960D02*
X8383253Y-14550912D01*
X8383253Y-14550912D02*
X8383253Y-14474722D01*
X8383253Y-14474722D02*
X8392777Y-14455674D01*
X8392777Y-14455674D02*
X8411825Y-14446150D01*
X8411825Y-14446150D02*
X8449920Y-14446150D01*
X8449920Y-14446150D02*
X8468968Y-14455674D01*
X8468968Y-14455674D02*
X8478492Y-14474722D01*
X8478492Y-14474722D02*
X8478492Y-14493769D01*
X8478492Y-14493769D02*
X8383253Y-14512817D01*
X8554682Y-14569960D02*
X8573730Y-14579484D01*
X8573730Y-14579484D02*
X8611825Y-14579484D01*
X8611825Y-14579484D02*
X8630873Y-14569960D01*
X8630873Y-14569960D02*
X8640396Y-14550912D01*
X8640396Y-14550912D02*
X8640396Y-14541388D01*
X8640396Y-14541388D02*
X8630873Y-14522341D01*
X8630873Y-14522341D02*
X8611825Y-14512817D01*
X8611825Y-14512817D02*
X8583253Y-14512817D01*
X8583253Y-14512817D02*
X8564206Y-14503293D01*
X8564206Y-14503293D02*
X8554682Y-14484246D01*
X8554682Y-14484246D02*
X8554682Y-14474722D01*
X8554682Y-14474722D02*
X8564206Y-14455674D01*
X8564206Y-14455674D02*
X8583253Y-14446150D01*
X8583253Y-14446150D02*
X8611825Y-14446150D01*
X8611825Y-14446150D02*
X8630873Y-14455674D01*
X8707063Y-14655674D02*
X8716587Y-14646150D01*
X8716587Y-14646150D02*
X8735634Y-14617579D01*
X8735634Y-14617579D02*
X8745158Y-14598531D01*
X8745158Y-14598531D02*
X8754682Y-14569960D01*
X8754682Y-14569960D02*
X8764206Y-14522341D01*
X8764206Y-14522341D02*
X8764206Y-14484246D01*
X8764206Y-14484246D02*
X8754682Y-14436627D01*
X8754682Y-14436627D02*
X8745158Y-14408055D01*
X8745158Y-14408055D02*
X8735634Y-14389008D01*
X8735634Y-14389008D02*
X8716587Y-14360436D01*
X8716587Y-14360436D02*
X8707063Y-14350912D01*
D13*
X3932000Y-14752000D02*
G75*
G03*
X3932000Y-14752000I-38100J0D01*
G01*
D11*
X4230872Y-14643484D02*
X4249920Y-14643484D01*
X4249920Y-14643484D02*
X4268967Y-14653008D01*
X4268967Y-14653008D02*
X4278491Y-14662531D01*
X4278491Y-14662531D02*
X4288015Y-14681579D01*
X4288015Y-14681579D02*
X4297539Y-14719674D01*
X4297539Y-14719674D02*
X4297539Y-14767293D01*
X4297539Y-14767293D02*
X4288015Y-14805388D01*
X4288015Y-14805388D02*
X4278491Y-14824436D01*
X4278491Y-14824436D02*
X4268967Y-14833960D01*
X4268967Y-14833960D02*
X4249920Y-14843484D01*
X4249920Y-14843484D02*
X4230872Y-14843484D01*
X4230872Y-14843484D02*
X4211824Y-14833960D01*
X4211824Y-14833960D02*
X4202301Y-14824436D01*
X4202301Y-14824436D02*
X4192777Y-14805388D01*
X4192777Y-14805388D02*
X4183253Y-14767293D01*
X4183253Y-14767293D02*
X4183253Y-14719674D01*
X4183253Y-14719674D02*
X4192777Y-14681579D01*
X4192777Y-14681579D02*
X4202301Y-14662531D01*
X4202301Y-14662531D02*
X4211824Y-14653008D01*
X4211824Y-14653008D02*
X4230872Y-14643484D01*
X4383253Y-14824436D02*
X4392777Y-14833960D01*
X4392777Y-14833960D02*
X4383253Y-14843484D01*
X4383253Y-14843484D02*
X4373729Y-14833960D01*
X4373729Y-14833960D02*
X4383253Y-14824436D01*
X4383253Y-14824436D02*
X4383253Y-14843484D01*
X4459444Y-14643484D02*
X4592777Y-14643484D01*
X4592777Y-14643484D02*
X4507063Y-14843484D01*
X4754682Y-14643484D02*
X4716586Y-14643484D01*
X4716586Y-14643484D02*
X4697539Y-14653008D01*
X4697539Y-14653008D02*
X4688015Y-14662531D01*
X4688015Y-14662531D02*
X4668967Y-14691103D01*
X4668967Y-14691103D02*
X4659444Y-14729198D01*
X4659444Y-14729198D02*
X4659444Y-14805388D01*
X4659444Y-14805388D02*
X4668967Y-14824436D01*
X4668967Y-14824436D02*
X4678491Y-14833960D01*
X4678491Y-14833960D02*
X4697539Y-14843484D01*
X4697539Y-14843484D02*
X4735634Y-14843484D01*
X4735634Y-14843484D02*
X4754682Y-14833960D01*
X4754682Y-14833960D02*
X4764205Y-14824436D01*
X4764205Y-14824436D02*
X4773729Y-14805388D01*
X4773729Y-14805388D02*
X4773729Y-14757769D01*
X4773729Y-14757769D02*
X4764205Y-14738722D01*
X4764205Y-14738722D02*
X4754682Y-14729198D01*
X4754682Y-14729198D02*
X4735634Y-14719674D01*
X4735634Y-14719674D02*
X4697539Y-14719674D01*
X4697539Y-14719674D02*
X4678491Y-14729198D01*
X4678491Y-14729198D02*
X4668967Y-14738722D01*
X4668967Y-14738722D02*
X4659444Y-14757769D01*
X4849920Y-14662531D02*
X4859444Y-14653008D01*
X4859444Y-14653008D02*
X4878491Y-14643484D01*
X4878491Y-14643484D02*
X4926110Y-14643484D01*
X4926110Y-14643484D02*
X4945158Y-14653008D01*
X4945158Y-14653008D02*
X4954682Y-14662531D01*
X4954682Y-14662531D02*
X4964205Y-14681579D01*
X4964205Y-14681579D02*
X4964205Y-14700627D01*
X4964205Y-14700627D02*
X4954682Y-14729198D01*
X4954682Y-14729198D02*
X4840396Y-14843484D01*
X4840396Y-14843484D02*
X4964205Y-14843484D01*
X5049920Y-14843484D02*
X5049920Y-14710150D01*
X5049920Y-14729198D02*
X5059444Y-14719674D01*
X5059444Y-14719674D02*
X5078491Y-14710150D01*
X5078491Y-14710150D02*
X5107063Y-14710150D01*
X5107063Y-14710150D02*
X5126110Y-14719674D01*
X5126110Y-14719674D02*
X5135634Y-14738722D01*
X5135634Y-14738722D02*
X5135634Y-14843484D01*
X5135634Y-14738722D02*
X5145158Y-14719674D01*
X5145158Y-14719674D02*
X5164205Y-14710150D01*
X5164205Y-14710150D02*
X5192777Y-14710150D01*
X5192777Y-14710150D02*
X5211825Y-14719674D01*
X5211825Y-14719674D02*
X5221348Y-14738722D01*
X5221348Y-14738722D02*
X5221348Y-14843484D01*
X5316586Y-14843484D02*
X5316586Y-14710150D01*
X5316586Y-14729198D02*
X5326110Y-14719674D01*
X5326110Y-14719674D02*
X5345158Y-14710150D01*
X5345158Y-14710150D02*
X5373729Y-14710150D01*
X5373729Y-14710150D02*
X5392777Y-14719674D01*
X5392777Y-14719674D02*
X5402301Y-14738722D01*
X5402301Y-14738722D02*
X5402301Y-14843484D01*
X5402301Y-14738722D02*
X5411825Y-14719674D01*
X5411825Y-14719674D02*
X5430872Y-14710150D01*
X5430872Y-14710150D02*
X5459444Y-14710150D01*
X5459444Y-14710150D02*
X5478491Y-14719674D01*
X5478491Y-14719674D02*
X5488015Y-14738722D01*
X5488015Y-14738722D02*
X5488015Y-14843484D01*
X5878491Y-14633960D02*
X5707063Y-14891103D01*
X6135634Y-14643484D02*
X6154682Y-14643484D01*
X6154682Y-14643484D02*
X6173729Y-14653008D01*
X6173729Y-14653008D02*
X6183253Y-14662531D01*
X6183253Y-14662531D02*
X6192777Y-14681579D01*
X6192777Y-14681579D02*
X6202301Y-14719674D01*
X6202301Y-14719674D02*
X6202301Y-14767293D01*
X6202301Y-14767293D02*
X6192777Y-14805388D01*
X6192777Y-14805388D02*
X6183253Y-14824436D01*
X6183253Y-14824436D02*
X6173729Y-14833960D01*
X6173729Y-14833960D02*
X6154682Y-14843484D01*
X6154682Y-14843484D02*
X6135634Y-14843484D01*
X6135634Y-14843484D02*
X6116586Y-14833960D01*
X6116586Y-14833960D02*
X6107063Y-14824436D01*
X6107063Y-14824436D02*
X6097539Y-14805388D01*
X6097539Y-14805388D02*
X6088015Y-14767293D01*
X6088015Y-14767293D02*
X6088015Y-14719674D01*
X6088015Y-14719674D02*
X6097539Y-14681579D01*
X6097539Y-14681579D02*
X6107063Y-14662531D01*
X6107063Y-14662531D02*
X6116586Y-14653008D01*
X6116586Y-14653008D02*
X6135634Y-14643484D01*
X6288015Y-14824436D02*
X6297539Y-14833960D01*
X6297539Y-14833960D02*
X6288015Y-14843484D01*
X6288015Y-14843484D02*
X6278491Y-14833960D01*
X6278491Y-14833960D02*
X6288015Y-14824436D01*
X6288015Y-14824436D02*
X6288015Y-14843484D01*
X6421348Y-14643484D02*
X6440396Y-14643484D01*
X6440396Y-14643484D02*
X6459444Y-14653008D01*
X6459444Y-14653008D02*
X6468967Y-14662531D01*
X6468967Y-14662531D02*
X6478491Y-14681579D01*
X6478491Y-14681579D02*
X6488015Y-14719674D01*
X6488015Y-14719674D02*
X6488015Y-14767293D01*
X6488015Y-14767293D02*
X6478491Y-14805388D01*
X6478491Y-14805388D02*
X6468967Y-14824436D01*
X6468967Y-14824436D02*
X6459444Y-14833960D01*
X6459444Y-14833960D02*
X6440396Y-14843484D01*
X6440396Y-14843484D02*
X6421348Y-14843484D01*
X6421348Y-14843484D02*
X6402301Y-14833960D01*
X6402301Y-14833960D02*
X6392777Y-14824436D01*
X6392777Y-14824436D02*
X6383253Y-14805388D01*
X6383253Y-14805388D02*
X6373729Y-14767293D01*
X6373729Y-14767293D02*
X6373729Y-14719674D01*
X6373729Y-14719674D02*
X6383253Y-14681579D01*
X6383253Y-14681579D02*
X6392777Y-14662531D01*
X6392777Y-14662531D02*
X6402301Y-14653008D01*
X6402301Y-14653008D02*
X6421348Y-14643484D01*
X6554682Y-14643484D02*
X6678491Y-14643484D01*
X6678491Y-14643484D02*
X6611825Y-14719674D01*
X6611825Y-14719674D02*
X6640396Y-14719674D01*
X6640396Y-14719674D02*
X6659444Y-14729198D01*
X6659444Y-14729198D02*
X6668967Y-14738722D01*
X6668967Y-14738722D02*
X6678491Y-14757769D01*
X6678491Y-14757769D02*
X6678491Y-14805388D01*
X6678491Y-14805388D02*
X6668967Y-14824436D01*
X6668967Y-14824436D02*
X6659444Y-14833960D01*
X6659444Y-14833960D02*
X6640396Y-14843484D01*
X6640396Y-14843484D02*
X6583253Y-14843484D01*
X6583253Y-14843484D02*
X6564206Y-14833960D01*
X6564206Y-14833960D02*
X6554682Y-14824436D01*
X6802301Y-14643484D02*
X6821348Y-14643484D01*
X6821348Y-14643484D02*
X6840396Y-14653008D01*
X6840396Y-14653008D02*
X6849920Y-14662531D01*
X6849920Y-14662531D02*
X6859444Y-14681579D01*
X6859444Y-14681579D02*
X6868967Y-14719674D01*
X6868967Y-14719674D02*
X6868967Y-14767293D01*
X6868967Y-14767293D02*
X6859444Y-14805388D01*
X6859444Y-14805388D02*
X6849920Y-14824436D01*
X6849920Y-14824436D02*
X6840396Y-14833960D01*
X6840396Y-14833960D02*
X6821348Y-14843484D01*
X6821348Y-14843484D02*
X6802301Y-14843484D01*
X6802301Y-14843484D02*
X6783253Y-14833960D01*
X6783253Y-14833960D02*
X6773729Y-14824436D01*
X6773729Y-14824436D02*
X6764206Y-14805388D01*
X6764206Y-14805388D02*
X6754682Y-14767293D01*
X6754682Y-14767293D02*
X6754682Y-14719674D01*
X6754682Y-14719674D02*
X6764206Y-14681579D01*
X6764206Y-14681579D02*
X6773729Y-14662531D01*
X6773729Y-14662531D02*
X6783253Y-14653008D01*
X6783253Y-14653008D02*
X6802301Y-14643484D01*
X6992777Y-14643484D02*
X7011825Y-14643484D01*
X7011825Y-14643484D02*
X7030872Y-14653008D01*
X7030872Y-14653008D02*
X7040396Y-14662531D01*
X7040396Y-14662531D02*
X7049920Y-14681579D01*
X7049920Y-14681579D02*
X7059444Y-14719674D01*
X7059444Y-14719674D02*
X7059444Y-14767293D01*
X7059444Y-14767293D02*
X7049920Y-14805388D01*
X7049920Y-14805388D02*
X7040396Y-14824436D01*
X7040396Y-14824436D02*
X7030872Y-14833960D01*
X7030872Y-14833960D02*
X7011825Y-14843484D01*
X7011825Y-14843484D02*
X6992777Y-14843484D01*
X6992777Y-14843484D02*
X6973729Y-14833960D01*
X6973729Y-14833960D02*
X6964206Y-14824436D01*
X6964206Y-14824436D02*
X6954682Y-14805388D01*
X6954682Y-14805388D02*
X6945158Y-14767293D01*
X6945158Y-14767293D02*
X6945158Y-14719674D01*
X6945158Y-14719674D02*
X6954682Y-14681579D01*
X6954682Y-14681579D02*
X6964206Y-14662531D01*
X6964206Y-14662531D02*
X6973729Y-14653008D01*
X6973729Y-14653008D02*
X6992777Y-14643484D01*
X7135634Y-14643484D02*
X7135634Y-14681579D01*
X7211825Y-14643484D02*
X7211825Y-14681579D01*
X7507063Y-14919674D02*
X7497539Y-14910150D01*
X7497539Y-14910150D02*
X7478491Y-14881579D01*
X7478491Y-14881579D02*
X7468968Y-14862531D01*
X7468968Y-14862531D02*
X7459444Y-14833960D01*
X7459444Y-14833960D02*
X7449920Y-14786341D01*
X7449920Y-14786341D02*
X7449920Y-14748246D01*
X7449920Y-14748246D02*
X7459444Y-14700627D01*
X7459444Y-14700627D02*
X7468968Y-14672055D01*
X7468968Y-14672055D02*
X7478491Y-14653008D01*
X7478491Y-14653008D02*
X7497539Y-14624436D01*
X7497539Y-14624436D02*
X7507063Y-14614912D01*
X7592777Y-14843484D02*
X7630872Y-14843484D01*
X7630872Y-14843484D02*
X7649920Y-14833960D01*
X7649920Y-14833960D02*
X7659444Y-14824436D01*
X7659444Y-14824436D02*
X7678491Y-14795865D01*
X7678491Y-14795865D02*
X7688015Y-14757769D01*
X7688015Y-14757769D02*
X7688015Y-14681579D01*
X7688015Y-14681579D02*
X7678491Y-14662531D01*
X7678491Y-14662531D02*
X7668968Y-14653008D01*
X7668968Y-14653008D02*
X7649920Y-14643484D01*
X7649920Y-14643484D02*
X7611825Y-14643484D01*
X7611825Y-14643484D02*
X7592777Y-14653008D01*
X7592777Y-14653008D02*
X7583253Y-14662531D01*
X7583253Y-14662531D02*
X7573729Y-14681579D01*
X7573729Y-14681579D02*
X7573729Y-14729198D01*
X7573729Y-14729198D02*
X7583253Y-14748246D01*
X7583253Y-14748246D02*
X7592777Y-14757769D01*
X7592777Y-14757769D02*
X7611825Y-14767293D01*
X7611825Y-14767293D02*
X7649920Y-14767293D01*
X7649920Y-14767293D02*
X7668968Y-14757769D01*
X7668968Y-14757769D02*
X7678491Y-14748246D01*
X7678491Y-14748246D02*
X7688015Y-14729198D01*
X7926110Y-14843484D02*
X7926110Y-14643484D01*
X8011825Y-14843484D02*
X8011825Y-14738722D01*
X8011825Y-14738722D02*
X8002301Y-14719674D01*
X8002301Y-14719674D02*
X7983253Y-14710150D01*
X7983253Y-14710150D02*
X7954682Y-14710150D01*
X7954682Y-14710150D02*
X7935634Y-14719674D01*
X7935634Y-14719674D02*
X7926110Y-14729198D01*
X8135634Y-14843484D02*
X8116587Y-14833960D01*
X8116587Y-14833960D02*
X8107063Y-14824436D01*
X8107063Y-14824436D02*
X8097539Y-14805388D01*
X8097539Y-14805388D02*
X8097539Y-14748246D01*
X8097539Y-14748246D02*
X8107063Y-14729198D01*
X8107063Y-14729198D02*
X8116587Y-14719674D01*
X8116587Y-14719674D02*
X8135634Y-14710150D01*
X8135634Y-14710150D02*
X8164206Y-14710150D01*
X8164206Y-14710150D02*
X8183253Y-14719674D01*
X8183253Y-14719674D02*
X8192777Y-14729198D01*
X8192777Y-14729198D02*
X8202301Y-14748246D01*
X8202301Y-14748246D02*
X8202301Y-14805388D01*
X8202301Y-14805388D02*
X8192777Y-14824436D01*
X8192777Y-14824436D02*
X8183253Y-14833960D01*
X8183253Y-14833960D02*
X8164206Y-14843484D01*
X8164206Y-14843484D02*
X8135634Y-14843484D01*
X8316587Y-14843484D02*
X8297539Y-14833960D01*
X8297539Y-14833960D02*
X8288015Y-14814912D01*
X8288015Y-14814912D02*
X8288015Y-14643484D01*
X8468968Y-14833960D02*
X8449920Y-14843484D01*
X8449920Y-14843484D02*
X8411825Y-14843484D01*
X8411825Y-14843484D02*
X8392777Y-14833960D01*
X8392777Y-14833960D02*
X8383253Y-14814912D01*
X8383253Y-14814912D02*
X8383253Y-14738722D01*
X8383253Y-14738722D02*
X8392777Y-14719674D01*
X8392777Y-14719674D02*
X8411825Y-14710150D01*
X8411825Y-14710150D02*
X8449920Y-14710150D01*
X8449920Y-14710150D02*
X8468968Y-14719674D01*
X8468968Y-14719674D02*
X8478492Y-14738722D01*
X8478492Y-14738722D02*
X8478492Y-14757769D01*
X8478492Y-14757769D02*
X8383253Y-14776817D01*
X8554682Y-14833960D02*
X8573730Y-14843484D01*
X8573730Y-14843484D02*
X8611825Y-14843484D01*
X8611825Y-14843484D02*
X8630873Y-14833960D01*
X8630873Y-14833960D02*
X8640396Y-14814912D01*
X8640396Y-14814912D02*
X8640396Y-14805388D01*
X8640396Y-14805388D02*
X8630873Y-14786341D01*
X8630873Y-14786341D02*
X8611825Y-14776817D01*
X8611825Y-14776817D02*
X8583253Y-14776817D01*
X8583253Y-14776817D02*
X8564206Y-14767293D01*
X8564206Y-14767293D02*
X8554682Y-14748246D01*
X8554682Y-14748246D02*
X8554682Y-14738722D01*
X8554682Y-14738722D02*
X8564206Y-14719674D01*
X8564206Y-14719674D02*
X8583253Y-14710150D01*
X8583253Y-14710150D02*
X8611825Y-14710150D01*
X8611825Y-14710150D02*
X8630873Y-14719674D01*
X8707063Y-14919674D02*
X8716587Y-14910150D01*
X8716587Y-14910150D02*
X8735634Y-14881579D01*
X8735634Y-14881579D02*
X8745158Y-14862531D01*
X8745158Y-14862531D02*
X8754682Y-14833960D01*
X8754682Y-14833960D02*
X8764206Y-14786341D01*
X8764206Y-14786341D02*
X8764206Y-14748246D01*
X8764206Y-14748246D02*
X8754682Y-14700627D01*
X8754682Y-14700627D02*
X8745158Y-14672055D01*
X8745158Y-14672055D02*
X8735634Y-14653008D01*
X8735634Y-14653008D02*
X8716587Y-14624436D01*
X8716587Y-14624436D02*
X8707063Y-14614912D01*
D14*
X3892000Y-14976000D02*
X3892000Y-15056000D01*
X3852000Y-15016000D02*
X3932000Y-15016000D01*
D11*
X4230872Y-14907484D02*
X4249920Y-14907484D01*
X4249920Y-14907484D02*
X4268967Y-14917008D01*
X4268967Y-14917008D02*
X4278491Y-14926531D01*
X4278491Y-14926531D02*
X4288015Y-14945579D01*
X4288015Y-14945579D02*
X4297539Y-14983674D01*
X4297539Y-14983674D02*
X4297539Y-15031293D01*
X4297539Y-15031293D02*
X4288015Y-15069388D01*
X4288015Y-15069388D02*
X4278491Y-15088436D01*
X4278491Y-15088436D02*
X4268967Y-15097960D01*
X4268967Y-15097960D02*
X4249920Y-15107484D01*
X4249920Y-15107484D02*
X4230872Y-15107484D01*
X4230872Y-15107484D02*
X4211824Y-15097960D01*
X4211824Y-15097960D02*
X4202301Y-15088436D01*
X4202301Y-15088436D02*
X4192777Y-15069388D01*
X4192777Y-15069388D02*
X4183253Y-15031293D01*
X4183253Y-15031293D02*
X4183253Y-14983674D01*
X4183253Y-14983674D02*
X4192777Y-14945579D01*
X4192777Y-14945579D02*
X4202301Y-14926531D01*
X4202301Y-14926531D02*
X4211824Y-14917008D01*
X4211824Y-14917008D02*
X4230872Y-14907484D01*
X4383253Y-15088436D02*
X4392777Y-15097960D01*
X4392777Y-15097960D02*
X4383253Y-15107484D01*
X4383253Y-15107484D02*
X4373729Y-15097960D01*
X4373729Y-15097960D02*
X4383253Y-15088436D01*
X4383253Y-15088436D02*
X4383253Y-15107484D01*
X4507063Y-14993198D02*
X4488015Y-14983674D01*
X4488015Y-14983674D02*
X4478491Y-14974150D01*
X4478491Y-14974150D02*
X4468967Y-14955103D01*
X4468967Y-14955103D02*
X4468967Y-14945579D01*
X4468967Y-14945579D02*
X4478491Y-14926531D01*
X4478491Y-14926531D02*
X4488015Y-14917008D01*
X4488015Y-14917008D02*
X4507063Y-14907484D01*
X4507063Y-14907484D02*
X4545158Y-14907484D01*
X4545158Y-14907484D02*
X4564205Y-14917008D01*
X4564205Y-14917008D02*
X4573729Y-14926531D01*
X4573729Y-14926531D02*
X4583253Y-14945579D01*
X4583253Y-14945579D02*
X4583253Y-14955103D01*
X4583253Y-14955103D02*
X4573729Y-14974150D01*
X4573729Y-14974150D02*
X4564205Y-14983674D01*
X4564205Y-14983674D02*
X4545158Y-14993198D01*
X4545158Y-14993198D02*
X4507063Y-14993198D01*
X4507063Y-14993198D02*
X4488015Y-15002722D01*
X4488015Y-15002722D02*
X4478491Y-15012246D01*
X4478491Y-15012246D02*
X4468967Y-15031293D01*
X4468967Y-15031293D02*
X4468967Y-15069388D01*
X4468967Y-15069388D02*
X4478491Y-15088436D01*
X4478491Y-15088436D02*
X4488015Y-15097960D01*
X4488015Y-15097960D02*
X4507063Y-15107484D01*
X4507063Y-15107484D02*
X4545158Y-15107484D01*
X4545158Y-15107484D02*
X4564205Y-15097960D01*
X4564205Y-15097960D02*
X4573729Y-15088436D01*
X4573729Y-15088436D02*
X4583253Y-15069388D01*
X4583253Y-15069388D02*
X4583253Y-15031293D01*
X4583253Y-15031293D02*
X4573729Y-15012246D01*
X4573729Y-15012246D02*
X4564205Y-15002722D01*
X4564205Y-15002722D02*
X4545158Y-14993198D01*
X4707063Y-14907484D02*
X4726110Y-14907484D01*
X4726110Y-14907484D02*
X4745158Y-14917008D01*
X4745158Y-14917008D02*
X4754682Y-14926531D01*
X4754682Y-14926531D02*
X4764205Y-14945579D01*
X4764205Y-14945579D02*
X4773729Y-14983674D01*
X4773729Y-14983674D02*
X4773729Y-15031293D01*
X4773729Y-15031293D02*
X4764205Y-15069388D01*
X4764205Y-15069388D02*
X4754682Y-15088436D01*
X4754682Y-15088436D02*
X4745158Y-15097960D01*
X4745158Y-15097960D02*
X4726110Y-15107484D01*
X4726110Y-15107484D02*
X4707063Y-15107484D01*
X4707063Y-15107484D02*
X4688015Y-15097960D01*
X4688015Y-15097960D02*
X4678491Y-15088436D01*
X4678491Y-15088436D02*
X4668967Y-15069388D01*
X4668967Y-15069388D02*
X4659444Y-15031293D01*
X4659444Y-15031293D02*
X4659444Y-14983674D01*
X4659444Y-14983674D02*
X4668967Y-14945579D01*
X4668967Y-14945579D02*
X4678491Y-14926531D01*
X4678491Y-14926531D02*
X4688015Y-14917008D01*
X4688015Y-14917008D02*
X4707063Y-14907484D01*
X4897539Y-14907484D02*
X4916586Y-14907484D01*
X4916586Y-14907484D02*
X4935634Y-14917008D01*
X4935634Y-14917008D02*
X4945158Y-14926531D01*
X4945158Y-14926531D02*
X4954682Y-14945579D01*
X4954682Y-14945579D02*
X4964205Y-14983674D01*
X4964205Y-14983674D02*
X4964205Y-15031293D01*
X4964205Y-15031293D02*
X4954682Y-15069388D01*
X4954682Y-15069388D02*
X4945158Y-15088436D01*
X4945158Y-15088436D02*
X4935634Y-15097960D01*
X4935634Y-15097960D02*
X4916586Y-15107484D01*
X4916586Y-15107484D02*
X4897539Y-15107484D01*
X4897539Y-15107484D02*
X4878491Y-15097960D01*
X4878491Y-15097960D02*
X4868967Y-15088436D01*
X4868967Y-15088436D02*
X4859444Y-15069388D01*
X4859444Y-15069388D02*
X4849920Y-15031293D01*
X4849920Y-15031293D02*
X4849920Y-14983674D01*
X4849920Y-14983674D02*
X4859444Y-14945579D01*
X4859444Y-14945579D02*
X4868967Y-14926531D01*
X4868967Y-14926531D02*
X4878491Y-14917008D01*
X4878491Y-14917008D02*
X4897539Y-14907484D01*
X5049920Y-15107484D02*
X5049920Y-14974150D01*
X5049920Y-14993198D02*
X5059444Y-14983674D01*
X5059444Y-14983674D02*
X5078491Y-14974150D01*
X5078491Y-14974150D02*
X5107063Y-14974150D01*
X5107063Y-14974150D02*
X5126110Y-14983674D01*
X5126110Y-14983674D02*
X5135634Y-15002722D01*
X5135634Y-15002722D02*
X5135634Y-15107484D01*
X5135634Y-15002722D02*
X5145158Y-14983674D01*
X5145158Y-14983674D02*
X5164205Y-14974150D01*
X5164205Y-14974150D02*
X5192777Y-14974150D01*
X5192777Y-14974150D02*
X5211825Y-14983674D01*
X5211825Y-14983674D02*
X5221348Y-15002722D01*
X5221348Y-15002722D02*
X5221348Y-15107484D01*
X5316586Y-15107484D02*
X5316586Y-14974150D01*
X5316586Y-14993198D02*
X5326110Y-14983674D01*
X5326110Y-14983674D02*
X5345158Y-14974150D01*
X5345158Y-14974150D02*
X5373729Y-14974150D01*
X5373729Y-14974150D02*
X5392777Y-14983674D01*
X5392777Y-14983674D02*
X5402301Y-15002722D01*
X5402301Y-15002722D02*
X5402301Y-15107484D01*
X5402301Y-15002722D02*
X5411825Y-14983674D01*
X5411825Y-14983674D02*
X5430872Y-14974150D01*
X5430872Y-14974150D02*
X5459444Y-14974150D01*
X5459444Y-14974150D02*
X5478491Y-14983674D01*
X5478491Y-14983674D02*
X5488015Y-15002722D01*
X5488015Y-15002722D02*
X5488015Y-15107484D01*
X5878491Y-14897960D02*
X5707063Y-15155103D01*
X6135634Y-14907484D02*
X6154682Y-14907484D01*
X6154682Y-14907484D02*
X6173729Y-14917008D01*
X6173729Y-14917008D02*
X6183253Y-14926531D01*
X6183253Y-14926531D02*
X6192777Y-14945579D01*
X6192777Y-14945579D02*
X6202301Y-14983674D01*
X6202301Y-14983674D02*
X6202301Y-15031293D01*
X6202301Y-15031293D02*
X6192777Y-15069388D01*
X6192777Y-15069388D02*
X6183253Y-15088436D01*
X6183253Y-15088436D02*
X6173729Y-15097960D01*
X6173729Y-15097960D02*
X6154682Y-15107484D01*
X6154682Y-15107484D02*
X6135634Y-15107484D01*
X6135634Y-15107484D02*
X6116586Y-15097960D01*
X6116586Y-15097960D02*
X6107063Y-15088436D01*
X6107063Y-15088436D02*
X6097539Y-15069388D01*
X6097539Y-15069388D02*
X6088015Y-15031293D01*
X6088015Y-15031293D02*
X6088015Y-14983674D01*
X6088015Y-14983674D02*
X6097539Y-14945579D01*
X6097539Y-14945579D02*
X6107063Y-14926531D01*
X6107063Y-14926531D02*
X6116586Y-14917008D01*
X6116586Y-14917008D02*
X6135634Y-14907484D01*
X6288015Y-15088436D02*
X6297539Y-15097960D01*
X6297539Y-15097960D02*
X6288015Y-15107484D01*
X6288015Y-15107484D02*
X6278491Y-15097960D01*
X6278491Y-15097960D02*
X6288015Y-15088436D01*
X6288015Y-15088436D02*
X6288015Y-15107484D01*
X6421348Y-14907484D02*
X6440396Y-14907484D01*
X6440396Y-14907484D02*
X6459444Y-14917008D01*
X6459444Y-14917008D02*
X6468967Y-14926531D01*
X6468967Y-14926531D02*
X6478491Y-14945579D01*
X6478491Y-14945579D02*
X6488015Y-14983674D01*
X6488015Y-14983674D02*
X6488015Y-15031293D01*
X6488015Y-15031293D02*
X6478491Y-15069388D01*
X6478491Y-15069388D02*
X6468967Y-15088436D01*
X6468967Y-15088436D02*
X6459444Y-15097960D01*
X6459444Y-15097960D02*
X6440396Y-15107484D01*
X6440396Y-15107484D02*
X6421348Y-15107484D01*
X6421348Y-15107484D02*
X6402301Y-15097960D01*
X6402301Y-15097960D02*
X6392777Y-15088436D01*
X6392777Y-15088436D02*
X6383253Y-15069388D01*
X6383253Y-15069388D02*
X6373729Y-15031293D01*
X6373729Y-15031293D02*
X6373729Y-14983674D01*
X6373729Y-14983674D02*
X6383253Y-14945579D01*
X6383253Y-14945579D02*
X6392777Y-14926531D01*
X6392777Y-14926531D02*
X6402301Y-14917008D01*
X6402301Y-14917008D02*
X6421348Y-14907484D01*
X6554682Y-14907484D02*
X6678491Y-14907484D01*
X6678491Y-14907484D02*
X6611825Y-14983674D01*
X6611825Y-14983674D02*
X6640396Y-14983674D01*
X6640396Y-14983674D02*
X6659444Y-14993198D01*
X6659444Y-14993198D02*
X6668967Y-15002722D01*
X6668967Y-15002722D02*
X6678491Y-15021769D01*
X6678491Y-15021769D02*
X6678491Y-15069388D01*
X6678491Y-15069388D02*
X6668967Y-15088436D01*
X6668967Y-15088436D02*
X6659444Y-15097960D01*
X6659444Y-15097960D02*
X6640396Y-15107484D01*
X6640396Y-15107484D02*
X6583253Y-15107484D01*
X6583253Y-15107484D02*
X6564206Y-15097960D01*
X6564206Y-15097960D02*
X6554682Y-15088436D01*
X6868967Y-15107484D02*
X6754682Y-15107484D01*
X6811825Y-15107484D02*
X6811825Y-14907484D01*
X6811825Y-14907484D02*
X6792777Y-14936055D01*
X6792777Y-14936055D02*
X6773729Y-14955103D01*
X6773729Y-14955103D02*
X6754682Y-14964627D01*
X7049920Y-14907484D02*
X6954682Y-14907484D01*
X6954682Y-14907484D02*
X6945158Y-15002722D01*
X6945158Y-15002722D02*
X6954682Y-14993198D01*
X6954682Y-14993198D02*
X6973729Y-14983674D01*
X6973729Y-14983674D02*
X7021348Y-14983674D01*
X7021348Y-14983674D02*
X7040396Y-14993198D01*
X7040396Y-14993198D02*
X7049920Y-15002722D01*
X7049920Y-15002722D02*
X7059444Y-15021769D01*
X7059444Y-15021769D02*
X7059444Y-15069388D01*
X7059444Y-15069388D02*
X7049920Y-15088436D01*
X7049920Y-15088436D02*
X7040396Y-15097960D01*
X7040396Y-15097960D02*
X7021348Y-15107484D01*
X7021348Y-15107484D02*
X6973729Y-15107484D01*
X6973729Y-15107484D02*
X6954682Y-15097960D01*
X6954682Y-15097960D02*
X6945158Y-15088436D01*
X7135634Y-14907484D02*
X7135634Y-14945579D01*
X7211825Y-14907484D02*
X7211825Y-14945579D01*
X7507063Y-15183674D02*
X7497539Y-15174150D01*
X7497539Y-15174150D02*
X7478491Y-15145579D01*
X7478491Y-15145579D02*
X7468968Y-15126531D01*
X7468968Y-15126531D02*
X7459444Y-15097960D01*
X7459444Y-15097960D02*
X7449920Y-15050341D01*
X7449920Y-15050341D02*
X7449920Y-15012246D01*
X7449920Y-15012246D02*
X7459444Y-14964627D01*
X7459444Y-14964627D02*
X7468968Y-14936055D01*
X7468968Y-14936055D02*
X7478491Y-14917008D01*
X7478491Y-14917008D02*
X7497539Y-14888436D01*
X7497539Y-14888436D02*
X7507063Y-14878912D01*
X7564206Y-14907484D02*
X7697539Y-14907484D01*
X7697539Y-14907484D02*
X7611825Y-15107484D01*
X7764206Y-14926531D02*
X7773729Y-14917008D01*
X7773729Y-14917008D02*
X7792777Y-14907484D01*
X7792777Y-14907484D02*
X7840396Y-14907484D01*
X7840396Y-14907484D02*
X7859444Y-14917008D01*
X7859444Y-14917008D02*
X7868968Y-14926531D01*
X7868968Y-14926531D02*
X7878491Y-14945579D01*
X7878491Y-14945579D02*
X7878491Y-14964627D01*
X7878491Y-14964627D02*
X7868968Y-14993198D01*
X7868968Y-14993198D02*
X7754682Y-15107484D01*
X7754682Y-15107484D02*
X7878491Y-15107484D01*
X8116587Y-15107484D02*
X8116587Y-14907484D01*
X8202301Y-15107484D02*
X8202301Y-15002722D01*
X8202301Y-15002722D02*
X8192777Y-14983674D01*
X8192777Y-14983674D02*
X8173730Y-14974150D01*
X8173730Y-14974150D02*
X8145158Y-14974150D01*
X8145158Y-14974150D02*
X8126110Y-14983674D01*
X8126110Y-14983674D02*
X8116587Y-14993198D01*
X8326110Y-15107484D02*
X8307063Y-15097960D01*
X8307063Y-15097960D02*
X8297539Y-15088436D01*
X8297539Y-15088436D02*
X8288015Y-15069388D01*
X8288015Y-15069388D02*
X8288015Y-15012246D01*
X8288015Y-15012246D02*
X8297539Y-14993198D01*
X8297539Y-14993198D02*
X8307063Y-14983674D01*
X8307063Y-14983674D02*
X8326110Y-14974150D01*
X8326110Y-14974150D02*
X8354682Y-14974150D01*
X8354682Y-14974150D02*
X8373730Y-14983674D01*
X8373730Y-14983674D02*
X8383253Y-14993198D01*
X8383253Y-14993198D02*
X8392777Y-15012246D01*
X8392777Y-15012246D02*
X8392777Y-15069388D01*
X8392777Y-15069388D02*
X8383253Y-15088436D01*
X8383253Y-15088436D02*
X8373730Y-15097960D01*
X8373730Y-15097960D02*
X8354682Y-15107484D01*
X8354682Y-15107484D02*
X8326110Y-15107484D01*
X8507063Y-15107484D02*
X8488015Y-15097960D01*
X8488015Y-15097960D02*
X8478492Y-15078912D01*
X8478492Y-15078912D02*
X8478492Y-14907484D01*
X8659444Y-15097960D02*
X8640396Y-15107484D01*
X8640396Y-15107484D02*
X8602301Y-15107484D01*
X8602301Y-15107484D02*
X8583253Y-15097960D01*
X8583253Y-15097960D02*
X8573730Y-15078912D01*
X8573730Y-15078912D02*
X8573730Y-15002722D01*
X8573730Y-15002722D02*
X8583253Y-14983674D01*
X8583253Y-14983674D02*
X8602301Y-14974150D01*
X8602301Y-14974150D02*
X8640396Y-14974150D01*
X8640396Y-14974150D02*
X8659444Y-14983674D01*
X8659444Y-14983674D02*
X8668968Y-15002722D01*
X8668968Y-15002722D02*
X8668968Y-15021769D01*
X8668968Y-15021769D02*
X8573730Y-15040817D01*
X8745158Y-15097960D02*
X8764206Y-15107484D01*
X8764206Y-15107484D02*
X8802301Y-15107484D01*
X8802301Y-15107484D02*
X8821349Y-15097960D01*
X8821349Y-15097960D02*
X8830873Y-15078912D01*
X8830873Y-15078912D02*
X8830873Y-15069388D01*
X8830873Y-15069388D02*
X8821349Y-15050341D01*
X8821349Y-15050341D02*
X8802301Y-15040817D01*
X8802301Y-15040817D02*
X8773730Y-15040817D01*
X8773730Y-15040817D02*
X8754682Y-15031293D01*
X8754682Y-15031293D02*
X8745158Y-15012246D01*
X8745158Y-15012246D02*
X8745158Y-15002722D01*
X8745158Y-15002722D02*
X8754682Y-14983674D01*
X8754682Y-14983674D02*
X8773730Y-14974150D01*
X8773730Y-14974150D02*
X8802301Y-14974150D01*
X8802301Y-14974150D02*
X8821349Y-14983674D01*
X8897539Y-15183674D02*
X8907063Y-15174150D01*
X8907063Y-15174150D02*
X8926111Y-15145579D01*
X8926111Y-15145579D02*
X8935634Y-15126531D01*
X8935634Y-15126531D02*
X8945158Y-15097960D01*
X8945158Y-15097960D02*
X8954682Y-15050341D01*
X8954682Y-15050341D02*
X8954682Y-15012246D01*
X8954682Y-15012246D02*
X8945158Y-14964627D01*
X8945158Y-14964627D02*
X8935634Y-14936055D01*
X8935634Y-14936055D02*
X8926111Y-14917008D01*
X8926111Y-14917008D02*
X8907063Y-14888436D01*
X8907063Y-14888436D02*
X8897539Y-14878912D01*
D10*
X3917356Y-15315356D02*
X3917356Y-15244644D01*
X3846644Y-15244644D01*
X3846644Y-15315356D01*
X3917356Y-15315356D01*
D11*
X4297539Y-15371484D02*
X4183253Y-15371484D01*
X4240396Y-15371484D02*
X4240396Y-15171484D01*
X4240396Y-15171484D02*
X4221348Y-15200055D01*
X4221348Y-15200055D02*
X4202301Y-15219103D01*
X4202301Y-15219103D02*
X4183253Y-15228627D01*
X4383253Y-15352436D02*
X4392777Y-15361960D01*
X4392777Y-15361960D02*
X4383253Y-15371484D01*
X4383253Y-15371484D02*
X4373729Y-15361960D01*
X4373729Y-15361960D02*
X4383253Y-15352436D01*
X4383253Y-15352436D02*
X4383253Y-15371484D01*
X4516586Y-15171484D02*
X4535634Y-15171484D01*
X4535634Y-15171484D02*
X4554682Y-15181008D01*
X4554682Y-15181008D02*
X4564205Y-15190531D01*
X4564205Y-15190531D02*
X4573729Y-15209579D01*
X4573729Y-15209579D02*
X4583253Y-15247674D01*
X4583253Y-15247674D02*
X4583253Y-15295293D01*
X4583253Y-15295293D02*
X4573729Y-15333388D01*
X4573729Y-15333388D02*
X4564205Y-15352436D01*
X4564205Y-15352436D02*
X4554682Y-15361960D01*
X4554682Y-15361960D02*
X4535634Y-15371484D01*
X4535634Y-15371484D02*
X4516586Y-15371484D01*
X4516586Y-15371484D02*
X4497539Y-15361960D01*
X4497539Y-15361960D02*
X4488015Y-15352436D01*
X4488015Y-15352436D02*
X4478491Y-15333388D01*
X4478491Y-15333388D02*
X4468967Y-15295293D01*
X4468967Y-15295293D02*
X4468967Y-15247674D01*
X4468967Y-15247674D02*
X4478491Y-15209579D01*
X4478491Y-15209579D02*
X4488015Y-15190531D01*
X4488015Y-15190531D02*
X4497539Y-15181008D01*
X4497539Y-15181008D02*
X4516586Y-15171484D01*
X4707063Y-15171484D02*
X4726110Y-15171484D01*
X4726110Y-15171484D02*
X4745158Y-15181008D01*
X4745158Y-15181008D02*
X4754682Y-15190531D01*
X4754682Y-15190531D02*
X4764205Y-15209579D01*
X4764205Y-15209579D02*
X4773729Y-15247674D01*
X4773729Y-15247674D02*
X4773729Y-15295293D01*
X4773729Y-15295293D02*
X4764205Y-15333388D01*
X4764205Y-15333388D02*
X4754682Y-15352436D01*
X4754682Y-15352436D02*
X4745158Y-15361960D01*
X4745158Y-15361960D02*
X4726110Y-15371484D01*
X4726110Y-15371484D02*
X4707063Y-15371484D01*
X4707063Y-15371484D02*
X4688015Y-15361960D01*
X4688015Y-15361960D02*
X4678491Y-15352436D01*
X4678491Y-15352436D02*
X4668967Y-15333388D01*
X4668967Y-15333388D02*
X4659444Y-15295293D01*
X4659444Y-15295293D02*
X4659444Y-15247674D01*
X4659444Y-15247674D02*
X4668967Y-15209579D01*
X4668967Y-15209579D02*
X4678491Y-15190531D01*
X4678491Y-15190531D02*
X4688015Y-15181008D01*
X4688015Y-15181008D02*
X4707063Y-15171484D01*
X4897539Y-15171484D02*
X4916586Y-15171484D01*
X4916586Y-15171484D02*
X4935634Y-15181008D01*
X4935634Y-15181008D02*
X4945158Y-15190531D01*
X4945158Y-15190531D02*
X4954682Y-15209579D01*
X4954682Y-15209579D02*
X4964205Y-15247674D01*
X4964205Y-15247674D02*
X4964205Y-15295293D01*
X4964205Y-15295293D02*
X4954682Y-15333388D01*
X4954682Y-15333388D02*
X4945158Y-15352436D01*
X4945158Y-15352436D02*
X4935634Y-15361960D01*
X4935634Y-15361960D02*
X4916586Y-15371484D01*
X4916586Y-15371484D02*
X4897539Y-15371484D01*
X4897539Y-15371484D02*
X4878491Y-15361960D01*
X4878491Y-15361960D02*
X4868967Y-15352436D01*
X4868967Y-15352436D02*
X4859444Y-15333388D01*
X4859444Y-15333388D02*
X4849920Y-15295293D01*
X4849920Y-15295293D02*
X4849920Y-15247674D01*
X4849920Y-15247674D02*
X4859444Y-15209579D01*
X4859444Y-15209579D02*
X4868967Y-15190531D01*
X4868967Y-15190531D02*
X4878491Y-15181008D01*
X4878491Y-15181008D02*
X4897539Y-15171484D01*
X5049920Y-15371484D02*
X5049920Y-15238150D01*
X5049920Y-15257198D02*
X5059444Y-15247674D01*
X5059444Y-15247674D02*
X5078491Y-15238150D01*
X5078491Y-15238150D02*
X5107063Y-15238150D01*
X5107063Y-15238150D02*
X5126110Y-15247674D01*
X5126110Y-15247674D02*
X5135634Y-15266722D01*
X5135634Y-15266722D02*
X5135634Y-15371484D01*
X5135634Y-15266722D02*
X5145158Y-15247674D01*
X5145158Y-15247674D02*
X5164205Y-15238150D01*
X5164205Y-15238150D02*
X5192777Y-15238150D01*
X5192777Y-15238150D02*
X5211825Y-15247674D01*
X5211825Y-15247674D02*
X5221348Y-15266722D01*
X5221348Y-15266722D02*
X5221348Y-15371484D01*
X5316586Y-15371484D02*
X5316586Y-15238150D01*
X5316586Y-15257198D02*
X5326110Y-15247674D01*
X5326110Y-15247674D02*
X5345158Y-15238150D01*
X5345158Y-15238150D02*
X5373729Y-15238150D01*
X5373729Y-15238150D02*
X5392777Y-15247674D01*
X5392777Y-15247674D02*
X5402301Y-15266722D01*
X5402301Y-15266722D02*
X5402301Y-15371484D01*
X5402301Y-15266722D02*
X5411825Y-15247674D01*
X5411825Y-15247674D02*
X5430872Y-15238150D01*
X5430872Y-15238150D02*
X5459444Y-15238150D01*
X5459444Y-15238150D02*
X5478491Y-15247674D01*
X5478491Y-15247674D02*
X5488015Y-15266722D01*
X5488015Y-15266722D02*
X5488015Y-15371484D01*
X5878491Y-15161960D02*
X5707063Y-15419103D01*
X6135634Y-15171484D02*
X6154682Y-15171484D01*
X6154682Y-15171484D02*
X6173729Y-15181008D01*
X6173729Y-15181008D02*
X6183253Y-15190531D01*
X6183253Y-15190531D02*
X6192777Y-15209579D01*
X6192777Y-15209579D02*
X6202301Y-15247674D01*
X6202301Y-15247674D02*
X6202301Y-15295293D01*
X6202301Y-15295293D02*
X6192777Y-15333388D01*
X6192777Y-15333388D02*
X6183253Y-15352436D01*
X6183253Y-15352436D02*
X6173729Y-15361960D01*
X6173729Y-15361960D02*
X6154682Y-15371484D01*
X6154682Y-15371484D02*
X6135634Y-15371484D01*
X6135634Y-15371484D02*
X6116586Y-15361960D01*
X6116586Y-15361960D02*
X6107063Y-15352436D01*
X6107063Y-15352436D02*
X6097539Y-15333388D01*
X6097539Y-15333388D02*
X6088015Y-15295293D01*
X6088015Y-15295293D02*
X6088015Y-15247674D01*
X6088015Y-15247674D02*
X6097539Y-15209579D01*
X6097539Y-15209579D02*
X6107063Y-15190531D01*
X6107063Y-15190531D02*
X6116586Y-15181008D01*
X6116586Y-15181008D02*
X6135634Y-15171484D01*
X6288015Y-15352436D02*
X6297539Y-15361960D01*
X6297539Y-15361960D02*
X6288015Y-15371484D01*
X6288015Y-15371484D02*
X6278491Y-15361960D01*
X6278491Y-15361960D02*
X6288015Y-15352436D01*
X6288015Y-15352436D02*
X6288015Y-15371484D01*
X6421348Y-15171484D02*
X6440396Y-15171484D01*
X6440396Y-15171484D02*
X6459444Y-15181008D01*
X6459444Y-15181008D02*
X6468967Y-15190531D01*
X6468967Y-15190531D02*
X6478491Y-15209579D01*
X6478491Y-15209579D02*
X6488015Y-15247674D01*
X6488015Y-15247674D02*
X6488015Y-15295293D01*
X6488015Y-15295293D02*
X6478491Y-15333388D01*
X6478491Y-15333388D02*
X6468967Y-15352436D01*
X6468967Y-15352436D02*
X6459444Y-15361960D01*
X6459444Y-15361960D02*
X6440396Y-15371484D01*
X6440396Y-15371484D02*
X6421348Y-15371484D01*
X6421348Y-15371484D02*
X6402301Y-15361960D01*
X6402301Y-15361960D02*
X6392777Y-15352436D01*
X6392777Y-15352436D02*
X6383253Y-15333388D01*
X6383253Y-15333388D02*
X6373729Y-15295293D01*
X6373729Y-15295293D02*
X6373729Y-15247674D01*
X6373729Y-15247674D02*
X6383253Y-15209579D01*
X6383253Y-15209579D02*
X6392777Y-15190531D01*
X6392777Y-15190531D02*
X6402301Y-15181008D01*
X6402301Y-15181008D02*
X6421348Y-15171484D01*
X6554682Y-15171484D02*
X6678491Y-15171484D01*
X6678491Y-15171484D02*
X6611825Y-15247674D01*
X6611825Y-15247674D02*
X6640396Y-15247674D01*
X6640396Y-15247674D02*
X6659444Y-15257198D01*
X6659444Y-15257198D02*
X6668967Y-15266722D01*
X6668967Y-15266722D02*
X6678491Y-15285769D01*
X6678491Y-15285769D02*
X6678491Y-15333388D01*
X6678491Y-15333388D02*
X6668967Y-15352436D01*
X6668967Y-15352436D02*
X6659444Y-15361960D01*
X6659444Y-15361960D02*
X6640396Y-15371484D01*
X6640396Y-15371484D02*
X6583253Y-15371484D01*
X6583253Y-15371484D02*
X6564206Y-15361960D01*
X6564206Y-15361960D02*
X6554682Y-15352436D01*
X6773729Y-15371484D02*
X6811825Y-15371484D01*
X6811825Y-15371484D02*
X6830872Y-15361960D01*
X6830872Y-15361960D02*
X6840396Y-15352436D01*
X6840396Y-15352436D02*
X6859444Y-15323865D01*
X6859444Y-15323865D02*
X6868967Y-15285769D01*
X6868967Y-15285769D02*
X6868967Y-15209579D01*
X6868967Y-15209579D02*
X6859444Y-15190531D01*
X6859444Y-15190531D02*
X6849920Y-15181008D01*
X6849920Y-15181008D02*
X6830872Y-15171484D01*
X6830872Y-15171484D02*
X6792777Y-15171484D01*
X6792777Y-15171484D02*
X6773729Y-15181008D01*
X6773729Y-15181008D02*
X6764206Y-15190531D01*
X6764206Y-15190531D02*
X6754682Y-15209579D01*
X6754682Y-15209579D02*
X6754682Y-15257198D01*
X6754682Y-15257198D02*
X6764206Y-15276246D01*
X6764206Y-15276246D02*
X6773729Y-15285769D01*
X6773729Y-15285769D02*
X6792777Y-15295293D01*
X6792777Y-15295293D02*
X6830872Y-15295293D01*
X6830872Y-15295293D02*
X6849920Y-15285769D01*
X6849920Y-15285769D02*
X6859444Y-15276246D01*
X6859444Y-15276246D02*
X6868967Y-15257198D01*
X7040396Y-15238150D02*
X7040396Y-15371484D01*
X6992777Y-15161960D02*
X6945158Y-15304817D01*
X6945158Y-15304817D02*
X7068967Y-15304817D01*
X7135634Y-15171484D02*
X7135634Y-15209579D01*
X7211825Y-15171484D02*
X7211825Y-15209579D01*
X7507063Y-15447674D02*
X7497539Y-15438150D01*
X7497539Y-15438150D02*
X7478491Y-15409579D01*
X7478491Y-15409579D02*
X7468968Y-15390531D01*
X7468968Y-15390531D02*
X7459444Y-15361960D01*
X7459444Y-15361960D02*
X7449920Y-15314341D01*
X7449920Y-15314341D02*
X7449920Y-15276246D01*
X7449920Y-15276246D02*
X7459444Y-15228627D01*
X7459444Y-15228627D02*
X7468968Y-15200055D01*
X7468968Y-15200055D02*
X7478491Y-15181008D01*
X7478491Y-15181008D02*
X7497539Y-15152436D01*
X7497539Y-15152436D02*
X7507063Y-15142912D01*
X7573729Y-15190531D02*
X7583253Y-15181008D01*
X7583253Y-15181008D02*
X7602301Y-15171484D01*
X7602301Y-15171484D02*
X7649920Y-15171484D01*
X7649920Y-15171484D02*
X7668968Y-15181008D01*
X7668968Y-15181008D02*
X7678491Y-15190531D01*
X7678491Y-15190531D02*
X7688015Y-15209579D01*
X7688015Y-15209579D02*
X7688015Y-15228627D01*
X7688015Y-15228627D02*
X7678491Y-15257198D01*
X7678491Y-15257198D02*
X7564206Y-15371484D01*
X7564206Y-15371484D02*
X7688015Y-15371484D01*
X7859444Y-15238150D02*
X7859444Y-15371484D01*
X7811825Y-15161960D02*
X7764206Y-15304817D01*
X7764206Y-15304817D02*
X7888015Y-15304817D01*
X8116587Y-15371484D02*
X8116587Y-15171484D01*
X8202301Y-15371484D02*
X8202301Y-15266722D01*
X8202301Y-15266722D02*
X8192777Y-15247674D01*
X8192777Y-15247674D02*
X8173730Y-15238150D01*
X8173730Y-15238150D02*
X8145158Y-15238150D01*
X8145158Y-15238150D02*
X8126110Y-15247674D01*
X8126110Y-15247674D02*
X8116587Y-15257198D01*
X8326110Y-15371484D02*
X8307063Y-15361960D01*
X8307063Y-15361960D02*
X8297539Y-15352436D01*
X8297539Y-15352436D02*
X8288015Y-15333388D01*
X8288015Y-15333388D02*
X8288015Y-15276246D01*
X8288015Y-15276246D02*
X8297539Y-15257198D01*
X8297539Y-15257198D02*
X8307063Y-15247674D01*
X8307063Y-15247674D02*
X8326110Y-15238150D01*
X8326110Y-15238150D02*
X8354682Y-15238150D01*
X8354682Y-15238150D02*
X8373730Y-15247674D01*
X8373730Y-15247674D02*
X8383253Y-15257198D01*
X8383253Y-15257198D02*
X8392777Y-15276246D01*
X8392777Y-15276246D02*
X8392777Y-15333388D01*
X8392777Y-15333388D02*
X8383253Y-15352436D01*
X8383253Y-15352436D02*
X8373730Y-15361960D01*
X8373730Y-15361960D02*
X8354682Y-15371484D01*
X8354682Y-15371484D02*
X8326110Y-15371484D01*
X8507063Y-15371484D02*
X8488015Y-15361960D01*
X8488015Y-15361960D02*
X8478492Y-15342912D01*
X8478492Y-15342912D02*
X8478492Y-15171484D01*
X8659444Y-15361960D02*
X8640396Y-15371484D01*
X8640396Y-15371484D02*
X8602301Y-15371484D01*
X8602301Y-15371484D02*
X8583253Y-15361960D01*
X8583253Y-15361960D02*
X8573730Y-15342912D01*
X8573730Y-15342912D02*
X8573730Y-15266722D01*
X8573730Y-15266722D02*
X8583253Y-15247674D01*
X8583253Y-15247674D02*
X8602301Y-15238150D01*
X8602301Y-15238150D02*
X8640396Y-15238150D01*
X8640396Y-15238150D02*
X8659444Y-15247674D01*
X8659444Y-15247674D02*
X8668968Y-15266722D01*
X8668968Y-15266722D02*
X8668968Y-15285769D01*
X8668968Y-15285769D02*
X8573730Y-15304817D01*
X8745158Y-15361960D02*
X8764206Y-15371484D01*
X8764206Y-15371484D02*
X8802301Y-15371484D01*
X8802301Y-15371484D02*
X8821349Y-15361960D01*
X8821349Y-15361960D02*
X8830873Y-15342912D01*
X8830873Y-15342912D02*
X8830873Y-15333388D01*
X8830873Y-15333388D02*
X8821349Y-15314341D01*
X8821349Y-15314341D02*
X8802301Y-15304817D01*
X8802301Y-15304817D02*
X8773730Y-15304817D01*
X8773730Y-15304817D02*
X8754682Y-15295293D01*
X8754682Y-15295293D02*
X8745158Y-15276246D01*
X8745158Y-15276246D02*
X8745158Y-15266722D01*
X8745158Y-15266722D02*
X8754682Y-15247674D01*
X8754682Y-15247674D02*
X8773730Y-15238150D01*
X8773730Y-15238150D02*
X8802301Y-15238150D01*
X8802301Y-15238150D02*
X8821349Y-15247674D01*
X8897539Y-15447674D02*
X8907063Y-15438150D01*
X8907063Y-15438150D02*
X8926111Y-15409579D01*
X8926111Y-15409579D02*
X8935634Y-15390531D01*
X8935634Y-15390531D02*
X8945158Y-15361960D01*
X8945158Y-15361960D02*
X8954682Y-15314341D01*
X8954682Y-15314341D02*
X8954682Y-15276246D01*
X8954682Y-15276246D02*
X8945158Y-15228627D01*
X8945158Y-15228627D02*
X8935634Y-15200055D01*
X8935634Y-15200055D02*
X8926111Y-15181008D01*
X8926111Y-15181008D02*
X8907063Y-15152436D01*
X8907063Y-15152436D02*
X8897539Y-15142912D01*
D15*
X3877000Y-15599000D02*
X3932000Y-15544000D01*
X3877000Y-15489000D01*
X3822000Y-15544000D01*
X3877000Y-15599000D01*
D11*
X4297539Y-15635484D02*
X4183253Y-15635484D01*
X4240396Y-15635484D02*
X4240396Y-15435484D01*
X4240396Y-15435484D02*
X4221348Y-15464055D01*
X4221348Y-15464055D02*
X4202301Y-15483103D01*
X4202301Y-15483103D02*
X4183253Y-15492627D01*
X4383253Y-15616436D02*
X4392777Y-15625960D01*
X4392777Y-15625960D02*
X4383253Y-15635484D01*
X4383253Y-15635484D02*
X4373729Y-15625960D01*
X4373729Y-15625960D02*
X4383253Y-15616436D01*
X4383253Y-15616436D02*
X4383253Y-15635484D01*
X4583253Y-15635484D02*
X4468967Y-15635484D01*
X4526110Y-15635484D02*
X4526110Y-15435484D01*
X4526110Y-15435484D02*
X4507063Y-15464055D01*
X4507063Y-15464055D02*
X4488015Y-15483103D01*
X4488015Y-15483103D02*
X4468967Y-15492627D01*
X4707063Y-15435484D02*
X4726110Y-15435484D01*
X4726110Y-15435484D02*
X4745158Y-15445008D01*
X4745158Y-15445008D02*
X4754682Y-15454531D01*
X4754682Y-15454531D02*
X4764205Y-15473579D01*
X4764205Y-15473579D02*
X4773729Y-15511674D01*
X4773729Y-15511674D02*
X4773729Y-15559293D01*
X4773729Y-15559293D02*
X4764205Y-15597388D01*
X4764205Y-15597388D02*
X4754682Y-15616436D01*
X4754682Y-15616436D02*
X4745158Y-15625960D01*
X4745158Y-15625960D02*
X4726110Y-15635484D01*
X4726110Y-15635484D02*
X4707063Y-15635484D01*
X4707063Y-15635484D02*
X4688015Y-15625960D01*
X4688015Y-15625960D02*
X4678491Y-15616436D01*
X4678491Y-15616436D02*
X4668967Y-15597388D01*
X4668967Y-15597388D02*
X4659444Y-15559293D01*
X4659444Y-15559293D02*
X4659444Y-15511674D01*
X4659444Y-15511674D02*
X4668967Y-15473579D01*
X4668967Y-15473579D02*
X4678491Y-15454531D01*
X4678491Y-15454531D02*
X4688015Y-15445008D01*
X4688015Y-15445008D02*
X4707063Y-15435484D01*
X4897539Y-15435484D02*
X4916586Y-15435484D01*
X4916586Y-15435484D02*
X4935634Y-15445008D01*
X4935634Y-15445008D02*
X4945158Y-15454531D01*
X4945158Y-15454531D02*
X4954682Y-15473579D01*
X4954682Y-15473579D02*
X4964205Y-15511674D01*
X4964205Y-15511674D02*
X4964205Y-15559293D01*
X4964205Y-15559293D02*
X4954682Y-15597388D01*
X4954682Y-15597388D02*
X4945158Y-15616436D01*
X4945158Y-15616436D02*
X4935634Y-15625960D01*
X4935634Y-15625960D02*
X4916586Y-15635484D01*
X4916586Y-15635484D02*
X4897539Y-15635484D01*
X4897539Y-15635484D02*
X4878491Y-15625960D01*
X4878491Y-15625960D02*
X4868967Y-15616436D01*
X4868967Y-15616436D02*
X4859444Y-15597388D01*
X4859444Y-15597388D02*
X4849920Y-15559293D01*
X4849920Y-15559293D02*
X4849920Y-15511674D01*
X4849920Y-15511674D02*
X4859444Y-15473579D01*
X4859444Y-15473579D02*
X4868967Y-15454531D01*
X4868967Y-15454531D02*
X4878491Y-15445008D01*
X4878491Y-15445008D02*
X4897539Y-15435484D01*
X5049920Y-15635484D02*
X5049920Y-15502150D01*
X5049920Y-15521198D02*
X5059444Y-15511674D01*
X5059444Y-15511674D02*
X5078491Y-15502150D01*
X5078491Y-15502150D02*
X5107063Y-15502150D01*
X5107063Y-15502150D02*
X5126110Y-15511674D01*
X5126110Y-15511674D02*
X5135634Y-15530722D01*
X5135634Y-15530722D02*
X5135634Y-15635484D01*
X5135634Y-15530722D02*
X5145158Y-15511674D01*
X5145158Y-15511674D02*
X5164205Y-15502150D01*
X5164205Y-15502150D02*
X5192777Y-15502150D01*
X5192777Y-15502150D02*
X5211825Y-15511674D01*
X5211825Y-15511674D02*
X5221348Y-15530722D01*
X5221348Y-15530722D02*
X5221348Y-15635484D01*
X5316586Y-15635484D02*
X5316586Y-15502150D01*
X5316586Y-15521198D02*
X5326110Y-15511674D01*
X5326110Y-15511674D02*
X5345158Y-15502150D01*
X5345158Y-15502150D02*
X5373729Y-15502150D01*
X5373729Y-15502150D02*
X5392777Y-15511674D01*
X5392777Y-15511674D02*
X5402301Y-15530722D01*
X5402301Y-15530722D02*
X5402301Y-15635484D01*
X5402301Y-15530722D02*
X5411825Y-15511674D01*
X5411825Y-15511674D02*
X5430872Y-15502150D01*
X5430872Y-15502150D02*
X5459444Y-15502150D01*
X5459444Y-15502150D02*
X5478491Y-15511674D01*
X5478491Y-15511674D02*
X5488015Y-15530722D01*
X5488015Y-15530722D02*
X5488015Y-15635484D01*
X5878491Y-15425960D02*
X5707063Y-15683103D01*
X6135634Y-15435484D02*
X6154682Y-15435484D01*
X6154682Y-15435484D02*
X6173729Y-15445008D01*
X6173729Y-15445008D02*
X6183253Y-15454531D01*
X6183253Y-15454531D02*
X6192777Y-15473579D01*
X6192777Y-15473579D02*
X6202301Y-15511674D01*
X6202301Y-15511674D02*
X6202301Y-15559293D01*
X6202301Y-15559293D02*
X6192777Y-15597388D01*
X6192777Y-15597388D02*
X6183253Y-15616436D01*
X6183253Y-15616436D02*
X6173729Y-15625960D01*
X6173729Y-15625960D02*
X6154682Y-15635484D01*
X6154682Y-15635484D02*
X6135634Y-15635484D01*
X6135634Y-15635484D02*
X6116586Y-15625960D01*
X6116586Y-15625960D02*
X6107063Y-15616436D01*
X6107063Y-15616436D02*
X6097539Y-15597388D01*
X6097539Y-15597388D02*
X6088015Y-15559293D01*
X6088015Y-15559293D02*
X6088015Y-15511674D01*
X6088015Y-15511674D02*
X6097539Y-15473579D01*
X6097539Y-15473579D02*
X6107063Y-15454531D01*
X6107063Y-15454531D02*
X6116586Y-15445008D01*
X6116586Y-15445008D02*
X6135634Y-15435484D01*
X6288015Y-15616436D02*
X6297539Y-15625960D01*
X6297539Y-15625960D02*
X6288015Y-15635484D01*
X6288015Y-15635484D02*
X6278491Y-15625960D01*
X6278491Y-15625960D02*
X6288015Y-15616436D01*
X6288015Y-15616436D02*
X6288015Y-15635484D01*
X6421348Y-15435484D02*
X6440396Y-15435484D01*
X6440396Y-15435484D02*
X6459444Y-15445008D01*
X6459444Y-15445008D02*
X6468967Y-15454531D01*
X6468967Y-15454531D02*
X6478491Y-15473579D01*
X6478491Y-15473579D02*
X6488015Y-15511674D01*
X6488015Y-15511674D02*
X6488015Y-15559293D01*
X6488015Y-15559293D02*
X6478491Y-15597388D01*
X6478491Y-15597388D02*
X6468967Y-15616436D01*
X6468967Y-15616436D02*
X6459444Y-15625960D01*
X6459444Y-15625960D02*
X6440396Y-15635484D01*
X6440396Y-15635484D02*
X6421348Y-15635484D01*
X6421348Y-15635484D02*
X6402301Y-15625960D01*
X6402301Y-15625960D02*
X6392777Y-15616436D01*
X6392777Y-15616436D02*
X6383253Y-15597388D01*
X6383253Y-15597388D02*
X6373729Y-15559293D01*
X6373729Y-15559293D02*
X6373729Y-15511674D01*
X6373729Y-15511674D02*
X6383253Y-15473579D01*
X6383253Y-15473579D02*
X6392777Y-15454531D01*
X6392777Y-15454531D02*
X6402301Y-15445008D01*
X6402301Y-15445008D02*
X6421348Y-15435484D01*
X6659444Y-15502150D02*
X6659444Y-15635484D01*
X6611825Y-15425960D02*
X6564206Y-15568817D01*
X6564206Y-15568817D02*
X6688015Y-15568817D01*
X6745158Y-15435484D02*
X6868967Y-15435484D01*
X6868967Y-15435484D02*
X6802301Y-15511674D01*
X6802301Y-15511674D02*
X6830872Y-15511674D01*
X6830872Y-15511674D02*
X6849920Y-15521198D01*
X6849920Y-15521198D02*
X6859444Y-15530722D01*
X6859444Y-15530722D02*
X6868967Y-15549769D01*
X6868967Y-15549769D02*
X6868967Y-15597388D01*
X6868967Y-15597388D02*
X6859444Y-15616436D01*
X6859444Y-15616436D02*
X6849920Y-15625960D01*
X6849920Y-15625960D02*
X6830872Y-15635484D01*
X6830872Y-15635484D02*
X6773729Y-15635484D01*
X6773729Y-15635484D02*
X6754682Y-15625960D01*
X6754682Y-15625960D02*
X6745158Y-15616436D01*
X6935634Y-15435484D02*
X7059444Y-15435484D01*
X7059444Y-15435484D02*
X6992777Y-15511674D01*
X6992777Y-15511674D02*
X7021348Y-15511674D01*
X7021348Y-15511674D02*
X7040396Y-15521198D01*
X7040396Y-15521198D02*
X7049920Y-15530722D01*
X7049920Y-15530722D02*
X7059444Y-15549769D01*
X7059444Y-15549769D02*
X7059444Y-15597388D01*
X7059444Y-15597388D02*
X7049920Y-15616436D01*
X7049920Y-15616436D02*
X7040396Y-15625960D01*
X7040396Y-15625960D02*
X7021348Y-15635484D01*
X7021348Y-15635484D02*
X6964206Y-15635484D01*
X6964206Y-15635484D02*
X6945158Y-15625960D01*
X6945158Y-15625960D02*
X6935634Y-15616436D01*
X7135634Y-15435484D02*
X7135634Y-15473579D01*
X7211825Y-15435484D02*
X7211825Y-15473579D01*
X7507063Y-15711674D02*
X7497539Y-15702150D01*
X7497539Y-15702150D02*
X7478491Y-15673579D01*
X7478491Y-15673579D02*
X7468968Y-15654531D01*
X7468968Y-15654531D02*
X7459444Y-15625960D01*
X7459444Y-15625960D02*
X7449920Y-15578341D01*
X7449920Y-15578341D02*
X7449920Y-15540246D01*
X7449920Y-15540246D02*
X7459444Y-15492627D01*
X7459444Y-15492627D02*
X7468968Y-15464055D01*
X7468968Y-15464055D02*
X7478491Y-15445008D01*
X7478491Y-15445008D02*
X7497539Y-15416436D01*
X7497539Y-15416436D02*
X7507063Y-15406912D01*
X7573729Y-15454531D02*
X7583253Y-15445008D01*
X7583253Y-15445008D02*
X7602301Y-15435484D01*
X7602301Y-15435484D02*
X7649920Y-15435484D01*
X7649920Y-15435484D02*
X7668968Y-15445008D01*
X7668968Y-15445008D02*
X7678491Y-15454531D01*
X7678491Y-15454531D02*
X7688015Y-15473579D01*
X7688015Y-15473579D02*
X7688015Y-15492627D01*
X7688015Y-15492627D02*
X7678491Y-15521198D01*
X7678491Y-15521198D02*
X7564206Y-15635484D01*
X7564206Y-15635484D02*
X7688015Y-15635484D01*
X7859444Y-15502150D02*
X7859444Y-15635484D01*
X7811825Y-15425960D02*
X7764206Y-15568817D01*
X7764206Y-15568817D02*
X7888015Y-15568817D01*
X8116587Y-15635484D02*
X8116587Y-15435484D01*
X8202301Y-15635484D02*
X8202301Y-15530722D01*
X8202301Y-15530722D02*
X8192777Y-15511674D01*
X8192777Y-15511674D02*
X8173730Y-15502150D01*
X8173730Y-15502150D02*
X8145158Y-15502150D01*
X8145158Y-15502150D02*
X8126110Y-15511674D01*
X8126110Y-15511674D02*
X8116587Y-15521198D01*
X8326110Y-15635484D02*
X8307063Y-15625960D01*
X8307063Y-15625960D02*
X8297539Y-15616436D01*
X8297539Y-15616436D02*
X8288015Y-15597388D01*
X8288015Y-15597388D02*
X8288015Y-15540246D01*
X8288015Y-15540246D02*
X8297539Y-15521198D01*
X8297539Y-15521198D02*
X8307063Y-15511674D01*
X8307063Y-15511674D02*
X8326110Y-15502150D01*
X8326110Y-15502150D02*
X8354682Y-15502150D01*
X8354682Y-15502150D02*
X8373730Y-15511674D01*
X8373730Y-15511674D02*
X8383253Y-15521198D01*
X8383253Y-15521198D02*
X8392777Y-15540246D01*
X8392777Y-15540246D02*
X8392777Y-15597388D01*
X8392777Y-15597388D02*
X8383253Y-15616436D01*
X8383253Y-15616436D02*
X8373730Y-15625960D01*
X8373730Y-15625960D02*
X8354682Y-15635484D01*
X8354682Y-15635484D02*
X8326110Y-15635484D01*
X8507063Y-15635484D02*
X8488015Y-15625960D01*
X8488015Y-15625960D02*
X8478492Y-15606912D01*
X8478492Y-15606912D02*
X8478492Y-15435484D01*
X8659444Y-15625960D02*
X8640396Y-15635484D01*
X8640396Y-15635484D02*
X8602301Y-15635484D01*
X8602301Y-15635484D02*
X8583253Y-15625960D01*
X8583253Y-15625960D02*
X8573730Y-15606912D01*
X8573730Y-15606912D02*
X8573730Y-15530722D01*
X8573730Y-15530722D02*
X8583253Y-15511674D01*
X8583253Y-15511674D02*
X8602301Y-15502150D01*
X8602301Y-15502150D02*
X8640396Y-15502150D01*
X8640396Y-15502150D02*
X8659444Y-15511674D01*
X8659444Y-15511674D02*
X8668968Y-15530722D01*
X8668968Y-15530722D02*
X8668968Y-15549769D01*
X8668968Y-15549769D02*
X8573730Y-15568817D01*
X8745158Y-15625960D02*
X8764206Y-15635484D01*
X8764206Y-15635484D02*
X8802301Y-15635484D01*
X8802301Y-15635484D02*
X8821349Y-15625960D01*
X8821349Y-15625960D02*
X8830873Y-15606912D01*
X8830873Y-15606912D02*
X8830873Y-15597388D01*
X8830873Y-15597388D02*
X8821349Y-15578341D01*
X8821349Y-15578341D02*
X8802301Y-15568817D01*
X8802301Y-15568817D02*
X8773730Y-15568817D01*
X8773730Y-15568817D02*
X8754682Y-15559293D01*
X8754682Y-15559293D02*
X8745158Y-15540246D01*
X8745158Y-15540246D02*
X8745158Y-15530722D01*
X8745158Y-15530722D02*
X8754682Y-15511674D01*
X8754682Y-15511674D02*
X8773730Y-15502150D01*
X8773730Y-15502150D02*
X8802301Y-15502150D01*
X8802301Y-15502150D02*
X8821349Y-15511674D01*
X8897539Y-15711674D02*
X8907063Y-15702150D01*
X8907063Y-15702150D02*
X8926111Y-15673579D01*
X8926111Y-15673579D02*
X8935634Y-15654531D01*
X8935634Y-15654531D02*
X8945158Y-15625960D01*
X8945158Y-15625960D02*
X8954682Y-15578341D01*
X8954682Y-15578341D02*
X8954682Y-15540246D01*
X8954682Y-15540246D02*
X8945158Y-15492627D01*
X8945158Y-15492627D02*
X8935634Y-15464055D01*
X8935634Y-15464055D02*
X8926111Y-15445008D01*
X8926111Y-15445008D02*
X8907063Y-15416436D01*
X8907063Y-15416436D02*
X8897539Y-15406912D01*
D16*
X3782000Y-15733000D02*
X3932000Y-15883000D01*
X3932000Y-15733000D02*
X3782000Y-15883000D01*
X3932000Y-15808000D02*
G75*
G03*
X3932000Y-15808000I-75000J0D01*
G01*
D11*
X4297539Y-15899484D02*
X4183253Y-15899484D01*
X4240396Y-15899484D02*
X4240396Y-15699484D01*
X4240396Y-15699484D02*
X4221348Y-15728055D01*
X4221348Y-15728055D02*
X4202301Y-15747103D01*
X4202301Y-15747103D02*
X4183253Y-15756627D01*
X4383253Y-15880436D02*
X4392777Y-15889960D01*
X4392777Y-15889960D02*
X4383253Y-15899484D01*
X4383253Y-15899484D02*
X4373729Y-15889960D01*
X4373729Y-15889960D02*
X4383253Y-15880436D01*
X4383253Y-15880436D02*
X4383253Y-15899484D01*
X4573729Y-15699484D02*
X4478491Y-15699484D01*
X4478491Y-15699484D02*
X4468967Y-15794722D01*
X4468967Y-15794722D02*
X4478491Y-15785198D01*
X4478491Y-15785198D02*
X4497539Y-15775674D01*
X4497539Y-15775674D02*
X4545158Y-15775674D01*
X4545158Y-15775674D02*
X4564205Y-15785198D01*
X4564205Y-15785198D02*
X4573729Y-15794722D01*
X4573729Y-15794722D02*
X4583253Y-15813769D01*
X4583253Y-15813769D02*
X4583253Y-15861388D01*
X4583253Y-15861388D02*
X4573729Y-15880436D01*
X4573729Y-15880436D02*
X4564205Y-15889960D01*
X4564205Y-15889960D02*
X4545158Y-15899484D01*
X4545158Y-15899484D02*
X4497539Y-15899484D01*
X4497539Y-15899484D02*
X4478491Y-15889960D01*
X4478491Y-15889960D02*
X4468967Y-15880436D01*
X4707063Y-15699484D02*
X4726110Y-15699484D01*
X4726110Y-15699484D02*
X4745158Y-15709008D01*
X4745158Y-15709008D02*
X4754682Y-15718531D01*
X4754682Y-15718531D02*
X4764205Y-15737579D01*
X4764205Y-15737579D02*
X4773729Y-15775674D01*
X4773729Y-15775674D02*
X4773729Y-15823293D01*
X4773729Y-15823293D02*
X4764205Y-15861388D01*
X4764205Y-15861388D02*
X4754682Y-15880436D01*
X4754682Y-15880436D02*
X4745158Y-15889960D01*
X4745158Y-15889960D02*
X4726110Y-15899484D01*
X4726110Y-15899484D02*
X4707063Y-15899484D01*
X4707063Y-15899484D02*
X4688015Y-15889960D01*
X4688015Y-15889960D02*
X4678491Y-15880436D01*
X4678491Y-15880436D02*
X4668967Y-15861388D01*
X4668967Y-15861388D02*
X4659444Y-15823293D01*
X4659444Y-15823293D02*
X4659444Y-15775674D01*
X4659444Y-15775674D02*
X4668967Y-15737579D01*
X4668967Y-15737579D02*
X4678491Y-15718531D01*
X4678491Y-15718531D02*
X4688015Y-15709008D01*
X4688015Y-15709008D02*
X4707063Y-15699484D01*
X4897539Y-15699484D02*
X4916586Y-15699484D01*
X4916586Y-15699484D02*
X4935634Y-15709008D01*
X4935634Y-15709008D02*
X4945158Y-15718531D01*
X4945158Y-15718531D02*
X4954682Y-15737579D01*
X4954682Y-15737579D02*
X4964205Y-15775674D01*
X4964205Y-15775674D02*
X4964205Y-15823293D01*
X4964205Y-15823293D02*
X4954682Y-15861388D01*
X4954682Y-15861388D02*
X4945158Y-15880436D01*
X4945158Y-15880436D02*
X4935634Y-15889960D01*
X4935634Y-15889960D02*
X4916586Y-15899484D01*
X4916586Y-15899484D02*
X4897539Y-15899484D01*
X4897539Y-15899484D02*
X4878491Y-15889960D01*
X4878491Y-15889960D02*
X4868967Y-15880436D01*
X4868967Y-15880436D02*
X4859444Y-15861388D01*
X4859444Y-15861388D02*
X4849920Y-15823293D01*
X4849920Y-15823293D02*
X4849920Y-15775674D01*
X4849920Y-15775674D02*
X4859444Y-15737579D01*
X4859444Y-15737579D02*
X4868967Y-15718531D01*
X4868967Y-15718531D02*
X4878491Y-15709008D01*
X4878491Y-15709008D02*
X4897539Y-15699484D01*
X5049920Y-15899484D02*
X5049920Y-15766150D01*
X5049920Y-15785198D02*
X5059444Y-15775674D01*
X5059444Y-15775674D02*
X5078491Y-15766150D01*
X5078491Y-15766150D02*
X5107063Y-15766150D01*
X5107063Y-15766150D02*
X5126110Y-15775674D01*
X5126110Y-15775674D02*
X5135634Y-15794722D01*
X5135634Y-15794722D02*
X5135634Y-15899484D01*
X5135634Y-15794722D02*
X5145158Y-15775674D01*
X5145158Y-15775674D02*
X5164205Y-15766150D01*
X5164205Y-15766150D02*
X5192777Y-15766150D01*
X5192777Y-15766150D02*
X5211825Y-15775674D01*
X5211825Y-15775674D02*
X5221348Y-15794722D01*
X5221348Y-15794722D02*
X5221348Y-15899484D01*
X5316586Y-15899484D02*
X5316586Y-15766150D01*
X5316586Y-15785198D02*
X5326110Y-15775674D01*
X5326110Y-15775674D02*
X5345158Y-15766150D01*
X5345158Y-15766150D02*
X5373729Y-15766150D01*
X5373729Y-15766150D02*
X5392777Y-15775674D01*
X5392777Y-15775674D02*
X5402301Y-15794722D01*
X5402301Y-15794722D02*
X5402301Y-15899484D01*
X5402301Y-15794722D02*
X5411825Y-15775674D01*
X5411825Y-15775674D02*
X5430872Y-15766150D01*
X5430872Y-15766150D02*
X5459444Y-15766150D01*
X5459444Y-15766150D02*
X5478491Y-15775674D01*
X5478491Y-15775674D02*
X5488015Y-15794722D01*
X5488015Y-15794722D02*
X5488015Y-15899484D01*
X5878491Y-15689960D02*
X5707063Y-15947103D01*
X6135634Y-15699484D02*
X6154682Y-15699484D01*
X6154682Y-15699484D02*
X6173729Y-15709008D01*
X6173729Y-15709008D02*
X6183253Y-15718531D01*
X6183253Y-15718531D02*
X6192777Y-15737579D01*
X6192777Y-15737579D02*
X6202301Y-15775674D01*
X6202301Y-15775674D02*
X6202301Y-15823293D01*
X6202301Y-15823293D02*
X6192777Y-15861388D01*
X6192777Y-15861388D02*
X6183253Y-15880436D01*
X6183253Y-15880436D02*
X6173729Y-15889960D01*
X6173729Y-15889960D02*
X6154682Y-15899484D01*
X6154682Y-15899484D02*
X6135634Y-15899484D01*
X6135634Y-15899484D02*
X6116586Y-15889960D01*
X6116586Y-15889960D02*
X6107063Y-15880436D01*
X6107063Y-15880436D02*
X6097539Y-15861388D01*
X6097539Y-15861388D02*
X6088015Y-15823293D01*
X6088015Y-15823293D02*
X6088015Y-15775674D01*
X6088015Y-15775674D02*
X6097539Y-15737579D01*
X6097539Y-15737579D02*
X6107063Y-15718531D01*
X6107063Y-15718531D02*
X6116586Y-15709008D01*
X6116586Y-15709008D02*
X6135634Y-15699484D01*
X6288015Y-15880436D02*
X6297539Y-15889960D01*
X6297539Y-15889960D02*
X6288015Y-15899484D01*
X6288015Y-15899484D02*
X6278491Y-15889960D01*
X6278491Y-15889960D02*
X6288015Y-15880436D01*
X6288015Y-15880436D02*
X6288015Y-15899484D01*
X6421348Y-15699484D02*
X6440396Y-15699484D01*
X6440396Y-15699484D02*
X6459444Y-15709008D01*
X6459444Y-15709008D02*
X6468967Y-15718531D01*
X6468967Y-15718531D02*
X6478491Y-15737579D01*
X6478491Y-15737579D02*
X6488015Y-15775674D01*
X6488015Y-15775674D02*
X6488015Y-15823293D01*
X6488015Y-15823293D02*
X6478491Y-15861388D01*
X6478491Y-15861388D02*
X6468967Y-15880436D01*
X6468967Y-15880436D02*
X6459444Y-15889960D01*
X6459444Y-15889960D02*
X6440396Y-15899484D01*
X6440396Y-15899484D02*
X6421348Y-15899484D01*
X6421348Y-15899484D02*
X6402301Y-15889960D01*
X6402301Y-15889960D02*
X6392777Y-15880436D01*
X6392777Y-15880436D02*
X6383253Y-15861388D01*
X6383253Y-15861388D02*
X6373729Y-15823293D01*
X6373729Y-15823293D02*
X6373729Y-15775674D01*
X6373729Y-15775674D02*
X6383253Y-15737579D01*
X6383253Y-15737579D02*
X6392777Y-15718531D01*
X6392777Y-15718531D02*
X6402301Y-15709008D01*
X6402301Y-15709008D02*
X6421348Y-15699484D01*
X6668967Y-15699484D02*
X6573729Y-15699484D01*
X6573729Y-15699484D02*
X6564206Y-15794722D01*
X6564206Y-15794722D02*
X6573729Y-15785198D01*
X6573729Y-15785198D02*
X6592777Y-15775674D01*
X6592777Y-15775674D02*
X6640396Y-15775674D01*
X6640396Y-15775674D02*
X6659444Y-15785198D01*
X6659444Y-15785198D02*
X6668967Y-15794722D01*
X6668967Y-15794722D02*
X6678491Y-15813769D01*
X6678491Y-15813769D02*
X6678491Y-15861388D01*
X6678491Y-15861388D02*
X6668967Y-15880436D01*
X6668967Y-15880436D02*
X6659444Y-15889960D01*
X6659444Y-15889960D02*
X6640396Y-15899484D01*
X6640396Y-15899484D02*
X6592777Y-15899484D01*
X6592777Y-15899484D02*
X6573729Y-15889960D01*
X6573729Y-15889960D02*
X6564206Y-15880436D01*
X6773729Y-15899484D02*
X6811825Y-15899484D01*
X6811825Y-15899484D02*
X6830872Y-15889960D01*
X6830872Y-15889960D02*
X6840396Y-15880436D01*
X6840396Y-15880436D02*
X6859444Y-15851865D01*
X6859444Y-15851865D02*
X6868967Y-15813769D01*
X6868967Y-15813769D02*
X6868967Y-15737579D01*
X6868967Y-15737579D02*
X6859444Y-15718531D01*
X6859444Y-15718531D02*
X6849920Y-15709008D01*
X6849920Y-15709008D02*
X6830872Y-15699484D01*
X6830872Y-15699484D02*
X6792777Y-15699484D01*
X6792777Y-15699484D02*
X6773729Y-15709008D01*
X6773729Y-15709008D02*
X6764206Y-15718531D01*
X6764206Y-15718531D02*
X6754682Y-15737579D01*
X6754682Y-15737579D02*
X6754682Y-15785198D01*
X6754682Y-15785198D02*
X6764206Y-15804246D01*
X6764206Y-15804246D02*
X6773729Y-15813769D01*
X6773729Y-15813769D02*
X6792777Y-15823293D01*
X6792777Y-15823293D02*
X6830872Y-15823293D01*
X6830872Y-15823293D02*
X6849920Y-15813769D01*
X6849920Y-15813769D02*
X6859444Y-15804246D01*
X6859444Y-15804246D02*
X6868967Y-15785198D01*
X7059444Y-15899484D02*
X6945158Y-15899484D01*
X7002301Y-15899484D02*
X7002301Y-15699484D01*
X7002301Y-15699484D02*
X6983253Y-15728055D01*
X6983253Y-15728055D02*
X6964206Y-15747103D01*
X6964206Y-15747103D02*
X6945158Y-15756627D01*
X7135634Y-15699484D02*
X7135634Y-15737579D01*
X7211825Y-15699484D02*
X7211825Y-15737579D01*
X7507063Y-15975674D02*
X7497539Y-15966150D01*
X7497539Y-15966150D02*
X7478491Y-15937579D01*
X7478491Y-15937579D02*
X7468968Y-15918531D01*
X7468968Y-15918531D02*
X7459444Y-15889960D01*
X7459444Y-15889960D02*
X7449920Y-15842341D01*
X7449920Y-15842341D02*
X7449920Y-15804246D01*
X7449920Y-15804246D02*
X7459444Y-15756627D01*
X7459444Y-15756627D02*
X7468968Y-15728055D01*
X7468968Y-15728055D02*
X7478491Y-15709008D01*
X7478491Y-15709008D02*
X7497539Y-15680436D01*
X7497539Y-15680436D02*
X7507063Y-15670912D01*
X7564206Y-15699484D02*
X7688015Y-15699484D01*
X7688015Y-15699484D02*
X7621348Y-15775674D01*
X7621348Y-15775674D02*
X7649920Y-15775674D01*
X7649920Y-15775674D02*
X7668968Y-15785198D01*
X7668968Y-15785198D02*
X7678491Y-15794722D01*
X7678491Y-15794722D02*
X7688015Y-15813769D01*
X7688015Y-15813769D02*
X7688015Y-15861388D01*
X7688015Y-15861388D02*
X7678491Y-15880436D01*
X7678491Y-15880436D02*
X7668968Y-15889960D01*
X7668968Y-15889960D02*
X7649920Y-15899484D01*
X7649920Y-15899484D02*
X7592777Y-15899484D01*
X7592777Y-15899484D02*
X7573729Y-15889960D01*
X7573729Y-15889960D02*
X7564206Y-15880436D01*
X7764206Y-15718531D02*
X7773729Y-15709008D01*
X7773729Y-15709008D02*
X7792777Y-15699484D01*
X7792777Y-15699484D02*
X7840396Y-15699484D01*
X7840396Y-15699484D02*
X7859444Y-15709008D01*
X7859444Y-15709008D02*
X7868968Y-15718531D01*
X7868968Y-15718531D02*
X7878491Y-15737579D01*
X7878491Y-15737579D02*
X7878491Y-15756627D01*
X7878491Y-15756627D02*
X7868968Y-15785198D01*
X7868968Y-15785198D02*
X7754682Y-15899484D01*
X7754682Y-15899484D02*
X7878491Y-15899484D01*
X8116587Y-15899484D02*
X8116587Y-15699484D01*
X8202301Y-15899484D02*
X8202301Y-15794722D01*
X8202301Y-15794722D02*
X8192777Y-15775674D01*
X8192777Y-15775674D02*
X8173730Y-15766150D01*
X8173730Y-15766150D02*
X8145158Y-15766150D01*
X8145158Y-15766150D02*
X8126110Y-15775674D01*
X8126110Y-15775674D02*
X8116587Y-15785198D01*
X8326110Y-15899484D02*
X8307063Y-15889960D01*
X8307063Y-15889960D02*
X8297539Y-15880436D01*
X8297539Y-15880436D02*
X8288015Y-15861388D01*
X8288015Y-15861388D02*
X8288015Y-15804246D01*
X8288015Y-15804246D02*
X8297539Y-15785198D01*
X8297539Y-15785198D02*
X8307063Y-15775674D01*
X8307063Y-15775674D02*
X8326110Y-15766150D01*
X8326110Y-15766150D02*
X8354682Y-15766150D01*
X8354682Y-15766150D02*
X8373730Y-15775674D01*
X8373730Y-15775674D02*
X8383253Y-15785198D01*
X8383253Y-15785198D02*
X8392777Y-15804246D01*
X8392777Y-15804246D02*
X8392777Y-15861388D01*
X8392777Y-15861388D02*
X8383253Y-15880436D01*
X8383253Y-15880436D02*
X8373730Y-15889960D01*
X8373730Y-15889960D02*
X8354682Y-15899484D01*
X8354682Y-15899484D02*
X8326110Y-15899484D01*
X8507063Y-15899484D02*
X8488015Y-15889960D01*
X8488015Y-15889960D02*
X8478492Y-15870912D01*
X8478492Y-15870912D02*
X8478492Y-15699484D01*
X8659444Y-15889960D02*
X8640396Y-15899484D01*
X8640396Y-15899484D02*
X8602301Y-15899484D01*
X8602301Y-15899484D02*
X8583253Y-15889960D01*
X8583253Y-15889960D02*
X8573730Y-15870912D01*
X8573730Y-15870912D02*
X8573730Y-15794722D01*
X8573730Y-15794722D02*
X8583253Y-15775674D01*
X8583253Y-15775674D02*
X8602301Y-15766150D01*
X8602301Y-15766150D02*
X8640396Y-15766150D01*
X8640396Y-15766150D02*
X8659444Y-15775674D01*
X8659444Y-15775674D02*
X8668968Y-15794722D01*
X8668968Y-15794722D02*
X8668968Y-15813769D01*
X8668968Y-15813769D02*
X8573730Y-15832817D01*
X8745158Y-15889960D02*
X8764206Y-15899484D01*
X8764206Y-15899484D02*
X8802301Y-15899484D01*
X8802301Y-15899484D02*
X8821349Y-15889960D01*
X8821349Y-15889960D02*
X8830873Y-15870912D01*
X8830873Y-15870912D02*
X8830873Y-15861388D01*
X8830873Y-15861388D02*
X8821349Y-15842341D01*
X8821349Y-15842341D02*
X8802301Y-15832817D01*
X8802301Y-15832817D02*
X8773730Y-15832817D01*
X8773730Y-15832817D02*
X8754682Y-15823293D01*
X8754682Y-15823293D02*
X8745158Y-15804246D01*
X8745158Y-15804246D02*
X8745158Y-15794722D01*
X8745158Y-15794722D02*
X8754682Y-15775674D01*
X8754682Y-15775674D02*
X8773730Y-15766150D01*
X8773730Y-15766150D02*
X8802301Y-15766150D01*
X8802301Y-15766150D02*
X8821349Y-15775674D01*
X8897539Y-15975674D02*
X8907063Y-15966150D01*
X8907063Y-15966150D02*
X8926111Y-15937579D01*
X8926111Y-15937579D02*
X8935634Y-15918531D01*
X8935634Y-15918531D02*
X8945158Y-15889960D01*
X8945158Y-15889960D02*
X8954682Y-15842341D01*
X8954682Y-15842341D02*
X8954682Y-15804246D01*
X8954682Y-15804246D02*
X8945158Y-15756627D01*
X8945158Y-15756627D02*
X8935634Y-15728055D01*
X8935634Y-15728055D02*
X8926111Y-15709008D01*
X8926111Y-15709008D02*
X8907063Y-15680436D01*
X8907063Y-15680436D02*
X8897539Y-15670912D01*
X3732000Y-15978000D02*
X3932000Y-16178000D01*
X3932000Y-15978000D02*
X3732000Y-16178000D01*
X3832000Y-15978000D02*
X3832000Y-16178000D01*
X3732000Y-16078000D02*
X3932000Y-16078000D01*
X4183253Y-15988531D02*
X4192777Y-15979008D01*
X4192777Y-15979008D02*
X4211824Y-15969484D01*
X4211824Y-15969484D02*
X4259444Y-15969484D01*
X4259444Y-15969484D02*
X4278491Y-15979008D01*
X4278491Y-15979008D02*
X4288015Y-15988531D01*
X4288015Y-15988531D02*
X4297539Y-16007579D01*
X4297539Y-16007579D02*
X4297539Y-16026627D01*
X4297539Y-16026627D02*
X4288015Y-16055198D01*
X4288015Y-16055198D02*
X4173729Y-16169484D01*
X4173729Y-16169484D02*
X4297539Y-16169484D01*
X4383253Y-16150436D02*
X4392777Y-16159960D01*
X4392777Y-16159960D02*
X4383253Y-16169484D01*
X4383253Y-16169484D02*
X4373729Y-16159960D01*
X4373729Y-16159960D02*
X4383253Y-16150436D01*
X4383253Y-16150436D02*
X4383253Y-16169484D01*
X4468967Y-15988531D02*
X4478491Y-15979008D01*
X4478491Y-15979008D02*
X4497539Y-15969484D01*
X4497539Y-15969484D02*
X4545158Y-15969484D01*
X4545158Y-15969484D02*
X4564205Y-15979008D01*
X4564205Y-15979008D02*
X4573729Y-15988531D01*
X4573729Y-15988531D02*
X4583253Y-16007579D01*
X4583253Y-16007579D02*
X4583253Y-16026627D01*
X4583253Y-16026627D02*
X4573729Y-16055198D01*
X4573729Y-16055198D02*
X4459444Y-16169484D01*
X4459444Y-16169484D02*
X4583253Y-16169484D01*
X4707063Y-15969484D02*
X4726110Y-15969484D01*
X4726110Y-15969484D02*
X4745158Y-15979008D01*
X4745158Y-15979008D02*
X4754682Y-15988531D01*
X4754682Y-15988531D02*
X4764205Y-16007579D01*
X4764205Y-16007579D02*
X4773729Y-16045674D01*
X4773729Y-16045674D02*
X4773729Y-16093293D01*
X4773729Y-16093293D02*
X4764205Y-16131388D01*
X4764205Y-16131388D02*
X4754682Y-16150436D01*
X4754682Y-16150436D02*
X4745158Y-16159960D01*
X4745158Y-16159960D02*
X4726110Y-16169484D01*
X4726110Y-16169484D02*
X4707063Y-16169484D01*
X4707063Y-16169484D02*
X4688015Y-16159960D01*
X4688015Y-16159960D02*
X4678491Y-16150436D01*
X4678491Y-16150436D02*
X4668967Y-16131388D01*
X4668967Y-16131388D02*
X4659444Y-16093293D01*
X4659444Y-16093293D02*
X4659444Y-16045674D01*
X4659444Y-16045674D02*
X4668967Y-16007579D01*
X4668967Y-16007579D02*
X4678491Y-15988531D01*
X4678491Y-15988531D02*
X4688015Y-15979008D01*
X4688015Y-15979008D02*
X4707063Y-15969484D01*
X4897539Y-15969484D02*
X4916586Y-15969484D01*
X4916586Y-15969484D02*
X4935634Y-15979008D01*
X4935634Y-15979008D02*
X4945158Y-15988531D01*
X4945158Y-15988531D02*
X4954682Y-16007579D01*
X4954682Y-16007579D02*
X4964205Y-16045674D01*
X4964205Y-16045674D02*
X4964205Y-16093293D01*
X4964205Y-16093293D02*
X4954682Y-16131388D01*
X4954682Y-16131388D02*
X4945158Y-16150436D01*
X4945158Y-16150436D02*
X4935634Y-16159960D01*
X4935634Y-16159960D02*
X4916586Y-16169484D01*
X4916586Y-16169484D02*
X4897539Y-16169484D01*
X4897539Y-16169484D02*
X4878491Y-16159960D01*
X4878491Y-16159960D02*
X4868967Y-16150436D01*
X4868967Y-16150436D02*
X4859444Y-16131388D01*
X4859444Y-16131388D02*
X4849920Y-16093293D01*
X4849920Y-16093293D02*
X4849920Y-16045674D01*
X4849920Y-16045674D02*
X4859444Y-16007579D01*
X4859444Y-16007579D02*
X4868967Y-15988531D01*
X4868967Y-15988531D02*
X4878491Y-15979008D01*
X4878491Y-15979008D02*
X4897539Y-15969484D01*
X5049920Y-16169484D02*
X5049920Y-16036150D01*
X5049920Y-16055198D02*
X5059444Y-16045674D01*
X5059444Y-16045674D02*
X5078491Y-16036150D01*
X5078491Y-16036150D02*
X5107063Y-16036150D01*
X5107063Y-16036150D02*
X5126110Y-16045674D01*
X5126110Y-16045674D02*
X5135634Y-16064722D01*
X5135634Y-16064722D02*
X5135634Y-16169484D01*
X5135634Y-16064722D02*
X5145158Y-16045674D01*
X5145158Y-16045674D02*
X5164205Y-16036150D01*
X5164205Y-16036150D02*
X5192777Y-16036150D01*
X5192777Y-16036150D02*
X5211825Y-16045674D01*
X5211825Y-16045674D02*
X5221348Y-16064722D01*
X5221348Y-16064722D02*
X5221348Y-16169484D01*
X5316586Y-16169484D02*
X5316586Y-16036150D01*
X5316586Y-16055198D02*
X5326110Y-16045674D01*
X5326110Y-16045674D02*
X5345158Y-16036150D01*
X5345158Y-16036150D02*
X5373729Y-16036150D01*
X5373729Y-16036150D02*
X5392777Y-16045674D01*
X5392777Y-16045674D02*
X5402301Y-16064722D01*
X5402301Y-16064722D02*
X5402301Y-16169484D01*
X5402301Y-16064722D02*
X5411825Y-16045674D01*
X5411825Y-16045674D02*
X5430872Y-16036150D01*
X5430872Y-16036150D02*
X5459444Y-16036150D01*
X5459444Y-16036150D02*
X5478491Y-16045674D01*
X5478491Y-16045674D02*
X5488015Y-16064722D01*
X5488015Y-16064722D02*
X5488015Y-16169484D01*
X5878491Y-15959960D02*
X5707063Y-16217103D01*
X6135634Y-15969484D02*
X6154682Y-15969484D01*
X6154682Y-15969484D02*
X6173729Y-15979008D01*
X6173729Y-15979008D02*
X6183253Y-15988531D01*
X6183253Y-15988531D02*
X6192777Y-16007579D01*
X6192777Y-16007579D02*
X6202301Y-16045674D01*
X6202301Y-16045674D02*
X6202301Y-16093293D01*
X6202301Y-16093293D02*
X6192777Y-16131388D01*
X6192777Y-16131388D02*
X6183253Y-16150436D01*
X6183253Y-16150436D02*
X6173729Y-16159960D01*
X6173729Y-16159960D02*
X6154682Y-16169484D01*
X6154682Y-16169484D02*
X6135634Y-16169484D01*
X6135634Y-16169484D02*
X6116586Y-16159960D01*
X6116586Y-16159960D02*
X6107063Y-16150436D01*
X6107063Y-16150436D02*
X6097539Y-16131388D01*
X6097539Y-16131388D02*
X6088015Y-16093293D01*
X6088015Y-16093293D02*
X6088015Y-16045674D01*
X6088015Y-16045674D02*
X6097539Y-16007579D01*
X6097539Y-16007579D02*
X6107063Y-15988531D01*
X6107063Y-15988531D02*
X6116586Y-15979008D01*
X6116586Y-15979008D02*
X6135634Y-15969484D01*
X6288015Y-16150436D02*
X6297539Y-16159960D01*
X6297539Y-16159960D02*
X6288015Y-16169484D01*
X6288015Y-16169484D02*
X6278491Y-16159960D01*
X6278491Y-16159960D02*
X6288015Y-16150436D01*
X6288015Y-16150436D02*
X6288015Y-16169484D01*
X6421348Y-15969484D02*
X6440396Y-15969484D01*
X6440396Y-15969484D02*
X6459444Y-15979008D01*
X6459444Y-15979008D02*
X6468967Y-15988531D01*
X6468967Y-15988531D02*
X6478491Y-16007579D01*
X6478491Y-16007579D02*
X6488015Y-16045674D01*
X6488015Y-16045674D02*
X6488015Y-16093293D01*
X6488015Y-16093293D02*
X6478491Y-16131388D01*
X6478491Y-16131388D02*
X6468967Y-16150436D01*
X6468967Y-16150436D02*
X6459444Y-16159960D01*
X6459444Y-16159960D02*
X6440396Y-16169484D01*
X6440396Y-16169484D02*
X6421348Y-16169484D01*
X6421348Y-16169484D02*
X6402301Y-16159960D01*
X6402301Y-16159960D02*
X6392777Y-16150436D01*
X6392777Y-16150436D02*
X6383253Y-16131388D01*
X6383253Y-16131388D02*
X6373729Y-16093293D01*
X6373729Y-16093293D02*
X6373729Y-16045674D01*
X6373729Y-16045674D02*
X6383253Y-16007579D01*
X6383253Y-16007579D02*
X6392777Y-15988531D01*
X6392777Y-15988531D02*
X6402301Y-15979008D01*
X6402301Y-15979008D02*
X6421348Y-15969484D01*
X6602301Y-16055198D02*
X6583253Y-16045674D01*
X6583253Y-16045674D02*
X6573729Y-16036150D01*
X6573729Y-16036150D02*
X6564206Y-16017103D01*
X6564206Y-16017103D02*
X6564206Y-16007579D01*
X6564206Y-16007579D02*
X6573729Y-15988531D01*
X6573729Y-15988531D02*
X6583253Y-15979008D01*
X6583253Y-15979008D02*
X6602301Y-15969484D01*
X6602301Y-15969484D02*
X6640396Y-15969484D01*
X6640396Y-15969484D02*
X6659444Y-15979008D01*
X6659444Y-15979008D02*
X6668967Y-15988531D01*
X6668967Y-15988531D02*
X6678491Y-16007579D01*
X6678491Y-16007579D02*
X6678491Y-16017103D01*
X6678491Y-16017103D02*
X6668967Y-16036150D01*
X6668967Y-16036150D02*
X6659444Y-16045674D01*
X6659444Y-16045674D02*
X6640396Y-16055198D01*
X6640396Y-16055198D02*
X6602301Y-16055198D01*
X6602301Y-16055198D02*
X6583253Y-16064722D01*
X6583253Y-16064722D02*
X6573729Y-16074246D01*
X6573729Y-16074246D02*
X6564206Y-16093293D01*
X6564206Y-16093293D02*
X6564206Y-16131388D01*
X6564206Y-16131388D02*
X6573729Y-16150436D01*
X6573729Y-16150436D02*
X6583253Y-16159960D01*
X6583253Y-16159960D02*
X6602301Y-16169484D01*
X6602301Y-16169484D02*
X6640396Y-16169484D01*
X6640396Y-16169484D02*
X6659444Y-16159960D01*
X6659444Y-16159960D02*
X6668967Y-16150436D01*
X6668967Y-16150436D02*
X6678491Y-16131388D01*
X6678491Y-16131388D02*
X6678491Y-16093293D01*
X6678491Y-16093293D02*
X6668967Y-16074246D01*
X6668967Y-16074246D02*
X6659444Y-16064722D01*
X6659444Y-16064722D02*
X6640396Y-16055198D01*
X6849920Y-15969484D02*
X6811825Y-15969484D01*
X6811825Y-15969484D02*
X6792777Y-15979008D01*
X6792777Y-15979008D02*
X6783253Y-15988531D01*
X6783253Y-15988531D02*
X6764206Y-16017103D01*
X6764206Y-16017103D02*
X6754682Y-16055198D01*
X6754682Y-16055198D02*
X6754682Y-16131388D01*
X6754682Y-16131388D02*
X6764206Y-16150436D01*
X6764206Y-16150436D02*
X6773729Y-16159960D01*
X6773729Y-16159960D02*
X6792777Y-16169484D01*
X6792777Y-16169484D02*
X6830872Y-16169484D01*
X6830872Y-16169484D02*
X6849920Y-16159960D01*
X6849920Y-16159960D02*
X6859444Y-16150436D01*
X6859444Y-16150436D02*
X6868967Y-16131388D01*
X6868967Y-16131388D02*
X6868967Y-16083769D01*
X6868967Y-16083769D02*
X6859444Y-16064722D01*
X6859444Y-16064722D02*
X6849920Y-16055198D01*
X6849920Y-16055198D02*
X6830872Y-16045674D01*
X6830872Y-16045674D02*
X6792777Y-16045674D01*
X6792777Y-16045674D02*
X6773729Y-16055198D01*
X6773729Y-16055198D02*
X6764206Y-16064722D01*
X6764206Y-16064722D02*
X6754682Y-16083769D01*
X7040396Y-15969484D02*
X7002301Y-15969484D01*
X7002301Y-15969484D02*
X6983253Y-15979008D01*
X6983253Y-15979008D02*
X6973729Y-15988531D01*
X6973729Y-15988531D02*
X6954682Y-16017103D01*
X6954682Y-16017103D02*
X6945158Y-16055198D01*
X6945158Y-16055198D02*
X6945158Y-16131388D01*
X6945158Y-16131388D02*
X6954682Y-16150436D01*
X6954682Y-16150436D02*
X6964206Y-16159960D01*
X6964206Y-16159960D02*
X6983253Y-16169484D01*
X6983253Y-16169484D02*
X7021348Y-16169484D01*
X7021348Y-16169484D02*
X7040396Y-16159960D01*
X7040396Y-16159960D02*
X7049920Y-16150436D01*
X7049920Y-16150436D02*
X7059444Y-16131388D01*
X7059444Y-16131388D02*
X7059444Y-16083769D01*
X7059444Y-16083769D02*
X7049920Y-16064722D01*
X7049920Y-16064722D02*
X7040396Y-16055198D01*
X7040396Y-16055198D02*
X7021348Y-16045674D01*
X7021348Y-16045674D02*
X6983253Y-16045674D01*
X6983253Y-16045674D02*
X6964206Y-16055198D01*
X6964206Y-16055198D02*
X6954682Y-16064722D01*
X6954682Y-16064722D02*
X6945158Y-16083769D01*
X7135634Y-15969484D02*
X7135634Y-16007579D01*
X7211825Y-15969484D02*
X7211825Y-16007579D01*
X7507063Y-16245674D02*
X7497539Y-16236150D01*
X7497539Y-16236150D02*
X7478491Y-16207579D01*
X7478491Y-16207579D02*
X7468968Y-16188531D01*
X7468968Y-16188531D02*
X7459444Y-16159960D01*
X7459444Y-16159960D02*
X7449920Y-16112341D01*
X7449920Y-16112341D02*
X7449920Y-16074246D01*
X7449920Y-16074246D02*
X7459444Y-16026627D01*
X7459444Y-16026627D02*
X7468968Y-15998055D01*
X7468968Y-15998055D02*
X7478491Y-15979008D01*
X7478491Y-15979008D02*
X7497539Y-15950436D01*
X7497539Y-15950436D02*
X7507063Y-15940912D01*
X7611825Y-16055198D02*
X7592777Y-16045674D01*
X7592777Y-16045674D02*
X7583253Y-16036150D01*
X7583253Y-16036150D02*
X7573729Y-16017103D01*
X7573729Y-16017103D02*
X7573729Y-16007579D01*
X7573729Y-16007579D02*
X7583253Y-15988531D01*
X7583253Y-15988531D02*
X7592777Y-15979008D01*
X7592777Y-15979008D02*
X7611825Y-15969484D01*
X7611825Y-15969484D02*
X7649920Y-15969484D01*
X7649920Y-15969484D02*
X7668968Y-15979008D01*
X7668968Y-15979008D02*
X7678491Y-15988531D01*
X7678491Y-15988531D02*
X7688015Y-16007579D01*
X7688015Y-16007579D02*
X7688015Y-16017103D01*
X7688015Y-16017103D02*
X7678491Y-16036150D01*
X7678491Y-16036150D02*
X7668968Y-16045674D01*
X7668968Y-16045674D02*
X7649920Y-16055198D01*
X7649920Y-16055198D02*
X7611825Y-16055198D01*
X7611825Y-16055198D02*
X7592777Y-16064722D01*
X7592777Y-16064722D02*
X7583253Y-16074246D01*
X7583253Y-16074246D02*
X7573729Y-16093293D01*
X7573729Y-16093293D02*
X7573729Y-16131388D01*
X7573729Y-16131388D02*
X7583253Y-16150436D01*
X7583253Y-16150436D02*
X7592777Y-16159960D01*
X7592777Y-16159960D02*
X7611825Y-16169484D01*
X7611825Y-16169484D02*
X7649920Y-16169484D01*
X7649920Y-16169484D02*
X7668968Y-16159960D01*
X7668968Y-16159960D02*
X7678491Y-16150436D01*
X7678491Y-16150436D02*
X7688015Y-16131388D01*
X7688015Y-16131388D02*
X7688015Y-16093293D01*
X7688015Y-16093293D02*
X7678491Y-16074246D01*
X7678491Y-16074246D02*
X7668968Y-16064722D01*
X7668968Y-16064722D02*
X7649920Y-16055198D01*
X7926110Y-16169484D02*
X7926110Y-15969484D01*
X8011825Y-16169484D02*
X8011825Y-16064722D01*
X8011825Y-16064722D02*
X8002301Y-16045674D01*
X8002301Y-16045674D02*
X7983253Y-16036150D01*
X7983253Y-16036150D02*
X7954682Y-16036150D01*
X7954682Y-16036150D02*
X7935634Y-16045674D01*
X7935634Y-16045674D02*
X7926110Y-16055198D01*
X8135634Y-16169484D02*
X8116587Y-16159960D01*
X8116587Y-16159960D02*
X8107063Y-16150436D01*
X8107063Y-16150436D02*
X8097539Y-16131388D01*
X8097539Y-16131388D02*
X8097539Y-16074246D01*
X8097539Y-16074246D02*
X8107063Y-16055198D01*
X8107063Y-16055198D02*
X8116587Y-16045674D01*
X8116587Y-16045674D02*
X8135634Y-16036150D01*
X8135634Y-16036150D02*
X8164206Y-16036150D01*
X8164206Y-16036150D02*
X8183253Y-16045674D01*
X8183253Y-16045674D02*
X8192777Y-16055198D01*
X8192777Y-16055198D02*
X8202301Y-16074246D01*
X8202301Y-16074246D02*
X8202301Y-16131388D01*
X8202301Y-16131388D02*
X8192777Y-16150436D01*
X8192777Y-16150436D02*
X8183253Y-16159960D01*
X8183253Y-16159960D02*
X8164206Y-16169484D01*
X8164206Y-16169484D02*
X8135634Y-16169484D01*
X8316587Y-16169484D02*
X8297539Y-16159960D01*
X8297539Y-16159960D02*
X8288015Y-16140912D01*
X8288015Y-16140912D02*
X8288015Y-15969484D01*
X8468968Y-16159960D02*
X8449920Y-16169484D01*
X8449920Y-16169484D02*
X8411825Y-16169484D01*
X8411825Y-16169484D02*
X8392777Y-16159960D01*
X8392777Y-16159960D02*
X8383253Y-16140912D01*
X8383253Y-16140912D02*
X8383253Y-16064722D01*
X8383253Y-16064722D02*
X8392777Y-16045674D01*
X8392777Y-16045674D02*
X8411825Y-16036150D01*
X8411825Y-16036150D02*
X8449920Y-16036150D01*
X8449920Y-16036150D02*
X8468968Y-16045674D01*
X8468968Y-16045674D02*
X8478492Y-16064722D01*
X8478492Y-16064722D02*
X8478492Y-16083769D01*
X8478492Y-16083769D02*
X8383253Y-16102817D01*
X8554682Y-16159960D02*
X8573730Y-16169484D01*
X8573730Y-16169484D02*
X8611825Y-16169484D01*
X8611825Y-16169484D02*
X8630873Y-16159960D01*
X8630873Y-16159960D02*
X8640396Y-16140912D01*
X8640396Y-16140912D02*
X8640396Y-16131388D01*
X8640396Y-16131388D02*
X8630873Y-16112341D01*
X8630873Y-16112341D02*
X8611825Y-16102817D01*
X8611825Y-16102817D02*
X8583253Y-16102817D01*
X8583253Y-16102817D02*
X8564206Y-16093293D01*
X8564206Y-16093293D02*
X8554682Y-16074246D01*
X8554682Y-16074246D02*
X8554682Y-16064722D01*
X8554682Y-16064722D02*
X8564206Y-16045674D01*
X8564206Y-16045674D02*
X8583253Y-16036150D01*
X8583253Y-16036150D02*
X8611825Y-16036150D01*
X8611825Y-16036150D02*
X8630873Y-16045674D01*
X8707063Y-16245674D02*
X8716587Y-16236150D01*
X8716587Y-16236150D02*
X8735634Y-16207579D01*
X8735634Y-16207579D02*
X8745158Y-16188531D01*
X8745158Y-16188531D02*
X8754682Y-16159960D01*
X8754682Y-16159960D02*
X8764206Y-16112341D01*
X8764206Y-16112341D02*
X8764206Y-16074246D01*
X8764206Y-16074246D02*
X8754682Y-16026627D01*
X8754682Y-16026627D02*
X8745158Y-15998055D01*
X8745158Y-15998055D02*
X8735634Y-15979008D01*
X8735634Y-15979008D02*
X8716587Y-15950436D01*
X8716587Y-15950436D02*
X8707063Y-15940912D01*
X3732000Y-16298000D02*
X3932000Y-16498000D01*
X3932000Y-16298000D02*
X3732000Y-16498000D01*
X3902711Y-16468711D02*
X3902711Y-16327289D01*
X3761289Y-16327289D01*
X3761289Y-16468711D01*
X3902711Y-16468711D01*
X4278491Y-16356150D02*
X4278491Y-16489484D01*
X4230872Y-16279960D02*
X4183253Y-16422817D01*
X4183253Y-16422817D02*
X4307063Y-16422817D01*
X4383253Y-16470436D02*
X4392777Y-16479960D01*
X4392777Y-16479960D02*
X4383253Y-16489484D01*
X4383253Y-16489484D02*
X4373729Y-16479960D01*
X4373729Y-16479960D02*
X4383253Y-16470436D01*
X4383253Y-16470436D02*
X4383253Y-16489484D01*
X4516586Y-16289484D02*
X4535634Y-16289484D01*
X4535634Y-16289484D02*
X4554682Y-16299008D01*
X4554682Y-16299008D02*
X4564205Y-16308531D01*
X4564205Y-16308531D02*
X4573729Y-16327579D01*
X4573729Y-16327579D02*
X4583253Y-16365674D01*
X4583253Y-16365674D02*
X4583253Y-16413293D01*
X4583253Y-16413293D02*
X4573729Y-16451388D01*
X4573729Y-16451388D02*
X4564205Y-16470436D01*
X4564205Y-16470436D02*
X4554682Y-16479960D01*
X4554682Y-16479960D02*
X4535634Y-16489484D01*
X4535634Y-16489484D02*
X4516586Y-16489484D01*
X4516586Y-16489484D02*
X4497539Y-16479960D01*
X4497539Y-16479960D02*
X4488015Y-16470436D01*
X4488015Y-16470436D02*
X4478491Y-16451388D01*
X4478491Y-16451388D02*
X4468967Y-16413293D01*
X4468967Y-16413293D02*
X4468967Y-16365674D01*
X4468967Y-16365674D02*
X4478491Y-16327579D01*
X4478491Y-16327579D02*
X4488015Y-16308531D01*
X4488015Y-16308531D02*
X4497539Y-16299008D01*
X4497539Y-16299008D02*
X4516586Y-16289484D01*
X4707063Y-16289484D02*
X4726110Y-16289484D01*
X4726110Y-16289484D02*
X4745158Y-16299008D01*
X4745158Y-16299008D02*
X4754682Y-16308531D01*
X4754682Y-16308531D02*
X4764205Y-16327579D01*
X4764205Y-16327579D02*
X4773729Y-16365674D01*
X4773729Y-16365674D02*
X4773729Y-16413293D01*
X4773729Y-16413293D02*
X4764205Y-16451388D01*
X4764205Y-16451388D02*
X4754682Y-16470436D01*
X4754682Y-16470436D02*
X4745158Y-16479960D01*
X4745158Y-16479960D02*
X4726110Y-16489484D01*
X4726110Y-16489484D02*
X4707063Y-16489484D01*
X4707063Y-16489484D02*
X4688015Y-16479960D01*
X4688015Y-16479960D02*
X4678491Y-16470436D01*
X4678491Y-16470436D02*
X4668967Y-16451388D01*
X4668967Y-16451388D02*
X4659444Y-16413293D01*
X4659444Y-16413293D02*
X4659444Y-16365674D01*
X4659444Y-16365674D02*
X4668967Y-16327579D01*
X4668967Y-16327579D02*
X4678491Y-16308531D01*
X4678491Y-16308531D02*
X4688015Y-16299008D01*
X4688015Y-16299008D02*
X4707063Y-16289484D01*
X4897539Y-16289484D02*
X4916586Y-16289484D01*
X4916586Y-16289484D02*
X4935634Y-16299008D01*
X4935634Y-16299008D02*
X4945158Y-16308531D01*
X4945158Y-16308531D02*
X4954682Y-16327579D01*
X4954682Y-16327579D02*
X4964205Y-16365674D01*
X4964205Y-16365674D02*
X4964205Y-16413293D01*
X4964205Y-16413293D02*
X4954682Y-16451388D01*
X4954682Y-16451388D02*
X4945158Y-16470436D01*
X4945158Y-16470436D02*
X4935634Y-16479960D01*
X4935634Y-16479960D02*
X4916586Y-16489484D01*
X4916586Y-16489484D02*
X4897539Y-16489484D01*
X4897539Y-16489484D02*
X4878491Y-16479960D01*
X4878491Y-16479960D02*
X4868967Y-16470436D01*
X4868967Y-16470436D02*
X4859444Y-16451388D01*
X4859444Y-16451388D02*
X4849920Y-16413293D01*
X4849920Y-16413293D02*
X4849920Y-16365674D01*
X4849920Y-16365674D02*
X4859444Y-16327579D01*
X4859444Y-16327579D02*
X4868967Y-16308531D01*
X4868967Y-16308531D02*
X4878491Y-16299008D01*
X4878491Y-16299008D02*
X4897539Y-16289484D01*
X5049920Y-16489484D02*
X5049920Y-16356150D01*
X5049920Y-16375198D02*
X5059444Y-16365674D01*
X5059444Y-16365674D02*
X5078491Y-16356150D01*
X5078491Y-16356150D02*
X5107063Y-16356150D01*
X5107063Y-16356150D02*
X5126110Y-16365674D01*
X5126110Y-16365674D02*
X5135634Y-16384722D01*
X5135634Y-16384722D02*
X5135634Y-16489484D01*
X5135634Y-16384722D02*
X5145158Y-16365674D01*
X5145158Y-16365674D02*
X5164205Y-16356150D01*
X5164205Y-16356150D02*
X5192777Y-16356150D01*
X5192777Y-16356150D02*
X5211825Y-16365674D01*
X5211825Y-16365674D02*
X5221348Y-16384722D01*
X5221348Y-16384722D02*
X5221348Y-16489484D01*
X5316586Y-16489484D02*
X5316586Y-16356150D01*
X5316586Y-16375198D02*
X5326110Y-16365674D01*
X5326110Y-16365674D02*
X5345158Y-16356150D01*
X5345158Y-16356150D02*
X5373729Y-16356150D01*
X5373729Y-16356150D02*
X5392777Y-16365674D01*
X5392777Y-16365674D02*
X5402301Y-16384722D01*
X5402301Y-16384722D02*
X5402301Y-16489484D01*
X5402301Y-16384722D02*
X5411825Y-16365674D01*
X5411825Y-16365674D02*
X5430872Y-16356150D01*
X5430872Y-16356150D02*
X5459444Y-16356150D01*
X5459444Y-16356150D02*
X5478491Y-16365674D01*
X5478491Y-16365674D02*
X5488015Y-16384722D01*
X5488015Y-16384722D02*
X5488015Y-16489484D01*
X5878491Y-16279960D02*
X5707063Y-16537103D01*
X6135634Y-16289484D02*
X6154682Y-16289484D01*
X6154682Y-16289484D02*
X6173729Y-16299008D01*
X6173729Y-16299008D02*
X6183253Y-16308531D01*
X6183253Y-16308531D02*
X6192777Y-16327579D01*
X6192777Y-16327579D02*
X6202301Y-16365674D01*
X6202301Y-16365674D02*
X6202301Y-16413293D01*
X6202301Y-16413293D02*
X6192777Y-16451388D01*
X6192777Y-16451388D02*
X6183253Y-16470436D01*
X6183253Y-16470436D02*
X6173729Y-16479960D01*
X6173729Y-16479960D02*
X6154682Y-16489484D01*
X6154682Y-16489484D02*
X6135634Y-16489484D01*
X6135634Y-16489484D02*
X6116586Y-16479960D01*
X6116586Y-16479960D02*
X6107063Y-16470436D01*
X6107063Y-16470436D02*
X6097539Y-16451388D01*
X6097539Y-16451388D02*
X6088015Y-16413293D01*
X6088015Y-16413293D02*
X6088015Y-16365674D01*
X6088015Y-16365674D02*
X6097539Y-16327579D01*
X6097539Y-16327579D02*
X6107063Y-16308531D01*
X6107063Y-16308531D02*
X6116586Y-16299008D01*
X6116586Y-16299008D02*
X6135634Y-16289484D01*
X6288015Y-16470436D02*
X6297539Y-16479960D01*
X6297539Y-16479960D02*
X6288015Y-16489484D01*
X6288015Y-16489484D02*
X6278491Y-16479960D01*
X6278491Y-16479960D02*
X6288015Y-16470436D01*
X6288015Y-16470436D02*
X6288015Y-16489484D01*
X6488015Y-16489484D02*
X6373729Y-16489484D01*
X6430872Y-16489484D02*
X6430872Y-16289484D01*
X6430872Y-16289484D02*
X6411825Y-16318055D01*
X6411825Y-16318055D02*
X6392777Y-16337103D01*
X6392777Y-16337103D02*
X6373729Y-16346627D01*
X6668967Y-16289484D02*
X6573729Y-16289484D01*
X6573729Y-16289484D02*
X6564206Y-16384722D01*
X6564206Y-16384722D02*
X6573729Y-16375198D01*
X6573729Y-16375198D02*
X6592777Y-16365674D01*
X6592777Y-16365674D02*
X6640396Y-16365674D01*
X6640396Y-16365674D02*
X6659444Y-16375198D01*
X6659444Y-16375198D02*
X6668967Y-16384722D01*
X6668967Y-16384722D02*
X6678491Y-16403769D01*
X6678491Y-16403769D02*
X6678491Y-16451388D01*
X6678491Y-16451388D02*
X6668967Y-16470436D01*
X6668967Y-16470436D02*
X6659444Y-16479960D01*
X6659444Y-16479960D02*
X6640396Y-16489484D01*
X6640396Y-16489484D02*
X6592777Y-16489484D01*
X6592777Y-16489484D02*
X6573729Y-16479960D01*
X6573729Y-16479960D02*
X6564206Y-16470436D01*
X6745158Y-16289484D02*
X6878491Y-16289484D01*
X6878491Y-16289484D02*
X6792777Y-16489484D01*
X7049920Y-16289484D02*
X6954682Y-16289484D01*
X6954682Y-16289484D02*
X6945158Y-16384722D01*
X6945158Y-16384722D02*
X6954682Y-16375198D01*
X6954682Y-16375198D02*
X6973729Y-16365674D01*
X6973729Y-16365674D02*
X7021348Y-16365674D01*
X7021348Y-16365674D02*
X7040396Y-16375198D01*
X7040396Y-16375198D02*
X7049920Y-16384722D01*
X7049920Y-16384722D02*
X7059444Y-16403769D01*
X7059444Y-16403769D02*
X7059444Y-16451388D01*
X7059444Y-16451388D02*
X7049920Y-16470436D01*
X7049920Y-16470436D02*
X7040396Y-16479960D01*
X7040396Y-16479960D02*
X7021348Y-16489484D01*
X7021348Y-16489484D02*
X6973729Y-16489484D01*
X6973729Y-16489484D02*
X6954682Y-16479960D01*
X6954682Y-16479960D02*
X6945158Y-16470436D01*
X7135634Y-16289484D02*
X7135634Y-16327579D01*
X7211825Y-16289484D02*
X7211825Y-16327579D01*
X7507063Y-16565674D02*
X7497539Y-16556150D01*
X7497539Y-16556150D02*
X7478491Y-16527579D01*
X7478491Y-16527579D02*
X7468968Y-16508531D01*
X7468968Y-16508531D02*
X7459444Y-16479960D01*
X7459444Y-16479960D02*
X7449920Y-16432341D01*
X7449920Y-16432341D02*
X7449920Y-16394246D01*
X7449920Y-16394246D02*
X7459444Y-16346627D01*
X7459444Y-16346627D02*
X7468968Y-16318055D01*
X7468968Y-16318055D02*
X7478491Y-16299008D01*
X7478491Y-16299008D02*
X7497539Y-16270436D01*
X7497539Y-16270436D02*
X7507063Y-16260912D01*
X7688015Y-16489484D02*
X7573729Y-16489484D01*
X7630872Y-16489484D02*
X7630872Y-16289484D01*
X7630872Y-16289484D02*
X7611825Y-16318055D01*
X7611825Y-16318055D02*
X7592777Y-16337103D01*
X7592777Y-16337103D02*
X7573729Y-16346627D01*
X7859444Y-16289484D02*
X7821348Y-16289484D01*
X7821348Y-16289484D02*
X7802301Y-16299008D01*
X7802301Y-16299008D02*
X7792777Y-16308531D01*
X7792777Y-16308531D02*
X7773729Y-16337103D01*
X7773729Y-16337103D02*
X7764206Y-16375198D01*
X7764206Y-16375198D02*
X7764206Y-16451388D01*
X7764206Y-16451388D02*
X7773729Y-16470436D01*
X7773729Y-16470436D02*
X7783253Y-16479960D01*
X7783253Y-16479960D02*
X7802301Y-16489484D01*
X7802301Y-16489484D02*
X7840396Y-16489484D01*
X7840396Y-16489484D02*
X7859444Y-16479960D01*
X7859444Y-16479960D02*
X7868968Y-16470436D01*
X7868968Y-16470436D02*
X7878491Y-16451388D01*
X7878491Y-16451388D02*
X7878491Y-16403769D01*
X7878491Y-16403769D02*
X7868968Y-16384722D01*
X7868968Y-16384722D02*
X7859444Y-16375198D01*
X7859444Y-16375198D02*
X7840396Y-16365674D01*
X7840396Y-16365674D02*
X7802301Y-16365674D01*
X7802301Y-16365674D02*
X7783253Y-16375198D01*
X7783253Y-16375198D02*
X7773729Y-16384722D01*
X7773729Y-16384722D02*
X7764206Y-16403769D01*
X8116587Y-16489484D02*
X8116587Y-16289484D01*
X8202301Y-16489484D02*
X8202301Y-16384722D01*
X8202301Y-16384722D02*
X8192777Y-16365674D01*
X8192777Y-16365674D02*
X8173730Y-16356150D01*
X8173730Y-16356150D02*
X8145158Y-16356150D01*
X8145158Y-16356150D02*
X8126110Y-16365674D01*
X8126110Y-16365674D02*
X8116587Y-16375198D01*
X8326110Y-16489484D02*
X8307063Y-16479960D01*
X8307063Y-16479960D02*
X8297539Y-16470436D01*
X8297539Y-16470436D02*
X8288015Y-16451388D01*
X8288015Y-16451388D02*
X8288015Y-16394246D01*
X8288015Y-16394246D02*
X8297539Y-16375198D01*
X8297539Y-16375198D02*
X8307063Y-16365674D01*
X8307063Y-16365674D02*
X8326110Y-16356150D01*
X8326110Y-16356150D02*
X8354682Y-16356150D01*
X8354682Y-16356150D02*
X8373730Y-16365674D01*
X8373730Y-16365674D02*
X8383253Y-16375198D01*
X8383253Y-16375198D02*
X8392777Y-16394246D01*
X8392777Y-16394246D02*
X8392777Y-16451388D01*
X8392777Y-16451388D02*
X8383253Y-16470436D01*
X8383253Y-16470436D02*
X8373730Y-16479960D01*
X8373730Y-16479960D02*
X8354682Y-16489484D01*
X8354682Y-16489484D02*
X8326110Y-16489484D01*
X8507063Y-16489484D02*
X8488015Y-16479960D01*
X8488015Y-16479960D02*
X8478492Y-16460912D01*
X8478492Y-16460912D02*
X8478492Y-16289484D01*
X8659444Y-16479960D02*
X8640396Y-16489484D01*
X8640396Y-16489484D02*
X8602301Y-16489484D01*
X8602301Y-16489484D02*
X8583253Y-16479960D01*
X8583253Y-16479960D02*
X8573730Y-16460912D01*
X8573730Y-16460912D02*
X8573730Y-16384722D01*
X8573730Y-16384722D02*
X8583253Y-16365674D01*
X8583253Y-16365674D02*
X8602301Y-16356150D01*
X8602301Y-16356150D02*
X8640396Y-16356150D01*
X8640396Y-16356150D02*
X8659444Y-16365674D01*
X8659444Y-16365674D02*
X8668968Y-16384722D01*
X8668968Y-16384722D02*
X8668968Y-16403769D01*
X8668968Y-16403769D02*
X8573730Y-16422817D01*
X8745158Y-16479960D02*
X8764206Y-16489484D01*
X8764206Y-16489484D02*
X8802301Y-16489484D01*
X8802301Y-16489484D02*
X8821349Y-16479960D01*
X8821349Y-16479960D02*
X8830873Y-16460912D01*
X8830873Y-16460912D02*
X8830873Y-16451388D01*
X8830873Y-16451388D02*
X8821349Y-16432341D01*
X8821349Y-16432341D02*
X8802301Y-16422817D01*
X8802301Y-16422817D02*
X8773730Y-16422817D01*
X8773730Y-16422817D02*
X8754682Y-16413293D01*
X8754682Y-16413293D02*
X8745158Y-16394246D01*
X8745158Y-16394246D02*
X8745158Y-16384722D01*
X8745158Y-16384722D02*
X8754682Y-16365674D01*
X8754682Y-16365674D02*
X8773730Y-16356150D01*
X8773730Y-16356150D02*
X8802301Y-16356150D01*
X8802301Y-16356150D02*
X8821349Y-16365674D01*
X8897539Y-16565674D02*
X8907063Y-16556150D01*
X8907063Y-16556150D02*
X8926111Y-16527579D01*
X8926111Y-16527579D02*
X8935634Y-16508531D01*
X8935634Y-16508531D02*
X8945158Y-16479960D01*
X8945158Y-16479960D02*
X8954682Y-16432341D01*
X8954682Y-16432341D02*
X8954682Y-16394246D01*
X8954682Y-16394246D02*
X8945158Y-16346627D01*
X8945158Y-16346627D02*
X8935634Y-16318055D01*
X8935634Y-16318055D02*
X8926111Y-16299008D01*
X8926111Y-16299008D02*
X8907063Y-16270436D01*
X8907063Y-16270436D02*
X8897539Y-16260912D01*
M02*
