G04 #@! TF.GenerationSoftware,KiCad,Pcbnew,7.0.6*
G04 #@! TF.CreationDate,2023-08-29T18:11:43+02:00*
G04 #@! TF.ProjectId,photo console,70686f74-6f20-4636-9f6e-736f6c652e6b,rev?*
G04 #@! TF.SameCoordinates,Original*
G04 #@! TF.FileFunction,Copper,L1,Top*
G04 #@! TF.FilePolarity,Positive*
%FSLAX46Y46*%
G04 Gerber Fmt 4.6, Leading zero omitted, Abs format (unit mm)*
G04 Created by KiCad (PCBNEW 7.0.6) date 2023-08-29 18:11:43*
%MOMM*%
%LPD*%
G01*
G04 APERTURE LIST*
G04 #@! TA.AperFunction,ComponentPad*
%ADD10C,4.000000*%
G04 #@! TD*
G04 #@! TA.AperFunction,ComponentPad*
%ADD11C,2.200000*%
G04 #@! TD*
G04 #@! TA.AperFunction,ComponentPad*
%ADD12C,1.600000*%
G04 #@! TD*
G04 #@! TA.AperFunction,ComponentPad*
%ADD13O,1.600000X1.600000*%
G04 #@! TD*
G04 #@! TA.AperFunction,ComponentPad*
%ADD14C,1.524000*%
G04 #@! TD*
G04 #@! TA.AperFunction,ComponentPad*
%ADD15R,2.000000X2.000000*%
G04 #@! TD*
G04 #@! TA.AperFunction,ComponentPad*
%ADD16C,2.000000*%
G04 #@! TD*
G04 #@! TA.AperFunction,ComponentPad*
%ADD17C,2.800000*%
G04 #@! TD*
G04 #@! TA.AperFunction,ComponentPad*
%ADD18R,1.600000X1.600000*%
G04 #@! TD*
G04 #@! TA.AperFunction,ViaPad*
%ADD19C,0.800000*%
G04 #@! TD*
G04 #@! TA.AperFunction,Conductor*
%ADD20C,0.250000*%
G04 #@! TD*
G04 #@! TA.AperFunction,Conductor*
%ADD21C,0.500000*%
G04 #@! TD*
G04 #@! TA.AperFunction,Conductor*
%ADD22C,1.000000*%
G04 #@! TD*
G04 APERTURE END LIST*
D10*
X215900000Y-127000000D03*
D11*
X218440000Y-121920000D03*
X212090000Y-124460000D03*
D10*
X195580000Y-127000000D03*
D11*
X198120000Y-121920000D03*
X191770000Y-124460000D03*
D10*
X167640000Y-127000000D03*
D11*
X170180000Y-121920000D03*
X163830000Y-124460000D03*
D10*
X147320000Y-127000000D03*
D11*
X149860000Y-121920000D03*
X143510000Y-124460000D03*
D10*
X119380000Y-127000000D03*
D11*
X121920000Y-121920000D03*
X115570000Y-124460000D03*
D10*
X99060000Y-127000000D03*
D11*
X101600000Y-121920000D03*
X95250000Y-124460000D03*
D10*
X71120000Y-127000000D03*
D11*
X73660000Y-121920000D03*
X67310000Y-124460000D03*
D10*
X50800000Y-127000000D03*
D11*
X53340000Y-121920000D03*
X46990000Y-124460000D03*
D10*
X215900000Y-50800000D03*
D11*
X218440000Y-45720000D03*
X212090000Y-48260000D03*
D10*
X195580000Y-50800000D03*
D11*
X198120000Y-45720000D03*
X191770000Y-48260000D03*
D10*
X167640000Y-50800000D03*
D11*
X170180000Y-45720000D03*
X163830000Y-48260000D03*
D10*
X147320000Y-50800000D03*
D11*
X149860000Y-45720000D03*
X143510000Y-48260000D03*
D10*
X119380000Y-50800000D03*
D11*
X121920000Y-45720000D03*
X115570000Y-48260000D03*
D10*
X99060000Y-50800000D03*
D11*
X101600000Y-45720000D03*
X95250000Y-48260000D03*
D10*
X71120000Y-50800000D03*
D11*
X73660000Y-45720000D03*
X67310000Y-48260000D03*
D10*
X50800000Y-50800000D03*
D11*
X53340000Y-45720000D03*
X46990000Y-48260000D03*
D12*
X173990000Y-114935000D03*
D13*
X161290000Y-114935000D03*
D12*
X200660000Y-114300000D03*
D13*
X187960000Y-114300000D03*
D14*
X45720000Y-71120000D03*
X48260000Y-71120000D03*
X50800000Y-71120000D03*
D12*
X142320000Y-100330000D03*
X147320000Y-100330000D03*
X208280000Y-60325000D03*
D13*
X220980000Y-60325000D03*
D12*
X105410000Y-114935000D03*
D13*
X92710000Y-114935000D03*
D12*
X111760000Y-60325000D03*
D13*
X124460000Y-60325000D03*
D12*
X43180000Y-60325000D03*
D13*
X55880000Y-60325000D03*
D12*
X222250000Y-114300000D03*
D13*
X209550000Y-114300000D03*
D15*
X236935000Y-120015000D03*
D16*
X241935000Y-120015000D03*
D12*
X91440000Y-60325000D03*
D13*
X104140000Y-60325000D03*
D15*
X106720000Y-96150000D03*
D16*
X111720000Y-96150000D03*
X109220000Y-96150000D03*
D17*
X103620000Y-88650000D03*
X114820000Y-88650000D03*
D16*
X106720000Y-81650000D03*
X111720000Y-81650000D03*
D15*
X154980000Y-96150000D03*
D16*
X159980000Y-96150000D03*
X157480000Y-96150000D03*
D17*
X151880000Y-88650000D03*
X163080000Y-88650000D03*
D16*
X154980000Y-81650000D03*
X159980000Y-81650000D03*
D14*
X45720000Y-109220000D03*
X48260000Y-109220000D03*
X50800000Y-109220000D03*
D15*
X232490000Y-131445000D03*
D16*
X237490000Y-131445000D03*
D15*
X58460000Y-96150000D03*
D16*
X63460000Y-96150000D03*
X60960000Y-96150000D03*
D17*
X55360000Y-88650000D03*
X66560000Y-88650000D03*
D16*
X58460000Y-81650000D03*
X63460000Y-81650000D03*
D12*
X57150000Y-114935000D03*
D13*
X44450000Y-114935000D03*
D14*
X230505000Y-45720000D03*
X230505000Y-48260000D03*
X230505000Y-50800000D03*
D12*
X187960000Y-60325000D03*
D13*
X200660000Y-60325000D03*
D12*
X139700000Y-60325000D03*
D13*
X152400000Y-60325000D03*
D12*
X154305000Y-114935000D03*
D13*
X141605000Y-114935000D03*
D12*
X77470000Y-114935000D03*
D13*
X64770000Y-114935000D03*
D18*
X129540000Y-65405000D03*
D13*
X129540000Y-67945000D03*
X129540000Y-70485000D03*
X129540000Y-73025000D03*
X129540000Y-75565000D03*
X129540000Y-78105000D03*
X129540000Y-80645000D03*
X129540000Y-83185000D03*
X137160000Y-83185000D03*
X137160000Y-80645000D03*
X137160000Y-78105000D03*
X137160000Y-75565000D03*
X137160000Y-73025000D03*
X137160000Y-70485000D03*
X137160000Y-67945000D03*
X137160000Y-65405000D03*
D12*
X63500000Y-60325000D03*
D13*
X76200000Y-60325000D03*
D12*
X160020000Y-60325000D03*
D13*
X172720000Y-60325000D03*
D12*
X121920000Y-114935000D03*
D13*
X109220000Y-114935000D03*
D18*
X129540000Y-95885000D03*
D13*
X129540000Y-98425000D03*
X129540000Y-100965000D03*
X129540000Y-103505000D03*
X129540000Y-106045000D03*
X129540000Y-108585000D03*
X129540000Y-111125000D03*
X129540000Y-113665000D03*
X137160000Y-113665000D03*
X137160000Y-111125000D03*
X137160000Y-108585000D03*
X137160000Y-106045000D03*
X137160000Y-103505000D03*
X137160000Y-100965000D03*
X137160000Y-98425000D03*
X137160000Y-95885000D03*
D18*
X224790000Y-74930000D03*
D12*
X224790000Y-77470000D03*
X224790000Y-80010000D03*
X224790000Y-82550000D03*
X224790000Y-85090000D03*
X224790000Y-87630000D03*
X224790000Y-90170000D03*
X224790000Y-92710000D03*
X224790000Y-95250000D03*
X224790000Y-97790000D03*
X224790000Y-100330000D03*
X224790000Y-102870000D03*
X240030000Y-102870000D03*
X240030000Y-100330000D03*
X240030000Y-97790000D03*
X240030000Y-95250000D03*
X240030000Y-92710000D03*
X240030000Y-90170000D03*
X240030000Y-87630000D03*
X240030000Y-85090000D03*
X240030000Y-82550000D03*
X240030000Y-80010000D03*
X240030000Y-77470000D03*
X240030000Y-74930000D03*
X142240000Y-69215000D03*
X147240000Y-69215000D03*
D15*
X203240000Y-96150000D03*
D16*
X208240000Y-96150000D03*
X205740000Y-96150000D03*
D17*
X200140000Y-88650000D03*
X211340000Y-88650000D03*
D16*
X203240000Y-81650000D03*
X208240000Y-81650000D03*
D12*
X142320000Y-95885000D03*
X147320000Y-95885000D03*
X142240000Y-65405000D03*
X147240000Y-65405000D03*
D19*
X234950000Y-116840000D03*
X222250000Y-65405000D03*
D20*
X123825000Y-78105000D02*
X129535000Y-78105000D01*
X48895000Y-66040000D02*
X111760000Y-66040000D01*
X43180000Y-60325000D02*
X48895000Y-66040000D01*
X111760000Y-66040000D02*
X123825000Y-78105000D01*
X123205000Y-75580000D02*
X112395000Y-64770000D01*
X112395000Y-64770000D02*
X67945000Y-64770000D01*
X67945000Y-64770000D02*
X63500000Y-60325000D01*
X129550000Y-75580000D02*
X123205000Y-75580000D01*
X113030000Y-63500000D02*
X94615000Y-63500000D01*
X94615000Y-63500000D02*
X91440000Y-60325000D01*
X129550000Y-73040000D02*
X122570000Y-73040000D01*
X122570000Y-73040000D02*
X113030000Y-63500000D01*
X129550000Y-70500000D02*
X121935000Y-70500000D01*
X121935000Y-70500000D02*
X111760000Y-60325000D01*
X184785000Y-63500000D02*
X159385000Y-63500000D01*
X159385000Y-63500000D02*
X147320000Y-75565000D01*
X137185000Y-75565000D02*
X137170000Y-75580000D01*
X187960000Y-60325000D02*
X184785000Y-63500000D01*
X147320000Y-75565000D02*
X137185000Y-75565000D01*
X137170000Y-78120000D02*
X137185000Y-78105000D01*
X146050000Y-78105000D02*
X158750000Y-65405000D01*
X203200000Y-65405000D02*
X208280000Y-60325000D01*
X158750000Y-65405000D02*
X203200000Y-65405000D01*
X137185000Y-78105000D02*
X146050000Y-78105000D01*
X105410000Y-114935000D02*
X107950000Y-112395000D01*
X107950000Y-112395000D02*
X123190000Y-112395000D01*
X123190000Y-112395000D02*
X129540000Y-106045000D01*
X122555000Y-110490000D02*
X81915000Y-110490000D01*
X129540000Y-103505000D02*
X122555000Y-110490000D01*
X81915000Y-110490000D02*
X77470000Y-114935000D01*
X121920000Y-108585000D02*
X129540000Y-100965000D01*
X63500000Y-108585000D02*
X121920000Y-108585000D01*
X57150000Y-114935000D02*
X63500000Y-108585000D01*
X144780000Y-108585000D02*
X137160000Y-100965000D01*
X222250000Y-114300000D02*
X216535000Y-108585000D01*
X216535000Y-108585000D02*
X144780000Y-108585000D01*
X144145000Y-110490000D02*
X196850000Y-110490000D01*
X137160000Y-103505000D02*
X144145000Y-110490000D01*
X196850000Y-110490000D02*
X200660000Y-114300000D01*
X143510000Y-112395000D02*
X171450000Y-112395000D01*
X171450000Y-112395000D02*
X173990000Y-114935000D01*
X137160000Y-106045000D02*
X143510000Y-112395000D01*
X144145000Y-114935000D02*
X137795000Y-108585000D01*
X137795000Y-108585000D02*
X137160000Y-108585000D01*
X154305000Y-114935000D02*
X144145000Y-114935000D01*
X172310000Y-93980000D02*
X159980000Y-81650000D01*
X217170000Y-95250000D02*
X224790000Y-95250000D01*
X215900000Y-93980000D02*
X172310000Y-93980000D01*
X215900000Y-93980000D02*
X217170000Y-95250000D01*
X209880000Y-97790000D02*
X208240000Y-96150000D01*
X224790000Y-97790000D02*
X209880000Y-97790000D01*
X242570000Y-106680000D02*
X232410000Y-116840000D01*
X242570000Y-100330000D02*
X242570000Y-106680000D01*
X240030000Y-97790000D02*
X242570000Y-100330000D01*
X140335000Y-116840000D02*
X137160000Y-113665000D01*
X232410000Y-116840000D02*
X140335000Y-116840000D01*
X207420000Y-100330000D02*
X203240000Y-96150000D01*
X224790000Y-100330000D02*
X207420000Y-100330000D01*
X208240000Y-91400000D02*
X208240000Y-81650000D01*
X209550000Y-92710000D02*
X224790000Y-92710000D01*
X209550000Y-92710000D02*
X208240000Y-91400000D01*
X236220000Y-106680000D02*
X165510000Y-106680000D01*
X165510000Y-106680000D02*
X154980000Y-96150000D01*
X240030000Y-102870000D02*
X236220000Y-106680000D01*
X159980000Y-96150000D02*
X169240000Y-105410000D01*
X222250000Y-105410000D02*
X224790000Y-102870000D01*
X169240000Y-105410000D02*
X222250000Y-105410000D01*
X130810000Y-98425000D02*
X132080000Y-99695000D01*
X243840000Y-99060000D02*
X240030000Y-95250000D01*
X234315000Y-119380000D02*
X243840000Y-109855000D01*
X132080000Y-117475000D02*
X133985000Y-119380000D01*
X132080000Y-99695000D02*
X132080000Y-117475000D01*
X243840000Y-109855000D02*
X243840000Y-99060000D01*
X129540000Y-98425000D02*
X130810000Y-98425000D01*
X133985000Y-119380000D02*
X234315000Y-119380000D01*
X133350000Y-97790000D02*
X131445000Y-95885000D01*
X134620000Y-118110000D02*
X133350000Y-116840000D01*
X133350000Y-116840000D02*
X133350000Y-97790000D01*
X131445000Y-95885000D02*
X129540000Y-95885000D01*
X233680000Y-118110000D02*
X134620000Y-118110000D01*
X234950000Y-116840000D02*
X233680000Y-118110000D01*
X139700000Y-67970000D02*
X137170000Y-70500000D01*
X139700000Y-60325000D02*
X139700000Y-67970000D01*
X160020000Y-60325000D02*
X147305000Y-73040000D01*
X147305000Y-73040000D02*
X137170000Y-73040000D01*
X121920000Y-114935000D02*
X123190000Y-114935000D01*
X123190000Y-114935000D02*
X129540000Y-108585000D01*
X140335000Y-90170000D02*
X158115000Y-72390000D01*
X215900000Y-78740000D02*
X215900000Y-72390000D01*
X124143198Y-90170000D02*
X140335000Y-90170000D01*
X108890000Y-93980000D02*
X120333198Y-93980000D01*
X120333198Y-93980000D02*
X124143198Y-90170000D01*
X158115000Y-72390000D02*
X215900000Y-72390000D01*
X224790000Y-87630000D02*
X215900000Y-78740000D01*
X106720000Y-96150000D02*
X108890000Y-93980000D01*
X120650000Y-95885000D02*
X125095000Y-91440000D01*
X140335000Y-91440000D02*
X158115000Y-73660000D01*
X158115000Y-73660000D02*
X214630000Y-73660000D01*
X224790000Y-90170000D02*
X214630000Y-80010000D01*
X125095000Y-91440000D02*
X140335000Y-91440000D01*
X111720000Y-96150000D02*
X111985000Y-95885000D01*
X111985000Y-95885000D02*
X120650000Y-95885000D01*
X214630000Y-80010000D02*
X214630000Y-73660000D01*
X158115000Y-69850000D02*
X225426396Y-69850000D01*
X58460000Y-96150000D02*
X63170000Y-91440000D01*
X231140000Y-75563604D02*
X231140000Y-81280000D01*
X225426396Y-69850000D02*
X231140000Y-75563604D01*
X118745000Y-91440000D02*
X122555000Y-87630000D01*
X63170000Y-91440000D02*
X118745000Y-91440000D01*
X140335000Y-87630000D02*
X158115000Y-69850000D01*
X231140000Y-81280000D02*
X240030000Y-90170000D01*
X122555000Y-87630000D02*
X140335000Y-87630000D01*
X140335000Y-88900000D02*
X123190000Y-88900000D01*
X228600000Y-81280000D02*
X228600000Y-74930000D01*
X123190000Y-88900000D02*
X119380000Y-92710000D01*
X158115000Y-71120000D02*
X140335000Y-88900000D01*
X119380000Y-92710000D02*
X66900000Y-92710000D01*
X224790000Y-71120000D02*
X158115000Y-71120000D01*
X240030000Y-92710000D02*
X228600000Y-81280000D01*
X66900000Y-92710000D02*
X63460000Y-96150000D01*
X228600000Y-74930000D02*
X224790000Y-71120000D01*
X233680000Y-81280000D02*
X233680000Y-76198604D01*
X240030000Y-87630000D02*
X233680000Y-81280000D01*
X233680000Y-76198604D02*
X226061396Y-68580000D01*
X158115000Y-68580000D02*
X140520000Y-86175000D01*
X67985000Y-86175000D02*
X140520000Y-86175000D01*
X226061396Y-68580000D02*
X158115000Y-68580000D01*
X63460000Y-81650000D02*
X67985000Y-86175000D01*
X158115000Y-67310000D02*
X140335000Y-85090000D01*
X236220000Y-76200000D02*
X227330000Y-67310000D01*
X227330000Y-67310000D02*
X158115000Y-67310000D01*
X114670000Y-81650000D02*
X118110000Y-85090000D01*
X111720000Y-81650000D02*
X114670000Y-81650000D01*
X236220000Y-81280000D02*
X236220000Y-76200000D01*
X140335000Y-85090000D02*
X118110000Y-85090000D01*
X240030000Y-85090000D02*
X236220000Y-81280000D01*
D21*
X149860000Y-45720000D02*
X149860000Y-57480000D01*
D22*
X231140000Y-45720000D02*
X230505000Y-45720000D01*
X191770000Y-124460000D02*
X191135000Y-123825000D01*
X212090000Y-124460000D02*
X211455000Y-123825000D01*
X213360000Y-124460000D02*
X213995000Y-123825000D01*
X41910000Y-71120000D02*
X45720000Y-71120000D01*
X218440000Y-45720000D02*
X198120000Y-45720000D01*
X198120000Y-45720000D02*
X170180000Y-45720000D01*
X164465000Y-123825000D02*
X163830000Y-124460000D01*
X121920000Y-45720000D02*
X149860000Y-45720000D01*
X191135000Y-123825000D02*
X164465000Y-123825000D01*
X143510000Y-124460000D02*
X142875000Y-123825000D01*
X212217000Y-123825000D02*
X212852000Y-124460000D01*
X242570000Y-81280000D02*
X242570000Y-73660000D01*
D21*
X149860000Y-57480000D02*
X142240000Y-65100000D01*
D22*
X94615000Y-123825000D02*
X67945000Y-123825000D01*
X73660000Y-45720000D02*
X101600000Y-45720000D01*
X210820000Y-123825000D02*
X210185000Y-123825000D01*
X41275000Y-112395000D02*
X41275000Y-118745000D01*
X230505000Y-45720000D02*
X218440000Y-45720000D01*
X210820000Y-123825000D02*
X192405000Y-123825000D01*
X212090000Y-124460000D02*
X213360000Y-124460000D01*
X95250000Y-124460000D02*
X94615000Y-123825000D01*
X235585000Y-50165000D02*
X231140000Y-45720000D01*
X53340000Y-45720000D02*
X41275000Y-45720000D01*
X114935000Y-123825000D02*
X95885000Y-123825000D01*
X41275000Y-71120000D02*
X41275000Y-112395000D01*
X241300000Y-74930000D02*
X240030000Y-74930000D01*
X47625000Y-123825000D02*
X46990000Y-124460000D01*
X44450000Y-109220000D02*
X45720000Y-109220000D01*
X41275000Y-45720000D02*
X41275000Y-71755000D01*
X116205000Y-123825000D02*
X115570000Y-124460000D01*
X242570000Y-69850000D02*
X235585000Y-62865000D01*
X242570000Y-73660000D02*
X242570000Y-69850000D01*
X233045000Y-123825000D02*
X233362500Y-123507500D01*
X115570000Y-124460000D02*
X114935000Y-123825000D01*
X233362500Y-123507500D02*
X245110000Y-111760000D01*
X242570000Y-81280000D02*
X245110000Y-83820000D01*
X144145000Y-123825000D02*
X143510000Y-124460000D01*
X192405000Y-123825000D02*
X191770000Y-124460000D01*
X163830000Y-124460000D02*
X163195000Y-123825000D01*
X67310000Y-124460000D02*
X66675000Y-123825000D01*
X41275000Y-112395000D02*
X44450000Y-109220000D01*
X66675000Y-123825000D02*
X47625000Y-123825000D01*
X210185000Y-123825000D02*
X212217000Y-123825000D01*
X101600000Y-45720000D02*
X121920000Y-45720000D01*
X245110000Y-111760000D02*
X245110000Y-83820000D01*
X211455000Y-123825000D02*
X210820000Y-123825000D01*
X163195000Y-123825000D02*
X144145000Y-123825000D01*
X142875000Y-123825000D02*
X116205000Y-123825000D01*
X41275000Y-71755000D02*
X41910000Y-71120000D01*
X53340000Y-45720000D02*
X73660000Y-45720000D01*
X170180000Y-45720000D02*
X149860000Y-45720000D01*
X67945000Y-123825000D02*
X67310000Y-124460000D01*
X232410000Y-124460000D02*
X232410000Y-131365000D01*
X235585000Y-62865000D02*
X235585000Y-50165000D01*
X41275000Y-118745000D02*
X46990000Y-124460000D01*
X95885000Y-123825000D02*
X95250000Y-124460000D01*
X213995000Y-123825000D02*
X233045000Y-123825000D01*
X242570000Y-73660000D02*
X241300000Y-74930000D01*
X232410000Y-131365000D02*
X232490000Y-131445000D01*
X232410000Y-124460000D02*
X233362500Y-123507500D01*
D20*
X135255000Y-69850000D02*
X135255000Y-77470000D01*
X137160000Y-67945000D02*
X135255000Y-69850000D01*
X135255000Y-77470000D02*
X129540000Y-83185000D01*
X222250000Y-65405000D02*
X222885000Y-65405000D01*
X222885000Y-65405000D02*
X230505000Y-57785000D01*
X230505000Y-57785000D02*
X230505000Y-50800000D01*
G04 #@! TA.AperFunction,Conductor*
G36*
X55431684Y-45217487D02*
G01*
X55438613Y-45223161D01*
X55440000Y-45228687D01*
X55440000Y-46211312D01*
X55436573Y-46219585D01*
X55431684Y-46222512D01*
X53795163Y-46717018D01*
X53786253Y-46716131D01*
X53781096Y-46710587D01*
X53341126Y-45724765D01*
X53340884Y-45715817D01*
X53341114Y-45715262D01*
X53781096Y-44729411D01*
X53787596Y-44723254D01*
X53795162Y-44722981D01*
X55431684Y-45217487D01*
G37*
G04 #@! TD.AperFunction*
G04 #@! TA.AperFunction,Conductor*
G36*
X207552252Y-60023541D02*
G01*
X207568939Y-60030431D01*
X208276212Y-60322437D01*
X208282551Y-60328762D01*
X208282562Y-60328787D01*
X208581456Y-61052743D01*
X208581445Y-61061698D01*
X208575106Y-61068023D01*
X208574568Y-61068229D01*
X207243987Y-61542275D01*
X207235043Y-61541824D01*
X207231787Y-61539527D01*
X207065472Y-61373212D01*
X207062045Y-61364939D01*
X207062722Y-61361018D01*
X207536771Y-60030428D01*
X207542774Y-60023788D01*
X207551718Y-60023337D01*
X207552252Y-60023541D01*
G37*
G04 #@! TD.AperFunction*
G04 #@! TA.AperFunction,Conductor*
G36*
X160901291Y-95772094D02*
G01*
X160907618Y-95778432D01*
X160907886Y-95779145D01*
X161480269Y-97468939D01*
X161479677Y-97477875D01*
X161477460Y-97480966D01*
X161310966Y-97647460D01*
X161302693Y-97650887D01*
X161298939Y-97650269D01*
X159609145Y-97077886D01*
X159602409Y-97071986D01*
X159601817Y-97063050D01*
X159602077Y-97062357D01*
X159977438Y-96153782D01*
X159983764Y-96147446D01*
X159983767Y-96147444D01*
X160892338Y-95772085D01*
X160901291Y-95772094D01*
G37*
G04 #@! TD.AperFunction*
G04 #@! TA.AperFunction,Conductor*
G36*
X238993982Y-86412723D02*
G01*
X240324569Y-86886771D01*
X240331211Y-86892774D01*
X240331662Y-86901718D01*
X240331456Y-86902256D01*
X240032562Y-87626212D01*
X240026237Y-87632551D01*
X240026212Y-87632562D01*
X239302256Y-87931456D01*
X239293301Y-87931445D01*
X239286976Y-87925106D01*
X239286780Y-87924596D01*
X238812724Y-86593984D01*
X238813175Y-86585043D01*
X238815469Y-86581790D01*
X238981788Y-86415471D01*
X238990060Y-86412045D01*
X238993982Y-86412723D01*
G37*
G04 #@! TD.AperFunction*
G04 #@! TA.AperFunction,Conductor*
G36*
X78514956Y-113718175D02*
G01*
X78518212Y-113720472D01*
X78684527Y-113886787D01*
X78687954Y-113895060D01*
X78687275Y-113898987D01*
X78213229Y-115229568D01*
X78207225Y-115236211D01*
X78198281Y-115236662D01*
X78197743Y-115236456D01*
X77473787Y-114937562D01*
X77467448Y-114931237D01*
X77467437Y-114931212D01*
X77168543Y-114207256D01*
X77168554Y-114198301D01*
X77174893Y-114191976D01*
X77175389Y-114191785D01*
X78506014Y-113717724D01*
X78514956Y-113718175D01*
G37*
G04 #@! TD.AperFunction*
G04 #@! TA.AperFunction,Conductor*
G36*
X137476724Y-74830932D02*
G01*
X137477240Y-74831161D01*
X138753317Y-75436828D01*
X138759321Y-75443471D01*
X138760000Y-75447398D01*
X138760000Y-75682601D01*
X138756573Y-75690874D01*
X138753317Y-75693171D01*
X137477251Y-76298833D01*
X137468307Y-76299284D01*
X137461664Y-76293280D01*
X137461430Y-76292753D01*
X137410604Y-76170448D01*
X137160864Y-75569487D01*
X137160854Y-75560538D01*
X137461430Y-74837245D01*
X137467769Y-74830921D01*
X137476724Y-74830932D01*
G37*
G04 #@! TD.AperFunction*
G04 #@! TA.AperFunction,Conductor*
G36*
X172271684Y-45217487D02*
G01*
X172278613Y-45223161D01*
X172280000Y-45228687D01*
X172280000Y-46211312D01*
X172276573Y-46219585D01*
X172271684Y-46222512D01*
X170635163Y-46717018D01*
X170626253Y-46716131D01*
X170621096Y-46710587D01*
X170181126Y-45724765D01*
X170180884Y-45715817D01*
X170181114Y-45715262D01*
X170621096Y-44729411D01*
X170627596Y-44723254D01*
X170635162Y-44722981D01*
X172271684Y-45217487D01*
G37*
G04 #@! TD.AperFunction*
G04 #@! TA.AperFunction,Conductor*
G36*
X155977935Y-95740346D02*
G01*
X155984261Y-95746684D01*
X155984344Y-95746889D01*
X156772706Y-97761593D01*
X156772529Y-97770546D01*
X156770083Y-97774129D01*
X156604129Y-97940083D01*
X156595856Y-97943510D01*
X156591593Y-97942706D01*
X154576890Y-97154344D01*
X154570434Y-97148138D01*
X154570257Y-97139185D01*
X154570310Y-97139053D01*
X154977438Y-96153780D01*
X154983759Y-96147447D01*
X155968981Y-95740339D01*
X155977935Y-95740346D01*
G37*
G04 #@! TD.AperFunction*
G04 #@! TA.AperFunction,Conductor*
G36*
X130348211Y-95091928D02*
G01*
X131135845Y-95756494D01*
X131139958Y-95764448D01*
X131140000Y-95765436D01*
X131140000Y-96004563D01*
X131136573Y-96012836D01*
X131135845Y-96013505D01*
X130348211Y-96678071D01*
X130339678Y-96680787D01*
X130332398Y-96677407D01*
X129872564Y-96218148D01*
X129547287Y-95893277D01*
X129543856Y-95885007D01*
X129547278Y-95876732D01*
X129547288Y-95876722D01*
X129658713Y-95765436D01*
X130332398Y-95092591D01*
X130340673Y-95089170D01*
X130348211Y-95091928D01*
G37*
G04 #@! TD.AperFunction*
G04 #@! TA.AperFunction,Conductor*
G36*
X121473746Y-44723868D02*
G01*
X121478903Y-44729412D01*
X121701728Y-45228687D01*
X121918872Y-45715231D01*
X121919115Y-45724182D01*
X121918872Y-45724767D01*
X121478904Y-46710586D01*
X121472403Y-46716745D01*
X121464836Y-46717018D01*
X119828316Y-46222512D01*
X119821387Y-46216838D01*
X119820000Y-46211312D01*
X119820000Y-45228687D01*
X119823427Y-45220414D01*
X119828315Y-45217487D01*
X121464837Y-44722981D01*
X121473746Y-44723868D01*
G37*
G04 #@! TD.AperFunction*
G04 #@! TA.AperFunction,Conductor*
G36*
X112113185Y-80731335D02*
G01*
X112113860Y-80731641D01*
X113713482Y-81521780D01*
X113719382Y-81528516D01*
X113720000Y-81532270D01*
X113720000Y-81767729D01*
X113716573Y-81776002D01*
X113713482Y-81778219D01*
X112113880Y-82568349D01*
X112104944Y-82568941D01*
X112098208Y-82563041D01*
X112097893Y-82562346D01*
X112084594Y-82530323D01*
X111720862Y-81654485D01*
X111720854Y-81645535D01*
X112097893Y-80737652D01*
X112104231Y-80731326D01*
X112113185Y-80731335D01*
G37*
G04 #@! TD.AperFunction*
G04 #@! TA.AperFunction,Conductor*
G36*
X200211684Y-45217487D02*
G01*
X200218613Y-45223161D01*
X200220000Y-45228687D01*
X200220000Y-46211312D01*
X200216573Y-46219585D01*
X200211684Y-46222512D01*
X198575163Y-46717018D01*
X198566253Y-46716131D01*
X198561096Y-46710587D01*
X198121126Y-45724765D01*
X198120884Y-45715817D01*
X198121114Y-45715262D01*
X198561096Y-44729411D01*
X198567596Y-44723254D01*
X198575162Y-44722981D01*
X200211684Y-45217487D01*
G37*
G04 #@! TD.AperFunction*
G04 #@! TA.AperFunction,Conductor*
G36*
X128812252Y-103203541D02*
G01*
X128828939Y-103210431D01*
X129536212Y-103502437D01*
X129542551Y-103508762D01*
X129542562Y-103508787D01*
X129841456Y-104232743D01*
X129841445Y-104241698D01*
X129835106Y-104248023D01*
X129834568Y-104248229D01*
X128503987Y-104722275D01*
X128495043Y-104721824D01*
X128491787Y-104719527D01*
X128325472Y-104553212D01*
X128322045Y-104544939D01*
X128322722Y-104541018D01*
X128796771Y-103210428D01*
X128802774Y-103203788D01*
X128811718Y-103203337D01*
X128812252Y-103203541D01*
G37*
G04 #@! TD.AperFunction*
G04 #@! TA.AperFunction,Conductor*
G36*
X240766698Y-97488554D02*
G01*
X240773023Y-97494893D01*
X240773227Y-97495426D01*
X241141495Y-98529104D01*
X241247275Y-98826012D01*
X241246824Y-98834956D01*
X241244527Y-98838212D01*
X241078212Y-99004527D01*
X241069939Y-99007954D01*
X241066013Y-99007275D01*
X239735430Y-98533228D01*
X239728788Y-98527225D01*
X239728337Y-98518281D01*
X239728536Y-98517760D01*
X240027438Y-97793785D01*
X240033762Y-97787448D01*
X240033764Y-97787446D01*
X240757744Y-97488543D01*
X240766698Y-97488554D01*
G37*
G04 #@! TD.AperFunction*
G04 #@! TA.AperFunction,Conductor*
G36*
X45715070Y-70362325D02*
G01*
X45719849Y-70369898D01*
X45720018Y-70371865D01*
X45721000Y-71120000D01*
X45720018Y-71868134D01*
X45716580Y-71876403D01*
X45708303Y-71879819D01*
X45706336Y-71879650D01*
X44205718Y-71621670D01*
X44198145Y-71616891D01*
X44196000Y-71610139D01*
X44196000Y-70629860D01*
X44199427Y-70621587D01*
X44205717Y-70618329D01*
X45706336Y-70360349D01*
X45715070Y-70362325D01*
G37*
G04 #@! TD.AperFunction*
G04 #@! TA.AperFunction,Conductor*
G36*
X129238331Y-72296727D02*
G01*
X129238618Y-72297363D01*
X129539134Y-73020510D01*
X129539144Y-73029463D01*
X129539135Y-73029485D01*
X129539134Y-73029490D01*
X129238529Y-73752851D01*
X129232190Y-73759176D01*
X129223235Y-73759165D01*
X129222800Y-73758974D01*
X127949759Y-73168144D01*
X127943697Y-73161552D01*
X127942984Y-73157531D01*
X127942984Y-72922313D01*
X127946411Y-72914040D01*
X127949558Y-72911796D01*
X129222690Y-72291335D01*
X129231627Y-72290792D01*
X129238331Y-72296727D01*
G37*
G04 #@! TD.AperFunction*
G04 #@! TA.AperFunction,Conductor*
G36*
X103691684Y-45217487D02*
G01*
X103698613Y-45223161D01*
X103700000Y-45228687D01*
X103700000Y-46211312D01*
X103696573Y-46219585D01*
X103691684Y-46222512D01*
X102055163Y-46717018D01*
X102046253Y-46716131D01*
X102041096Y-46710587D01*
X101601126Y-45724765D01*
X101600884Y-45715816D01*
X101601108Y-45715275D01*
X102041096Y-44729411D01*
X102047596Y-44723254D01*
X102055162Y-44722981D01*
X103691684Y-45217487D01*
G37*
G04 #@! TD.AperFunction*
G04 #@! TA.AperFunction,Conductor*
G36*
X210228719Y-123325341D02*
G01*
X211997965Y-123375911D01*
X212006135Y-123379572D01*
X212009295Y-123386717D01*
X212090591Y-124454635D01*
X212087802Y-124463144D01*
X212087193Y-124463801D01*
X211319738Y-125230271D01*
X211311462Y-125233693D01*
X211303980Y-125230981D01*
X210220966Y-124328508D01*
X210216804Y-124320580D01*
X210216756Y-124319520D01*
X210216756Y-123337038D01*
X210220183Y-123328765D01*
X210228456Y-123325338D01*
X210228719Y-123325341D01*
G37*
G04 #@! TD.AperFunction*
G04 #@! TA.AperFunction,Conductor*
G36*
X223753982Y-86412723D02*
G01*
X225084569Y-86886771D01*
X225091211Y-86892774D01*
X225091662Y-86901718D01*
X225091456Y-86902256D01*
X224792562Y-87626212D01*
X224786237Y-87632551D01*
X224786212Y-87632562D01*
X224062256Y-87931456D01*
X224053301Y-87931445D01*
X224046976Y-87925106D01*
X224046780Y-87924596D01*
X223572724Y-86593984D01*
X223573175Y-86585043D01*
X223575469Y-86581790D01*
X223741788Y-86415471D01*
X223750060Y-86412045D01*
X223753982Y-86412723D01*
G37*
G04 #@! TD.AperFunction*
G04 #@! TA.AperFunction,Conductor*
G36*
X129238331Y-69756727D02*
G01*
X129238618Y-69757363D01*
X129539134Y-70480510D01*
X129539144Y-70489463D01*
X129539135Y-70489485D01*
X129539134Y-70489490D01*
X129238529Y-71212851D01*
X129232190Y-71219176D01*
X129223235Y-71219165D01*
X129222800Y-71218974D01*
X127949759Y-70628144D01*
X127943697Y-70621552D01*
X127942984Y-70617531D01*
X127942984Y-70382313D01*
X127946411Y-70374040D01*
X127949558Y-70371796D01*
X129222690Y-69751335D01*
X129231627Y-69750792D01*
X129238331Y-69756727D01*
G37*
G04 #@! TD.AperFunction*
G04 #@! TA.AperFunction,Conductor*
G36*
X69179577Y-123328532D02*
G01*
X69183239Y-123336704D01*
X69183244Y-123337038D01*
X69183244Y-124319520D01*
X69179817Y-124327793D01*
X69179034Y-124328508D01*
X68096019Y-125230981D01*
X68087469Y-125233645D01*
X68080261Y-125230271D01*
X67312806Y-124463801D01*
X67309374Y-124455531D01*
X67309408Y-124454635D01*
X67319010Y-124328508D01*
X67390703Y-123386716D01*
X67394748Y-123378728D01*
X67402032Y-123375911D01*
X69171212Y-123325343D01*
X69179577Y-123328532D01*
G37*
G04 #@! TD.AperFunction*
G04 #@! TA.AperFunction,Conductor*
G36*
X137476724Y-77370932D02*
G01*
X137477240Y-77371161D01*
X138753317Y-77976828D01*
X138759321Y-77983471D01*
X138760000Y-77987398D01*
X138760000Y-78222601D01*
X138756573Y-78230874D01*
X138753317Y-78233171D01*
X137477251Y-78838833D01*
X137468307Y-78839284D01*
X137461664Y-78833280D01*
X137461430Y-78832753D01*
X137410604Y-78710448D01*
X137160864Y-78109487D01*
X137160854Y-78100538D01*
X137461430Y-77377245D01*
X137467769Y-77370921D01*
X137476724Y-77370932D01*
G37*
G04 #@! TD.AperFunction*
G04 #@! TA.AperFunction,Conductor*
G36*
X130113702Y-97864867D02*
G01*
X131120212Y-98561976D01*
X131125061Y-98569502D01*
X131123167Y-98578255D01*
X131121822Y-98579866D01*
X130956743Y-98744945D01*
X130952592Y-98747622D01*
X129856739Y-99160116D01*
X129847789Y-99159823D01*
X129841810Y-99153649D01*
X129542292Y-98431525D01*
X129542288Y-98422572D01*
X129544833Y-98418766D01*
X130098781Y-97866201D01*
X130107056Y-97862786D01*
X130113702Y-97864867D01*
G37*
G04 #@! TD.AperFunction*
G04 #@! TA.AperFunction,Conductor*
G36*
X223753982Y-88952723D02*
G01*
X225084569Y-89426771D01*
X225091211Y-89432774D01*
X225091662Y-89441718D01*
X225091456Y-89442256D01*
X224792562Y-90166212D01*
X224786237Y-90172551D01*
X224786212Y-90172562D01*
X224062256Y-90471456D01*
X224053301Y-90471445D01*
X224046976Y-90465106D01*
X224046780Y-90464596D01*
X223572724Y-89133984D01*
X223573175Y-89125043D01*
X223575469Y-89121790D01*
X223741788Y-88955471D01*
X223750060Y-88952045D01*
X223753982Y-88952723D01*
G37*
G04 #@! TD.AperFunction*
G04 #@! TA.AperFunction,Conductor*
G36*
X197673746Y-44723868D02*
G01*
X197678904Y-44729413D01*
X198118872Y-45715232D01*
X198119115Y-45724183D01*
X198118872Y-45724768D01*
X197678904Y-46710586D01*
X197672403Y-46716745D01*
X197664836Y-46717018D01*
X196028316Y-46222512D01*
X196021387Y-46216838D01*
X196020000Y-46211312D01*
X196020000Y-45228687D01*
X196023427Y-45220414D01*
X196028315Y-45217487D01*
X197664837Y-44722981D01*
X197673746Y-44723868D01*
G37*
G04 #@! TD.AperFunction*
G04 #@! TA.AperFunction,Conductor*
G36*
X43916698Y-60023554D02*
G01*
X43923023Y-60029893D01*
X43923227Y-60030426D01*
X44291495Y-61064104D01*
X44397275Y-61361012D01*
X44396824Y-61369956D01*
X44394527Y-61373212D01*
X44228212Y-61539527D01*
X44219939Y-61542954D01*
X44216013Y-61542275D01*
X42885430Y-61068228D01*
X42878788Y-61062225D01*
X42878337Y-61053281D01*
X42878536Y-61052760D01*
X43177438Y-60328785D01*
X43183762Y-60322448D01*
X43183764Y-60322446D01*
X43907744Y-60023543D01*
X43916698Y-60023554D01*
G37*
G04 #@! TD.AperFunction*
G04 #@! TA.AperFunction,Conductor*
G36*
X108340546Y-94357470D02*
G01*
X108344129Y-94359916D01*
X108510083Y-94525870D01*
X108513510Y-94534143D01*
X108512706Y-94538406D01*
X107724344Y-96553110D01*
X107718138Y-96559566D01*
X107709185Y-96559743D01*
X107708980Y-96559660D01*
X106723782Y-96152562D01*
X106717446Y-96146238D01*
X106310339Y-95161018D01*
X106310346Y-95152064D01*
X106316684Y-95145738D01*
X106316863Y-95145665D01*
X108331593Y-94357293D01*
X108340546Y-94357470D01*
G37*
G04 #@! TD.AperFunction*
G04 #@! TA.AperFunction,Conductor*
G36*
X193639577Y-123328532D02*
G01*
X193643239Y-123336704D01*
X193643244Y-123337038D01*
X193643244Y-124319520D01*
X193639817Y-124327793D01*
X193639034Y-124328508D01*
X192556019Y-125230981D01*
X192547469Y-125233645D01*
X192540261Y-125230271D01*
X191772806Y-124463801D01*
X191769374Y-124455531D01*
X191769408Y-124454635D01*
X191779010Y-124328508D01*
X191850703Y-123386716D01*
X191854748Y-123378728D01*
X191862032Y-123375911D01*
X193631212Y-123325343D01*
X193639577Y-123328532D01*
G37*
G04 #@! TD.AperFunction*
G04 #@! TA.AperFunction,Conductor*
G36*
X45426903Y-108520158D02*
G01*
X45432638Y-108526212D01*
X45718842Y-109214806D01*
X45718853Y-109223761D01*
X45718845Y-109223780D01*
X45432120Y-109915014D01*
X45425785Y-109921343D01*
X45418883Y-109921976D01*
X44627339Y-109753878D01*
X44621496Y-109750706D01*
X43929999Y-109059209D01*
X43926572Y-109050936D01*
X43929999Y-109042663D01*
X43934400Y-109039895D01*
X45417963Y-108519662D01*
X45426903Y-108520158D01*
G37*
G04 #@! TD.AperFunction*
G04 #@! TA.AperFunction,Conductor*
G36*
X64236698Y-60023554D02*
G01*
X64243023Y-60029893D01*
X64243227Y-60030426D01*
X64611495Y-61064104D01*
X64717275Y-61361012D01*
X64716824Y-61369956D01*
X64714527Y-61373212D01*
X64548212Y-61539527D01*
X64539939Y-61542954D01*
X64536013Y-61542275D01*
X63205430Y-61068228D01*
X63198788Y-61062225D01*
X63198337Y-61053281D01*
X63198536Y-61052760D01*
X63497438Y-60328785D01*
X63503762Y-60322448D01*
X63503764Y-60322446D01*
X64227744Y-60023543D01*
X64236698Y-60023554D01*
G37*
G04 #@! TD.AperFunction*
G04 #@! TA.AperFunction,Conductor*
G36*
X129238331Y-74836727D02*
G01*
X129238618Y-74837363D01*
X129539134Y-75560509D01*
X129539145Y-75569464D01*
X129539134Y-75569489D01*
X129238529Y-76292851D01*
X129232190Y-76299176D01*
X129223235Y-76299165D01*
X129222800Y-76298974D01*
X127949759Y-75708144D01*
X127943697Y-75701552D01*
X127942984Y-75697531D01*
X127942984Y-75462313D01*
X127946411Y-75454040D01*
X127949558Y-75451796D01*
X129222690Y-74831335D01*
X129231627Y-74830792D01*
X129238331Y-74836727D01*
G37*
G04 #@! TD.AperFunction*
G04 #@! TA.AperFunction,Conductor*
G36*
X210228719Y-123325341D02*
G01*
X211997965Y-123375911D01*
X212006135Y-123379572D01*
X212009295Y-123386717D01*
X212090591Y-124454635D01*
X212087802Y-124463144D01*
X212087193Y-124463801D01*
X211319738Y-125230271D01*
X211311462Y-125233693D01*
X211303980Y-125230981D01*
X210220966Y-124328508D01*
X210216804Y-124320580D01*
X210216756Y-124319520D01*
X210216756Y-123337038D01*
X210220183Y-123328765D01*
X210228456Y-123325338D01*
X210228719Y-123325341D01*
G37*
G04 #@! TD.AperFunction*
G04 #@! TA.AperFunction,Conductor*
G36*
X165699577Y-123328532D02*
G01*
X165703239Y-123336704D01*
X165703244Y-123337038D01*
X165703244Y-124319520D01*
X165699817Y-124327793D01*
X165699034Y-124328508D01*
X164616019Y-125230981D01*
X164607469Y-125233645D01*
X164600261Y-125230271D01*
X163832806Y-124463801D01*
X163829374Y-124455531D01*
X163829408Y-124454635D01*
X163839010Y-124328508D01*
X163910703Y-123386716D01*
X163914748Y-123378728D01*
X163922032Y-123375911D01*
X165691212Y-123325343D01*
X165699577Y-123328532D01*
G37*
G04 #@! TD.AperFunction*
G04 #@! TA.AperFunction,Conductor*
G36*
X224488335Y-94521719D02*
G01*
X224488569Y-94522246D01*
X224789134Y-95245510D01*
X224789144Y-95254463D01*
X224789135Y-95254485D01*
X224789134Y-95254490D01*
X224488569Y-95977753D01*
X224482230Y-95984078D01*
X224473275Y-95984067D01*
X224472748Y-95983833D01*
X223196683Y-95378171D01*
X223190679Y-95371528D01*
X223190000Y-95367601D01*
X223190000Y-95132398D01*
X223193427Y-95124125D01*
X223196683Y-95121828D01*
X224472749Y-94516165D01*
X224481692Y-94515715D01*
X224488335Y-94521719D01*
G37*
G04 #@! TD.AperFunction*
G04 #@! TA.AperFunction,Conductor*
G36*
X224488335Y-91981719D02*
G01*
X224488569Y-91982246D01*
X224789134Y-92705509D01*
X224789145Y-92714464D01*
X224789134Y-92714489D01*
X224488569Y-93437753D01*
X224482230Y-93444078D01*
X224473275Y-93444067D01*
X224472748Y-93443833D01*
X223196683Y-92838171D01*
X223190679Y-92831528D01*
X223190000Y-92827601D01*
X223190000Y-92592398D01*
X223193427Y-92584125D01*
X223196683Y-92581828D01*
X224472749Y-91976165D01*
X224481692Y-91975715D01*
X224488335Y-91981719D01*
G37*
G04 #@! TD.AperFunction*
G04 #@! TA.AperFunction,Conductor*
G36*
X58194956Y-113718175D02*
G01*
X58198212Y-113720472D01*
X58364527Y-113886787D01*
X58367954Y-113895060D01*
X58367275Y-113898987D01*
X57893229Y-115229568D01*
X57887225Y-115236211D01*
X57878281Y-115236662D01*
X57877743Y-115236456D01*
X57153787Y-114937562D01*
X57147448Y-114931237D01*
X57147437Y-114931212D01*
X56848543Y-114207256D01*
X56848554Y-114198301D01*
X56854893Y-114191976D01*
X56855389Y-114191785D01*
X58186014Y-113717724D01*
X58194956Y-113718175D01*
G37*
G04 #@! TD.AperFunction*
G04 #@! TA.AperFunction,Conductor*
G36*
X136432252Y-67643541D02*
G01*
X136448939Y-67650431D01*
X137156212Y-67942437D01*
X137162551Y-67948762D01*
X137162562Y-67948787D01*
X137461456Y-68672743D01*
X137461445Y-68681698D01*
X137455106Y-68688023D01*
X137454568Y-68688229D01*
X136123987Y-69162275D01*
X136115043Y-69161824D01*
X136111787Y-69159527D01*
X135945472Y-68993212D01*
X135942045Y-68984939D01*
X135942722Y-68981018D01*
X136416771Y-67650428D01*
X136422774Y-67643788D01*
X136431718Y-67643337D01*
X136432252Y-67643541D01*
G37*
G04 #@! TD.AperFunction*
G04 #@! TA.AperFunction,Conductor*
G36*
X137896698Y-103203554D02*
G01*
X137903023Y-103209893D01*
X137903227Y-103210426D01*
X138271495Y-104244104D01*
X138377275Y-104541012D01*
X138376824Y-104549956D01*
X138374527Y-104553212D01*
X138208212Y-104719527D01*
X138199939Y-104722954D01*
X138196013Y-104722275D01*
X136865430Y-104248228D01*
X136858788Y-104242225D01*
X136858337Y-104233281D01*
X136858536Y-104232760D01*
X137157438Y-103508785D01*
X137163762Y-103502448D01*
X137163764Y-103502446D01*
X137887744Y-103203543D01*
X137896698Y-103203554D01*
G37*
G04 #@! TD.AperFunction*
G04 #@! TA.AperFunction,Conductor*
G36*
X117439577Y-123328532D02*
G01*
X117443239Y-123336704D01*
X117443244Y-123337038D01*
X117443244Y-124319520D01*
X117439817Y-124327793D01*
X117439034Y-124328508D01*
X116356019Y-125230981D01*
X116347469Y-125233645D01*
X116340261Y-125230271D01*
X115572806Y-124463801D01*
X115569374Y-124455531D01*
X115569408Y-124454635D01*
X115579010Y-124328508D01*
X115650703Y-123386716D01*
X115654748Y-123378728D01*
X115662032Y-123375911D01*
X117431212Y-123325343D01*
X117439577Y-123328532D01*
G37*
G04 #@! TD.AperFunction*
G04 #@! TA.AperFunction,Conductor*
G36*
X137896698Y-100663554D02*
G01*
X137903023Y-100669893D01*
X137903227Y-100670426D01*
X138271495Y-101704104D01*
X138377275Y-102001012D01*
X138376824Y-102009956D01*
X138374527Y-102013212D01*
X138208212Y-102179527D01*
X138199939Y-102182954D01*
X138196013Y-102182275D01*
X136865430Y-101708228D01*
X136858788Y-101702225D01*
X136858337Y-101693281D01*
X136858536Y-101692760D01*
X137157438Y-100968785D01*
X137163762Y-100962448D01*
X137163764Y-100962446D01*
X137887744Y-100663543D01*
X137896698Y-100663554D01*
G37*
G04 #@! TD.AperFunction*
G04 #@! TA.AperFunction,Conductor*
G36*
X137896698Y-105743554D02*
G01*
X137903023Y-105749893D01*
X137903227Y-105750426D01*
X138271495Y-106784104D01*
X138377275Y-107081012D01*
X138376824Y-107089956D01*
X138374527Y-107093212D01*
X138208212Y-107259527D01*
X138199939Y-107262954D01*
X138196013Y-107262275D01*
X136865430Y-106788228D01*
X136858788Y-106782225D01*
X136858337Y-106773281D01*
X136858536Y-106772760D01*
X137157438Y-106048785D01*
X137163762Y-106042448D01*
X137163764Y-106042446D01*
X137887744Y-105743543D01*
X137896698Y-105743554D01*
G37*
G04 #@! TD.AperFunction*
G04 #@! TA.AperFunction,Conductor*
G36*
X93388719Y-123325341D02*
G01*
X95157965Y-123375911D01*
X95166135Y-123379572D01*
X95169295Y-123386717D01*
X95250591Y-124454635D01*
X95247802Y-124463144D01*
X95247193Y-124463801D01*
X94479738Y-125230271D01*
X94471462Y-125233693D01*
X94463980Y-125230981D01*
X93380966Y-124328508D01*
X93376804Y-124320580D01*
X93376756Y-124319520D01*
X93376756Y-123337038D01*
X93380183Y-123328765D01*
X93388456Y-123325338D01*
X93388719Y-123325341D01*
G37*
G04 #@! TD.AperFunction*
G04 #@! TA.AperFunction,Conductor*
G36*
X112496698Y-60023554D02*
G01*
X112503023Y-60029893D01*
X112503227Y-60030426D01*
X112871495Y-61064104D01*
X112977275Y-61361012D01*
X112976824Y-61369956D01*
X112974527Y-61373212D01*
X112808212Y-61539527D01*
X112799939Y-61542954D01*
X112796013Y-61542275D01*
X111465430Y-61068228D01*
X111458788Y-61062225D01*
X111458337Y-61053281D01*
X111458536Y-61052760D01*
X111757438Y-60328785D01*
X111763762Y-60322448D01*
X111763764Y-60322446D01*
X112487744Y-60023543D01*
X112496698Y-60023554D01*
G37*
G04 #@! TD.AperFunction*
G04 #@! TA.AperFunction,Conductor*
G36*
X123332592Y-114612377D02*
G01*
X123336743Y-114615054D01*
X123501822Y-114780133D01*
X123505249Y-114788406D01*
X123501822Y-114796679D01*
X123500211Y-114798024D01*
X122493703Y-115495131D01*
X122484950Y-115497025D01*
X122478779Y-115493796D01*
X121924836Y-114941236D01*
X121921400Y-114932970D01*
X121922292Y-114928476D01*
X122221811Y-114206348D01*
X122228145Y-114200021D01*
X122236739Y-114199883D01*
X123332592Y-114612377D01*
G37*
G04 #@! TD.AperFunction*
G04 #@! TA.AperFunction,Conductor*
G36*
X221213982Y-113082723D02*
G01*
X222544569Y-113556771D01*
X222551211Y-113562774D01*
X222551662Y-113571718D01*
X222551456Y-113572256D01*
X222252562Y-114296212D01*
X222246237Y-114302551D01*
X222246212Y-114302562D01*
X221522256Y-114601456D01*
X221513301Y-114601445D01*
X221506976Y-114595106D01*
X221506780Y-114594596D01*
X221032724Y-113263984D01*
X221033175Y-113255043D01*
X221035469Y-113251790D01*
X221201788Y-113085471D01*
X221210060Y-113082045D01*
X221213982Y-113082723D01*
G37*
G04 #@! TD.AperFunction*
G04 #@! TA.AperFunction,Conductor*
G36*
X106454956Y-113718175D02*
G01*
X106458212Y-113720472D01*
X106624527Y-113886787D01*
X106627954Y-113895060D01*
X106627275Y-113898987D01*
X106153229Y-115229568D01*
X106147225Y-115236211D01*
X106138281Y-115236662D01*
X106137743Y-115236456D01*
X105413787Y-114937562D01*
X105407448Y-114931237D01*
X105407437Y-114931212D01*
X105108543Y-114207256D01*
X105108554Y-114198301D01*
X105114893Y-114191976D01*
X105115389Y-114191785D01*
X106446014Y-113717724D01*
X106454956Y-113718175D01*
G37*
G04 #@! TD.AperFunction*
G04 #@! TA.AperFunction,Conductor*
G36*
X145379577Y-123328532D02*
G01*
X145383239Y-123336704D01*
X145383244Y-123337038D01*
X145383244Y-124319520D01*
X145379817Y-124327793D01*
X145379034Y-124328508D01*
X144296019Y-125230981D01*
X144287469Y-125233645D01*
X144280261Y-125230271D01*
X143512806Y-124463801D01*
X143509374Y-124455531D01*
X143509408Y-124454635D01*
X143519010Y-124328508D01*
X143590703Y-123386716D01*
X143594748Y-123378728D01*
X143602032Y-123375911D01*
X145371212Y-123325343D01*
X145379577Y-123328532D01*
G37*
G04 #@! TD.AperFunction*
G04 #@! TA.AperFunction,Conductor*
G36*
X220531684Y-45217487D02*
G01*
X220538613Y-45223161D01*
X220540000Y-45228687D01*
X220540000Y-46211312D01*
X220536573Y-46219585D01*
X220531684Y-46222512D01*
X218895163Y-46717018D01*
X218886253Y-46716131D01*
X218881096Y-46710587D01*
X218441126Y-45724765D01*
X218440884Y-45715817D01*
X218441114Y-45715262D01*
X218881096Y-44729411D01*
X218887596Y-44723254D01*
X218895162Y-44722981D01*
X220531684Y-45217487D01*
G37*
G04 #@! TD.AperFunction*
G04 #@! TA.AperFunction,Conductor*
G36*
X128812252Y-108283541D02*
G01*
X128828939Y-108290431D01*
X129536212Y-108582437D01*
X129542551Y-108588762D01*
X129542562Y-108588787D01*
X129841456Y-109312743D01*
X129841445Y-109321698D01*
X129835106Y-109328023D01*
X129834568Y-109328229D01*
X128503987Y-109802275D01*
X128495043Y-109801824D01*
X128491787Y-109799527D01*
X128325472Y-109633212D01*
X128322045Y-109624939D01*
X128322722Y-109621018D01*
X128796771Y-108290428D01*
X128802774Y-108283788D01*
X128811718Y-108283337D01*
X128812252Y-108283541D01*
G37*
G04 #@! TD.AperFunction*
G04 #@! TA.AperFunction,Conductor*
G36*
X143018419Y-63981347D02*
G01*
X143360477Y-64323405D01*
X143363904Y-64331678D01*
X143363473Y-64334825D01*
X142982650Y-65698447D01*
X142977124Y-65705494D01*
X142968234Y-65706569D01*
X142966916Y-65706115D01*
X142243787Y-65407562D01*
X142237448Y-65401237D01*
X142237437Y-65401212D01*
X141937583Y-64674930D01*
X141937594Y-64665977D01*
X141942079Y-64660620D01*
X143003831Y-63979770D01*
X143012644Y-63978190D01*
X143018419Y-63981347D01*
G37*
G04 #@! TD.AperFunction*
G04 #@! TA.AperFunction,Conductor*
G36*
X140356690Y-60596898D02*
G01*
X140427753Y-60626430D01*
X140434078Y-60632769D01*
X140434067Y-60641724D01*
X140433833Y-60642251D01*
X139828172Y-61918317D01*
X139821529Y-61924321D01*
X139817602Y-61925000D01*
X139582398Y-61925000D01*
X139574125Y-61921573D01*
X139571828Y-61918317D01*
X138966166Y-60642251D01*
X138965715Y-60633307D01*
X138971719Y-60626664D01*
X138972234Y-60626434D01*
X139695512Y-60325864D01*
X139704461Y-60325854D01*
X140356690Y-60596898D01*
G37*
G04 #@! TD.AperFunction*
G04 #@! TA.AperFunction,Conductor*
G36*
X128812252Y-105743541D02*
G01*
X128828939Y-105750431D01*
X129536212Y-106042437D01*
X129542551Y-106048762D01*
X129542562Y-106048787D01*
X129841456Y-106772743D01*
X129841445Y-106781698D01*
X129835106Y-106788023D01*
X129834568Y-106788229D01*
X128503987Y-107262275D01*
X128495043Y-107261824D01*
X128491787Y-107259527D01*
X128325472Y-107093212D01*
X128322045Y-107084939D01*
X128322722Y-107081018D01*
X128796771Y-105750428D01*
X128802774Y-105743788D01*
X128811718Y-105743337D01*
X128812252Y-105743541D01*
G37*
G04 #@! TD.AperFunction*
G04 #@! TA.AperFunction,Conductor*
G36*
X129238335Y-77376719D02*
G01*
X129238569Y-77377246D01*
X129539134Y-78100509D01*
X129539145Y-78109464D01*
X129539134Y-78109489D01*
X129238569Y-78832753D01*
X129232230Y-78839078D01*
X129223275Y-78839067D01*
X129222748Y-78838833D01*
X127946682Y-78233171D01*
X127940678Y-78226528D01*
X127940000Y-78222606D01*
X127940000Y-77987395D01*
X127943426Y-77979125D01*
X127946679Y-77976829D01*
X129222749Y-77371165D01*
X129231692Y-77370715D01*
X129238335Y-77376719D01*
G37*
G04 #@! TD.AperFunction*
G04 #@! TA.AperFunction,Conductor*
G36*
X45866283Y-122625624D02*
G01*
X47373147Y-123433150D01*
X47378821Y-123440079D01*
X47378548Y-123447646D01*
X46992574Y-124455830D01*
X46986415Y-124462331D01*
X46985830Y-124462574D01*
X45977646Y-124848548D01*
X45968695Y-124848305D01*
X45963150Y-124843147D01*
X45155624Y-123336284D01*
X45154738Y-123327376D01*
X45157663Y-123322489D01*
X45852488Y-122627664D01*
X45860760Y-122624238D01*
X45866283Y-122625624D01*
G37*
G04 #@! TD.AperFunction*
G04 #@! TA.AperFunction,Conductor*
G36*
X137732561Y-108028979D02*
G01*
X137733731Y-108030348D01*
X138580799Y-109191833D01*
X138582905Y-109200536D01*
X138579619Y-109207000D01*
X138413317Y-109373302D01*
X138405122Y-109376729D01*
X137171767Y-109384921D01*
X137163471Y-109381549D01*
X137159989Y-109373300D01*
X137159297Y-108589152D01*
X137162716Y-108580877D01*
X137716018Y-108028957D01*
X137724293Y-108025542D01*
X137732561Y-108028979D01*
G37*
G04 #@! TD.AperFunction*
G04 #@! TA.AperFunction,Conductor*
G36*
X73213746Y-44723868D02*
G01*
X73218904Y-44729413D01*
X73658872Y-45715232D01*
X73659115Y-45724183D01*
X73658872Y-45724768D01*
X73218904Y-46710586D01*
X73212403Y-46716745D01*
X73204836Y-46717018D01*
X71568316Y-46222512D01*
X71561387Y-46216838D01*
X71560000Y-46211312D01*
X71560000Y-45228687D01*
X71563427Y-45220414D01*
X71568315Y-45217487D01*
X73204837Y-44722981D01*
X73213746Y-44723868D01*
G37*
G04 #@! TD.AperFunction*
G04 #@! TA.AperFunction,Conductor*
G36*
X130584956Y-81968175D02*
G01*
X130588212Y-81970472D01*
X130754527Y-82136787D01*
X130757954Y-82145060D01*
X130757275Y-82148987D01*
X130283229Y-83479568D01*
X130277225Y-83486211D01*
X130268281Y-83486662D01*
X130267743Y-83486456D01*
X129543787Y-83187562D01*
X129537448Y-83181237D01*
X129537437Y-83181212D01*
X129238543Y-82457256D01*
X129238554Y-82448301D01*
X129244893Y-82441976D01*
X129245389Y-82441785D01*
X130576014Y-81967724D01*
X130584956Y-81968175D01*
G37*
G04 #@! TD.AperFunction*
G04 #@! TA.AperFunction,Conductor*
G36*
X224488335Y-99601719D02*
G01*
X224488569Y-99602246D01*
X224789134Y-100325510D01*
X224789144Y-100334463D01*
X224789135Y-100334485D01*
X224789134Y-100334490D01*
X224488569Y-101057753D01*
X224482230Y-101064078D01*
X224473275Y-101064067D01*
X224472748Y-101063833D01*
X223196683Y-100458171D01*
X223190679Y-100451528D01*
X223190000Y-100447601D01*
X223190000Y-100212398D01*
X223193427Y-100204125D01*
X223196683Y-100201828D01*
X224472749Y-99596165D01*
X224481692Y-99595715D01*
X224488335Y-99601719D01*
G37*
G04 #@! TD.AperFunction*
G04 #@! TA.AperFunction,Conductor*
G36*
X230500070Y-44962325D02*
G01*
X230504849Y-44969898D01*
X230505018Y-44971865D01*
X230506000Y-45720000D01*
X230505018Y-46468134D01*
X230501580Y-46476403D01*
X230493303Y-46479819D01*
X230491336Y-46479650D01*
X228990718Y-46221670D01*
X228983145Y-46216891D01*
X228981000Y-46210139D01*
X228981000Y-45229860D01*
X228984427Y-45221587D01*
X228990717Y-45218329D01*
X230491336Y-44960349D01*
X230500070Y-44962325D01*
G37*
G04 #@! TD.AperFunction*
G04 #@! TA.AperFunction,Conductor*
G36*
X97119576Y-123328532D02*
G01*
X97123238Y-123336704D01*
X97123243Y-123337038D01*
X97123244Y-124319520D01*
X97119817Y-124327793D01*
X97119034Y-124328508D01*
X96036019Y-125230981D01*
X96027469Y-125233645D01*
X96020261Y-125230271D01*
X95252806Y-124463801D01*
X95249374Y-124455531D01*
X95249408Y-124454635D01*
X95259010Y-124328508D01*
X95330703Y-123386716D01*
X95334748Y-123378728D01*
X95342032Y-123375911D01*
X97111211Y-123325343D01*
X97119576Y-123328532D01*
G37*
G04 #@! TD.AperFunction*
G04 #@! TA.AperFunction,Conductor*
G36*
X189908719Y-123325341D02*
G01*
X191677965Y-123375911D01*
X191686135Y-123379572D01*
X191689295Y-123386717D01*
X191770591Y-124454635D01*
X191767802Y-124463144D01*
X191767193Y-124463801D01*
X190999738Y-125230271D01*
X190991462Y-125233693D01*
X190983980Y-125230981D01*
X189900966Y-124328508D01*
X189896804Y-124320580D01*
X189896756Y-124319520D01*
X189896756Y-123337038D01*
X189900183Y-123328765D01*
X189908456Y-123325338D01*
X189908719Y-123325341D01*
G37*
G04 #@! TD.AperFunction*
G04 #@! TA.AperFunction,Conductor*
G36*
X75751684Y-45217487D02*
G01*
X75758613Y-45223161D01*
X75760000Y-45228687D01*
X75760000Y-46211312D01*
X75756573Y-46219585D01*
X75751684Y-46222512D01*
X74115163Y-46717018D01*
X74106253Y-46716131D01*
X74101096Y-46710587D01*
X73661126Y-45724765D01*
X73660884Y-45715816D01*
X73661108Y-45715275D01*
X74101096Y-44729411D01*
X74107596Y-44723254D01*
X74115162Y-44722981D01*
X75751684Y-45217487D01*
G37*
G04 #@! TD.AperFunction*
G04 #@! TA.AperFunction,Conductor*
G36*
X238993982Y-83872723D02*
G01*
X240324569Y-84346771D01*
X240331211Y-84352774D01*
X240331662Y-84361718D01*
X240331456Y-84362256D01*
X240032562Y-85086212D01*
X240026237Y-85092551D01*
X240026212Y-85092562D01*
X239302256Y-85391456D01*
X239293301Y-85391445D01*
X239286976Y-85385106D01*
X239286780Y-85384596D01*
X238812724Y-84053984D01*
X238813175Y-84045043D01*
X238815469Y-84041790D01*
X238981788Y-83875471D01*
X238990060Y-83872045D01*
X238993982Y-83872723D01*
G37*
G04 #@! TD.AperFunction*
G04 #@! TA.AperFunction,Conductor*
G36*
X101153746Y-44723868D02*
G01*
X101158903Y-44729412D01*
X101381728Y-45228687D01*
X101598872Y-45715231D01*
X101599115Y-45724182D01*
X101598872Y-45724767D01*
X101158904Y-46710586D01*
X101152403Y-46716745D01*
X101144836Y-46717018D01*
X99508316Y-46222512D01*
X99501387Y-46216838D01*
X99500000Y-46211312D01*
X99500000Y-45228687D01*
X99503427Y-45220414D01*
X99508315Y-45217487D01*
X101144837Y-44722981D01*
X101153746Y-44723868D01*
G37*
G04 #@! TD.AperFunction*
G04 #@! TA.AperFunction,Conductor*
G36*
X65448719Y-123325341D02*
G01*
X67217965Y-123375911D01*
X67226135Y-123379572D01*
X67229295Y-123386717D01*
X67310591Y-124454635D01*
X67307802Y-124463144D01*
X67307193Y-124463801D01*
X66539738Y-125230271D01*
X66531462Y-125233693D01*
X66523980Y-125230981D01*
X65440966Y-124328508D01*
X65436804Y-124320580D01*
X65436756Y-124319520D01*
X65436756Y-123337038D01*
X65440183Y-123328765D01*
X65448456Y-123325338D01*
X65448719Y-123325341D01*
G37*
G04 #@! TD.AperFunction*
G04 #@! TA.AperFunction,Conductor*
G36*
X238993982Y-88952723D02*
G01*
X240324569Y-89426771D01*
X240331211Y-89432774D01*
X240331662Y-89441718D01*
X240331456Y-89442256D01*
X240032562Y-90166212D01*
X240026237Y-90172551D01*
X240026212Y-90172562D01*
X239302256Y-90471456D01*
X239293301Y-90471445D01*
X239286976Y-90465106D01*
X239286780Y-90464596D01*
X238812724Y-89133984D01*
X238813175Y-89125043D01*
X238815469Y-89121790D01*
X238981788Y-88955471D01*
X238990060Y-88952045D01*
X238993982Y-88952723D01*
G37*
G04 #@! TD.AperFunction*
G04 #@! TA.AperFunction,Conductor*
G36*
X138215028Y-69283153D02*
G01*
X138218156Y-69285388D01*
X138384481Y-69451713D01*
X138387908Y-69459986D01*
X138387189Y-69464025D01*
X137903303Y-70779727D01*
X137897231Y-70786308D01*
X137888283Y-70786669D01*
X137887857Y-70786503D01*
X137163787Y-70487562D01*
X137157448Y-70481237D01*
X137157437Y-70481212D01*
X136858600Y-69757393D01*
X136858611Y-69748441D01*
X136864950Y-69742116D01*
X136865611Y-69741867D01*
X138206092Y-69282593D01*
X138215028Y-69283153D01*
G37*
G04 #@! TD.AperFunction*
G04 #@! TA.AperFunction,Conductor*
G36*
X209161291Y-95772094D02*
G01*
X209167618Y-95778432D01*
X209167886Y-95779145D01*
X209740269Y-97468939D01*
X209739677Y-97477875D01*
X209737460Y-97480966D01*
X209570966Y-97647460D01*
X209562693Y-97650887D01*
X209558939Y-97650269D01*
X207869145Y-97077886D01*
X207862409Y-97071986D01*
X207861817Y-97063050D01*
X207862077Y-97062357D01*
X208237438Y-96153782D01*
X208243764Y-96147446D01*
X208243767Y-96147444D01*
X209152338Y-95772085D01*
X209161291Y-95772094D01*
G37*
G04 #@! TD.AperFunction*
G04 #@! TA.AperFunction,Conductor*
G36*
X224062252Y-102568541D02*
G01*
X224078939Y-102575431D01*
X224786212Y-102867437D01*
X224792551Y-102873762D01*
X224792562Y-102873787D01*
X225091456Y-103597743D01*
X225091445Y-103606698D01*
X225085106Y-103613023D01*
X225084568Y-103613229D01*
X223753987Y-104087275D01*
X223745043Y-104086824D01*
X223741787Y-104084527D01*
X223575472Y-103918212D01*
X223572045Y-103909939D01*
X223572722Y-103906018D01*
X224046771Y-102575428D01*
X224052774Y-102568788D01*
X224061718Y-102568337D01*
X224062252Y-102568541D01*
G37*
G04 #@! TD.AperFunction*
G04 #@! TA.AperFunction,Conductor*
G36*
X212201923Y-123381100D02*
G01*
X213589186Y-123519134D01*
X213596301Y-123522504D01*
X214290629Y-124216832D01*
X214294056Y-124225105D01*
X214290629Y-124233378D01*
X214289103Y-124234664D01*
X212875861Y-125232139D01*
X212867126Y-125234110D01*
X212860848Y-125230861D01*
X212093187Y-124464594D01*
X212089753Y-124456324D01*
X212089802Y-124455246D01*
X212189142Y-123391657D01*
X212193323Y-123383739D01*
X212201879Y-123381097D01*
X212201923Y-123381100D01*
G37*
G04 #@! TD.AperFunction*
G04 #@! TA.AperFunction,Conductor*
G36*
X52893746Y-44723868D02*
G01*
X52898904Y-44729413D01*
X53338872Y-45715232D01*
X53339115Y-45724183D01*
X53338872Y-45724768D01*
X52898904Y-46710586D01*
X52892403Y-46716745D01*
X52884836Y-46717018D01*
X51248316Y-46222512D01*
X51241387Y-46216838D01*
X51240000Y-46211312D01*
X51240000Y-45228687D01*
X51243427Y-45220414D01*
X51248315Y-45217487D01*
X52884837Y-44722981D01*
X52893746Y-44723868D01*
G37*
G04 #@! TD.AperFunction*
G04 #@! TA.AperFunction,Conductor*
G36*
X149413746Y-44723868D02*
G01*
X149418903Y-44729412D01*
X149641728Y-45228687D01*
X149858872Y-45715231D01*
X149859115Y-45724182D01*
X149858872Y-45724767D01*
X149418904Y-46710586D01*
X149412403Y-46716745D01*
X149404836Y-46717018D01*
X147768316Y-46222512D01*
X147761387Y-46216838D01*
X147760000Y-46211312D01*
X147760000Y-45228687D01*
X147763427Y-45220414D01*
X147768315Y-45217487D01*
X149404837Y-44722981D01*
X149413746Y-44723868D01*
G37*
G04 #@! TD.AperFunction*
G04 #@! TA.AperFunction,Conductor*
G36*
X239302252Y-102568541D02*
G01*
X239318939Y-102575431D01*
X240026212Y-102867437D01*
X240032551Y-102873762D01*
X240032562Y-102873787D01*
X240331456Y-103597743D01*
X240331445Y-103606698D01*
X240325106Y-103613023D01*
X240324568Y-103613229D01*
X238993987Y-104087275D01*
X238985043Y-104086824D01*
X238981787Y-104084527D01*
X238815472Y-103918212D01*
X238812045Y-103909939D01*
X238812722Y-103906018D01*
X239286771Y-102575428D01*
X239292774Y-102568788D01*
X239301718Y-102568337D01*
X239302252Y-102568541D01*
G37*
G04 #@! TD.AperFunction*
G04 #@! TA.AperFunction,Conductor*
G36*
X238993982Y-91492723D02*
G01*
X240324569Y-91966771D01*
X240331211Y-91972774D01*
X240331662Y-91981718D01*
X240331456Y-91982256D01*
X240032562Y-92706212D01*
X240026237Y-92712551D01*
X240026212Y-92712562D01*
X239302256Y-93011456D01*
X239293301Y-93011445D01*
X239286976Y-93005106D01*
X239286780Y-93004596D01*
X238812724Y-91673984D01*
X238813175Y-91665043D01*
X238815469Y-91661790D01*
X238981788Y-91495471D01*
X238990060Y-91492045D01*
X238993982Y-91492723D01*
G37*
G04 #@! TD.AperFunction*
G04 #@! TA.AperFunction,Conductor*
G36*
X222910598Y-65199074D02*
G01*
X222915281Y-65201937D01*
X223079292Y-65365948D01*
X223082719Y-65374221D01*
X223079292Y-65382494D01*
X223076882Y-65384346D01*
X222414606Y-65767873D01*
X222405730Y-65769053D01*
X222398618Y-65763611D01*
X222397944Y-65762250D01*
X222251166Y-65410200D01*
X222251145Y-65401247D01*
X222398938Y-65045402D01*
X222405276Y-65039077D01*
X222413330Y-65038755D01*
X222910598Y-65199074D01*
G37*
G04 #@! TD.AperFunction*
G04 #@! TA.AperFunction,Conductor*
G36*
X161968719Y-123325341D02*
G01*
X163737965Y-123375911D01*
X163746135Y-123379572D01*
X163749295Y-123386717D01*
X163830591Y-124454635D01*
X163827802Y-124463144D01*
X163827193Y-124463801D01*
X163059738Y-125230271D01*
X163051462Y-125233693D01*
X163043980Y-125230981D01*
X161960966Y-124328508D01*
X161956804Y-124320580D01*
X161956756Y-124319520D01*
X161956756Y-123337038D01*
X161960183Y-123328765D01*
X161968456Y-123325338D01*
X161968719Y-123325341D01*
G37*
G04 #@! TD.AperFunction*
G04 #@! TA.AperFunction,Conductor*
G36*
X159292252Y-60023541D02*
G01*
X159308939Y-60030431D01*
X160016212Y-60322437D01*
X160022551Y-60328762D01*
X160022562Y-60328787D01*
X160321456Y-61052743D01*
X160321445Y-61061698D01*
X160315106Y-61068023D01*
X160314568Y-61068229D01*
X158983987Y-61542275D01*
X158975043Y-61541824D01*
X158971787Y-61539527D01*
X158805472Y-61373212D01*
X158802045Y-61364939D01*
X158802722Y-61361018D01*
X159276771Y-60030428D01*
X159282774Y-60023788D01*
X159291718Y-60023337D01*
X159292252Y-60023541D01*
G37*
G04 #@! TD.AperFunction*
G04 #@! TA.AperFunction,Conductor*
G36*
X169733746Y-44723868D02*
G01*
X169738904Y-44729413D01*
X170178872Y-45715232D01*
X170179115Y-45724183D01*
X170178872Y-45724768D01*
X169738904Y-46710586D01*
X169732403Y-46716745D01*
X169724836Y-46717018D01*
X168088316Y-46222512D01*
X168081387Y-46216838D01*
X168080000Y-46211312D01*
X168080000Y-45228687D01*
X168083427Y-45220414D01*
X168088315Y-45217487D01*
X169724837Y-44722981D01*
X169733746Y-44723868D01*
G37*
G04 #@! TD.AperFunction*
G04 #@! TA.AperFunction,Conductor*
G36*
X231197691Y-51086906D02*
G01*
X231204015Y-51093246D01*
X231204004Y-51102201D01*
X231203790Y-51102685D01*
X230633159Y-52317275D01*
X230626539Y-52323306D01*
X230622569Y-52324000D01*
X230387431Y-52324000D01*
X230379158Y-52320573D01*
X230376841Y-52317275D01*
X230102159Y-51732615D01*
X229806208Y-51102683D01*
X229805793Y-51093740D01*
X229811824Y-51087120D01*
X229812299Y-51086910D01*
X230500510Y-50800865D01*
X230509463Y-50800855D01*
X231197691Y-51086906D01*
G37*
G04 #@! TD.AperFunction*
G04 #@! TA.AperFunction,Conductor*
G36*
X224488335Y-97061719D02*
G01*
X224488569Y-97062246D01*
X224789134Y-97785510D01*
X224789144Y-97794463D01*
X224789135Y-97794485D01*
X224789134Y-97794490D01*
X224488569Y-98517753D01*
X224482230Y-98524078D01*
X224473275Y-98524067D01*
X224472748Y-98523833D01*
X223196683Y-97918171D01*
X223190679Y-97911528D01*
X223190000Y-97907601D01*
X223190000Y-97672398D01*
X223193427Y-97664125D01*
X223196683Y-97661828D01*
X224472749Y-97056165D01*
X224481692Y-97055715D01*
X224488335Y-97061719D01*
G37*
G04 #@! TD.AperFunction*
G04 #@! TA.AperFunction,Conductor*
G36*
X149864750Y-45721120D02*
G01*
X150438003Y-45976961D01*
X150849252Y-46160501D01*
X150855411Y-46167002D01*
X150855168Y-46175953D01*
X150855140Y-46176015D01*
X150113114Y-47813130D01*
X150106578Y-47819251D01*
X150102458Y-47820000D01*
X149617542Y-47820000D01*
X149609269Y-47816573D01*
X149606886Y-47813130D01*
X148864858Y-46176015D01*
X148864563Y-46167065D01*
X148870684Y-46160529D01*
X148870746Y-46160501D01*
X149855234Y-45721126D01*
X149864182Y-45720884D01*
X149864750Y-45721120D01*
G37*
G04 #@! TD.AperFunction*
G04 #@! TA.AperFunction,Conductor*
G36*
X151951684Y-45217487D02*
G01*
X151958613Y-45223161D01*
X151960000Y-45228687D01*
X151960000Y-46211312D01*
X151956573Y-46219585D01*
X151951684Y-46222512D01*
X150315163Y-46717018D01*
X150306253Y-46716131D01*
X150301096Y-46710587D01*
X149861126Y-45724765D01*
X149860884Y-45715817D01*
X149861114Y-45715262D01*
X150301096Y-44729411D01*
X150307596Y-44723254D01*
X150315162Y-44722981D01*
X151951684Y-45217487D01*
G37*
G04 #@! TD.AperFunction*
G04 #@! TA.AperFunction,Conductor*
G36*
X124011684Y-45217487D02*
G01*
X124018613Y-45223161D01*
X124020000Y-45228687D01*
X124020000Y-46211312D01*
X124016573Y-46219585D01*
X124011684Y-46222512D01*
X122375163Y-46717018D01*
X122366253Y-46716131D01*
X122361096Y-46710587D01*
X121921126Y-45724765D01*
X121920884Y-45715816D01*
X121921108Y-45715275D01*
X122361096Y-44729411D01*
X122367596Y-44723254D01*
X122375162Y-44722981D01*
X124011684Y-45217487D01*
G37*
G04 #@! TD.AperFunction*
G04 #@! TA.AperFunction,Conductor*
G36*
X240766698Y-94948554D02*
G01*
X240773023Y-94954893D01*
X240773227Y-94955426D01*
X241141495Y-95989104D01*
X241247275Y-96286012D01*
X241246824Y-96294956D01*
X241244527Y-96298212D01*
X241078212Y-96464527D01*
X241069939Y-96467954D01*
X241066013Y-96467275D01*
X239735430Y-95993228D01*
X239728788Y-95987225D01*
X239728337Y-95978281D01*
X239728536Y-95977760D01*
X240027438Y-95253785D01*
X240033762Y-95247448D01*
X240033764Y-95247446D01*
X240757744Y-94948543D01*
X240766698Y-94948554D01*
G37*
G04 #@! TD.AperFunction*
G04 #@! TA.AperFunction,Conductor*
G36*
X204237935Y-95740346D02*
G01*
X204244261Y-95746684D01*
X204244344Y-95746889D01*
X205032706Y-97761593D01*
X205032529Y-97770546D01*
X205030083Y-97774129D01*
X204864129Y-97940083D01*
X204855856Y-97943510D01*
X204851593Y-97942706D01*
X202836890Y-97154344D01*
X202830434Y-97148138D01*
X202830257Y-97139185D01*
X202830310Y-97139053D01*
X203237438Y-96153780D01*
X203243759Y-96147447D01*
X204228981Y-95740339D01*
X204237935Y-95740346D01*
G37*
G04 #@! TD.AperFunction*
G04 #@! TA.AperFunction,Conductor*
G36*
X48859577Y-123328532D02*
G01*
X48863239Y-123336704D01*
X48863244Y-123337038D01*
X48863244Y-124319520D01*
X48859817Y-124327793D01*
X48859034Y-124328508D01*
X47776019Y-125230981D01*
X47767469Y-125233645D01*
X47760261Y-125230271D01*
X46992806Y-124463801D01*
X46989374Y-124455531D01*
X46989408Y-124454635D01*
X46999010Y-124328508D01*
X47070703Y-123386716D01*
X47074748Y-123378728D01*
X47082032Y-123375911D01*
X48851212Y-123325343D01*
X48859577Y-123328532D01*
G37*
G04 #@! TD.AperFunction*
G04 #@! TA.AperFunction,Conductor*
G36*
X187232252Y-60023541D02*
G01*
X187248939Y-60030431D01*
X187956212Y-60322437D01*
X187962551Y-60328762D01*
X187962562Y-60328787D01*
X188261456Y-61052743D01*
X188261445Y-61061698D01*
X188255106Y-61068023D01*
X188254568Y-61068229D01*
X186923987Y-61542275D01*
X186915043Y-61541824D01*
X186911787Y-61539527D01*
X186745472Y-61373212D01*
X186742045Y-61364939D01*
X186742722Y-61361018D01*
X187216771Y-60030428D01*
X187222774Y-60023788D01*
X187231718Y-60023337D01*
X187232252Y-60023541D01*
G37*
G04 #@! TD.AperFunction*
G04 #@! TA.AperFunction,Conductor*
G36*
X209120323Y-82014594D02*
G01*
X209152346Y-82027893D01*
X209158673Y-82034231D01*
X209158664Y-82043185D01*
X209158349Y-82043880D01*
X208368220Y-83643482D01*
X208361484Y-83649382D01*
X208357730Y-83650000D01*
X208122270Y-83650000D01*
X208113997Y-83646573D01*
X208111780Y-83643482D01*
X207321649Y-82043878D01*
X207321058Y-82034944D01*
X207326958Y-82028208D01*
X207327642Y-82027897D01*
X208235514Y-81650862D01*
X208244464Y-81650854D01*
X209120323Y-82014594D01*
G37*
G04 #@! TD.AperFunction*
G04 #@! TA.AperFunction,Conductor*
G36*
X92176698Y-60023554D02*
G01*
X92183023Y-60029893D01*
X92183227Y-60030426D01*
X92551495Y-61064104D01*
X92657275Y-61361012D01*
X92656824Y-61369956D01*
X92654527Y-61373212D01*
X92488212Y-61539527D01*
X92479939Y-61542954D01*
X92476013Y-61542275D01*
X91145430Y-61068228D01*
X91138788Y-61062225D01*
X91138337Y-61053281D01*
X91138536Y-61052760D01*
X91437438Y-60328785D01*
X91443762Y-60322448D01*
X91443764Y-60322446D01*
X92167744Y-60023543D01*
X92176698Y-60023554D01*
G37*
G04 #@! TD.AperFunction*
G04 #@! TA.AperFunction,Conductor*
G36*
X199623982Y-113082723D02*
G01*
X200954569Y-113556771D01*
X200961211Y-113562774D01*
X200961662Y-113571718D01*
X200961456Y-113572256D01*
X200662562Y-114296212D01*
X200656237Y-114302551D01*
X200656212Y-114302562D01*
X199932256Y-114601456D01*
X199923301Y-114601445D01*
X199916976Y-114595106D01*
X199916780Y-114594596D01*
X199442724Y-113263984D01*
X199443175Y-113255043D01*
X199445469Y-113251790D01*
X199611788Y-113085471D01*
X199620060Y-113082045D01*
X199623982Y-113082723D01*
G37*
G04 #@! TD.AperFunction*
G04 #@! TA.AperFunction,Conductor*
G36*
X64381291Y-81272094D02*
G01*
X64387618Y-81278432D01*
X64387886Y-81279145D01*
X64960269Y-82968939D01*
X64959677Y-82977875D01*
X64957460Y-82980966D01*
X64790966Y-83147460D01*
X64782693Y-83150887D01*
X64778939Y-83150269D01*
X63089145Y-82577886D01*
X63082409Y-82571986D01*
X63081817Y-82563050D01*
X63082077Y-82562357D01*
X63457438Y-81653782D01*
X63463764Y-81647446D01*
X63463767Y-81647444D01*
X64372338Y-81272085D01*
X64381291Y-81272094D01*
G37*
G04 #@! TD.AperFunction*
G04 #@! TA.AperFunction,Conductor*
G36*
X160901291Y-81272094D02*
G01*
X160907618Y-81278432D01*
X160907886Y-81279145D01*
X161480269Y-82968939D01*
X161479677Y-82977875D01*
X161477460Y-82980966D01*
X161310966Y-83147460D01*
X161302693Y-83150887D01*
X161298939Y-83150269D01*
X159609145Y-82577886D01*
X159602409Y-82571986D01*
X159601817Y-82563050D01*
X159602077Y-82562357D01*
X159977438Y-81653782D01*
X159983764Y-81647446D01*
X159983767Y-81647444D01*
X160892338Y-81272085D01*
X160901291Y-81272094D01*
G37*
G04 #@! TD.AperFunction*
G04 #@! TA.AperFunction,Conductor*
G36*
X231051932Y-45187340D02*
G01*
X232127606Y-46003082D01*
X232132127Y-46010811D01*
X232129858Y-46019474D01*
X232128809Y-46020677D01*
X231435831Y-46713655D01*
X231427558Y-46717082D01*
X231424810Y-46716755D01*
X230226674Y-46427205D01*
X230219437Y-46421930D01*
X230218049Y-46413084D01*
X230218604Y-46411376D01*
X230503399Y-45721456D01*
X230505952Y-45717638D01*
X231036602Y-45188378D01*
X231044878Y-45184963D01*
X231051932Y-45187340D01*
G37*
G04 #@! TD.AperFunction*
G04 #@! TA.AperFunction,Conductor*
G36*
X154003335Y-114206719D02*
G01*
X154003569Y-114207246D01*
X154304134Y-114930510D01*
X154304144Y-114939463D01*
X154304135Y-114939485D01*
X154304134Y-114939490D01*
X154003569Y-115662753D01*
X153997230Y-115669078D01*
X153988275Y-115669067D01*
X153987748Y-115668833D01*
X152711683Y-115063171D01*
X152705679Y-115056528D01*
X152705000Y-115052601D01*
X152705000Y-114817398D01*
X152708427Y-114809125D01*
X152711683Y-114806828D01*
X153987749Y-114201165D01*
X153996692Y-114200715D01*
X154003335Y-114206719D01*
G37*
G04 #@! TD.AperFunction*
G04 #@! TA.AperFunction,Conductor*
G36*
X234590909Y-116691232D02*
G01*
X234733763Y-116750018D01*
X234946195Y-116837436D01*
X234952542Y-116843754D01*
X234952563Y-116843804D01*
X235098767Y-117199090D01*
X235098746Y-117208044D01*
X235092760Y-117214206D01*
X234480071Y-117490747D01*
X234471121Y-117491027D01*
X234466985Y-117488356D01*
X234301643Y-117323014D01*
X234298216Y-117314741D01*
X234299252Y-117309928D01*
X234345238Y-117208044D01*
X234575794Y-116697238D01*
X234582320Y-116691108D01*
X234590909Y-116691232D01*
G37*
G04 #@! TD.AperFunction*
G04 #@! TA.AperFunction,Conductor*
G36*
X64787875Y-94650322D02*
G01*
X64790966Y-94652539D01*
X64957460Y-94819033D01*
X64960887Y-94827306D01*
X64960269Y-94831060D01*
X64387886Y-96520854D01*
X64381986Y-96527590D01*
X64373050Y-96528182D01*
X64372337Y-96527914D01*
X63463784Y-96152562D01*
X63457446Y-96146235D01*
X63457437Y-96146215D01*
X63082085Y-95237662D01*
X63082094Y-95228708D01*
X63088432Y-95222381D01*
X63089131Y-95222118D01*
X64778940Y-94649730D01*
X64787875Y-94650322D01*
G37*
G04 #@! TD.AperFunction*
G04 #@! TA.AperFunction,Conductor*
G36*
X113659367Y-95757297D02*
G01*
X113666090Y-95763211D01*
X113667288Y-95768369D01*
X113667288Y-96003823D01*
X113663861Y-96012096D01*
X113662187Y-96013484D01*
X112435112Y-96851638D01*
X112426348Y-96853475D01*
X112420246Y-96850256D01*
X111724541Y-96155533D01*
X111721108Y-96147262D01*
X111722002Y-96142770D01*
X112098478Y-95236244D01*
X112104815Y-95229919D01*
X112113057Y-95229660D01*
X113659367Y-95757297D01*
G37*
G04 #@! TD.AperFunction*
G04 #@! TA.AperFunction,Conductor*
G36*
X128812252Y-100663541D02*
G01*
X128828939Y-100670431D01*
X129536212Y-100962437D01*
X129542551Y-100968762D01*
X129542562Y-100968787D01*
X129841456Y-101692743D01*
X129841445Y-101701698D01*
X129835106Y-101708023D01*
X129834568Y-101708229D01*
X128503987Y-102182275D01*
X128495043Y-102181824D01*
X128491787Y-102179527D01*
X128325472Y-102013212D01*
X128322045Y-102004939D01*
X128322722Y-102001018D01*
X128796771Y-100670428D01*
X128802774Y-100663788D01*
X128811718Y-100663337D01*
X128812252Y-100663541D01*
G37*
G04 #@! TD.AperFunction*
G04 #@! TA.AperFunction,Conductor*
G36*
X113708719Y-123325341D02*
G01*
X115477965Y-123375911D01*
X115486135Y-123379572D01*
X115489295Y-123386717D01*
X115570591Y-124454635D01*
X115567802Y-124463144D01*
X115567193Y-124463801D01*
X114799738Y-125230271D01*
X114791462Y-125233693D01*
X114783980Y-125230981D01*
X113700966Y-124328508D01*
X113696804Y-124320580D01*
X113696756Y-124319520D01*
X113696756Y-123337038D01*
X113700183Y-123328765D01*
X113708456Y-123325338D01*
X113708719Y-123325341D01*
G37*
G04 #@! TD.AperFunction*
G04 #@! TA.AperFunction,Conductor*
G36*
X217993746Y-44723868D02*
G01*
X217998904Y-44729413D01*
X218438872Y-45715232D01*
X218439115Y-45724183D01*
X218438872Y-45724768D01*
X217998904Y-46710586D01*
X217992403Y-46716745D01*
X217984836Y-46717018D01*
X216348316Y-46222512D01*
X216341387Y-46216838D01*
X216340000Y-46211312D01*
X216340000Y-45228687D01*
X216343427Y-45220414D01*
X216348315Y-45217487D01*
X217984837Y-44722981D01*
X217993746Y-44723868D01*
G37*
G04 #@! TD.AperFunction*
G04 #@! TA.AperFunction,Conductor*
G36*
X137896698Y-113363554D02*
G01*
X137903023Y-113369893D01*
X137903227Y-113370426D01*
X138271495Y-114404104D01*
X138377275Y-114701012D01*
X138376824Y-114709956D01*
X138374527Y-114713212D01*
X138208212Y-114879527D01*
X138199939Y-114882954D01*
X138196013Y-114882275D01*
X136865430Y-114408228D01*
X136858788Y-114402225D01*
X136858337Y-114393281D01*
X136858536Y-114392760D01*
X137157438Y-113668785D01*
X137163762Y-113662448D01*
X137163764Y-113662446D01*
X137887744Y-113363543D01*
X137896698Y-113363554D01*
G37*
G04 #@! TD.AperFunction*
G04 #@! TA.AperFunction,Conductor*
G36*
X60080546Y-94357470D02*
G01*
X60084129Y-94359916D01*
X60250083Y-94525870D01*
X60253510Y-94534143D01*
X60252706Y-94538406D01*
X59464344Y-96553110D01*
X59458138Y-96559566D01*
X59449185Y-96559743D01*
X59448980Y-96559660D01*
X58463782Y-96152562D01*
X58457446Y-96146238D01*
X58050339Y-95161018D01*
X58050346Y-95152064D01*
X58056684Y-95145738D01*
X58056863Y-95145665D01*
X60071593Y-94357293D01*
X60080546Y-94357470D01*
G37*
G04 #@! TD.AperFunction*
G04 #@! TA.AperFunction,Conductor*
G36*
X141648719Y-123325341D02*
G01*
X143417965Y-123375911D01*
X143426135Y-123379572D01*
X143429295Y-123386717D01*
X143510591Y-124454635D01*
X143507802Y-124463144D01*
X143507193Y-124463801D01*
X142739738Y-125230271D01*
X142731462Y-125233693D01*
X142723980Y-125230981D01*
X141640966Y-124328508D01*
X141636804Y-124320580D01*
X141636756Y-124319520D01*
X141636756Y-123337038D01*
X141640183Y-123328765D01*
X141648456Y-123325338D01*
X141648719Y-123325341D01*
G37*
G04 #@! TD.AperFunction*
G04 #@! TA.AperFunction,Conductor*
G36*
X232911299Y-129448427D02*
G01*
X232913318Y-129451135D01*
X233446718Y-130437491D01*
X233447639Y-130446398D01*
X233444867Y-130451158D01*
X232498273Y-131437380D01*
X232490072Y-131440976D01*
X232481730Y-131437719D01*
X232481555Y-131437547D01*
X231495550Y-130450556D01*
X231492128Y-130442282D01*
X231493040Y-130437761D01*
X231906989Y-129452168D01*
X231913352Y-129445869D01*
X231917776Y-129445000D01*
X232903026Y-129445000D01*
X232911299Y-129448427D01*
G37*
G04 #@! TD.AperFunction*
G04 #@! TA.AperFunction,Conductor*
G36*
X240043816Y-74132560D02*
G01*
X241176221Y-74342440D01*
X241182360Y-74345670D01*
X241874340Y-75037650D01*
X241877767Y-75045923D01*
X241874340Y-75054196D01*
X241870404Y-75056790D01*
X240346860Y-75664828D01*
X240337906Y-75664711D01*
X240331720Y-75658452D01*
X240030190Y-74932867D01*
X240029295Y-74928368D01*
X240029987Y-74144053D01*
X240033421Y-74135785D01*
X240041697Y-74132365D01*
X240043816Y-74132560D01*
G37*
G04 #@! TD.AperFunction*
G04 #@! TA.AperFunction,Conductor*
G36*
X172953982Y-113717723D02*
G01*
X174284569Y-114191771D01*
X174291211Y-114197774D01*
X174291662Y-114206718D01*
X174291456Y-114207256D01*
X173992562Y-114931212D01*
X173986237Y-114937551D01*
X173986212Y-114937562D01*
X173262256Y-115236456D01*
X173253301Y-115236445D01*
X173246976Y-115230106D01*
X173246780Y-115229596D01*
X172772724Y-113898984D01*
X172773175Y-113890043D01*
X172775469Y-113886790D01*
X172941788Y-113720471D01*
X172950060Y-113717045D01*
X172953982Y-113717723D01*
G37*
G04 #@! TD.AperFunction*
G04 #@! TA.AperFunction,Conductor*
G36*
X137476675Y-72291049D02*
G01*
X137477289Y-72291326D01*
X138750442Y-72911796D01*
X138756377Y-72918500D01*
X138757016Y-72922313D01*
X138757016Y-73157531D01*
X138753589Y-73165804D01*
X138750241Y-73168144D01*
X137477199Y-73758974D01*
X137468252Y-73759348D01*
X137461661Y-73753286D01*
X137461481Y-73752877D01*
X137160864Y-73029487D01*
X137160854Y-73020538D01*
X137461382Y-72297361D01*
X137467720Y-72291038D01*
X137476675Y-72291049D01*
G37*
G04 #@! TD.AperFunction*
M02*
